M48
INCH,TZ
T1C0.0157
T2C0.0394
T3C0.0430
T4C0.0590
T5C0.0984
%
G90
G05
T1
X1.9636Y-3.8337
X2.3376Y-3.7402
X2.3376Y-3.8337
X3.9272Y-3.7402
X3.9272Y-3.8337
X5.3297Y-1.4026
X5.5167Y-3.7402
X5.5167Y-3.8337
X5.7505Y-1.5428
X6.8725Y-2.2908
X7.0128Y-2.3376
X7.0128Y-3.7402
X7.0128Y-3.8337
X7.1531Y-1.6831
X7.1998Y-1.4493
X7.1998Y-1.5428
X7.1998Y-2.1973
X7.4336Y-2.1973
X7.6673Y-1.122
X7.9011Y-1.4961
X7.9348Y-2.4181
X7.9946Y-3.0054
X8.0881Y-1.4961
X8.0881Y-1.4961
X8.1348Y-2.2574
X8.4154Y-3.5664
X8.5556Y-1.2623
X8.5556Y-1.9168
X8.7894Y-1.5428
X8.8361Y-2.4311
X8.9296Y-2.1506
X8.9296Y-2.3066
X8.9296Y-3.4596
X8.9829Y-1.3558
X9.0699Y-1.4493
X9.0699Y-1.6363
X9.1166Y-1.5428
X9.2569Y-3.7402
X9.2569Y-3.8337
X10.753Y-3.7402
X10.753Y-3.8337
X12.249Y-3.8337
X13.6983Y-3.6934
X13.6983Y-3.8337
T2
X10.0049Y-1.9503
X10.0049Y-2.2574
X4.7687Y-1.2023
X4.7687Y-1.5094
X10.753Y-1.9503
X10.753Y-2.2574
X2.3844Y-2.6983
X2.3844Y-3.0054
X12.2958Y-2.6983
X12.2958Y-3.0054
X6.3115Y-1.2023
X6.3115Y-1.5094
X10.0049Y-1.2023
X10.0049Y-1.5094
X2.3844Y-3.2594
X2.3844Y-3.5664
X10.0049Y-3.2594
X10.0049Y-3.5664
X3.0856Y-1.2023
X3.0856Y-1.5094
X12.2023Y-2.6983
X12.2023Y-3.0054
X9.2101Y-1.9503
X9.2101Y-2.2574
X13.1841Y-1.2023
X13.1841Y-1.5094
X3.0856Y-2.6983
X3.0856Y-3.0054
X10.753Y-1.2023
X10.753Y-1.5094
X9.3036Y-1.9503
X9.3036Y-2.2574
X13.1841Y-2.6983
X13.1841Y-3.0054
X13.9321Y-1.9503
X13.9321Y-2.2574
X8.5089Y-2.6983
X8.5089Y-3.0054
X4.0207Y-2.6983
X4.0207Y-3.0054
X4.7687Y-1.9503
X4.7687Y-2.2574
X2.2908Y-1.2023
X2.2908Y-1.5094
X6.2648Y-3.2594
X6.2648Y-3.5664
X6.2648Y-1.9503
X6.2648Y-2.2574
X13.9321Y-3.3529
X13.9321Y-3.6599
X3.0856Y-3.2594
X3.0856Y-3.5664
X2.3844Y-1.9503
X2.3844Y-2.2574
X11.501Y-3.2594
X11.501Y-3.5664
X6.218Y-2.6983
X6.218Y-3.0054
X7.7608Y-2.6983
X7.7608Y-3.0054
X12.249Y-1.9503
X12.249Y-2.2574
X7.0128Y-2.6983
X7.0128Y-3.0054
X13.9321Y-1.2023
X13.9321Y-1.5094
X9.3036Y-1.2023
X9.3036Y-1.5094
X12.2958Y-1.2023
X12.2958Y-1.5094
X7.0595Y-1.2023
X7.0595Y-1.5094
X10.753Y-3.2594
X10.753Y-3.5664
X9.2569Y-2.6983
X9.2569Y-3.0054
X5.5167Y-1.9503
X5.5167Y-2.2574
X8.5089Y-3.2594
X8.5089Y-3.5664
X3.0856Y-1.9503
X3.0856Y-2.2574
X2.2908Y-2.6983
X2.2908Y-3.0054
X2.2908Y-3.2594
X2.2908Y-3.5664
X4.7687Y-2.6983
X4.7687Y-3.0054
X2.2908Y-1.9503
X2.2908Y-2.2574
X10.Y-2.6983
X10.Y-3.0054
X4.0207Y-1.2023
X4.0207Y-1.5094
X2.3844Y-1.2023
X2.3844Y-1.5094
X6.966Y-1.9503
X6.966Y-2.2574
X10.748Y-2.6983
X10.748Y-3.0054
X6.218Y-1.2023
X6.218Y-1.5094
X7.0595Y-1.9503
X7.0595Y-2.2574
X6.966Y-1.2023
X6.966Y-1.5094
X12.2023Y-1.2023
X12.2023Y-1.5094
X9.2101Y-1.2023
X9.2101Y-1.5094
X11.501Y-1.9503
X11.501Y-2.2574
X7.0128Y-3.2594
X7.0128Y-3.5664
X6.3115Y-2.6983
X6.3115Y-3.0054
X13.1841Y-3.3529
X13.1841Y-3.6599
X13.1841Y-1.9503
X13.1841Y-2.2574
X5.5167Y-3.2594
X5.5167Y-3.5664
X4.0207Y-1.9503
X4.0207Y-2.2574
X4.0207Y-3.2594
X4.0207Y-3.5664
X12.436Y-3.3529
X12.436Y-3.6599
X4.7687Y-3.2594
X4.7687Y-3.5664
T3
X7.8258Y-0.9461
X7.8258Y-1.1461
X7.8258Y-1.3461
X7.8258Y-1.5461
X7.8258Y-1.7461
X7.8258Y-1.9461
X7.8438Y-1.0461
X7.8438Y-1.2461
X7.8438Y-1.4461
X7.8438Y-1.6461
X7.8438Y-1.8461
X7.8438Y-2.0461
X7.9348Y-2.0551
X8.0348Y-2.0371
X8.1348Y-2.0551
X8.2348Y-2.0371
X8.3348Y-2.0551
X8.4258Y-1.0461
X8.4258Y-1.2461
X8.4258Y-1.4461
X8.4258Y-1.6461
X8.4258Y-1.8461
X8.4258Y-2.0461
X8.4438Y-0.9461
X8.4438Y-1.1461
X8.4438Y-1.3461
X8.4438Y-1.5461
X8.4438Y-1.7461
X8.4438Y-1.9461
T4
X10.2289Y-2.5181
X10.4789Y-2.4181
X4.9927Y-1.022
X5.2427Y-0.922
X13.4081Y-2.7051
X13.6581Y-2.6051
X7.9848Y-1.022
X8.2348Y-0.922
X5.7407Y-1.022
X5.9907Y-0.922
X11.725Y-1.7701
X11.975Y-1.6701
X5.7407Y-2.5181
X5.9907Y-2.4181
X13.4081Y-3.4531
X13.6581Y-3.3531
X6.4888Y-1.7701
X6.7388Y-1.6701
X13.4081Y-1.7701
X13.6581Y-1.6701
X7.6108Y-3.2661
X7.8608Y-3.1661
X10.977Y-2.5181
X11.227Y-2.4181
X5.7407Y-3.2661
X5.9907Y-3.1661
X1.8136Y-1.7701
X2.0636Y-1.6701
X1.8136Y-3.2661
X2.0636Y-3.1661
X2.5616Y-2.5181
X2.8116Y-2.4181
X9.4809Y-1.022
X9.7309Y-0.922
X3.3096Y-2.5181
X3.5596Y-2.4181
X9.1069Y-3.2661
X9.3569Y-3.1661
X4.2447Y-2.5181
X4.4947Y-2.4181
X11.725Y-3.2661
X11.975Y-3.1661
X8.7329Y-1.7701
X8.9829Y-1.6701
X4.9927Y-1.7701
X5.2427Y-1.6701
X14.1561Y-1.7701
X14.4061Y-1.6701
X8.7329Y-2.5181
X8.9829Y-2.4181
X5.7407Y-1.7701
X5.9907Y-1.6701
X12.473Y-1.022
X12.723Y-0.922
X4.2447Y-1.7701
X4.4947Y-1.6701
X14.1561Y-1.022
X14.4061Y-0.922
X7.2368Y-2.5181
X7.4868Y-2.4181
X2.5616Y-1.7701
X2.8116Y-1.6701
X14.1561Y-3.4531
X14.4061Y-3.3531
X2.5616Y-3.2661
X2.8116Y-3.1661
X6.4888Y-1.022
X6.7388Y-0.922
X1.8136Y-1.022
X2.0636Y-0.922
X12.473Y-1.7701
X12.723Y-1.6701
X6.4888Y-2.5181
X6.7388Y-2.4181
X10.2289Y-3.2661
X10.4789Y-3.1661
X1.8136Y-2.5181
X2.0636Y-2.4181
X7.9848Y-1.7701
X8.2348Y-1.6701
X10.977Y-1.022
X11.227Y-0.922
X9.4809Y-2.5181
X9.7309Y-2.4181
X3.3096Y-3.2661
X3.5596Y-3.1661
X10.2289Y-1.7701
X10.4789Y-1.6701
X4.2447Y-3.2661
X4.4947Y-3.1661
X10.977Y-1.7701
X11.227Y-1.6701
X10.2289Y-1.022
X10.4789Y-0.922
X4.9927Y-2.5181
X5.2427Y-2.4181
X11.725Y-1.022
X11.975Y-0.922
X9.4809Y-1.7701
X9.7309Y-1.6701
X4.9927Y-3.2661
X5.2427Y-3.1661
X12.473Y-2.5181
X12.723Y-2.4181
X7.2368Y-1.022
X7.4868Y-0.922
X7.2368Y-1.7701
X7.4868Y-1.6701
X12.66Y-3.4531
X12.91Y-3.3531
X3.3096Y-1.7701
X3.5596Y-1.6701
X6.4888Y-3.2661
X6.7388Y-3.1661
X11.725Y-2.5181
X11.975Y-2.4181
X10.977Y-3.2661
X11.227Y-3.1661
X2.5616Y-1.022
X2.8116Y-0.922
X13.4081Y-1.022
X13.6581Y-0.922
X7.9848Y-2.5181
X8.2348Y-2.4181
X3.3096Y-1.022
X3.5596Y-0.922
X8.7329Y-1.022
X8.9829Y-0.922
X4.2447Y-1.022
X4.4947Y-0.922
T5
X1.7352Y-1.4961G85X1.8179Y-1.4961
G05
X14.4518Y-1.4961G85X14.5344Y-1.4961
G05
X5.4754Y-2.9921G85X5.5581Y-2.9921
G05
X11.4596Y-1.4961G85X11.5423Y-1.4961
G05
X11.4596Y-2.9921G85X11.5423Y-2.9921
G05
X14.4518Y-2.9921G85X14.5344Y-2.9921
G05
X1.7352Y-2.9921G85X1.8179Y-2.9921
G05
X5.4754Y-1.4961G85X5.5581Y-1.4961
G05
T0
M30
