M48
INCH,TZ
T1C0.0709
T2C0.1200
T3C0.1570
%
G90
G05
T1
X7.1868Y-1.8701
X7.5868Y-1.8701
X11.675Y-3.3661
X12.075Y-3.3661
X5.6907Y-1.122
X6.0907Y-1.122
X14.1061Y-1.122
X14.5061Y-1.122
X1.7636Y-1.8701
X2.1636Y-1.8701
X4.9427Y-1.122
X5.3427Y-1.122
X2.5116Y-1.8701
X2.9116Y-1.8701
X6.4388Y-1.122
X6.8388Y-1.122
X4.1947Y-1.8701
X4.5947Y-1.8701
X10.1789Y-1.8701
X10.5789Y-1.8701
X7.1868Y-1.122
X7.5868Y-1.122
X2.5116Y-3.3661
X2.9116Y-3.3661
X8.6829Y-1.8701
X9.0829Y-1.8701
X14.1061Y-3.5531
X14.5061Y-3.5531
X2.5116Y-2.6181
X2.9116Y-2.6181
X10.927Y-2.6181
X11.327Y-2.6181
X13.3581Y-1.122
X13.7581Y-1.122
X8.6829Y-2.6181
X9.0829Y-2.6181
X1.7636Y-3.3661
X2.1636Y-3.3661
X10.927Y-1.8701
X11.327Y-1.8701
X12.423Y-1.8701
X12.823Y-1.8701
X6.4388Y-3.3661
X6.8388Y-3.3661
X7.9348Y-2.6181
X8.3348Y-2.6181
X13.3581Y-3.5531
X13.7581Y-3.5531
X3.2596Y-1.122
X3.6596Y-1.122
X4.1947Y-2.6181
X4.5947Y-2.6181
X6.4388Y-1.8701
X6.8388Y-1.8701
X3.2596Y-1.8701
X3.6596Y-1.8701
X4.9427Y-1.8701
X5.3427Y-1.8701
X4.1947Y-1.122
X4.5947Y-1.122
X8.6829Y-1.122
X9.0829Y-1.122
X5.6907Y-2.6181
X6.0907Y-2.6181
X12.61Y-3.5531
X13.01Y-3.5531
X7.9348Y-1.122
X8.3348Y-1.122
X7.1868Y-2.6181
X7.5868Y-2.6181
X9.0569Y-3.3661
X9.4569Y-3.3661
X11.675Y-1.122
X12.075Y-1.122
X9.4309Y-2.6181
X9.8309Y-2.6181
X12.423Y-1.122
X12.823Y-1.122
X10.1789Y-2.6181
X10.5789Y-2.6181
X11.675Y-2.6181
X12.075Y-2.6181
X4.1947Y-3.3661
X4.5947Y-3.3661
X9.4309Y-1.8701
X9.8309Y-1.8701
X11.675Y-1.8701
X12.075Y-1.8701
X4.9427Y-2.6181
X5.3427Y-2.6181
X13.3581Y-2.8051
X13.7581Y-2.8051
X3.2596Y-2.6181
X3.6596Y-2.6181
X7.5608Y-3.3661
X7.9608Y-3.3661
X13.3581Y-1.8701
X13.7581Y-1.8701
X1.7636Y-1.122
X2.1636Y-1.122
X5.6907Y-3.3661
X6.0907Y-3.3661
X3.2596Y-3.3661
X3.6596Y-3.3661
X4.9427Y-3.3661
X5.3427Y-3.3661
X1.7636Y-2.6181
X2.1636Y-2.6181
X10.1789Y-1.122
X10.5789Y-1.122
X6.4388Y-2.6181
X6.8388Y-2.6181
X2.5116Y-1.122
X2.9116Y-1.122
X7.9348Y-1.8701
X8.3348Y-1.8701
X9.4309Y-1.122
X9.8309Y-1.122
X12.423Y-2.6181
X12.823Y-2.6181
X10.927Y-3.3661
X11.327Y-3.3661
X10.927Y-1.122
X11.327Y-1.122
X5.6907Y-1.8701
X6.0907Y-1.8701
X10.1789Y-3.3661
X10.5789Y-3.3661
X14.1061Y-1.8701
X14.5061Y-1.8701
T2
X8.7869Y-3.0911
X9.7269Y-3.0911
X7.2908Y-3.0911
X8.2308Y-3.0911
T3
X5.8907Y-1.8701
X10.3789Y-3.3661
X14.3061Y-1.8701
X7.3868Y-1.8701
X11.875Y-3.3661
X5.8907Y-1.122
X14.3061Y-1.122
X1.9636Y-1.8701
X5.1427Y-1.122
X2.7116Y-1.8701
X6.6388Y-1.122
X4.3947Y-1.8701
X10.3789Y-1.8701
X7.3868Y-1.122
X2.7116Y-3.3661
X8.8829Y-1.8701
X14.3061Y-3.5531
X2.7116Y-2.6181
X11.127Y-2.6181
X13.5581Y-1.122
X8.8829Y-2.6181
X1.9636Y-3.3661
X11.127Y-1.8701
X12.623Y-1.8701
X6.6388Y-3.3661
X8.1348Y-2.6181
X13.5581Y-3.5531
X3.4596Y-1.122
X4.3947Y-2.6181
X6.6388Y-1.8701
X3.4596Y-1.8701
X5.1427Y-1.8701
X4.3947Y-1.122
X8.8829Y-1.122
X5.8907Y-2.6181
X12.81Y-3.5531
X8.1348Y-1.122
X7.3868Y-2.6181
X8.7869Y-3.6911
X9.2569Y-3.3661
X9.7269Y-3.6911
X11.875Y-1.122
X9.6309Y-2.6181
X12.623Y-1.122
X10.3789Y-2.6181
X11.875Y-2.6181
X4.3947Y-3.3661
X9.6309Y-1.8701
X11.875Y-1.8701
X5.1427Y-2.6181
X13.5581Y-2.8051
X3.4596Y-2.6181
X7.2908Y-3.6911
X7.7608Y-3.3661
X8.2308Y-3.6911
X13.5581Y-1.8701
X1.9636Y-1.122
X5.8907Y-3.3661
X3.4596Y-3.3661
X5.1427Y-3.3661
X1.9636Y-2.6181
X10.3789Y-1.122
X6.6388Y-2.6181
X2.7116Y-1.122
X8.1348Y-1.8701
X9.6309Y-1.122
X12.623Y-2.6181
X11.127Y-3.3661
X11.127Y-1.122
T0
M30
