G04 #@! TF.GenerationSoftware,KiCad,Pcbnew,(6.0.0-rc1-dev-577-ge0316af69)*
G04 #@! TF.CreationDate,2019-06-10T21:21:03-05:00*
G04 #@! TF.ProjectId,OrthonautSouthpaw,4F7274686F6E617574536F7574687061,v1*
G04 #@! TF.SameCoordinates,Original*
G04 #@! TF.FileFunction,Legend,Bot*
G04 #@! TF.FilePolarity,Positive*
%FSLAX46Y46*%
G04 Gerber Fmt 4.6, Leading zero omitted, Abs format (unit mm)*
G04 Created by KiCad (PCBNEW (6.0.0-rc1-dev-577-ge0316af69)) date 06/10/19 21:21:03*
%MOMM*%
%LPD*%
G01*
G04 APERTURE LIST*
%ADD10C,0.150000*%
%ADD11C,0.381000*%
G04 APERTURE END LIST*
D10*
G04 #@! TO.C,D68*
X237625000Y-96987500D02*
X237625000Y-95387500D01*
X232625000Y-96887500D02*
X232625000Y-95387500D01*
X233825000Y-98687500D02*
X236425000Y-98687500D01*
X236425000Y-93687500D02*
X233825000Y-93687500D01*
X233925000Y-98187500D02*
X233925000Y-98287500D01*
X234025000Y-98187500D02*
X233925000Y-98187500D01*
X234025000Y-98287500D02*
X234025000Y-98187500D01*
X233925000Y-98287500D02*
X234025000Y-98287500D01*
G04 #@! TO.C,D1*
X58949500Y-36215500D02*
X57425500Y-36215500D01*
X58949500Y-36342500D02*
X57425500Y-36342500D01*
X57425500Y-36469500D02*
X58949500Y-36469500D01*
X58949500Y-36850500D02*
X57425500Y-36850500D01*
X57425500Y-36723500D02*
X58949500Y-36723500D01*
X58949500Y-36596500D02*
X57425500Y-36596500D01*
X58949500Y-31897500D02*
X58949500Y-32405500D01*
X57425500Y-31897500D02*
X58949500Y-31897500D01*
X57425500Y-36977500D02*
X57425500Y-31897500D01*
X58949500Y-36977500D02*
X57425500Y-36977500D01*
X58949500Y-31897500D02*
X58949500Y-36977500D01*
G04 #@! TO.C,D2*
X58949500Y-55215500D02*
X57425500Y-55215500D01*
X58949500Y-55342500D02*
X57425500Y-55342500D01*
X57425500Y-55469500D02*
X58949500Y-55469500D01*
X58949500Y-55850500D02*
X57425500Y-55850500D01*
X57425500Y-55723500D02*
X58949500Y-55723500D01*
X58949500Y-55596500D02*
X57425500Y-55596500D01*
X58949500Y-50897500D02*
X58949500Y-51405500D01*
X57425500Y-50897500D02*
X58949500Y-50897500D01*
X57425500Y-55977500D02*
X57425500Y-50897500D01*
X58949500Y-55977500D02*
X57425500Y-55977500D01*
X58949500Y-50897500D02*
X58949500Y-55977500D01*
G04 #@! TO.C,D3*
X58949500Y-74215500D02*
X57425500Y-74215500D01*
X58949500Y-74342500D02*
X57425500Y-74342500D01*
X57425500Y-74469500D02*
X58949500Y-74469500D01*
X58949500Y-74850500D02*
X57425500Y-74850500D01*
X57425500Y-74723500D02*
X58949500Y-74723500D01*
X58949500Y-74596500D02*
X57425500Y-74596500D01*
X58949500Y-69897500D02*
X58949500Y-70405500D01*
X57425500Y-69897500D02*
X58949500Y-69897500D01*
X57425500Y-74977500D02*
X57425500Y-69897500D01*
X58949500Y-74977500D02*
X57425500Y-74977500D01*
X58949500Y-69897500D02*
X58949500Y-74977500D01*
G04 #@! TO.C,D5*
X61324500Y-36215500D02*
X59800500Y-36215500D01*
X61324500Y-36342500D02*
X59800500Y-36342500D01*
X59800500Y-36469500D02*
X61324500Y-36469500D01*
X61324500Y-36850500D02*
X59800500Y-36850500D01*
X59800500Y-36723500D02*
X61324500Y-36723500D01*
X61324500Y-36596500D02*
X59800500Y-36596500D01*
X61324500Y-31897500D02*
X61324500Y-32405500D01*
X59800500Y-31897500D02*
X61324500Y-31897500D01*
X59800500Y-36977500D02*
X59800500Y-31897500D01*
X61324500Y-36977500D02*
X59800500Y-36977500D01*
X61324500Y-31897500D02*
X61324500Y-36977500D01*
G04 #@! TO.C,D6*
X61324500Y-55215500D02*
X59800500Y-55215500D01*
X61324500Y-55342500D02*
X59800500Y-55342500D01*
X59800500Y-55469500D02*
X61324500Y-55469500D01*
X61324500Y-55850500D02*
X59800500Y-55850500D01*
X59800500Y-55723500D02*
X61324500Y-55723500D01*
X61324500Y-55596500D02*
X59800500Y-55596500D01*
X61324500Y-50897500D02*
X61324500Y-51405500D01*
X59800500Y-50897500D02*
X61324500Y-50897500D01*
X59800500Y-55977500D02*
X59800500Y-50897500D01*
X61324500Y-55977500D02*
X59800500Y-55977500D01*
X61324500Y-50897500D02*
X61324500Y-55977500D01*
G04 #@! TO.C,D7*
X61324500Y-74215500D02*
X59800500Y-74215500D01*
X61324500Y-74342500D02*
X59800500Y-74342500D01*
X59800500Y-74469500D02*
X61324500Y-74469500D01*
X61324500Y-74850500D02*
X59800500Y-74850500D01*
X59800500Y-74723500D02*
X61324500Y-74723500D01*
X61324500Y-74596500D02*
X59800500Y-74596500D01*
X61324500Y-69897500D02*
X61324500Y-70405500D01*
X59800500Y-69897500D02*
X61324500Y-69897500D01*
X59800500Y-74977500D02*
X59800500Y-69897500D01*
X61324500Y-74977500D02*
X59800500Y-74977500D01*
X61324500Y-69897500D02*
X61324500Y-74977500D01*
G04 #@! TO.C,D8*
X61324500Y-88465500D02*
X59800500Y-88465500D01*
X61324500Y-88592500D02*
X59800500Y-88592500D01*
X59800500Y-88719500D02*
X61324500Y-88719500D01*
X61324500Y-89100500D02*
X59800500Y-89100500D01*
X59800500Y-88973500D02*
X61324500Y-88973500D01*
X61324500Y-88846500D02*
X59800500Y-88846500D01*
X61324500Y-84147500D02*
X61324500Y-84655500D01*
X59800500Y-84147500D02*
X61324500Y-84147500D01*
X59800500Y-89227500D02*
X59800500Y-84147500D01*
X61324500Y-89227500D02*
X59800500Y-89227500D01*
X61324500Y-84147500D02*
X61324500Y-89227500D01*
G04 #@! TO.C,D9*
X79137000Y-36215500D02*
X77613000Y-36215500D01*
X79137000Y-36342500D02*
X77613000Y-36342500D01*
X77613000Y-36469500D02*
X79137000Y-36469500D01*
X79137000Y-36850500D02*
X77613000Y-36850500D01*
X77613000Y-36723500D02*
X79137000Y-36723500D01*
X79137000Y-36596500D02*
X77613000Y-36596500D01*
X79137000Y-31897500D02*
X79137000Y-32405500D01*
X77613000Y-31897500D02*
X79137000Y-31897500D01*
X77613000Y-36977500D02*
X77613000Y-31897500D01*
X79137000Y-36977500D02*
X77613000Y-36977500D01*
X79137000Y-31897500D02*
X79137000Y-36977500D01*
G04 #@! TO.C,D10*
X79137000Y-55215500D02*
X77613000Y-55215500D01*
X79137000Y-55342500D02*
X77613000Y-55342500D01*
X77613000Y-55469500D02*
X79137000Y-55469500D01*
X79137000Y-55850500D02*
X77613000Y-55850500D01*
X77613000Y-55723500D02*
X79137000Y-55723500D01*
X79137000Y-55596500D02*
X77613000Y-55596500D01*
X79137000Y-50897500D02*
X79137000Y-51405500D01*
X77613000Y-50897500D02*
X79137000Y-50897500D01*
X77613000Y-55977500D02*
X77613000Y-50897500D01*
X79137000Y-55977500D02*
X77613000Y-55977500D01*
X79137000Y-50897500D02*
X79137000Y-55977500D01*
G04 #@! TO.C,D11*
X79137000Y-74215500D02*
X77613000Y-74215500D01*
X79137000Y-74342500D02*
X77613000Y-74342500D01*
X77613000Y-74469500D02*
X79137000Y-74469500D01*
X79137000Y-74850500D02*
X77613000Y-74850500D01*
X77613000Y-74723500D02*
X79137000Y-74723500D01*
X79137000Y-74596500D02*
X77613000Y-74596500D01*
X79137000Y-69897500D02*
X79137000Y-70405500D01*
X77613000Y-69897500D02*
X79137000Y-69897500D01*
X77613000Y-74977500D02*
X77613000Y-69897500D01*
X79137000Y-74977500D02*
X77613000Y-74977500D01*
X79137000Y-69897500D02*
X79137000Y-74977500D01*
G04 #@! TO.C,D12*
X79137000Y-88465500D02*
X77613000Y-88465500D01*
X79137000Y-88592500D02*
X77613000Y-88592500D01*
X77613000Y-88719500D02*
X79137000Y-88719500D01*
X79137000Y-89100500D02*
X77613000Y-89100500D01*
X77613000Y-88973500D02*
X79137000Y-88973500D01*
X79137000Y-88846500D02*
X77613000Y-88846500D01*
X79137000Y-84147500D02*
X79137000Y-84655500D01*
X77613000Y-84147500D02*
X79137000Y-84147500D01*
X77613000Y-89227500D02*
X77613000Y-84147500D01*
X79137000Y-89227500D02*
X77613000Y-89227500D01*
X79137000Y-84147500D02*
X79137000Y-89227500D01*
G04 #@! TO.C,D13*
X102887000Y-31897500D02*
X102887000Y-36977500D01*
X102887000Y-36977500D02*
X101363000Y-36977500D01*
X101363000Y-36977500D02*
X101363000Y-31897500D01*
X101363000Y-31897500D02*
X102887000Y-31897500D01*
X102887000Y-31897500D02*
X102887000Y-32405500D01*
X102887000Y-36596500D02*
X101363000Y-36596500D01*
X101363000Y-36723500D02*
X102887000Y-36723500D01*
X102887000Y-36850500D02*
X101363000Y-36850500D01*
X101363000Y-36469500D02*
X102887000Y-36469500D01*
X102887000Y-36342500D02*
X101363000Y-36342500D01*
X102887000Y-36215500D02*
X101363000Y-36215500D01*
G04 #@! TO.C,D14*
X102887000Y-50897500D02*
X102887000Y-55977500D01*
X102887000Y-55977500D02*
X101363000Y-55977500D01*
X101363000Y-55977500D02*
X101363000Y-50897500D01*
X101363000Y-50897500D02*
X102887000Y-50897500D01*
X102887000Y-50897500D02*
X102887000Y-51405500D01*
X102887000Y-55596500D02*
X101363000Y-55596500D01*
X101363000Y-55723500D02*
X102887000Y-55723500D01*
X102887000Y-55850500D02*
X101363000Y-55850500D01*
X101363000Y-55469500D02*
X102887000Y-55469500D01*
X102887000Y-55342500D02*
X101363000Y-55342500D01*
X102887000Y-55215500D02*
X101363000Y-55215500D01*
G04 #@! TO.C,D15*
X102887000Y-69897500D02*
X102887000Y-74977500D01*
X102887000Y-74977500D02*
X101363000Y-74977500D01*
X101363000Y-74977500D02*
X101363000Y-69897500D01*
X101363000Y-69897500D02*
X102887000Y-69897500D01*
X102887000Y-69897500D02*
X102887000Y-70405500D01*
X102887000Y-74596500D02*
X101363000Y-74596500D01*
X101363000Y-74723500D02*
X102887000Y-74723500D01*
X102887000Y-74850500D02*
X101363000Y-74850500D01*
X101363000Y-74469500D02*
X102887000Y-74469500D01*
X102887000Y-74342500D02*
X101363000Y-74342500D01*
X102887000Y-74215500D02*
X101363000Y-74215500D01*
G04 #@! TO.C,D16*
X102887000Y-84147500D02*
X102887000Y-89227500D01*
X102887000Y-89227500D02*
X101363000Y-89227500D01*
X101363000Y-89227500D02*
X101363000Y-84147500D01*
X101363000Y-84147500D02*
X102887000Y-84147500D01*
X102887000Y-84147500D02*
X102887000Y-84655500D01*
X102887000Y-88846500D02*
X101363000Y-88846500D01*
X101363000Y-88973500D02*
X102887000Y-88973500D01*
X102887000Y-89100500D02*
X101363000Y-89100500D01*
X101363000Y-88719500D02*
X102887000Y-88719500D01*
X102887000Y-88592500D02*
X101363000Y-88592500D01*
X102887000Y-88465500D02*
X101363000Y-88465500D01*
G04 #@! TO.C,D17*
X121887000Y-31897500D02*
X121887000Y-36977500D01*
X121887000Y-36977500D02*
X120363000Y-36977500D01*
X120363000Y-36977500D02*
X120363000Y-31897500D01*
X120363000Y-31897500D02*
X121887000Y-31897500D01*
X121887000Y-31897500D02*
X121887000Y-32405500D01*
X121887000Y-36596500D02*
X120363000Y-36596500D01*
X120363000Y-36723500D02*
X121887000Y-36723500D01*
X121887000Y-36850500D02*
X120363000Y-36850500D01*
X120363000Y-36469500D02*
X121887000Y-36469500D01*
X121887000Y-36342500D02*
X120363000Y-36342500D01*
X121887000Y-36215500D02*
X120363000Y-36215500D01*
G04 #@! TO.C,D18*
X121887000Y-50897500D02*
X121887000Y-55977500D01*
X121887000Y-55977500D02*
X120363000Y-55977500D01*
X120363000Y-55977500D02*
X120363000Y-50897500D01*
X120363000Y-50897500D02*
X121887000Y-50897500D01*
X121887000Y-50897500D02*
X121887000Y-51405500D01*
X121887000Y-55596500D02*
X120363000Y-55596500D01*
X120363000Y-55723500D02*
X121887000Y-55723500D01*
X121887000Y-55850500D02*
X120363000Y-55850500D01*
X120363000Y-55469500D02*
X121887000Y-55469500D01*
X121887000Y-55342500D02*
X120363000Y-55342500D01*
X121887000Y-55215500D02*
X120363000Y-55215500D01*
G04 #@! TO.C,D19*
X121887000Y-69897500D02*
X121887000Y-74977500D01*
X121887000Y-74977500D02*
X120363000Y-74977500D01*
X120363000Y-74977500D02*
X120363000Y-69897500D01*
X120363000Y-69897500D02*
X121887000Y-69897500D01*
X121887000Y-69897500D02*
X121887000Y-70405500D01*
X121887000Y-74596500D02*
X120363000Y-74596500D01*
X120363000Y-74723500D02*
X121887000Y-74723500D01*
X121887000Y-74850500D02*
X120363000Y-74850500D01*
X120363000Y-74469500D02*
X121887000Y-74469500D01*
X121887000Y-74342500D02*
X120363000Y-74342500D01*
X121887000Y-74215500D02*
X120363000Y-74215500D01*
G04 #@! TO.C,D20*
X121887000Y-84147500D02*
X121887000Y-89227500D01*
X121887000Y-89227500D02*
X120363000Y-89227500D01*
X120363000Y-89227500D02*
X120363000Y-84147500D01*
X120363000Y-84147500D02*
X121887000Y-84147500D01*
X121887000Y-84147500D02*
X121887000Y-84655500D01*
X121887000Y-88846500D02*
X120363000Y-88846500D01*
X120363000Y-88973500D02*
X121887000Y-88973500D01*
X121887000Y-89100500D02*
X120363000Y-89100500D01*
X120363000Y-88719500D02*
X121887000Y-88719500D01*
X121887000Y-88592500D02*
X120363000Y-88592500D01*
X121887000Y-88465500D02*
X120363000Y-88465500D01*
G04 #@! TO.C,D21*
X158699500Y-31897500D02*
X158699500Y-36977500D01*
X158699500Y-36977500D02*
X157175500Y-36977500D01*
X157175500Y-36977500D02*
X157175500Y-31897500D01*
X157175500Y-31897500D02*
X158699500Y-31897500D01*
X158699500Y-31897500D02*
X158699500Y-32405500D01*
X158699500Y-36596500D02*
X157175500Y-36596500D01*
X157175500Y-36723500D02*
X158699500Y-36723500D01*
X158699500Y-36850500D02*
X157175500Y-36850500D01*
X157175500Y-36469500D02*
X158699500Y-36469500D01*
X158699500Y-36342500D02*
X157175500Y-36342500D01*
X158699500Y-36215500D02*
X157175500Y-36215500D01*
G04 #@! TO.C,D22*
X140887000Y-50897500D02*
X140887000Y-55977500D01*
X140887000Y-55977500D02*
X139363000Y-55977500D01*
X139363000Y-55977500D02*
X139363000Y-50897500D01*
X139363000Y-50897500D02*
X140887000Y-50897500D01*
X140887000Y-50897500D02*
X140887000Y-51405500D01*
X140887000Y-55596500D02*
X139363000Y-55596500D01*
X139363000Y-55723500D02*
X140887000Y-55723500D01*
X140887000Y-55850500D02*
X139363000Y-55850500D01*
X139363000Y-55469500D02*
X140887000Y-55469500D01*
X140887000Y-55342500D02*
X139363000Y-55342500D01*
X140887000Y-55215500D02*
X139363000Y-55215500D01*
G04 #@! TO.C,D23*
X158699500Y-69897500D02*
X158699500Y-74977500D01*
X158699500Y-74977500D02*
X157175500Y-74977500D01*
X157175500Y-74977500D02*
X157175500Y-69897500D01*
X157175500Y-69897500D02*
X158699500Y-69897500D01*
X158699500Y-69897500D02*
X158699500Y-70405500D01*
X158699500Y-74596500D02*
X157175500Y-74596500D01*
X157175500Y-74723500D02*
X158699500Y-74723500D01*
X158699500Y-74850500D02*
X157175500Y-74850500D01*
X157175500Y-74469500D02*
X158699500Y-74469500D01*
X158699500Y-74342500D02*
X157175500Y-74342500D01*
X158699500Y-74215500D02*
X157175500Y-74215500D01*
G04 #@! TO.C,D24*
X140887000Y-84147500D02*
X140887000Y-89227500D01*
X140887000Y-89227500D02*
X139363000Y-89227500D01*
X139363000Y-89227500D02*
X139363000Y-84147500D01*
X139363000Y-84147500D02*
X140887000Y-84147500D01*
X140887000Y-84147500D02*
X140887000Y-84655500D01*
X140887000Y-88846500D02*
X139363000Y-88846500D01*
X139363000Y-88973500D02*
X140887000Y-88973500D01*
X140887000Y-89100500D02*
X139363000Y-89100500D01*
X139363000Y-88719500D02*
X140887000Y-88719500D01*
X140887000Y-88592500D02*
X139363000Y-88592500D01*
X140887000Y-88465500D02*
X139363000Y-88465500D01*
G04 #@! TO.C,D25*
X161074500Y-31897500D02*
X161074500Y-36977500D01*
X161074500Y-36977500D02*
X159550500Y-36977500D01*
X159550500Y-36977500D02*
X159550500Y-31897500D01*
X159550500Y-31897500D02*
X161074500Y-31897500D01*
X161074500Y-31897500D02*
X161074500Y-32405500D01*
X161074500Y-36596500D02*
X159550500Y-36596500D01*
X159550500Y-36723500D02*
X161074500Y-36723500D01*
X161074500Y-36850500D02*
X159550500Y-36850500D01*
X159550500Y-36469500D02*
X161074500Y-36469500D01*
X161074500Y-36342500D02*
X159550500Y-36342500D01*
X161074500Y-36215500D02*
X159550500Y-36215500D01*
G04 #@! TO.C,D26*
X159887000Y-50897500D02*
X159887000Y-55977500D01*
X159887000Y-55977500D02*
X158363000Y-55977500D01*
X158363000Y-55977500D02*
X158363000Y-50897500D01*
X158363000Y-50897500D02*
X159887000Y-50897500D01*
X159887000Y-50897500D02*
X159887000Y-51405500D01*
X159887000Y-55596500D02*
X158363000Y-55596500D01*
X158363000Y-55723500D02*
X159887000Y-55723500D01*
X159887000Y-55850500D02*
X158363000Y-55850500D01*
X158363000Y-55469500D02*
X159887000Y-55469500D01*
X159887000Y-55342500D02*
X158363000Y-55342500D01*
X159887000Y-55215500D02*
X158363000Y-55215500D01*
G04 #@! TO.C,D27*
X161074500Y-69897500D02*
X161074500Y-74977500D01*
X161074500Y-74977500D02*
X159550500Y-74977500D01*
X159550500Y-74977500D02*
X159550500Y-69897500D01*
X159550500Y-69897500D02*
X161074500Y-69897500D01*
X161074500Y-69897500D02*
X161074500Y-70405500D01*
X161074500Y-74596500D02*
X159550500Y-74596500D01*
X159550500Y-74723500D02*
X161074500Y-74723500D01*
X161074500Y-74850500D02*
X159550500Y-74850500D01*
X159550500Y-74469500D02*
X161074500Y-74469500D01*
X161074500Y-74342500D02*
X159550500Y-74342500D01*
X161074500Y-74215500D02*
X159550500Y-74215500D01*
G04 #@! TO.C,D28*
X159887000Y-84147500D02*
X159887000Y-89227500D01*
X159887000Y-89227500D02*
X158363000Y-89227500D01*
X158363000Y-89227500D02*
X158363000Y-84147500D01*
X158363000Y-84147500D02*
X159887000Y-84147500D01*
X159887000Y-84147500D02*
X159887000Y-84655500D01*
X159887000Y-88846500D02*
X158363000Y-88846500D01*
X158363000Y-88973500D02*
X159887000Y-88973500D01*
X159887000Y-89100500D02*
X158363000Y-89100500D01*
X158363000Y-88719500D02*
X159887000Y-88719500D01*
X159887000Y-88592500D02*
X158363000Y-88592500D01*
X159887000Y-88465500D02*
X158363000Y-88465500D01*
G04 #@! TO.C,D29*
X177699500Y-31897500D02*
X177699500Y-36977500D01*
X177699500Y-36977500D02*
X176175500Y-36977500D01*
X176175500Y-36977500D02*
X176175500Y-31897500D01*
X176175500Y-31897500D02*
X177699500Y-31897500D01*
X177699500Y-31897500D02*
X177699500Y-32405500D01*
X177699500Y-36596500D02*
X176175500Y-36596500D01*
X176175500Y-36723500D02*
X177699500Y-36723500D01*
X177699500Y-36850500D02*
X176175500Y-36850500D01*
X176175500Y-36469500D02*
X177699500Y-36469500D01*
X177699500Y-36342500D02*
X176175500Y-36342500D01*
X177699500Y-36215500D02*
X176175500Y-36215500D01*
G04 #@! TO.C,D30*
X177699500Y-50897500D02*
X177699500Y-55977500D01*
X177699500Y-55977500D02*
X176175500Y-55977500D01*
X176175500Y-55977500D02*
X176175500Y-50897500D01*
X176175500Y-50897500D02*
X177699500Y-50897500D01*
X177699500Y-50897500D02*
X177699500Y-51405500D01*
X177699500Y-55596500D02*
X176175500Y-55596500D01*
X176175500Y-55723500D02*
X177699500Y-55723500D01*
X177699500Y-55850500D02*
X176175500Y-55850500D01*
X176175500Y-55469500D02*
X177699500Y-55469500D01*
X177699500Y-55342500D02*
X176175500Y-55342500D01*
X177699500Y-55215500D02*
X176175500Y-55215500D01*
G04 #@! TO.C,D31*
X178887000Y-69897500D02*
X178887000Y-74977500D01*
X178887000Y-74977500D02*
X177363000Y-74977500D01*
X177363000Y-74977500D02*
X177363000Y-69897500D01*
X177363000Y-69897500D02*
X178887000Y-69897500D01*
X178887000Y-69897500D02*
X178887000Y-70405500D01*
X178887000Y-74596500D02*
X177363000Y-74596500D01*
X177363000Y-74723500D02*
X178887000Y-74723500D01*
X178887000Y-74850500D02*
X177363000Y-74850500D01*
X177363000Y-74469500D02*
X178887000Y-74469500D01*
X178887000Y-74342500D02*
X177363000Y-74342500D01*
X178887000Y-74215500D02*
X177363000Y-74215500D01*
G04 #@! TO.C,D32*
X178887000Y-84147500D02*
X178887000Y-89227500D01*
X178887000Y-89227500D02*
X177363000Y-89227500D01*
X177363000Y-89227500D02*
X177363000Y-84147500D01*
X177363000Y-84147500D02*
X178887000Y-84147500D01*
X178887000Y-84147500D02*
X178887000Y-84655500D01*
X178887000Y-88846500D02*
X177363000Y-88846500D01*
X177363000Y-88973500D02*
X178887000Y-88973500D01*
X178887000Y-89100500D02*
X177363000Y-89100500D01*
X177363000Y-88719500D02*
X178887000Y-88719500D01*
X178887000Y-88592500D02*
X177363000Y-88592500D01*
X178887000Y-88465500D02*
X177363000Y-88465500D01*
G04 #@! TO.C,D33*
X180074500Y-31897500D02*
X180074500Y-36977500D01*
X180074500Y-36977500D02*
X178550500Y-36977500D01*
X178550500Y-36977500D02*
X178550500Y-31897500D01*
X178550500Y-31897500D02*
X180074500Y-31897500D01*
X180074500Y-31897500D02*
X180074500Y-32405500D01*
X180074500Y-36596500D02*
X178550500Y-36596500D01*
X178550500Y-36723500D02*
X180074500Y-36723500D01*
X180074500Y-36850500D02*
X178550500Y-36850500D01*
X178550500Y-36469500D02*
X180074500Y-36469500D01*
X180074500Y-36342500D02*
X178550500Y-36342500D01*
X180074500Y-36215500D02*
X178550500Y-36215500D01*
G04 #@! TO.C,D34*
X180074500Y-50897500D02*
X180074500Y-55977500D01*
X180074500Y-55977500D02*
X178550500Y-55977500D01*
X178550500Y-55977500D02*
X178550500Y-50897500D01*
X178550500Y-50897500D02*
X180074500Y-50897500D01*
X180074500Y-50897500D02*
X180074500Y-51405500D01*
X180074500Y-55596500D02*
X178550500Y-55596500D01*
X178550500Y-55723500D02*
X180074500Y-55723500D01*
X180074500Y-55850500D02*
X178550500Y-55850500D01*
X178550500Y-55469500D02*
X180074500Y-55469500D01*
X180074500Y-55342500D02*
X178550500Y-55342500D01*
X180074500Y-55215500D02*
X178550500Y-55215500D01*
G04 #@! TO.C,D35*
X197887000Y-69897500D02*
X197887000Y-74977500D01*
X197887000Y-74977500D02*
X196363000Y-74977500D01*
X196363000Y-74977500D02*
X196363000Y-69897500D01*
X196363000Y-69897500D02*
X197887000Y-69897500D01*
X197887000Y-69897500D02*
X197887000Y-70405500D01*
X197887000Y-74596500D02*
X196363000Y-74596500D01*
X196363000Y-74723500D02*
X197887000Y-74723500D01*
X197887000Y-74850500D02*
X196363000Y-74850500D01*
X196363000Y-74469500D02*
X197887000Y-74469500D01*
X197887000Y-74342500D02*
X196363000Y-74342500D01*
X197887000Y-74215500D02*
X196363000Y-74215500D01*
G04 #@! TO.C,D36*
X234699500Y-31897500D02*
X234699500Y-36977500D01*
X234699500Y-36977500D02*
X233175500Y-36977500D01*
X233175500Y-36977500D02*
X233175500Y-31897500D01*
X233175500Y-31897500D02*
X234699500Y-31897500D01*
X234699500Y-31897500D02*
X234699500Y-32405500D01*
X234699500Y-36596500D02*
X233175500Y-36596500D01*
X233175500Y-36723500D02*
X234699500Y-36723500D01*
X234699500Y-36850500D02*
X233175500Y-36850500D01*
X233175500Y-36469500D02*
X234699500Y-36469500D01*
X234699500Y-36342500D02*
X233175500Y-36342500D01*
X234699500Y-36215500D02*
X233175500Y-36215500D01*
G04 #@! TO.C,D37*
X234699500Y-50897500D02*
X234699500Y-55977500D01*
X234699500Y-55977500D02*
X233175500Y-55977500D01*
X233175500Y-55977500D02*
X233175500Y-50897500D01*
X233175500Y-50897500D02*
X234699500Y-50897500D01*
X234699500Y-50897500D02*
X234699500Y-51405500D01*
X234699500Y-55596500D02*
X233175500Y-55596500D01*
X233175500Y-55723500D02*
X234699500Y-55723500D01*
X234699500Y-55850500D02*
X233175500Y-55850500D01*
X233175500Y-55469500D02*
X234699500Y-55469500D01*
X234699500Y-55342500D02*
X233175500Y-55342500D01*
X234699500Y-55215500D02*
X233175500Y-55215500D01*
G04 #@! TO.C,D38*
X216887000Y-69897500D02*
X216887000Y-74977500D01*
X216887000Y-74977500D02*
X215363000Y-74977500D01*
X215363000Y-74977500D02*
X215363000Y-69897500D01*
X215363000Y-69897500D02*
X216887000Y-69897500D01*
X216887000Y-69897500D02*
X216887000Y-70405500D01*
X216887000Y-74596500D02*
X215363000Y-74596500D01*
X215363000Y-74723500D02*
X216887000Y-74723500D01*
X216887000Y-74850500D02*
X215363000Y-74850500D01*
X215363000Y-74469500D02*
X216887000Y-74469500D01*
X216887000Y-74342500D02*
X215363000Y-74342500D01*
X216887000Y-74215500D02*
X215363000Y-74215500D01*
G04 #@! TO.C,D39*
X237074500Y-31897500D02*
X237074500Y-36977500D01*
X237074500Y-36977500D02*
X235550500Y-36977500D01*
X235550500Y-36977500D02*
X235550500Y-31897500D01*
X235550500Y-31897500D02*
X237074500Y-31897500D01*
X237074500Y-31897500D02*
X237074500Y-32405500D01*
X237074500Y-36596500D02*
X235550500Y-36596500D01*
X235550500Y-36723500D02*
X237074500Y-36723500D01*
X237074500Y-36850500D02*
X235550500Y-36850500D01*
X235550500Y-36469500D02*
X237074500Y-36469500D01*
X237074500Y-36342500D02*
X235550500Y-36342500D01*
X237074500Y-36215500D02*
X235550500Y-36215500D01*
G04 #@! TO.C,D40*
X237074500Y-50897500D02*
X237074500Y-55977500D01*
X237074500Y-55977500D02*
X235550500Y-55977500D01*
X235550500Y-55977500D02*
X235550500Y-50897500D01*
X235550500Y-50897500D02*
X237074500Y-50897500D01*
X237074500Y-50897500D02*
X237074500Y-51405500D01*
X237074500Y-55596500D02*
X235550500Y-55596500D01*
X235550500Y-55723500D02*
X237074500Y-55723500D01*
X237074500Y-55850500D02*
X235550500Y-55850500D01*
X235550500Y-55469500D02*
X237074500Y-55469500D01*
X237074500Y-55342500D02*
X235550500Y-55342500D01*
X237074500Y-55215500D02*
X235550500Y-55215500D01*
G04 #@! TO.C,D41*
X235887000Y-69897500D02*
X235887000Y-74977500D01*
X235887000Y-74977500D02*
X234363000Y-74977500D01*
X234363000Y-74977500D02*
X234363000Y-69897500D01*
X234363000Y-69897500D02*
X235887000Y-69897500D01*
X235887000Y-69897500D02*
X235887000Y-70405500D01*
X235887000Y-74596500D02*
X234363000Y-74596500D01*
X234363000Y-74723500D02*
X235887000Y-74723500D01*
X235887000Y-74850500D02*
X234363000Y-74850500D01*
X234363000Y-74469500D02*
X235887000Y-74469500D01*
X235887000Y-74342500D02*
X234363000Y-74342500D01*
X235887000Y-74215500D02*
X234363000Y-74215500D01*
G04 #@! TO.C,D42*
X216887000Y-84147500D02*
X216887000Y-89227500D01*
X216887000Y-89227500D02*
X215363000Y-89227500D01*
X215363000Y-89227500D02*
X215363000Y-84147500D01*
X215363000Y-84147500D02*
X216887000Y-84147500D01*
X216887000Y-84147500D02*
X216887000Y-84655500D01*
X216887000Y-88846500D02*
X215363000Y-88846500D01*
X215363000Y-88973500D02*
X216887000Y-88973500D01*
X216887000Y-89100500D02*
X215363000Y-89100500D01*
X215363000Y-88719500D02*
X216887000Y-88719500D01*
X216887000Y-88592500D02*
X215363000Y-88592500D01*
X216887000Y-88465500D02*
X215363000Y-88465500D01*
G04 #@! TO.C,D43*
X254887000Y-31897500D02*
X254887000Y-36977500D01*
X254887000Y-36977500D02*
X253363000Y-36977500D01*
X253363000Y-36977500D02*
X253363000Y-31897500D01*
X253363000Y-31897500D02*
X254887000Y-31897500D01*
X254887000Y-31897500D02*
X254887000Y-32405500D01*
X254887000Y-36596500D02*
X253363000Y-36596500D01*
X253363000Y-36723500D02*
X254887000Y-36723500D01*
X254887000Y-36850500D02*
X253363000Y-36850500D01*
X253363000Y-36469500D02*
X254887000Y-36469500D01*
X254887000Y-36342500D02*
X253363000Y-36342500D01*
X254887000Y-36215500D02*
X253363000Y-36215500D01*
G04 #@! TO.C,D44*
X254887000Y-50897500D02*
X254887000Y-55977500D01*
X254887000Y-55977500D02*
X253363000Y-55977500D01*
X253363000Y-55977500D02*
X253363000Y-50897500D01*
X253363000Y-50897500D02*
X254887000Y-50897500D01*
X254887000Y-50897500D02*
X254887000Y-51405500D01*
X254887000Y-55596500D02*
X253363000Y-55596500D01*
X253363000Y-55723500D02*
X254887000Y-55723500D01*
X254887000Y-55850500D02*
X253363000Y-55850500D01*
X253363000Y-55469500D02*
X254887000Y-55469500D01*
X254887000Y-55342500D02*
X253363000Y-55342500D01*
X254887000Y-55215500D02*
X253363000Y-55215500D01*
G04 #@! TO.C,D45*
X254762000Y-74215500D02*
X253238000Y-74215500D01*
X254762000Y-74342500D02*
X253238000Y-74342500D01*
X253238000Y-74469500D02*
X254762000Y-74469500D01*
X254762000Y-74850500D02*
X253238000Y-74850500D01*
X253238000Y-74723500D02*
X254762000Y-74723500D01*
X254762000Y-74596500D02*
X253238000Y-74596500D01*
X254762000Y-69897500D02*
X254762000Y-70405500D01*
X253238000Y-69897500D02*
X254762000Y-69897500D01*
X253238000Y-74977500D02*
X253238000Y-69897500D01*
X254762000Y-74977500D02*
X253238000Y-74977500D01*
X254762000Y-69897500D02*
X254762000Y-74977500D01*
G04 #@! TO.C,D46*
X254887000Y-88465500D02*
X253363000Y-88465500D01*
X254887000Y-88592500D02*
X253363000Y-88592500D01*
X253363000Y-88719500D02*
X254887000Y-88719500D01*
X254887000Y-89100500D02*
X253363000Y-89100500D01*
X253363000Y-88973500D02*
X254887000Y-88973500D01*
X254887000Y-88846500D02*
X253363000Y-88846500D01*
X254887000Y-84147500D02*
X254887000Y-84655500D01*
X253363000Y-84147500D02*
X254887000Y-84147500D01*
X253363000Y-89227500D02*
X253363000Y-84147500D01*
X254887000Y-89227500D02*
X253363000Y-89227500D01*
X254887000Y-84147500D02*
X254887000Y-89227500D01*
G04 #@! TO.C,D47*
X273887000Y-36215500D02*
X272363000Y-36215500D01*
X273887000Y-36342500D02*
X272363000Y-36342500D01*
X272363000Y-36469500D02*
X273887000Y-36469500D01*
X273887000Y-36850500D02*
X272363000Y-36850500D01*
X272363000Y-36723500D02*
X273887000Y-36723500D01*
X273887000Y-36596500D02*
X272363000Y-36596500D01*
X273887000Y-31897500D02*
X273887000Y-32405500D01*
X272363000Y-31897500D02*
X273887000Y-31897500D01*
X272363000Y-36977500D02*
X272363000Y-31897500D01*
X273887000Y-36977500D02*
X272363000Y-36977500D01*
X273887000Y-31897500D02*
X273887000Y-36977500D01*
G04 #@! TO.C,D48*
X273887000Y-55215500D02*
X272363000Y-55215500D01*
X273887000Y-55342500D02*
X272363000Y-55342500D01*
X272363000Y-55469500D02*
X273887000Y-55469500D01*
X273887000Y-55850500D02*
X272363000Y-55850500D01*
X272363000Y-55723500D02*
X273887000Y-55723500D01*
X273887000Y-55596500D02*
X272363000Y-55596500D01*
X273887000Y-50897500D02*
X273887000Y-51405500D01*
X272363000Y-50897500D02*
X273887000Y-50897500D01*
X272363000Y-55977500D02*
X272363000Y-50897500D01*
X273887000Y-55977500D02*
X272363000Y-55977500D01*
X273887000Y-50897500D02*
X273887000Y-55977500D01*
G04 #@! TO.C,D49*
X273762000Y-74215500D02*
X272238000Y-74215500D01*
X273762000Y-74342500D02*
X272238000Y-74342500D01*
X272238000Y-74469500D02*
X273762000Y-74469500D01*
X273762000Y-74850500D02*
X272238000Y-74850500D01*
X272238000Y-74723500D02*
X273762000Y-74723500D01*
X273762000Y-74596500D02*
X272238000Y-74596500D01*
X273762000Y-69897500D02*
X273762000Y-70405500D01*
X272238000Y-69897500D02*
X273762000Y-69897500D01*
X272238000Y-74977500D02*
X272238000Y-69897500D01*
X273762000Y-74977500D02*
X272238000Y-74977500D01*
X273762000Y-69897500D02*
X273762000Y-74977500D01*
G04 #@! TO.C,D50*
X273887000Y-88465500D02*
X272363000Y-88465500D01*
X273887000Y-88592500D02*
X272363000Y-88592500D01*
X272363000Y-88719500D02*
X273887000Y-88719500D01*
X273887000Y-89100500D02*
X272363000Y-89100500D01*
X272363000Y-88973500D02*
X273887000Y-88973500D01*
X273887000Y-88846500D02*
X272363000Y-88846500D01*
X273887000Y-84147500D02*
X273887000Y-84655500D01*
X272363000Y-84147500D02*
X273887000Y-84147500D01*
X272363000Y-89227500D02*
X272363000Y-84147500D01*
X273887000Y-89227500D02*
X272363000Y-89227500D01*
X273887000Y-84147500D02*
X273887000Y-89227500D01*
G04 #@! TO.C,D51*
X310699500Y-36215500D02*
X309175500Y-36215500D01*
X310699500Y-36342500D02*
X309175500Y-36342500D01*
X309175500Y-36469500D02*
X310699500Y-36469500D01*
X310699500Y-36850500D02*
X309175500Y-36850500D01*
X309175500Y-36723500D02*
X310699500Y-36723500D01*
X310699500Y-36596500D02*
X309175500Y-36596500D01*
X310699500Y-31897500D02*
X310699500Y-32405500D01*
X309175500Y-31897500D02*
X310699500Y-31897500D01*
X309175500Y-36977500D02*
X309175500Y-31897500D01*
X310699500Y-36977500D02*
X309175500Y-36977500D01*
X310699500Y-31897500D02*
X310699500Y-36977500D01*
G04 #@! TO.C,D52*
X292887000Y-55215500D02*
X291363000Y-55215500D01*
X292887000Y-55342500D02*
X291363000Y-55342500D01*
X291363000Y-55469500D02*
X292887000Y-55469500D01*
X292887000Y-55850500D02*
X291363000Y-55850500D01*
X291363000Y-55723500D02*
X292887000Y-55723500D01*
X292887000Y-55596500D02*
X291363000Y-55596500D01*
X292887000Y-50897500D02*
X292887000Y-51405500D01*
X291363000Y-50897500D02*
X292887000Y-50897500D01*
X291363000Y-55977500D02*
X291363000Y-50897500D01*
X292887000Y-55977500D02*
X291363000Y-55977500D01*
X292887000Y-50897500D02*
X292887000Y-55977500D01*
G04 #@! TO.C,D53*
X310699500Y-74215500D02*
X309175500Y-74215500D01*
X310699500Y-74342500D02*
X309175500Y-74342500D01*
X309175500Y-74469500D02*
X310699500Y-74469500D01*
X310699500Y-74850500D02*
X309175500Y-74850500D01*
X309175500Y-74723500D02*
X310699500Y-74723500D01*
X310699500Y-74596500D02*
X309175500Y-74596500D01*
X310699500Y-69897500D02*
X310699500Y-70405500D01*
X309175500Y-69897500D02*
X310699500Y-69897500D01*
X309175500Y-74977500D02*
X309175500Y-69897500D01*
X310699500Y-74977500D02*
X309175500Y-74977500D01*
X310699500Y-69897500D02*
X310699500Y-74977500D01*
G04 #@! TO.C,D54*
X292887000Y-88465500D02*
X291363000Y-88465500D01*
X292887000Y-88592500D02*
X291363000Y-88592500D01*
X291363000Y-88719500D02*
X292887000Y-88719500D01*
X292887000Y-89100500D02*
X291363000Y-89100500D01*
X291363000Y-88973500D02*
X292887000Y-88973500D01*
X292887000Y-88846500D02*
X291363000Y-88846500D01*
X292887000Y-84147500D02*
X292887000Y-84655500D01*
X291363000Y-84147500D02*
X292887000Y-84147500D01*
X291363000Y-89227500D02*
X291363000Y-84147500D01*
X292887000Y-89227500D02*
X291363000Y-89227500D01*
X292887000Y-84147500D02*
X292887000Y-89227500D01*
G04 #@! TO.C,D55*
X313074500Y-36215500D02*
X311550500Y-36215500D01*
X313074500Y-36342500D02*
X311550500Y-36342500D01*
X311550500Y-36469500D02*
X313074500Y-36469500D01*
X313074500Y-36850500D02*
X311550500Y-36850500D01*
X311550500Y-36723500D02*
X313074500Y-36723500D01*
X313074500Y-36596500D02*
X311550500Y-36596500D01*
X313074500Y-31897500D02*
X313074500Y-32405500D01*
X311550500Y-31897500D02*
X313074500Y-31897500D01*
X311550500Y-36977500D02*
X311550500Y-31897500D01*
X313074500Y-36977500D02*
X311550500Y-36977500D01*
X313074500Y-31897500D02*
X313074500Y-36977500D01*
G04 #@! TO.C,D56*
X311887000Y-55215500D02*
X310363000Y-55215500D01*
X311887000Y-55342500D02*
X310363000Y-55342500D01*
X310363000Y-55469500D02*
X311887000Y-55469500D01*
X311887000Y-55850500D02*
X310363000Y-55850500D01*
X310363000Y-55723500D02*
X311887000Y-55723500D01*
X311887000Y-55596500D02*
X310363000Y-55596500D01*
X311887000Y-50897500D02*
X311887000Y-51405500D01*
X310363000Y-50897500D02*
X311887000Y-50897500D01*
X310363000Y-55977500D02*
X310363000Y-50897500D01*
X311887000Y-55977500D02*
X310363000Y-55977500D01*
X311887000Y-50897500D02*
X311887000Y-55977500D01*
G04 #@! TO.C,D57*
X313074500Y-74215500D02*
X311550500Y-74215500D01*
X313074500Y-74342500D02*
X311550500Y-74342500D01*
X311550500Y-74469500D02*
X313074500Y-74469500D01*
X313074500Y-74850500D02*
X311550500Y-74850500D01*
X311550500Y-74723500D02*
X313074500Y-74723500D01*
X313074500Y-74596500D02*
X311550500Y-74596500D01*
X313074500Y-69897500D02*
X313074500Y-70405500D01*
X311550500Y-69897500D02*
X313074500Y-69897500D01*
X311550500Y-74977500D02*
X311550500Y-69897500D01*
X313074500Y-74977500D02*
X311550500Y-74977500D01*
X313074500Y-69897500D02*
X313074500Y-74977500D01*
G04 #@! TO.C,D58*
X316637000Y-90840500D02*
X315113000Y-90840500D01*
X316637000Y-90967500D02*
X315113000Y-90967500D01*
X315113000Y-91094500D02*
X316637000Y-91094500D01*
X316637000Y-91475500D02*
X315113000Y-91475500D01*
X315113000Y-91348500D02*
X316637000Y-91348500D01*
X316637000Y-91221500D02*
X315113000Y-91221500D01*
X316637000Y-86522500D02*
X316637000Y-87030500D01*
X315113000Y-86522500D02*
X316637000Y-86522500D01*
X315113000Y-91602500D02*
X315113000Y-86522500D01*
X316637000Y-91602500D02*
X315113000Y-91602500D01*
X316637000Y-86522500D02*
X316637000Y-91602500D01*
G04 #@! TO.C,D59*
X335637000Y-36215500D02*
X334113000Y-36215500D01*
X335637000Y-36342500D02*
X334113000Y-36342500D01*
X334113000Y-36469500D02*
X335637000Y-36469500D01*
X335637000Y-36850500D02*
X334113000Y-36850500D01*
X334113000Y-36723500D02*
X335637000Y-36723500D01*
X335637000Y-36596500D02*
X334113000Y-36596500D01*
X335637000Y-31897500D02*
X335637000Y-32405500D01*
X334113000Y-31897500D02*
X335637000Y-31897500D01*
X334113000Y-36977500D02*
X334113000Y-31897500D01*
X335637000Y-36977500D02*
X334113000Y-36977500D01*
X335637000Y-31897500D02*
X335637000Y-36977500D01*
G04 #@! TO.C,D60*
X335637000Y-55215500D02*
X334113000Y-55215500D01*
X335637000Y-55342500D02*
X334113000Y-55342500D01*
X334113000Y-55469500D02*
X335637000Y-55469500D01*
X335637000Y-55850500D02*
X334113000Y-55850500D01*
X334113000Y-55723500D02*
X335637000Y-55723500D01*
X335637000Y-55596500D02*
X334113000Y-55596500D01*
X335637000Y-50897500D02*
X335637000Y-51405500D01*
X334113000Y-50897500D02*
X335637000Y-50897500D01*
X334113000Y-55977500D02*
X334113000Y-50897500D01*
X335637000Y-55977500D02*
X334113000Y-55977500D01*
X335637000Y-50897500D02*
X335637000Y-55977500D01*
G04 #@! TO.C,D61*
X335637000Y-74215500D02*
X334113000Y-74215500D01*
X335637000Y-74342500D02*
X334113000Y-74342500D01*
X334113000Y-74469500D02*
X335637000Y-74469500D01*
X335637000Y-74850500D02*
X334113000Y-74850500D01*
X334113000Y-74723500D02*
X335637000Y-74723500D01*
X335637000Y-74596500D02*
X334113000Y-74596500D01*
X335637000Y-69897500D02*
X335637000Y-70405500D01*
X334113000Y-69897500D02*
X335637000Y-69897500D01*
X334113000Y-74977500D02*
X334113000Y-69897500D01*
X335637000Y-74977500D02*
X334113000Y-74977500D01*
X335637000Y-69897500D02*
X335637000Y-74977500D01*
G04 #@! TO.C,D62*
X335637000Y-90840500D02*
X334113000Y-90840500D01*
X335637000Y-90967500D02*
X334113000Y-90967500D01*
X334113000Y-91094500D02*
X335637000Y-91094500D01*
X335637000Y-91475500D02*
X334113000Y-91475500D01*
X334113000Y-91348500D02*
X335637000Y-91348500D01*
X335637000Y-91221500D02*
X334113000Y-91221500D01*
X335637000Y-86522500D02*
X335637000Y-87030500D01*
X334113000Y-86522500D02*
X335637000Y-86522500D01*
X334113000Y-91602500D02*
X334113000Y-86522500D01*
X335637000Y-91602500D02*
X334113000Y-91602500D01*
X335637000Y-86522500D02*
X335637000Y-91602500D01*
G04 #@! TO.C,D63*
X354637000Y-36215500D02*
X353113000Y-36215500D01*
X354637000Y-36342500D02*
X353113000Y-36342500D01*
X353113000Y-36469500D02*
X354637000Y-36469500D01*
X354637000Y-36850500D02*
X353113000Y-36850500D01*
X353113000Y-36723500D02*
X354637000Y-36723500D01*
X354637000Y-36596500D02*
X353113000Y-36596500D01*
X354637000Y-31897500D02*
X354637000Y-32405500D01*
X353113000Y-31897500D02*
X354637000Y-31897500D01*
X353113000Y-36977500D02*
X353113000Y-31897500D01*
X354637000Y-36977500D02*
X353113000Y-36977500D01*
X354637000Y-31897500D02*
X354637000Y-36977500D01*
G04 #@! TO.C,D64*
X354637000Y-55215500D02*
X353113000Y-55215500D01*
X354637000Y-55342500D02*
X353113000Y-55342500D01*
X353113000Y-55469500D02*
X354637000Y-55469500D01*
X354637000Y-55850500D02*
X353113000Y-55850500D01*
X353113000Y-55723500D02*
X354637000Y-55723500D01*
X354637000Y-55596500D02*
X353113000Y-55596500D01*
X354637000Y-50897500D02*
X354637000Y-51405500D01*
X353113000Y-50897500D02*
X354637000Y-50897500D01*
X353113000Y-55977500D02*
X353113000Y-50897500D01*
X354637000Y-55977500D02*
X353113000Y-55977500D01*
X354637000Y-50897500D02*
X354637000Y-55977500D01*
G04 #@! TO.C,D65*
X354637000Y-90840500D02*
X353113000Y-90840500D01*
X354637000Y-90967500D02*
X353113000Y-90967500D01*
X353113000Y-91094500D02*
X354637000Y-91094500D01*
X354637000Y-91475500D02*
X353113000Y-91475500D01*
X353113000Y-91348500D02*
X354637000Y-91348500D01*
X354637000Y-91221500D02*
X353113000Y-91221500D01*
X354637000Y-86522500D02*
X354637000Y-87030500D01*
X353113000Y-86522500D02*
X354637000Y-86522500D01*
X353113000Y-91602500D02*
X353113000Y-86522500D01*
X354637000Y-91602500D02*
X353113000Y-91602500D01*
X354637000Y-86522500D02*
X354637000Y-91602500D01*
G04 #@! TO.C,D66*
X180625000Y-23362500D02*
X180625000Y-21762500D01*
X175625000Y-23262500D02*
X175625000Y-21762500D01*
X176825000Y-25062500D02*
X179425000Y-25062500D01*
X179425000Y-20062500D02*
X176825000Y-20062500D01*
X176925000Y-24562500D02*
X176925000Y-24662500D01*
X177025000Y-24562500D02*
X176925000Y-24562500D01*
X177025000Y-24662500D02*
X177025000Y-24562500D01*
X176925000Y-24662500D02*
X177025000Y-24662500D01*
G04 #@! TO.C,D67*
X58175000Y-98287500D02*
X58275000Y-98287500D01*
X58275000Y-98287500D02*
X58275000Y-98187500D01*
X58275000Y-98187500D02*
X58175000Y-98187500D01*
X58175000Y-98187500D02*
X58175000Y-98287500D01*
X60675000Y-93687500D02*
X58075000Y-93687500D01*
X58075000Y-98687500D02*
X60675000Y-98687500D01*
X56875000Y-96887500D02*
X56875000Y-95387500D01*
X61875000Y-96987500D02*
X61875000Y-95387500D01*
G04 #@! TO.C,D69*
X356375000Y-23362500D02*
X356375000Y-21762500D01*
X351375000Y-23262500D02*
X351375000Y-21762500D01*
X352575000Y-25062500D02*
X355175000Y-25062500D01*
X355175000Y-20062500D02*
X352575000Y-20062500D01*
X352675000Y-24562500D02*
X352675000Y-24662500D01*
X352775000Y-24562500D02*
X352675000Y-24562500D01*
X352775000Y-24662500D02*
X352775000Y-24562500D01*
X352675000Y-24662500D02*
X352775000Y-24662500D01*
G04 #@! TO.C,D70*
X138925000Y-24662500D02*
X139025000Y-24662500D01*
X139025000Y-24662500D02*
X139025000Y-24562500D01*
X139025000Y-24562500D02*
X138925000Y-24562500D01*
X138925000Y-24562500D02*
X138925000Y-24662500D01*
X141425000Y-20062500D02*
X138825000Y-20062500D01*
X138825000Y-25062500D02*
X141425000Y-25062500D01*
X137625000Y-23262500D02*
X137625000Y-21762500D01*
X142625000Y-23362500D02*
X142625000Y-21762500D01*
G04 #@! TO.C,D71*
X102250000Y-96987500D02*
X102250000Y-95387500D01*
X97250000Y-96887500D02*
X97250000Y-95387500D01*
X98450000Y-98687500D02*
X101050000Y-98687500D01*
X101050000Y-93687500D02*
X98450000Y-93687500D01*
X98550000Y-98187500D02*
X98550000Y-98287500D01*
X98650000Y-98187500D02*
X98550000Y-98187500D01*
X98650000Y-98287500D02*
X98650000Y-98187500D01*
X98550000Y-98287500D02*
X98650000Y-98287500D01*
G04 #@! TO.C,D72*
X271925000Y-98287500D02*
X272025000Y-98287500D01*
X272025000Y-98287500D02*
X272025000Y-98187500D01*
X272025000Y-98187500D02*
X271925000Y-98187500D01*
X271925000Y-98187500D02*
X271925000Y-98287500D01*
X274425000Y-93687500D02*
X271825000Y-93687500D01*
X271825000Y-98687500D02*
X274425000Y-98687500D01*
X270625000Y-96887500D02*
X270625000Y-95387500D01*
X275625000Y-96987500D02*
X275625000Y-95387500D01*
G04 #@! TO.C,D73*
X309925000Y-24662500D02*
X310025000Y-24662500D01*
X310025000Y-24662500D02*
X310025000Y-24562500D01*
X310025000Y-24562500D02*
X309925000Y-24562500D01*
X309925000Y-24562500D02*
X309925000Y-24662500D01*
X312425000Y-20062500D02*
X309825000Y-20062500D01*
X309825000Y-25062500D02*
X312425000Y-25062500D01*
X308625000Y-23262500D02*
X308625000Y-21762500D01*
X313625000Y-23362500D02*
X313625000Y-21762500D01*
G04 #@! TO.C,D74*
X102250000Y-23362500D02*
X102250000Y-21762500D01*
X97250000Y-23262500D02*
X97250000Y-21762500D01*
X98450000Y-25062500D02*
X101050000Y-25062500D01*
X101050000Y-20062500D02*
X98450000Y-20062500D01*
X98550000Y-24562500D02*
X98550000Y-24662500D01*
X98650000Y-24562500D02*
X98550000Y-24562500D01*
X98650000Y-24662500D02*
X98650000Y-24562500D01*
X98550000Y-24662500D02*
X98650000Y-24662500D01*
G04 #@! TO.C,D75*
X142625000Y-96987500D02*
X142625000Y-95387500D01*
X137625000Y-96887500D02*
X137625000Y-95387500D01*
X138825000Y-98687500D02*
X141425000Y-98687500D01*
X141425000Y-93687500D02*
X138825000Y-93687500D01*
X138925000Y-98187500D02*
X138925000Y-98287500D01*
X139025000Y-98187500D02*
X138925000Y-98187500D01*
X139025000Y-98287500D02*
X139025000Y-98187500D01*
X138925000Y-98287500D02*
X139025000Y-98287500D01*
G04 #@! TO.C,D76*
X313625000Y-96987500D02*
X313625000Y-95387500D01*
X308625000Y-96887500D02*
X308625000Y-95387500D01*
X309825000Y-98687500D02*
X312425000Y-98687500D01*
X312425000Y-93687500D02*
X309825000Y-93687500D01*
X309925000Y-98187500D02*
X309925000Y-98287500D01*
X310025000Y-98187500D02*
X309925000Y-98187500D01*
X310025000Y-98287500D02*
X310025000Y-98187500D01*
X309925000Y-98287500D02*
X310025000Y-98287500D01*
G04 #@! TO.C,D77*
X275625000Y-23362500D02*
X275625000Y-21762500D01*
X270625000Y-23262500D02*
X270625000Y-21762500D01*
X271825000Y-25062500D02*
X274425000Y-25062500D01*
X274425000Y-20062500D02*
X271825000Y-20062500D01*
X271925000Y-24562500D02*
X271925000Y-24662500D01*
X272025000Y-24562500D02*
X271925000Y-24562500D01*
X272025000Y-24662500D02*
X272025000Y-24562500D01*
X271925000Y-24662500D02*
X272025000Y-24662500D01*
G04 #@! TO.C,D78*
X58175000Y-24662500D02*
X58275000Y-24662500D01*
X58275000Y-24662500D02*
X58275000Y-24562500D01*
X58275000Y-24562500D02*
X58175000Y-24562500D01*
X58175000Y-24562500D02*
X58175000Y-24662500D01*
X60675000Y-20062500D02*
X58075000Y-20062500D01*
X58075000Y-25062500D02*
X60675000Y-25062500D01*
X56875000Y-23262500D02*
X56875000Y-21762500D01*
X61875000Y-23362500D02*
X61875000Y-21762500D01*
G04 #@! TO.C,D79*
X176925000Y-98287500D02*
X177025000Y-98287500D01*
X177025000Y-98287500D02*
X177025000Y-98187500D01*
X177025000Y-98187500D02*
X176925000Y-98187500D01*
X176925000Y-98187500D02*
X176925000Y-98287500D01*
X179425000Y-93687500D02*
X176825000Y-93687500D01*
X176825000Y-98687500D02*
X179425000Y-98687500D01*
X175625000Y-96887500D02*
X175625000Y-95387500D01*
X180625000Y-96987500D02*
X180625000Y-95387500D01*
G04 #@! TO.C,D80*
X352675000Y-98287500D02*
X352775000Y-98287500D01*
X352775000Y-98287500D02*
X352775000Y-98187500D01*
X352775000Y-98187500D02*
X352675000Y-98187500D01*
X352675000Y-98187500D02*
X352675000Y-98287500D01*
X355175000Y-93687500D02*
X352575000Y-93687500D01*
X352575000Y-98687500D02*
X355175000Y-98687500D01*
X351375000Y-96887500D02*
X351375000Y-95387500D01*
X356375000Y-96987500D02*
X356375000Y-95387500D01*
G04 #@! TO.C,D81*
X233925000Y-24662500D02*
X234025000Y-24662500D01*
X234025000Y-24662500D02*
X234025000Y-24562500D01*
X234025000Y-24562500D02*
X233925000Y-24562500D01*
X233925000Y-24562500D02*
X233925000Y-24662500D01*
X236425000Y-20062500D02*
X233825000Y-20062500D01*
X233825000Y-25062500D02*
X236425000Y-25062500D01*
X232625000Y-23262500D02*
X232625000Y-21762500D01*
X237625000Y-23362500D02*
X237625000Y-21762500D01*
D11*
G04 #@! TO.C,U1*
X215515000Y-26322500D02*
X215515000Y-56802500D01*
X215515000Y-56802500D02*
X197735000Y-56802500D01*
X197735000Y-56802500D02*
X197735000Y-26322500D01*
X212975000Y-26322500D02*
X212975000Y-28862500D01*
X212975000Y-28862500D02*
X215515000Y-28862500D01*
D10*
G36*
X201693432Y-32201860D02*
X201693432Y-32501860D01*
X201793432Y-32501860D01*
X201793432Y-32201860D01*
X201693432Y-32201860D01*
G37*
X201693432Y-32201860D02*
X201693432Y-32501860D01*
X201793432Y-32501860D01*
X201793432Y-32201860D01*
X201693432Y-32201860D01*
G36*
X201893432Y-32601860D02*
X201893432Y-32701860D01*
X201993432Y-32701860D01*
X201993432Y-32601860D01*
X201893432Y-32601860D01*
G37*
X201893432Y-32601860D02*
X201893432Y-32701860D01*
X201993432Y-32701860D01*
X201993432Y-32601860D01*
X201893432Y-32601860D01*
G36*
X201693432Y-32201860D02*
X201693432Y-32301860D01*
X202193432Y-32301860D01*
X202193432Y-32201860D01*
X201693432Y-32201860D01*
G37*
X201693432Y-32201860D02*
X201693432Y-32301860D01*
X202193432Y-32301860D01*
X202193432Y-32201860D01*
X201693432Y-32201860D01*
G36*
X202093432Y-32201860D02*
X202093432Y-33001860D01*
X202193432Y-33001860D01*
X202193432Y-32201860D01*
X202093432Y-32201860D01*
G37*
X202093432Y-32201860D02*
X202093432Y-33001860D01*
X202193432Y-33001860D01*
X202193432Y-32201860D01*
X202093432Y-32201860D01*
G36*
X201693432Y-32801860D02*
X201693432Y-33001860D01*
X201793432Y-33001860D01*
X201793432Y-32801860D01*
X201693432Y-32801860D01*
G37*
X201693432Y-32801860D02*
X201693432Y-33001860D01*
X201793432Y-33001860D01*
X201793432Y-32801860D01*
X201693432Y-32801860D01*
D11*
X197735000Y-26322500D02*
X197735000Y-23782500D01*
X197735000Y-23782500D02*
X215515000Y-23782500D01*
X215515000Y-23782500D02*
X215515000Y-26322500D01*
X212975000Y-26322500D02*
X215515000Y-26322500D01*
D10*
G04 #@! TO.C,D4*
X58949500Y-88465500D02*
X57425500Y-88465500D01*
X58949500Y-88592500D02*
X57425500Y-88592500D01*
X57425500Y-88719500D02*
X58949500Y-88719500D01*
X58949500Y-89100500D02*
X57425500Y-89100500D01*
X57425500Y-88973500D02*
X58949500Y-88973500D01*
X58949500Y-88846500D02*
X57425500Y-88846500D01*
X58949500Y-84147500D02*
X58949500Y-84655500D01*
X57425500Y-84147500D02*
X58949500Y-84147500D01*
X57425500Y-89227500D02*
X57425500Y-84147500D01*
X58949500Y-89227500D02*
X57425500Y-89227500D01*
X58949500Y-84147500D02*
X58949500Y-89227500D01*
G04 #@! TO.C,D68*
X236339285Y-93139880D02*
X236339285Y-92139880D01*
X236101190Y-92139880D01*
X235958333Y-92187500D01*
X235863095Y-92282738D01*
X235815476Y-92377976D01*
X235767857Y-92568452D01*
X235767857Y-92711309D01*
X235815476Y-92901785D01*
X235863095Y-92997023D01*
X235958333Y-93092261D01*
X236101190Y-93139880D01*
X236339285Y-93139880D01*
X234910714Y-92139880D02*
X235101190Y-92139880D01*
X235196428Y-92187500D01*
X235244047Y-92235119D01*
X235339285Y-92377976D01*
X235386904Y-92568452D01*
X235386904Y-92949404D01*
X235339285Y-93044642D01*
X235291666Y-93092261D01*
X235196428Y-93139880D01*
X235005952Y-93139880D01*
X234910714Y-93092261D01*
X234863095Y-93044642D01*
X234815476Y-92949404D01*
X234815476Y-92711309D01*
X234863095Y-92616071D01*
X234910714Y-92568452D01*
X235005952Y-92520833D01*
X235196428Y-92520833D01*
X235291666Y-92568452D01*
X235339285Y-92616071D01*
X235386904Y-92711309D01*
X234244047Y-92568452D02*
X234339285Y-92520833D01*
X234386904Y-92473214D01*
X234434523Y-92377976D01*
X234434523Y-92330357D01*
X234386904Y-92235119D01*
X234339285Y-92187500D01*
X234244047Y-92139880D01*
X234053571Y-92139880D01*
X233958333Y-92187500D01*
X233910714Y-92235119D01*
X233863095Y-92330357D01*
X233863095Y-92377976D01*
X233910714Y-92473214D01*
X233958333Y-92520833D01*
X234053571Y-92568452D01*
X234244047Y-92568452D01*
X234339285Y-92616071D01*
X234386904Y-92663690D01*
X234434523Y-92758928D01*
X234434523Y-92949404D01*
X234386904Y-93044642D01*
X234339285Y-93092261D01*
X234244047Y-93139880D01*
X234053571Y-93139880D01*
X233958333Y-93092261D01*
X233910714Y-93044642D01*
X233863095Y-92949404D01*
X233863095Y-92758928D01*
X233910714Y-92663690D01*
X233958333Y-92616071D01*
X234053571Y-92568452D01*
G04 #@! TO.C,D1*
X59949404Y-33821623D02*
X59149404Y-33821623D01*
X59149404Y-34012100D01*
X59187500Y-34126385D01*
X59263690Y-34202576D01*
X59339880Y-34240671D01*
X59492261Y-34278766D01*
X59606547Y-34278766D01*
X59758928Y-34240671D01*
X59835119Y-34202576D01*
X59911309Y-34126385D01*
X59949404Y-34012100D01*
X59949404Y-33821623D01*
X59949404Y-35040671D02*
X59949404Y-34583528D01*
X59949404Y-34812100D02*
X59149404Y-34812100D01*
X59263690Y-34735909D01*
X59339880Y-34659719D01*
X59377976Y-34583528D01*
G04 #@! TO.C,D2*
X59949404Y-52821623D02*
X59149404Y-52821623D01*
X59149404Y-53012100D01*
X59187500Y-53126385D01*
X59263690Y-53202576D01*
X59339880Y-53240671D01*
X59492261Y-53278766D01*
X59606547Y-53278766D01*
X59758928Y-53240671D01*
X59835119Y-53202576D01*
X59911309Y-53126385D01*
X59949404Y-53012100D01*
X59949404Y-52821623D01*
X59225595Y-53583528D02*
X59187500Y-53621623D01*
X59149404Y-53697814D01*
X59149404Y-53888290D01*
X59187500Y-53964480D01*
X59225595Y-54002576D01*
X59301785Y-54040671D01*
X59377976Y-54040671D01*
X59492261Y-54002576D01*
X59949404Y-53545433D01*
X59949404Y-54040671D01*
G04 #@! TO.C,D3*
X59949404Y-71821623D02*
X59149404Y-71821623D01*
X59149404Y-72012100D01*
X59187500Y-72126385D01*
X59263690Y-72202576D01*
X59339880Y-72240671D01*
X59492261Y-72278766D01*
X59606547Y-72278766D01*
X59758928Y-72240671D01*
X59835119Y-72202576D01*
X59911309Y-72126385D01*
X59949404Y-72012100D01*
X59949404Y-71821623D01*
X59149404Y-72545433D02*
X59149404Y-73040671D01*
X59454166Y-72774004D01*
X59454166Y-72888290D01*
X59492261Y-72964480D01*
X59530357Y-73002576D01*
X59606547Y-73040671D01*
X59797023Y-73040671D01*
X59873214Y-73002576D01*
X59911309Y-72964480D01*
X59949404Y-72888290D01*
X59949404Y-72659719D01*
X59911309Y-72583528D01*
X59873214Y-72545433D01*
G04 #@! TO.C,D5*
X62324404Y-33821623D02*
X61524404Y-33821623D01*
X61524404Y-34012100D01*
X61562500Y-34126385D01*
X61638690Y-34202576D01*
X61714880Y-34240671D01*
X61867261Y-34278766D01*
X61981547Y-34278766D01*
X62133928Y-34240671D01*
X62210119Y-34202576D01*
X62286309Y-34126385D01*
X62324404Y-34012100D01*
X62324404Y-33821623D01*
X61524404Y-35002576D02*
X61524404Y-34621623D01*
X61905357Y-34583528D01*
X61867261Y-34621623D01*
X61829166Y-34697814D01*
X61829166Y-34888290D01*
X61867261Y-34964480D01*
X61905357Y-35002576D01*
X61981547Y-35040671D01*
X62172023Y-35040671D01*
X62248214Y-35002576D01*
X62286309Y-34964480D01*
X62324404Y-34888290D01*
X62324404Y-34697814D01*
X62286309Y-34621623D01*
X62248214Y-34583528D01*
G04 #@! TO.C,D6*
X62324404Y-52821623D02*
X61524404Y-52821623D01*
X61524404Y-53012100D01*
X61562500Y-53126385D01*
X61638690Y-53202576D01*
X61714880Y-53240671D01*
X61867261Y-53278766D01*
X61981547Y-53278766D01*
X62133928Y-53240671D01*
X62210119Y-53202576D01*
X62286309Y-53126385D01*
X62324404Y-53012100D01*
X62324404Y-52821623D01*
X61524404Y-53964480D02*
X61524404Y-53812100D01*
X61562500Y-53735909D01*
X61600595Y-53697814D01*
X61714880Y-53621623D01*
X61867261Y-53583528D01*
X62172023Y-53583528D01*
X62248214Y-53621623D01*
X62286309Y-53659719D01*
X62324404Y-53735909D01*
X62324404Y-53888290D01*
X62286309Y-53964480D01*
X62248214Y-54002576D01*
X62172023Y-54040671D01*
X61981547Y-54040671D01*
X61905357Y-54002576D01*
X61867261Y-53964480D01*
X61829166Y-53888290D01*
X61829166Y-53735909D01*
X61867261Y-53659719D01*
X61905357Y-53621623D01*
X61981547Y-53583528D01*
G04 #@! TO.C,D7*
X62324404Y-71821623D02*
X61524404Y-71821623D01*
X61524404Y-72012100D01*
X61562500Y-72126385D01*
X61638690Y-72202576D01*
X61714880Y-72240671D01*
X61867261Y-72278766D01*
X61981547Y-72278766D01*
X62133928Y-72240671D01*
X62210119Y-72202576D01*
X62286309Y-72126385D01*
X62324404Y-72012100D01*
X62324404Y-71821623D01*
X61524404Y-72545433D02*
X61524404Y-73078766D01*
X62324404Y-72735909D01*
G04 #@! TO.C,D8*
X62324404Y-86071623D02*
X61524404Y-86071623D01*
X61524404Y-86262100D01*
X61562500Y-86376385D01*
X61638690Y-86452576D01*
X61714880Y-86490671D01*
X61867261Y-86528766D01*
X61981547Y-86528766D01*
X62133928Y-86490671D01*
X62210119Y-86452576D01*
X62286309Y-86376385D01*
X62324404Y-86262100D01*
X62324404Y-86071623D01*
X61867261Y-86985909D02*
X61829166Y-86909719D01*
X61791071Y-86871623D01*
X61714880Y-86833528D01*
X61676785Y-86833528D01*
X61600595Y-86871623D01*
X61562500Y-86909719D01*
X61524404Y-86985909D01*
X61524404Y-87138290D01*
X61562500Y-87214480D01*
X61600595Y-87252576D01*
X61676785Y-87290671D01*
X61714880Y-87290671D01*
X61791071Y-87252576D01*
X61829166Y-87214480D01*
X61867261Y-87138290D01*
X61867261Y-86985909D01*
X61905357Y-86909719D01*
X61943452Y-86871623D01*
X62019642Y-86833528D01*
X62172023Y-86833528D01*
X62248214Y-86871623D01*
X62286309Y-86909719D01*
X62324404Y-86985909D01*
X62324404Y-87138290D01*
X62286309Y-87214480D01*
X62248214Y-87252576D01*
X62172023Y-87290671D01*
X62019642Y-87290671D01*
X61943452Y-87252576D01*
X61905357Y-87214480D01*
X61867261Y-87138290D01*
G04 #@! TO.C,D9*
X80136904Y-33821623D02*
X79336904Y-33821623D01*
X79336904Y-34012100D01*
X79375000Y-34126385D01*
X79451190Y-34202576D01*
X79527380Y-34240671D01*
X79679761Y-34278766D01*
X79794047Y-34278766D01*
X79946428Y-34240671D01*
X80022619Y-34202576D01*
X80098809Y-34126385D01*
X80136904Y-34012100D01*
X80136904Y-33821623D01*
X80136904Y-34659719D02*
X80136904Y-34812100D01*
X80098809Y-34888290D01*
X80060714Y-34926385D01*
X79946428Y-35002576D01*
X79794047Y-35040671D01*
X79489285Y-35040671D01*
X79413095Y-35002576D01*
X79375000Y-34964480D01*
X79336904Y-34888290D01*
X79336904Y-34735909D01*
X79375000Y-34659719D01*
X79413095Y-34621623D01*
X79489285Y-34583528D01*
X79679761Y-34583528D01*
X79755952Y-34621623D01*
X79794047Y-34659719D01*
X79832142Y-34735909D01*
X79832142Y-34888290D01*
X79794047Y-34964480D01*
X79755952Y-35002576D01*
X79679761Y-35040671D01*
G04 #@! TO.C,D10*
X80136904Y-52440671D02*
X79336904Y-52440671D01*
X79336904Y-52631147D01*
X79375000Y-52745433D01*
X79451190Y-52821623D01*
X79527380Y-52859719D01*
X79679761Y-52897814D01*
X79794047Y-52897814D01*
X79946428Y-52859719D01*
X80022619Y-52821623D01*
X80098809Y-52745433D01*
X80136904Y-52631147D01*
X80136904Y-52440671D01*
X80136904Y-53659719D02*
X80136904Y-53202576D01*
X80136904Y-53431147D02*
X79336904Y-53431147D01*
X79451190Y-53354957D01*
X79527380Y-53278766D01*
X79565476Y-53202576D01*
X79336904Y-54154957D02*
X79336904Y-54231147D01*
X79375000Y-54307338D01*
X79413095Y-54345433D01*
X79489285Y-54383528D01*
X79641666Y-54421623D01*
X79832142Y-54421623D01*
X79984523Y-54383528D01*
X80060714Y-54345433D01*
X80098809Y-54307338D01*
X80136904Y-54231147D01*
X80136904Y-54154957D01*
X80098809Y-54078766D01*
X80060714Y-54040671D01*
X79984523Y-54002576D01*
X79832142Y-53964480D01*
X79641666Y-53964480D01*
X79489285Y-54002576D01*
X79413095Y-54040671D01*
X79375000Y-54078766D01*
X79336904Y-54154957D01*
G04 #@! TO.C,D11*
X80136904Y-71440671D02*
X79336904Y-71440671D01*
X79336904Y-71631147D01*
X79375000Y-71745433D01*
X79451190Y-71821623D01*
X79527380Y-71859719D01*
X79679761Y-71897814D01*
X79794047Y-71897814D01*
X79946428Y-71859719D01*
X80022619Y-71821623D01*
X80098809Y-71745433D01*
X80136904Y-71631147D01*
X80136904Y-71440671D01*
X80136904Y-72659719D02*
X80136904Y-72202576D01*
X80136904Y-72431147D02*
X79336904Y-72431147D01*
X79451190Y-72354957D01*
X79527380Y-72278766D01*
X79565476Y-72202576D01*
X80136904Y-73421623D02*
X80136904Y-72964480D01*
X80136904Y-73193052D02*
X79336904Y-73193052D01*
X79451190Y-73116861D01*
X79527380Y-73040671D01*
X79565476Y-72964480D01*
G04 #@! TO.C,D12*
X80136904Y-85690671D02*
X79336904Y-85690671D01*
X79336904Y-85881147D01*
X79375000Y-85995433D01*
X79451190Y-86071623D01*
X79527380Y-86109719D01*
X79679761Y-86147814D01*
X79794047Y-86147814D01*
X79946428Y-86109719D01*
X80022619Y-86071623D01*
X80098809Y-85995433D01*
X80136904Y-85881147D01*
X80136904Y-85690671D01*
X80136904Y-86909719D02*
X80136904Y-86452576D01*
X80136904Y-86681147D02*
X79336904Y-86681147D01*
X79451190Y-86604957D01*
X79527380Y-86528766D01*
X79565476Y-86452576D01*
X79413095Y-87214480D02*
X79375000Y-87252576D01*
X79336904Y-87328766D01*
X79336904Y-87519242D01*
X79375000Y-87595433D01*
X79413095Y-87633528D01*
X79489285Y-87671623D01*
X79565476Y-87671623D01*
X79679761Y-87633528D01*
X80136904Y-87176385D01*
X80136904Y-87671623D01*
G04 #@! TO.C,D13*
X103886904Y-33440671D02*
X103086904Y-33440671D01*
X103086904Y-33631147D01*
X103125000Y-33745433D01*
X103201190Y-33821623D01*
X103277380Y-33859719D01*
X103429761Y-33897814D01*
X103544047Y-33897814D01*
X103696428Y-33859719D01*
X103772619Y-33821623D01*
X103848809Y-33745433D01*
X103886904Y-33631147D01*
X103886904Y-33440671D01*
X103886904Y-34659719D02*
X103886904Y-34202576D01*
X103886904Y-34431147D02*
X103086904Y-34431147D01*
X103201190Y-34354957D01*
X103277380Y-34278766D01*
X103315476Y-34202576D01*
X103086904Y-34926385D02*
X103086904Y-35421623D01*
X103391666Y-35154957D01*
X103391666Y-35269242D01*
X103429761Y-35345433D01*
X103467857Y-35383528D01*
X103544047Y-35421623D01*
X103734523Y-35421623D01*
X103810714Y-35383528D01*
X103848809Y-35345433D01*
X103886904Y-35269242D01*
X103886904Y-35040671D01*
X103848809Y-34964480D01*
X103810714Y-34926385D01*
G04 #@! TO.C,D14*
X103886904Y-52440671D02*
X103086904Y-52440671D01*
X103086904Y-52631147D01*
X103125000Y-52745433D01*
X103201190Y-52821623D01*
X103277380Y-52859719D01*
X103429761Y-52897814D01*
X103544047Y-52897814D01*
X103696428Y-52859719D01*
X103772619Y-52821623D01*
X103848809Y-52745433D01*
X103886904Y-52631147D01*
X103886904Y-52440671D01*
X103886904Y-53659719D02*
X103886904Y-53202576D01*
X103886904Y-53431147D02*
X103086904Y-53431147D01*
X103201190Y-53354957D01*
X103277380Y-53278766D01*
X103315476Y-53202576D01*
X103353571Y-54345433D02*
X103886904Y-54345433D01*
X103048809Y-54154957D02*
X103620238Y-53964480D01*
X103620238Y-54459719D01*
G04 #@! TO.C,D15*
X103886904Y-71440671D02*
X103086904Y-71440671D01*
X103086904Y-71631147D01*
X103125000Y-71745433D01*
X103201190Y-71821623D01*
X103277380Y-71859719D01*
X103429761Y-71897814D01*
X103544047Y-71897814D01*
X103696428Y-71859719D01*
X103772619Y-71821623D01*
X103848809Y-71745433D01*
X103886904Y-71631147D01*
X103886904Y-71440671D01*
X103886904Y-72659719D02*
X103886904Y-72202576D01*
X103886904Y-72431147D02*
X103086904Y-72431147D01*
X103201190Y-72354957D01*
X103277380Y-72278766D01*
X103315476Y-72202576D01*
X103086904Y-73383528D02*
X103086904Y-73002576D01*
X103467857Y-72964480D01*
X103429761Y-73002576D01*
X103391666Y-73078766D01*
X103391666Y-73269242D01*
X103429761Y-73345433D01*
X103467857Y-73383528D01*
X103544047Y-73421623D01*
X103734523Y-73421623D01*
X103810714Y-73383528D01*
X103848809Y-73345433D01*
X103886904Y-73269242D01*
X103886904Y-73078766D01*
X103848809Y-73002576D01*
X103810714Y-72964480D01*
G04 #@! TO.C,D16*
X103886904Y-85690671D02*
X103086904Y-85690671D01*
X103086904Y-85881147D01*
X103125000Y-85995433D01*
X103201190Y-86071623D01*
X103277380Y-86109719D01*
X103429761Y-86147814D01*
X103544047Y-86147814D01*
X103696428Y-86109719D01*
X103772619Y-86071623D01*
X103848809Y-85995433D01*
X103886904Y-85881147D01*
X103886904Y-85690671D01*
X103886904Y-86909719D02*
X103886904Y-86452576D01*
X103886904Y-86681147D02*
X103086904Y-86681147D01*
X103201190Y-86604957D01*
X103277380Y-86528766D01*
X103315476Y-86452576D01*
X103086904Y-87595433D02*
X103086904Y-87443052D01*
X103125000Y-87366861D01*
X103163095Y-87328766D01*
X103277380Y-87252576D01*
X103429761Y-87214480D01*
X103734523Y-87214480D01*
X103810714Y-87252576D01*
X103848809Y-87290671D01*
X103886904Y-87366861D01*
X103886904Y-87519242D01*
X103848809Y-87595433D01*
X103810714Y-87633528D01*
X103734523Y-87671623D01*
X103544047Y-87671623D01*
X103467857Y-87633528D01*
X103429761Y-87595433D01*
X103391666Y-87519242D01*
X103391666Y-87366861D01*
X103429761Y-87290671D01*
X103467857Y-87252576D01*
X103544047Y-87214480D01*
G04 #@! TO.C,D17*
X122886904Y-33440671D02*
X122086904Y-33440671D01*
X122086904Y-33631147D01*
X122125000Y-33745433D01*
X122201190Y-33821623D01*
X122277380Y-33859719D01*
X122429761Y-33897814D01*
X122544047Y-33897814D01*
X122696428Y-33859719D01*
X122772619Y-33821623D01*
X122848809Y-33745433D01*
X122886904Y-33631147D01*
X122886904Y-33440671D01*
X122886904Y-34659719D02*
X122886904Y-34202576D01*
X122886904Y-34431147D02*
X122086904Y-34431147D01*
X122201190Y-34354957D01*
X122277380Y-34278766D01*
X122315476Y-34202576D01*
X122086904Y-34926385D02*
X122086904Y-35459719D01*
X122886904Y-35116861D01*
G04 #@! TO.C,D18*
X122886904Y-52440671D02*
X122086904Y-52440671D01*
X122086904Y-52631147D01*
X122125000Y-52745433D01*
X122201190Y-52821623D01*
X122277380Y-52859719D01*
X122429761Y-52897814D01*
X122544047Y-52897814D01*
X122696428Y-52859719D01*
X122772619Y-52821623D01*
X122848809Y-52745433D01*
X122886904Y-52631147D01*
X122886904Y-52440671D01*
X122886904Y-53659719D02*
X122886904Y-53202576D01*
X122886904Y-53431147D02*
X122086904Y-53431147D01*
X122201190Y-53354957D01*
X122277380Y-53278766D01*
X122315476Y-53202576D01*
X122429761Y-54116861D02*
X122391666Y-54040671D01*
X122353571Y-54002576D01*
X122277380Y-53964480D01*
X122239285Y-53964480D01*
X122163095Y-54002576D01*
X122125000Y-54040671D01*
X122086904Y-54116861D01*
X122086904Y-54269242D01*
X122125000Y-54345433D01*
X122163095Y-54383528D01*
X122239285Y-54421623D01*
X122277380Y-54421623D01*
X122353571Y-54383528D01*
X122391666Y-54345433D01*
X122429761Y-54269242D01*
X122429761Y-54116861D01*
X122467857Y-54040671D01*
X122505952Y-54002576D01*
X122582142Y-53964480D01*
X122734523Y-53964480D01*
X122810714Y-54002576D01*
X122848809Y-54040671D01*
X122886904Y-54116861D01*
X122886904Y-54269242D01*
X122848809Y-54345433D01*
X122810714Y-54383528D01*
X122734523Y-54421623D01*
X122582142Y-54421623D01*
X122505952Y-54383528D01*
X122467857Y-54345433D01*
X122429761Y-54269242D01*
G04 #@! TO.C,D19*
X122886904Y-71440671D02*
X122086904Y-71440671D01*
X122086904Y-71631147D01*
X122125000Y-71745433D01*
X122201190Y-71821623D01*
X122277380Y-71859719D01*
X122429761Y-71897814D01*
X122544047Y-71897814D01*
X122696428Y-71859719D01*
X122772619Y-71821623D01*
X122848809Y-71745433D01*
X122886904Y-71631147D01*
X122886904Y-71440671D01*
X122886904Y-72659719D02*
X122886904Y-72202576D01*
X122886904Y-72431147D02*
X122086904Y-72431147D01*
X122201190Y-72354957D01*
X122277380Y-72278766D01*
X122315476Y-72202576D01*
X122886904Y-73040671D02*
X122886904Y-73193052D01*
X122848809Y-73269242D01*
X122810714Y-73307338D01*
X122696428Y-73383528D01*
X122544047Y-73421623D01*
X122239285Y-73421623D01*
X122163095Y-73383528D01*
X122125000Y-73345433D01*
X122086904Y-73269242D01*
X122086904Y-73116861D01*
X122125000Y-73040671D01*
X122163095Y-73002576D01*
X122239285Y-72964480D01*
X122429761Y-72964480D01*
X122505952Y-73002576D01*
X122544047Y-73040671D01*
X122582142Y-73116861D01*
X122582142Y-73269242D01*
X122544047Y-73345433D01*
X122505952Y-73383528D01*
X122429761Y-73421623D01*
G04 #@! TO.C,D20*
X122886904Y-85690671D02*
X122086904Y-85690671D01*
X122086904Y-85881147D01*
X122125000Y-85995433D01*
X122201190Y-86071623D01*
X122277380Y-86109719D01*
X122429761Y-86147814D01*
X122544047Y-86147814D01*
X122696428Y-86109719D01*
X122772619Y-86071623D01*
X122848809Y-85995433D01*
X122886904Y-85881147D01*
X122886904Y-85690671D01*
X122163095Y-86452576D02*
X122125000Y-86490671D01*
X122086904Y-86566861D01*
X122086904Y-86757338D01*
X122125000Y-86833528D01*
X122163095Y-86871623D01*
X122239285Y-86909719D01*
X122315476Y-86909719D01*
X122429761Y-86871623D01*
X122886904Y-86414480D01*
X122886904Y-86909719D01*
X122086904Y-87404957D02*
X122086904Y-87481147D01*
X122125000Y-87557338D01*
X122163095Y-87595433D01*
X122239285Y-87633528D01*
X122391666Y-87671623D01*
X122582142Y-87671623D01*
X122734523Y-87633528D01*
X122810714Y-87595433D01*
X122848809Y-87557338D01*
X122886904Y-87481147D01*
X122886904Y-87404957D01*
X122848809Y-87328766D01*
X122810714Y-87290671D01*
X122734523Y-87252576D01*
X122582142Y-87214480D01*
X122391666Y-87214480D01*
X122239285Y-87252576D01*
X122163095Y-87290671D01*
X122125000Y-87328766D01*
X122086904Y-87404957D01*
G04 #@! TO.C,D21*
X159699404Y-33440671D02*
X158899404Y-33440671D01*
X158899404Y-33631147D01*
X158937500Y-33745433D01*
X159013690Y-33821623D01*
X159089880Y-33859719D01*
X159242261Y-33897814D01*
X159356547Y-33897814D01*
X159508928Y-33859719D01*
X159585119Y-33821623D01*
X159661309Y-33745433D01*
X159699404Y-33631147D01*
X159699404Y-33440671D01*
X158975595Y-34202576D02*
X158937500Y-34240671D01*
X158899404Y-34316861D01*
X158899404Y-34507338D01*
X158937500Y-34583528D01*
X158975595Y-34621623D01*
X159051785Y-34659719D01*
X159127976Y-34659719D01*
X159242261Y-34621623D01*
X159699404Y-34164480D01*
X159699404Y-34659719D01*
X159699404Y-35421623D02*
X159699404Y-34964480D01*
X159699404Y-35193052D02*
X158899404Y-35193052D01*
X159013690Y-35116861D01*
X159089880Y-35040671D01*
X159127976Y-34964480D01*
G04 #@! TO.C,D22*
X141886904Y-52440671D02*
X141086904Y-52440671D01*
X141086904Y-52631147D01*
X141125000Y-52745433D01*
X141201190Y-52821623D01*
X141277380Y-52859719D01*
X141429761Y-52897814D01*
X141544047Y-52897814D01*
X141696428Y-52859719D01*
X141772619Y-52821623D01*
X141848809Y-52745433D01*
X141886904Y-52631147D01*
X141886904Y-52440671D01*
X141163095Y-53202576D02*
X141125000Y-53240671D01*
X141086904Y-53316861D01*
X141086904Y-53507338D01*
X141125000Y-53583528D01*
X141163095Y-53621623D01*
X141239285Y-53659719D01*
X141315476Y-53659719D01*
X141429761Y-53621623D01*
X141886904Y-53164480D01*
X141886904Y-53659719D01*
X141163095Y-53964480D02*
X141125000Y-54002576D01*
X141086904Y-54078766D01*
X141086904Y-54269242D01*
X141125000Y-54345433D01*
X141163095Y-54383528D01*
X141239285Y-54421623D01*
X141315476Y-54421623D01*
X141429761Y-54383528D01*
X141886904Y-53926385D01*
X141886904Y-54421623D01*
G04 #@! TO.C,D23*
X159699404Y-71440671D02*
X158899404Y-71440671D01*
X158899404Y-71631147D01*
X158937500Y-71745433D01*
X159013690Y-71821623D01*
X159089880Y-71859719D01*
X159242261Y-71897814D01*
X159356547Y-71897814D01*
X159508928Y-71859719D01*
X159585119Y-71821623D01*
X159661309Y-71745433D01*
X159699404Y-71631147D01*
X159699404Y-71440671D01*
X158975595Y-72202576D02*
X158937500Y-72240671D01*
X158899404Y-72316861D01*
X158899404Y-72507338D01*
X158937500Y-72583528D01*
X158975595Y-72621623D01*
X159051785Y-72659719D01*
X159127976Y-72659719D01*
X159242261Y-72621623D01*
X159699404Y-72164480D01*
X159699404Y-72659719D01*
X158899404Y-72926385D02*
X158899404Y-73421623D01*
X159204166Y-73154957D01*
X159204166Y-73269242D01*
X159242261Y-73345433D01*
X159280357Y-73383528D01*
X159356547Y-73421623D01*
X159547023Y-73421623D01*
X159623214Y-73383528D01*
X159661309Y-73345433D01*
X159699404Y-73269242D01*
X159699404Y-73040671D01*
X159661309Y-72964480D01*
X159623214Y-72926385D01*
G04 #@! TO.C,D24*
X141886904Y-85690671D02*
X141086904Y-85690671D01*
X141086904Y-85881147D01*
X141125000Y-85995433D01*
X141201190Y-86071623D01*
X141277380Y-86109719D01*
X141429761Y-86147814D01*
X141544047Y-86147814D01*
X141696428Y-86109719D01*
X141772619Y-86071623D01*
X141848809Y-85995433D01*
X141886904Y-85881147D01*
X141886904Y-85690671D01*
X141163095Y-86452576D02*
X141125000Y-86490671D01*
X141086904Y-86566861D01*
X141086904Y-86757338D01*
X141125000Y-86833528D01*
X141163095Y-86871623D01*
X141239285Y-86909719D01*
X141315476Y-86909719D01*
X141429761Y-86871623D01*
X141886904Y-86414480D01*
X141886904Y-86909719D01*
X141353571Y-87595433D02*
X141886904Y-87595433D01*
X141048809Y-87404957D02*
X141620238Y-87214480D01*
X141620238Y-87709719D01*
G04 #@! TO.C,D25*
X162074404Y-33440671D02*
X161274404Y-33440671D01*
X161274404Y-33631147D01*
X161312500Y-33745433D01*
X161388690Y-33821623D01*
X161464880Y-33859719D01*
X161617261Y-33897814D01*
X161731547Y-33897814D01*
X161883928Y-33859719D01*
X161960119Y-33821623D01*
X162036309Y-33745433D01*
X162074404Y-33631147D01*
X162074404Y-33440671D01*
X161350595Y-34202576D02*
X161312500Y-34240671D01*
X161274404Y-34316861D01*
X161274404Y-34507338D01*
X161312500Y-34583528D01*
X161350595Y-34621623D01*
X161426785Y-34659719D01*
X161502976Y-34659719D01*
X161617261Y-34621623D01*
X162074404Y-34164480D01*
X162074404Y-34659719D01*
X161274404Y-35383528D02*
X161274404Y-35002576D01*
X161655357Y-34964480D01*
X161617261Y-35002576D01*
X161579166Y-35078766D01*
X161579166Y-35269242D01*
X161617261Y-35345433D01*
X161655357Y-35383528D01*
X161731547Y-35421623D01*
X161922023Y-35421623D01*
X161998214Y-35383528D01*
X162036309Y-35345433D01*
X162074404Y-35269242D01*
X162074404Y-35078766D01*
X162036309Y-35002576D01*
X161998214Y-34964480D01*
G04 #@! TO.C,D26*
X160886904Y-52440671D02*
X160086904Y-52440671D01*
X160086904Y-52631147D01*
X160125000Y-52745433D01*
X160201190Y-52821623D01*
X160277380Y-52859719D01*
X160429761Y-52897814D01*
X160544047Y-52897814D01*
X160696428Y-52859719D01*
X160772619Y-52821623D01*
X160848809Y-52745433D01*
X160886904Y-52631147D01*
X160886904Y-52440671D01*
X160163095Y-53202576D02*
X160125000Y-53240671D01*
X160086904Y-53316861D01*
X160086904Y-53507338D01*
X160125000Y-53583528D01*
X160163095Y-53621623D01*
X160239285Y-53659719D01*
X160315476Y-53659719D01*
X160429761Y-53621623D01*
X160886904Y-53164480D01*
X160886904Y-53659719D01*
X160086904Y-54345433D02*
X160086904Y-54193052D01*
X160125000Y-54116861D01*
X160163095Y-54078766D01*
X160277380Y-54002576D01*
X160429761Y-53964480D01*
X160734523Y-53964480D01*
X160810714Y-54002576D01*
X160848809Y-54040671D01*
X160886904Y-54116861D01*
X160886904Y-54269242D01*
X160848809Y-54345433D01*
X160810714Y-54383528D01*
X160734523Y-54421623D01*
X160544047Y-54421623D01*
X160467857Y-54383528D01*
X160429761Y-54345433D01*
X160391666Y-54269242D01*
X160391666Y-54116861D01*
X160429761Y-54040671D01*
X160467857Y-54002576D01*
X160544047Y-53964480D01*
G04 #@! TO.C,D27*
X162074404Y-71440671D02*
X161274404Y-71440671D01*
X161274404Y-71631147D01*
X161312500Y-71745433D01*
X161388690Y-71821623D01*
X161464880Y-71859719D01*
X161617261Y-71897814D01*
X161731547Y-71897814D01*
X161883928Y-71859719D01*
X161960119Y-71821623D01*
X162036309Y-71745433D01*
X162074404Y-71631147D01*
X162074404Y-71440671D01*
X161350595Y-72202576D02*
X161312500Y-72240671D01*
X161274404Y-72316861D01*
X161274404Y-72507338D01*
X161312500Y-72583528D01*
X161350595Y-72621623D01*
X161426785Y-72659719D01*
X161502976Y-72659719D01*
X161617261Y-72621623D01*
X162074404Y-72164480D01*
X162074404Y-72659719D01*
X161274404Y-72926385D02*
X161274404Y-73459719D01*
X162074404Y-73116861D01*
G04 #@! TO.C,D28*
X160886904Y-85690671D02*
X160086904Y-85690671D01*
X160086904Y-85881147D01*
X160125000Y-85995433D01*
X160201190Y-86071623D01*
X160277380Y-86109719D01*
X160429761Y-86147814D01*
X160544047Y-86147814D01*
X160696428Y-86109719D01*
X160772619Y-86071623D01*
X160848809Y-85995433D01*
X160886904Y-85881147D01*
X160886904Y-85690671D01*
X160163095Y-86452576D02*
X160125000Y-86490671D01*
X160086904Y-86566861D01*
X160086904Y-86757338D01*
X160125000Y-86833528D01*
X160163095Y-86871623D01*
X160239285Y-86909719D01*
X160315476Y-86909719D01*
X160429761Y-86871623D01*
X160886904Y-86414480D01*
X160886904Y-86909719D01*
X160429761Y-87366861D02*
X160391666Y-87290671D01*
X160353571Y-87252576D01*
X160277380Y-87214480D01*
X160239285Y-87214480D01*
X160163095Y-87252576D01*
X160125000Y-87290671D01*
X160086904Y-87366861D01*
X160086904Y-87519242D01*
X160125000Y-87595433D01*
X160163095Y-87633528D01*
X160239285Y-87671623D01*
X160277380Y-87671623D01*
X160353571Y-87633528D01*
X160391666Y-87595433D01*
X160429761Y-87519242D01*
X160429761Y-87366861D01*
X160467857Y-87290671D01*
X160505952Y-87252576D01*
X160582142Y-87214480D01*
X160734523Y-87214480D01*
X160810714Y-87252576D01*
X160848809Y-87290671D01*
X160886904Y-87366861D01*
X160886904Y-87519242D01*
X160848809Y-87595433D01*
X160810714Y-87633528D01*
X160734523Y-87671623D01*
X160582142Y-87671623D01*
X160505952Y-87633528D01*
X160467857Y-87595433D01*
X160429761Y-87519242D01*
G04 #@! TO.C,D29*
X178699404Y-33440671D02*
X177899404Y-33440671D01*
X177899404Y-33631147D01*
X177937500Y-33745433D01*
X178013690Y-33821623D01*
X178089880Y-33859719D01*
X178242261Y-33897814D01*
X178356547Y-33897814D01*
X178508928Y-33859719D01*
X178585119Y-33821623D01*
X178661309Y-33745433D01*
X178699404Y-33631147D01*
X178699404Y-33440671D01*
X177975595Y-34202576D02*
X177937500Y-34240671D01*
X177899404Y-34316861D01*
X177899404Y-34507338D01*
X177937500Y-34583528D01*
X177975595Y-34621623D01*
X178051785Y-34659719D01*
X178127976Y-34659719D01*
X178242261Y-34621623D01*
X178699404Y-34164480D01*
X178699404Y-34659719D01*
X178699404Y-35040671D02*
X178699404Y-35193052D01*
X178661309Y-35269242D01*
X178623214Y-35307338D01*
X178508928Y-35383528D01*
X178356547Y-35421623D01*
X178051785Y-35421623D01*
X177975595Y-35383528D01*
X177937500Y-35345433D01*
X177899404Y-35269242D01*
X177899404Y-35116861D01*
X177937500Y-35040671D01*
X177975595Y-35002576D01*
X178051785Y-34964480D01*
X178242261Y-34964480D01*
X178318452Y-35002576D01*
X178356547Y-35040671D01*
X178394642Y-35116861D01*
X178394642Y-35269242D01*
X178356547Y-35345433D01*
X178318452Y-35383528D01*
X178242261Y-35421623D01*
G04 #@! TO.C,D30*
X178699404Y-52440671D02*
X177899404Y-52440671D01*
X177899404Y-52631147D01*
X177937500Y-52745433D01*
X178013690Y-52821623D01*
X178089880Y-52859719D01*
X178242261Y-52897814D01*
X178356547Y-52897814D01*
X178508928Y-52859719D01*
X178585119Y-52821623D01*
X178661309Y-52745433D01*
X178699404Y-52631147D01*
X178699404Y-52440671D01*
X177899404Y-53164480D02*
X177899404Y-53659719D01*
X178204166Y-53393052D01*
X178204166Y-53507338D01*
X178242261Y-53583528D01*
X178280357Y-53621623D01*
X178356547Y-53659719D01*
X178547023Y-53659719D01*
X178623214Y-53621623D01*
X178661309Y-53583528D01*
X178699404Y-53507338D01*
X178699404Y-53278766D01*
X178661309Y-53202576D01*
X178623214Y-53164480D01*
X177899404Y-54154957D02*
X177899404Y-54231147D01*
X177937500Y-54307338D01*
X177975595Y-54345433D01*
X178051785Y-54383528D01*
X178204166Y-54421623D01*
X178394642Y-54421623D01*
X178547023Y-54383528D01*
X178623214Y-54345433D01*
X178661309Y-54307338D01*
X178699404Y-54231147D01*
X178699404Y-54154957D01*
X178661309Y-54078766D01*
X178623214Y-54040671D01*
X178547023Y-54002576D01*
X178394642Y-53964480D01*
X178204166Y-53964480D01*
X178051785Y-54002576D01*
X177975595Y-54040671D01*
X177937500Y-54078766D01*
X177899404Y-54154957D01*
G04 #@! TO.C,D31*
X179886904Y-71440671D02*
X179086904Y-71440671D01*
X179086904Y-71631147D01*
X179125000Y-71745433D01*
X179201190Y-71821623D01*
X179277380Y-71859719D01*
X179429761Y-71897814D01*
X179544047Y-71897814D01*
X179696428Y-71859719D01*
X179772619Y-71821623D01*
X179848809Y-71745433D01*
X179886904Y-71631147D01*
X179886904Y-71440671D01*
X179086904Y-72164480D02*
X179086904Y-72659719D01*
X179391666Y-72393052D01*
X179391666Y-72507338D01*
X179429761Y-72583528D01*
X179467857Y-72621623D01*
X179544047Y-72659719D01*
X179734523Y-72659719D01*
X179810714Y-72621623D01*
X179848809Y-72583528D01*
X179886904Y-72507338D01*
X179886904Y-72278766D01*
X179848809Y-72202576D01*
X179810714Y-72164480D01*
X179886904Y-73421623D02*
X179886904Y-72964480D01*
X179886904Y-73193052D02*
X179086904Y-73193052D01*
X179201190Y-73116861D01*
X179277380Y-73040671D01*
X179315476Y-72964480D01*
G04 #@! TO.C,D32*
X179886904Y-85690671D02*
X179086904Y-85690671D01*
X179086904Y-85881147D01*
X179125000Y-85995433D01*
X179201190Y-86071623D01*
X179277380Y-86109719D01*
X179429761Y-86147814D01*
X179544047Y-86147814D01*
X179696428Y-86109719D01*
X179772619Y-86071623D01*
X179848809Y-85995433D01*
X179886904Y-85881147D01*
X179886904Y-85690671D01*
X179086904Y-86414480D02*
X179086904Y-86909719D01*
X179391666Y-86643052D01*
X179391666Y-86757338D01*
X179429761Y-86833528D01*
X179467857Y-86871623D01*
X179544047Y-86909719D01*
X179734523Y-86909719D01*
X179810714Y-86871623D01*
X179848809Y-86833528D01*
X179886904Y-86757338D01*
X179886904Y-86528766D01*
X179848809Y-86452576D01*
X179810714Y-86414480D01*
X179163095Y-87214480D02*
X179125000Y-87252576D01*
X179086904Y-87328766D01*
X179086904Y-87519242D01*
X179125000Y-87595433D01*
X179163095Y-87633528D01*
X179239285Y-87671623D01*
X179315476Y-87671623D01*
X179429761Y-87633528D01*
X179886904Y-87176385D01*
X179886904Y-87671623D01*
G04 #@! TO.C,D33*
X181074404Y-33440671D02*
X180274404Y-33440671D01*
X180274404Y-33631147D01*
X180312500Y-33745433D01*
X180388690Y-33821623D01*
X180464880Y-33859719D01*
X180617261Y-33897814D01*
X180731547Y-33897814D01*
X180883928Y-33859719D01*
X180960119Y-33821623D01*
X181036309Y-33745433D01*
X181074404Y-33631147D01*
X181074404Y-33440671D01*
X180274404Y-34164480D02*
X180274404Y-34659719D01*
X180579166Y-34393052D01*
X180579166Y-34507338D01*
X180617261Y-34583528D01*
X180655357Y-34621623D01*
X180731547Y-34659719D01*
X180922023Y-34659719D01*
X180998214Y-34621623D01*
X181036309Y-34583528D01*
X181074404Y-34507338D01*
X181074404Y-34278766D01*
X181036309Y-34202576D01*
X180998214Y-34164480D01*
X180274404Y-34926385D02*
X180274404Y-35421623D01*
X180579166Y-35154957D01*
X180579166Y-35269242D01*
X180617261Y-35345433D01*
X180655357Y-35383528D01*
X180731547Y-35421623D01*
X180922023Y-35421623D01*
X180998214Y-35383528D01*
X181036309Y-35345433D01*
X181074404Y-35269242D01*
X181074404Y-35040671D01*
X181036309Y-34964480D01*
X180998214Y-34926385D01*
G04 #@! TO.C,D34*
X181074404Y-52440671D02*
X180274404Y-52440671D01*
X180274404Y-52631147D01*
X180312500Y-52745433D01*
X180388690Y-52821623D01*
X180464880Y-52859719D01*
X180617261Y-52897814D01*
X180731547Y-52897814D01*
X180883928Y-52859719D01*
X180960119Y-52821623D01*
X181036309Y-52745433D01*
X181074404Y-52631147D01*
X181074404Y-52440671D01*
X180274404Y-53164480D02*
X180274404Y-53659719D01*
X180579166Y-53393052D01*
X180579166Y-53507338D01*
X180617261Y-53583528D01*
X180655357Y-53621623D01*
X180731547Y-53659719D01*
X180922023Y-53659719D01*
X180998214Y-53621623D01*
X181036309Y-53583528D01*
X181074404Y-53507338D01*
X181074404Y-53278766D01*
X181036309Y-53202576D01*
X180998214Y-53164480D01*
X180541071Y-54345433D02*
X181074404Y-54345433D01*
X180236309Y-54154957D02*
X180807738Y-53964480D01*
X180807738Y-54459719D01*
G04 #@! TO.C,D35*
X198886904Y-71440671D02*
X198086904Y-71440671D01*
X198086904Y-71631147D01*
X198125000Y-71745433D01*
X198201190Y-71821623D01*
X198277380Y-71859719D01*
X198429761Y-71897814D01*
X198544047Y-71897814D01*
X198696428Y-71859719D01*
X198772619Y-71821623D01*
X198848809Y-71745433D01*
X198886904Y-71631147D01*
X198886904Y-71440671D01*
X198086904Y-72164480D02*
X198086904Y-72659719D01*
X198391666Y-72393052D01*
X198391666Y-72507338D01*
X198429761Y-72583528D01*
X198467857Y-72621623D01*
X198544047Y-72659719D01*
X198734523Y-72659719D01*
X198810714Y-72621623D01*
X198848809Y-72583528D01*
X198886904Y-72507338D01*
X198886904Y-72278766D01*
X198848809Y-72202576D01*
X198810714Y-72164480D01*
X198086904Y-73383528D02*
X198086904Y-73002576D01*
X198467857Y-72964480D01*
X198429761Y-73002576D01*
X198391666Y-73078766D01*
X198391666Y-73269242D01*
X198429761Y-73345433D01*
X198467857Y-73383528D01*
X198544047Y-73421623D01*
X198734523Y-73421623D01*
X198810714Y-73383528D01*
X198848809Y-73345433D01*
X198886904Y-73269242D01*
X198886904Y-73078766D01*
X198848809Y-73002576D01*
X198810714Y-72964480D01*
G04 #@! TO.C,D36*
X235699404Y-33440671D02*
X234899404Y-33440671D01*
X234899404Y-33631147D01*
X234937500Y-33745433D01*
X235013690Y-33821623D01*
X235089880Y-33859719D01*
X235242261Y-33897814D01*
X235356547Y-33897814D01*
X235508928Y-33859719D01*
X235585119Y-33821623D01*
X235661309Y-33745433D01*
X235699404Y-33631147D01*
X235699404Y-33440671D01*
X234899404Y-34164480D02*
X234899404Y-34659719D01*
X235204166Y-34393052D01*
X235204166Y-34507338D01*
X235242261Y-34583528D01*
X235280357Y-34621623D01*
X235356547Y-34659719D01*
X235547023Y-34659719D01*
X235623214Y-34621623D01*
X235661309Y-34583528D01*
X235699404Y-34507338D01*
X235699404Y-34278766D01*
X235661309Y-34202576D01*
X235623214Y-34164480D01*
X234899404Y-35345433D02*
X234899404Y-35193052D01*
X234937500Y-35116861D01*
X234975595Y-35078766D01*
X235089880Y-35002576D01*
X235242261Y-34964480D01*
X235547023Y-34964480D01*
X235623214Y-35002576D01*
X235661309Y-35040671D01*
X235699404Y-35116861D01*
X235699404Y-35269242D01*
X235661309Y-35345433D01*
X235623214Y-35383528D01*
X235547023Y-35421623D01*
X235356547Y-35421623D01*
X235280357Y-35383528D01*
X235242261Y-35345433D01*
X235204166Y-35269242D01*
X235204166Y-35116861D01*
X235242261Y-35040671D01*
X235280357Y-35002576D01*
X235356547Y-34964480D01*
G04 #@! TO.C,D37*
X235699404Y-52440671D02*
X234899404Y-52440671D01*
X234899404Y-52631147D01*
X234937500Y-52745433D01*
X235013690Y-52821623D01*
X235089880Y-52859719D01*
X235242261Y-52897814D01*
X235356547Y-52897814D01*
X235508928Y-52859719D01*
X235585119Y-52821623D01*
X235661309Y-52745433D01*
X235699404Y-52631147D01*
X235699404Y-52440671D01*
X234899404Y-53164480D02*
X234899404Y-53659719D01*
X235204166Y-53393052D01*
X235204166Y-53507338D01*
X235242261Y-53583528D01*
X235280357Y-53621623D01*
X235356547Y-53659719D01*
X235547023Y-53659719D01*
X235623214Y-53621623D01*
X235661309Y-53583528D01*
X235699404Y-53507338D01*
X235699404Y-53278766D01*
X235661309Y-53202576D01*
X235623214Y-53164480D01*
X234899404Y-53926385D02*
X234899404Y-54459719D01*
X235699404Y-54116861D01*
G04 #@! TO.C,D38*
X217886904Y-71440671D02*
X217086904Y-71440671D01*
X217086904Y-71631147D01*
X217125000Y-71745433D01*
X217201190Y-71821623D01*
X217277380Y-71859719D01*
X217429761Y-71897814D01*
X217544047Y-71897814D01*
X217696428Y-71859719D01*
X217772619Y-71821623D01*
X217848809Y-71745433D01*
X217886904Y-71631147D01*
X217886904Y-71440671D01*
X217086904Y-72164480D02*
X217086904Y-72659719D01*
X217391666Y-72393052D01*
X217391666Y-72507338D01*
X217429761Y-72583528D01*
X217467857Y-72621623D01*
X217544047Y-72659719D01*
X217734523Y-72659719D01*
X217810714Y-72621623D01*
X217848809Y-72583528D01*
X217886904Y-72507338D01*
X217886904Y-72278766D01*
X217848809Y-72202576D01*
X217810714Y-72164480D01*
X217429761Y-73116861D02*
X217391666Y-73040671D01*
X217353571Y-73002576D01*
X217277380Y-72964480D01*
X217239285Y-72964480D01*
X217163095Y-73002576D01*
X217125000Y-73040671D01*
X217086904Y-73116861D01*
X217086904Y-73269242D01*
X217125000Y-73345433D01*
X217163095Y-73383528D01*
X217239285Y-73421623D01*
X217277380Y-73421623D01*
X217353571Y-73383528D01*
X217391666Y-73345433D01*
X217429761Y-73269242D01*
X217429761Y-73116861D01*
X217467857Y-73040671D01*
X217505952Y-73002576D01*
X217582142Y-72964480D01*
X217734523Y-72964480D01*
X217810714Y-73002576D01*
X217848809Y-73040671D01*
X217886904Y-73116861D01*
X217886904Y-73269242D01*
X217848809Y-73345433D01*
X217810714Y-73383528D01*
X217734523Y-73421623D01*
X217582142Y-73421623D01*
X217505952Y-73383528D01*
X217467857Y-73345433D01*
X217429761Y-73269242D01*
G04 #@! TO.C,D39*
X238074404Y-33440671D02*
X237274404Y-33440671D01*
X237274404Y-33631147D01*
X237312500Y-33745433D01*
X237388690Y-33821623D01*
X237464880Y-33859719D01*
X237617261Y-33897814D01*
X237731547Y-33897814D01*
X237883928Y-33859719D01*
X237960119Y-33821623D01*
X238036309Y-33745433D01*
X238074404Y-33631147D01*
X238074404Y-33440671D01*
X237274404Y-34164480D02*
X237274404Y-34659719D01*
X237579166Y-34393052D01*
X237579166Y-34507338D01*
X237617261Y-34583528D01*
X237655357Y-34621623D01*
X237731547Y-34659719D01*
X237922023Y-34659719D01*
X237998214Y-34621623D01*
X238036309Y-34583528D01*
X238074404Y-34507338D01*
X238074404Y-34278766D01*
X238036309Y-34202576D01*
X237998214Y-34164480D01*
X238074404Y-35040671D02*
X238074404Y-35193052D01*
X238036309Y-35269242D01*
X237998214Y-35307338D01*
X237883928Y-35383528D01*
X237731547Y-35421623D01*
X237426785Y-35421623D01*
X237350595Y-35383528D01*
X237312500Y-35345433D01*
X237274404Y-35269242D01*
X237274404Y-35116861D01*
X237312500Y-35040671D01*
X237350595Y-35002576D01*
X237426785Y-34964480D01*
X237617261Y-34964480D01*
X237693452Y-35002576D01*
X237731547Y-35040671D01*
X237769642Y-35116861D01*
X237769642Y-35269242D01*
X237731547Y-35345433D01*
X237693452Y-35383528D01*
X237617261Y-35421623D01*
G04 #@! TO.C,D40*
X238074404Y-52440671D02*
X237274404Y-52440671D01*
X237274404Y-52631147D01*
X237312500Y-52745433D01*
X237388690Y-52821623D01*
X237464880Y-52859719D01*
X237617261Y-52897814D01*
X237731547Y-52897814D01*
X237883928Y-52859719D01*
X237960119Y-52821623D01*
X238036309Y-52745433D01*
X238074404Y-52631147D01*
X238074404Y-52440671D01*
X237541071Y-53583528D02*
X238074404Y-53583528D01*
X237236309Y-53393052D02*
X237807738Y-53202576D01*
X237807738Y-53697814D01*
X237274404Y-54154957D02*
X237274404Y-54231147D01*
X237312500Y-54307338D01*
X237350595Y-54345433D01*
X237426785Y-54383528D01*
X237579166Y-54421623D01*
X237769642Y-54421623D01*
X237922023Y-54383528D01*
X237998214Y-54345433D01*
X238036309Y-54307338D01*
X238074404Y-54231147D01*
X238074404Y-54154957D01*
X238036309Y-54078766D01*
X237998214Y-54040671D01*
X237922023Y-54002576D01*
X237769642Y-53964480D01*
X237579166Y-53964480D01*
X237426785Y-54002576D01*
X237350595Y-54040671D01*
X237312500Y-54078766D01*
X237274404Y-54154957D01*
G04 #@! TO.C,D41*
X236886904Y-71440671D02*
X236086904Y-71440671D01*
X236086904Y-71631147D01*
X236125000Y-71745433D01*
X236201190Y-71821623D01*
X236277380Y-71859719D01*
X236429761Y-71897814D01*
X236544047Y-71897814D01*
X236696428Y-71859719D01*
X236772619Y-71821623D01*
X236848809Y-71745433D01*
X236886904Y-71631147D01*
X236886904Y-71440671D01*
X236353571Y-72583528D02*
X236886904Y-72583528D01*
X236048809Y-72393052D02*
X236620238Y-72202576D01*
X236620238Y-72697814D01*
X236886904Y-73421623D02*
X236886904Y-72964480D01*
X236886904Y-73193052D02*
X236086904Y-73193052D01*
X236201190Y-73116861D01*
X236277380Y-73040671D01*
X236315476Y-72964480D01*
G04 #@! TO.C,D42*
X217886904Y-85690671D02*
X217086904Y-85690671D01*
X217086904Y-85881147D01*
X217125000Y-85995433D01*
X217201190Y-86071623D01*
X217277380Y-86109719D01*
X217429761Y-86147814D01*
X217544047Y-86147814D01*
X217696428Y-86109719D01*
X217772619Y-86071623D01*
X217848809Y-85995433D01*
X217886904Y-85881147D01*
X217886904Y-85690671D01*
X217353571Y-86833528D02*
X217886904Y-86833528D01*
X217048809Y-86643052D02*
X217620238Y-86452576D01*
X217620238Y-86947814D01*
X217163095Y-87214480D02*
X217125000Y-87252576D01*
X217086904Y-87328766D01*
X217086904Y-87519242D01*
X217125000Y-87595433D01*
X217163095Y-87633528D01*
X217239285Y-87671623D01*
X217315476Y-87671623D01*
X217429761Y-87633528D01*
X217886904Y-87176385D01*
X217886904Y-87671623D01*
G04 #@! TO.C,D43*
X255886904Y-33440671D02*
X255086904Y-33440671D01*
X255086904Y-33631147D01*
X255125000Y-33745433D01*
X255201190Y-33821623D01*
X255277380Y-33859719D01*
X255429761Y-33897814D01*
X255544047Y-33897814D01*
X255696428Y-33859719D01*
X255772619Y-33821623D01*
X255848809Y-33745433D01*
X255886904Y-33631147D01*
X255886904Y-33440671D01*
X255353571Y-34583528D02*
X255886904Y-34583528D01*
X255048809Y-34393052D02*
X255620238Y-34202576D01*
X255620238Y-34697814D01*
X255086904Y-34926385D02*
X255086904Y-35421623D01*
X255391666Y-35154957D01*
X255391666Y-35269242D01*
X255429761Y-35345433D01*
X255467857Y-35383528D01*
X255544047Y-35421623D01*
X255734523Y-35421623D01*
X255810714Y-35383528D01*
X255848809Y-35345433D01*
X255886904Y-35269242D01*
X255886904Y-35040671D01*
X255848809Y-34964480D01*
X255810714Y-34926385D01*
G04 #@! TO.C,D44*
X255886904Y-52440671D02*
X255086904Y-52440671D01*
X255086904Y-52631147D01*
X255125000Y-52745433D01*
X255201190Y-52821623D01*
X255277380Y-52859719D01*
X255429761Y-52897814D01*
X255544047Y-52897814D01*
X255696428Y-52859719D01*
X255772619Y-52821623D01*
X255848809Y-52745433D01*
X255886904Y-52631147D01*
X255886904Y-52440671D01*
X255353571Y-53583528D02*
X255886904Y-53583528D01*
X255048809Y-53393052D02*
X255620238Y-53202576D01*
X255620238Y-53697814D01*
X255353571Y-54345433D02*
X255886904Y-54345433D01*
X255048809Y-54154957D02*
X255620238Y-53964480D01*
X255620238Y-54459719D01*
G04 #@! TO.C,D45*
X255761904Y-71440671D02*
X254961904Y-71440671D01*
X254961904Y-71631147D01*
X255000000Y-71745433D01*
X255076190Y-71821623D01*
X255152380Y-71859719D01*
X255304761Y-71897814D01*
X255419047Y-71897814D01*
X255571428Y-71859719D01*
X255647619Y-71821623D01*
X255723809Y-71745433D01*
X255761904Y-71631147D01*
X255761904Y-71440671D01*
X255228571Y-72583528D02*
X255761904Y-72583528D01*
X254923809Y-72393052D02*
X255495238Y-72202576D01*
X255495238Y-72697814D01*
X254961904Y-73383528D02*
X254961904Y-73002576D01*
X255342857Y-72964480D01*
X255304761Y-73002576D01*
X255266666Y-73078766D01*
X255266666Y-73269242D01*
X255304761Y-73345433D01*
X255342857Y-73383528D01*
X255419047Y-73421623D01*
X255609523Y-73421623D01*
X255685714Y-73383528D01*
X255723809Y-73345433D01*
X255761904Y-73269242D01*
X255761904Y-73078766D01*
X255723809Y-73002576D01*
X255685714Y-72964480D01*
G04 #@! TO.C,D46*
X255886904Y-85690671D02*
X255086904Y-85690671D01*
X255086904Y-85881147D01*
X255125000Y-85995433D01*
X255201190Y-86071623D01*
X255277380Y-86109719D01*
X255429761Y-86147814D01*
X255544047Y-86147814D01*
X255696428Y-86109719D01*
X255772619Y-86071623D01*
X255848809Y-85995433D01*
X255886904Y-85881147D01*
X255886904Y-85690671D01*
X255353571Y-86833528D02*
X255886904Y-86833528D01*
X255048809Y-86643052D02*
X255620238Y-86452576D01*
X255620238Y-86947814D01*
X255086904Y-87595433D02*
X255086904Y-87443052D01*
X255125000Y-87366861D01*
X255163095Y-87328766D01*
X255277380Y-87252576D01*
X255429761Y-87214480D01*
X255734523Y-87214480D01*
X255810714Y-87252576D01*
X255848809Y-87290671D01*
X255886904Y-87366861D01*
X255886904Y-87519242D01*
X255848809Y-87595433D01*
X255810714Y-87633528D01*
X255734523Y-87671623D01*
X255544047Y-87671623D01*
X255467857Y-87633528D01*
X255429761Y-87595433D01*
X255391666Y-87519242D01*
X255391666Y-87366861D01*
X255429761Y-87290671D01*
X255467857Y-87252576D01*
X255544047Y-87214480D01*
G04 #@! TO.C,D47*
X274886904Y-33440671D02*
X274086904Y-33440671D01*
X274086904Y-33631147D01*
X274125000Y-33745433D01*
X274201190Y-33821623D01*
X274277380Y-33859719D01*
X274429761Y-33897814D01*
X274544047Y-33897814D01*
X274696428Y-33859719D01*
X274772619Y-33821623D01*
X274848809Y-33745433D01*
X274886904Y-33631147D01*
X274886904Y-33440671D01*
X274353571Y-34583528D02*
X274886904Y-34583528D01*
X274048809Y-34393052D02*
X274620238Y-34202576D01*
X274620238Y-34697814D01*
X274086904Y-34926385D02*
X274086904Y-35459719D01*
X274886904Y-35116861D01*
G04 #@! TO.C,D48*
X274886904Y-52440671D02*
X274086904Y-52440671D01*
X274086904Y-52631147D01*
X274125000Y-52745433D01*
X274201190Y-52821623D01*
X274277380Y-52859719D01*
X274429761Y-52897814D01*
X274544047Y-52897814D01*
X274696428Y-52859719D01*
X274772619Y-52821623D01*
X274848809Y-52745433D01*
X274886904Y-52631147D01*
X274886904Y-52440671D01*
X274353571Y-53583528D02*
X274886904Y-53583528D01*
X274048809Y-53393052D02*
X274620238Y-53202576D01*
X274620238Y-53697814D01*
X274429761Y-54116861D02*
X274391666Y-54040671D01*
X274353571Y-54002576D01*
X274277380Y-53964480D01*
X274239285Y-53964480D01*
X274163095Y-54002576D01*
X274125000Y-54040671D01*
X274086904Y-54116861D01*
X274086904Y-54269242D01*
X274125000Y-54345433D01*
X274163095Y-54383528D01*
X274239285Y-54421623D01*
X274277380Y-54421623D01*
X274353571Y-54383528D01*
X274391666Y-54345433D01*
X274429761Y-54269242D01*
X274429761Y-54116861D01*
X274467857Y-54040671D01*
X274505952Y-54002576D01*
X274582142Y-53964480D01*
X274734523Y-53964480D01*
X274810714Y-54002576D01*
X274848809Y-54040671D01*
X274886904Y-54116861D01*
X274886904Y-54269242D01*
X274848809Y-54345433D01*
X274810714Y-54383528D01*
X274734523Y-54421623D01*
X274582142Y-54421623D01*
X274505952Y-54383528D01*
X274467857Y-54345433D01*
X274429761Y-54269242D01*
G04 #@! TO.C,D49*
X274761904Y-71440671D02*
X273961904Y-71440671D01*
X273961904Y-71631147D01*
X274000000Y-71745433D01*
X274076190Y-71821623D01*
X274152380Y-71859719D01*
X274304761Y-71897814D01*
X274419047Y-71897814D01*
X274571428Y-71859719D01*
X274647619Y-71821623D01*
X274723809Y-71745433D01*
X274761904Y-71631147D01*
X274761904Y-71440671D01*
X274228571Y-72583528D02*
X274761904Y-72583528D01*
X273923809Y-72393052D02*
X274495238Y-72202576D01*
X274495238Y-72697814D01*
X274761904Y-73040671D02*
X274761904Y-73193052D01*
X274723809Y-73269242D01*
X274685714Y-73307338D01*
X274571428Y-73383528D01*
X274419047Y-73421623D01*
X274114285Y-73421623D01*
X274038095Y-73383528D01*
X274000000Y-73345433D01*
X273961904Y-73269242D01*
X273961904Y-73116861D01*
X274000000Y-73040671D01*
X274038095Y-73002576D01*
X274114285Y-72964480D01*
X274304761Y-72964480D01*
X274380952Y-73002576D01*
X274419047Y-73040671D01*
X274457142Y-73116861D01*
X274457142Y-73269242D01*
X274419047Y-73345433D01*
X274380952Y-73383528D01*
X274304761Y-73421623D01*
G04 #@! TO.C,D50*
X274886904Y-85690671D02*
X274086904Y-85690671D01*
X274086904Y-85881147D01*
X274125000Y-85995433D01*
X274201190Y-86071623D01*
X274277380Y-86109719D01*
X274429761Y-86147814D01*
X274544047Y-86147814D01*
X274696428Y-86109719D01*
X274772619Y-86071623D01*
X274848809Y-85995433D01*
X274886904Y-85881147D01*
X274886904Y-85690671D01*
X274086904Y-86871623D02*
X274086904Y-86490671D01*
X274467857Y-86452576D01*
X274429761Y-86490671D01*
X274391666Y-86566861D01*
X274391666Y-86757338D01*
X274429761Y-86833528D01*
X274467857Y-86871623D01*
X274544047Y-86909719D01*
X274734523Y-86909719D01*
X274810714Y-86871623D01*
X274848809Y-86833528D01*
X274886904Y-86757338D01*
X274886904Y-86566861D01*
X274848809Y-86490671D01*
X274810714Y-86452576D01*
X274086904Y-87404957D02*
X274086904Y-87481147D01*
X274125000Y-87557338D01*
X274163095Y-87595433D01*
X274239285Y-87633528D01*
X274391666Y-87671623D01*
X274582142Y-87671623D01*
X274734523Y-87633528D01*
X274810714Y-87595433D01*
X274848809Y-87557338D01*
X274886904Y-87481147D01*
X274886904Y-87404957D01*
X274848809Y-87328766D01*
X274810714Y-87290671D01*
X274734523Y-87252576D01*
X274582142Y-87214480D01*
X274391666Y-87214480D01*
X274239285Y-87252576D01*
X274163095Y-87290671D01*
X274125000Y-87328766D01*
X274086904Y-87404957D01*
G04 #@! TO.C,D51*
X311699404Y-33440671D02*
X310899404Y-33440671D01*
X310899404Y-33631147D01*
X310937500Y-33745433D01*
X311013690Y-33821623D01*
X311089880Y-33859719D01*
X311242261Y-33897814D01*
X311356547Y-33897814D01*
X311508928Y-33859719D01*
X311585119Y-33821623D01*
X311661309Y-33745433D01*
X311699404Y-33631147D01*
X311699404Y-33440671D01*
X310899404Y-34621623D02*
X310899404Y-34240671D01*
X311280357Y-34202576D01*
X311242261Y-34240671D01*
X311204166Y-34316861D01*
X311204166Y-34507338D01*
X311242261Y-34583528D01*
X311280357Y-34621623D01*
X311356547Y-34659719D01*
X311547023Y-34659719D01*
X311623214Y-34621623D01*
X311661309Y-34583528D01*
X311699404Y-34507338D01*
X311699404Y-34316861D01*
X311661309Y-34240671D01*
X311623214Y-34202576D01*
X311699404Y-35421623D02*
X311699404Y-34964480D01*
X311699404Y-35193052D02*
X310899404Y-35193052D01*
X311013690Y-35116861D01*
X311089880Y-35040671D01*
X311127976Y-34964480D01*
G04 #@! TO.C,D52*
X293886904Y-52440671D02*
X293086904Y-52440671D01*
X293086904Y-52631147D01*
X293125000Y-52745433D01*
X293201190Y-52821623D01*
X293277380Y-52859719D01*
X293429761Y-52897814D01*
X293544047Y-52897814D01*
X293696428Y-52859719D01*
X293772619Y-52821623D01*
X293848809Y-52745433D01*
X293886904Y-52631147D01*
X293886904Y-52440671D01*
X293086904Y-53621623D02*
X293086904Y-53240671D01*
X293467857Y-53202576D01*
X293429761Y-53240671D01*
X293391666Y-53316861D01*
X293391666Y-53507338D01*
X293429761Y-53583528D01*
X293467857Y-53621623D01*
X293544047Y-53659719D01*
X293734523Y-53659719D01*
X293810714Y-53621623D01*
X293848809Y-53583528D01*
X293886904Y-53507338D01*
X293886904Y-53316861D01*
X293848809Y-53240671D01*
X293810714Y-53202576D01*
X293163095Y-53964480D02*
X293125000Y-54002576D01*
X293086904Y-54078766D01*
X293086904Y-54269242D01*
X293125000Y-54345433D01*
X293163095Y-54383528D01*
X293239285Y-54421623D01*
X293315476Y-54421623D01*
X293429761Y-54383528D01*
X293886904Y-53926385D01*
X293886904Y-54421623D01*
G04 #@! TO.C,D53*
X311699404Y-71440671D02*
X310899404Y-71440671D01*
X310899404Y-71631147D01*
X310937500Y-71745433D01*
X311013690Y-71821623D01*
X311089880Y-71859719D01*
X311242261Y-71897814D01*
X311356547Y-71897814D01*
X311508928Y-71859719D01*
X311585119Y-71821623D01*
X311661309Y-71745433D01*
X311699404Y-71631147D01*
X311699404Y-71440671D01*
X310899404Y-72621623D02*
X310899404Y-72240671D01*
X311280357Y-72202576D01*
X311242261Y-72240671D01*
X311204166Y-72316861D01*
X311204166Y-72507338D01*
X311242261Y-72583528D01*
X311280357Y-72621623D01*
X311356547Y-72659719D01*
X311547023Y-72659719D01*
X311623214Y-72621623D01*
X311661309Y-72583528D01*
X311699404Y-72507338D01*
X311699404Y-72316861D01*
X311661309Y-72240671D01*
X311623214Y-72202576D01*
X310899404Y-72926385D02*
X310899404Y-73421623D01*
X311204166Y-73154957D01*
X311204166Y-73269242D01*
X311242261Y-73345433D01*
X311280357Y-73383528D01*
X311356547Y-73421623D01*
X311547023Y-73421623D01*
X311623214Y-73383528D01*
X311661309Y-73345433D01*
X311699404Y-73269242D01*
X311699404Y-73040671D01*
X311661309Y-72964480D01*
X311623214Y-72926385D01*
G04 #@! TO.C,D54*
X293886904Y-85690671D02*
X293086904Y-85690671D01*
X293086904Y-85881147D01*
X293125000Y-85995433D01*
X293201190Y-86071623D01*
X293277380Y-86109719D01*
X293429761Y-86147814D01*
X293544047Y-86147814D01*
X293696428Y-86109719D01*
X293772619Y-86071623D01*
X293848809Y-85995433D01*
X293886904Y-85881147D01*
X293886904Y-85690671D01*
X293086904Y-86871623D02*
X293086904Y-86490671D01*
X293467857Y-86452576D01*
X293429761Y-86490671D01*
X293391666Y-86566861D01*
X293391666Y-86757338D01*
X293429761Y-86833528D01*
X293467857Y-86871623D01*
X293544047Y-86909719D01*
X293734523Y-86909719D01*
X293810714Y-86871623D01*
X293848809Y-86833528D01*
X293886904Y-86757338D01*
X293886904Y-86566861D01*
X293848809Y-86490671D01*
X293810714Y-86452576D01*
X293353571Y-87595433D02*
X293886904Y-87595433D01*
X293048809Y-87404957D02*
X293620238Y-87214480D01*
X293620238Y-87709719D01*
G04 #@! TO.C,D55*
X314074404Y-33440671D02*
X313274404Y-33440671D01*
X313274404Y-33631147D01*
X313312500Y-33745433D01*
X313388690Y-33821623D01*
X313464880Y-33859719D01*
X313617261Y-33897814D01*
X313731547Y-33897814D01*
X313883928Y-33859719D01*
X313960119Y-33821623D01*
X314036309Y-33745433D01*
X314074404Y-33631147D01*
X314074404Y-33440671D01*
X313274404Y-34621623D02*
X313274404Y-34240671D01*
X313655357Y-34202576D01*
X313617261Y-34240671D01*
X313579166Y-34316861D01*
X313579166Y-34507338D01*
X313617261Y-34583528D01*
X313655357Y-34621623D01*
X313731547Y-34659719D01*
X313922023Y-34659719D01*
X313998214Y-34621623D01*
X314036309Y-34583528D01*
X314074404Y-34507338D01*
X314074404Y-34316861D01*
X314036309Y-34240671D01*
X313998214Y-34202576D01*
X313274404Y-35383528D02*
X313274404Y-35002576D01*
X313655357Y-34964480D01*
X313617261Y-35002576D01*
X313579166Y-35078766D01*
X313579166Y-35269242D01*
X313617261Y-35345433D01*
X313655357Y-35383528D01*
X313731547Y-35421623D01*
X313922023Y-35421623D01*
X313998214Y-35383528D01*
X314036309Y-35345433D01*
X314074404Y-35269242D01*
X314074404Y-35078766D01*
X314036309Y-35002576D01*
X313998214Y-34964480D01*
G04 #@! TO.C,D56*
X312886904Y-52440671D02*
X312086904Y-52440671D01*
X312086904Y-52631147D01*
X312125000Y-52745433D01*
X312201190Y-52821623D01*
X312277380Y-52859719D01*
X312429761Y-52897814D01*
X312544047Y-52897814D01*
X312696428Y-52859719D01*
X312772619Y-52821623D01*
X312848809Y-52745433D01*
X312886904Y-52631147D01*
X312886904Y-52440671D01*
X312086904Y-53621623D02*
X312086904Y-53240671D01*
X312467857Y-53202576D01*
X312429761Y-53240671D01*
X312391666Y-53316861D01*
X312391666Y-53507338D01*
X312429761Y-53583528D01*
X312467857Y-53621623D01*
X312544047Y-53659719D01*
X312734523Y-53659719D01*
X312810714Y-53621623D01*
X312848809Y-53583528D01*
X312886904Y-53507338D01*
X312886904Y-53316861D01*
X312848809Y-53240671D01*
X312810714Y-53202576D01*
X312086904Y-54345433D02*
X312086904Y-54193052D01*
X312125000Y-54116861D01*
X312163095Y-54078766D01*
X312277380Y-54002576D01*
X312429761Y-53964480D01*
X312734523Y-53964480D01*
X312810714Y-54002576D01*
X312848809Y-54040671D01*
X312886904Y-54116861D01*
X312886904Y-54269242D01*
X312848809Y-54345433D01*
X312810714Y-54383528D01*
X312734523Y-54421623D01*
X312544047Y-54421623D01*
X312467857Y-54383528D01*
X312429761Y-54345433D01*
X312391666Y-54269242D01*
X312391666Y-54116861D01*
X312429761Y-54040671D01*
X312467857Y-54002576D01*
X312544047Y-53964480D01*
G04 #@! TO.C,D57*
X314074404Y-71440671D02*
X313274404Y-71440671D01*
X313274404Y-71631147D01*
X313312500Y-71745433D01*
X313388690Y-71821623D01*
X313464880Y-71859719D01*
X313617261Y-71897814D01*
X313731547Y-71897814D01*
X313883928Y-71859719D01*
X313960119Y-71821623D01*
X314036309Y-71745433D01*
X314074404Y-71631147D01*
X314074404Y-71440671D01*
X313274404Y-72621623D02*
X313274404Y-72240671D01*
X313655357Y-72202576D01*
X313617261Y-72240671D01*
X313579166Y-72316861D01*
X313579166Y-72507338D01*
X313617261Y-72583528D01*
X313655357Y-72621623D01*
X313731547Y-72659719D01*
X313922023Y-72659719D01*
X313998214Y-72621623D01*
X314036309Y-72583528D01*
X314074404Y-72507338D01*
X314074404Y-72316861D01*
X314036309Y-72240671D01*
X313998214Y-72202576D01*
X313274404Y-72926385D02*
X313274404Y-73459719D01*
X314074404Y-73116861D01*
G04 #@! TO.C,D58*
X317636904Y-88065671D02*
X316836904Y-88065671D01*
X316836904Y-88256147D01*
X316875000Y-88370433D01*
X316951190Y-88446623D01*
X317027380Y-88484719D01*
X317179761Y-88522814D01*
X317294047Y-88522814D01*
X317446428Y-88484719D01*
X317522619Y-88446623D01*
X317598809Y-88370433D01*
X317636904Y-88256147D01*
X317636904Y-88065671D01*
X316836904Y-89246623D02*
X316836904Y-88865671D01*
X317217857Y-88827576D01*
X317179761Y-88865671D01*
X317141666Y-88941861D01*
X317141666Y-89132338D01*
X317179761Y-89208528D01*
X317217857Y-89246623D01*
X317294047Y-89284719D01*
X317484523Y-89284719D01*
X317560714Y-89246623D01*
X317598809Y-89208528D01*
X317636904Y-89132338D01*
X317636904Y-88941861D01*
X317598809Y-88865671D01*
X317560714Y-88827576D01*
X317179761Y-89741861D02*
X317141666Y-89665671D01*
X317103571Y-89627576D01*
X317027380Y-89589480D01*
X316989285Y-89589480D01*
X316913095Y-89627576D01*
X316875000Y-89665671D01*
X316836904Y-89741861D01*
X316836904Y-89894242D01*
X316875000Y-89970433D01*
X316913095Y-90008528D01*
X316989285Y-90046623D01*
X317027380Y-90046623D01*
X317103571Y-90008528D01*
X317141666Y-89970433D01*
X317179761Y-89894242D01*
X317179761Y-89741861D01*
X317217857Y-89665671D01*
X317255952Y-89627576D01*
X317332142Y-89589480D01*
X317484523Y-89589480D01*
X317560714Y-89627576D01*
X317598809Y-89665671D01*
X317636904Y-89741861D01*
X317636904Y-89894242D01*
X317598809Y-89970433D01*
X317560714Y-90008528D01*
X317484523Y-90046623D01*
X317332142Y-90046623D01*
X317255952Y-90008528D01*
X317217857Y-89970433D01*
X317179761Y-89894242D01*
G04 #@! TO.C,D59*
X336636904Y-33440671D02*
X335836904Y-33440671D01*
X335836904Y-33631147D01*
X335875000Y-33745433D01*
X335951190Y-33821623D01*
X336027380Y-33859719D01*
X336179761Y-33897814D01*
X336294047Y-33897814D01*
X336446428Y-33859719D01*
X336522619Y-33821623D01*
X336598809Y-33745433D01*
X336636904Y-33631147D01*
X336636904Y-33440671D01*
X335836904Y-34621623D02*
X335836904Y-34240671D01*
X336217857Y-34202576D01*
X336179761Y-34240671D01*
X336141666Y-34316861D01*
X336141666Y-34507338D01*
X336179761Y-34583528D01*
X336217857Y-34621623D01*
X336294047Y-34659719D01*
X336484523Y-34659719D01*
X336560714Y-34621623D01*
X336598809Y-34583528D01*
X336636904Y-34507338D01*
X336636904Y-34316861D01*
X336598809Y-34240671D01*
X336560714Y-34202576D01*
X336636904Y-35040671D02*
X336636904Y-35193052D01*
X336598809Y-35269242D01*
X336560714Y-35307338D01*
X336446428Y-35383528D01*
X336294047Y-35421623D01*
X335989285Y-35421623D01*
X335913095Y-35383528D01*
X335875000Y-35345433D01*
X335836904Y-35269242D01*
X335836904Y-35116861D01*
X335875000Y-35040671D01*
X335913095Y-35002576D01*
X335989285Y-34964480D01*
X336179761Y-34964480D01*
X336255952Y-35002576D01*
X336294047Y-35040671D01*
X336332142Y-35116861D01*
X336332142Y-35269242D01*
X336294047Y-35345433D01*
X336255952Y-35383528D01*
X336179761Y-35421623D01*
G04 #@! TO.C,D60*
X336636904Y-52440671D02*
X335836904Y-52440671D01*
X335836904Y-52631147D01*
X335875000Y-52745433D01*
X335951190Y-52821623D01*
X336027380Y-52859719D01*
X336179761Y-52897814D01*
X336294047Y-52897814D01*
X336446428Y-52859719D01*
X336522619Y-52821623D01*
X336598809Y-52745433D01*
X336636904Y-52631147D01*
X336636904Y-52440671D01*
X335836904Y-53583528D02*
X335836904Y-53431147D01*
X335875000Y-53354957D01*
X335913095Y-53316861D01*
X336027380Y-53240671D01*
X336179761Y-53202576D01*
X336484523Y-53202576D01*
X336560714Y-53240671D01*
X336598809Y-53278766D01*
X336636904Y-53354957D01*
X336636904Y-53507338D01*
X336598809Y-53583528D01*
X336560714Y-53621623D01*
X336484523Y-53659719D01*
X336294047Y-53659719D01*
X336217857Y-53621623D01*
X336179761Y-53583528D01*
X336141666Y-53507338D01*
X336141666Y-53354957D01*
X336179761Y-53278766D01*
X336217857Y-53240671D01*
X336294047Y-53202576D01*
X335836904Y-54154957D02*
X335836904Y-54231147D01*
X335875000Y-54307338D01*
X335913095Y-54345433D01*
X335989285Y-54383528D01*
X336141666Y-54421623D01*
X336332142Y-54421623D01*
X336484523Y-54383528D01*
X336560714Y-54345433D01*
X336598809Y-54307338D01*
X336636904Y-54231147D01*
X336636904Y-54154957D01*
X336598809Y-54078766D01*
X336560714Y-54040671D01*
X336484523Y-54002576D01*
X336332142Y-53964480D01*
X336141666Y-53964480D01*
X335989285Y-54002576D01*
X335913095Y-54040671D01*
X335875000Y-54078766D01*
X335836904Y-54154957D01*
G04 #@! TO.C,D61*
X336636904Y-71440671D02*
X335836904Y-71440671D01*
X335836904Y-71631147D01*
X335875000Y-71745433D01*
X335951190Y-71821623D01*
X336027380Y-71859719D01*
X336179761Y-71897814D01*
X336294047Y-71897814D01*
X336446428Y-71859719D01*
X336522619Y-71821623D01*
X336598809Y-71745433D01*
X336636904Y-71631147D01*
X336636904Y-71440671D01*
X335836904Y-72583528D02*
X335836904Y-72431147D01*
X335875000Y-72354957D01*
X335913095Y-72316861D01*
X336027380Y-72240671D01*
X336179761Y-72202576D01*
X336484523Y-72202576D01*
X336560714Y-72240671D01*
X336598809Y-72278766D01*
X336636904Y-72354957D01*
X336636904Y-72507338D01*
X336598809Y-72583528D01*
X336560714Y-72621623D01*
X336484523Y-72659719D01*
X336294047Y-72659719D01*
X336217857Y-72621623D01*
X336179761Y-72583528D01*
X336141666Y-72507338D01*
X336141666Y-72354957D01*
X336179761Y-72278766D01*
X336217857Y-72240671D01*
X336294047Y-72202576D01*
X336636904Y-73421623D02*
X336636904Y-72964480D01*
X336636904Y-73193052D02*
X335836904Y-73193052D01*
X335951190Y-73116861D01*
X336027380Y-73040671D01*
X336065476Y-72964480D01*
G04 #@! TO.C,D62*
X336636904Y-88065671D02*
X335836904Y-88065671D01*
X335836904Y-88256147D01*
X335875000Y-88370433D01*
X335951190Y-88446623D01*
X336027380Y-88484719D01*
X336179761Y-88522814D01*
X336294047Y-88522814D01*
X336446428Y-88484719D01*
X336522619Y-88446623D01*
X336598809Y-88370433D01*
X336636904Y-88256147D01*
X336636904Y-88065671D01*
X335836904Y-89208528D02*
X335836904Y-89056147D01*
X335875000Y-88979957D01*
X335913095Y-88941861D01*
X336027380Y-88865671D01*
X336179761Y-88827576D01*
X336484523Y-88827576D01*
X336560714Y-88865671D01*
X336598809Y-88903766D01*
X336636904Y-88979957D01*
X336636904Y-89132338D01*
X336598809Y-89208528D01*
X336560714Y-89246623D01*
X336484523Y-89284719D01*
X336294047Y-89284719D01*
X336217857Y-89246623D01*
X336179761Y-89208528D01*
X336141666Y-89132338D01*
X336141666Y-88979957D01*
X336179761Y-88903766D01*
X336217857Y-88865671D01*
X336294047Y-88827576D01*
X335913095Y-89589480D02*
X335875000Y-89627576D01*
X335836904Y-89703766D01*
X335836904Y-89894242D01*
X335875000Y-89970433D01*
X335913095Y-90008528D01*
X335989285Y-90046623D01*
X336065476Y-90046623D01*
X336179761Y-90008528D01*
X336636904Y-89551385D01*
X336636904Y-90046623D01*
G04 #@! TO.C,D63*
X355636904Y-33440671D02*
X354836904Y-33440671D01*
X354836904Y-33631147D01*
X354875000Y-33745433D01*
X354951190Y-33821623D01*
X355027380Y-33859719D01*
X355179761Y-33897814D01*
X355294047Y-33897814D01*
X355446428Y-33859719D01*
X355522619Y-33821623D01*
X355598809Y-33745433D01*
X355636904Y-33631147D01*
X355636904Y-33440671D01*
X354836904Y-34583528D02*
X354836904Y-34431147D01*
X354875000Y-34354957D01*
X354913095Y-34316861D01*
X355027380Y-34240671D01*
X355179761Y-34202576D01*
X355484523Y-34202576D01*
X355560714Y-34240671D01*
X355598809Y-34278766D01*
X355636904Y-34354957D01*
X355636904Y-34507338D01*
X355598809Y-34583528D01*
X355560714Y-34621623D01*
X355484523Y-34659719D01*
X355294047Y-34659719D01*
X355217857Y-34621623D01*
X355179761Y-34583528D01*
X355141666Y-34507338D01*
X355141666Y-34354957D01*
X355179761Y-34278766D01*
X355217857Y-34240671D01*
X355294047Y-34202576D01*
X354836904Y-34926385D02*
X354836904Y-35421623D01*
X355141666Y-35154957D01*
X355141666Y-35269242D01*
X355179761Y-35345433D01*
X355217857Y-35383528D01*
X355294047Y-35421623D01*
X355484523Y-35421623D01*
X355560714Y-35383528D01*
X355598809Y-35345433D01*
X355636904Y-35269242D01*
X355636904Y-35040671D01*
X355598809Y-34964480D01*
X355560714Y-34926385D01*
G04 #@! TO.C,D64*
X355636904Y-52440671D02*
X354836904Y-52440671D01*
X354836904Y-52631147D01*
X354875000Y-52745433D01*
X354951190Y-52821623D01*
X355027380Y-52859719D01*
X355179761Y-52897814D01*
X355294047Y-52897814D01*
X355446428Y-52859719D01*
X355522619Y-52821623D01*
X355598809Y-52745433D01*
X355636904Y-52631147D01*
X355636904Y-52440671D01*
X354836904Y-53583528D02*
X354836904Y-53431147D01*
X354875000Y-53354957D01*
X354913095Y-53316861D01*
X355027380Y-53240671D01*
X355179761Y-53202576D01*
X355484523Y-53202576D01*
X355560714Y-53240671D01*
X355598809Y-53278766D01*
X355636904Y-53354957D01*
X355636904Y-53507338D01*
X355598809Y-53583528D01*
X355560714Y-53621623D01*
X355484523Y-53659719D01*
X355294047Y-53659719D01*
X355217857Y-53621623D01*
X355179761Y-53583528D01*
X355141666Y-53507338D01*
X355141666Y-53354957D01*
X355179761Y-53278766D01*
X355217857Y-53240671D01*
X355294047Y-53202576D01*
X355103571Y-54345433D02*
X355636904Y-54345433D01*
X354798809Y-54154957D02*
X355370238Y-53964480D01*
X355370238Y-54459719D01*
G04 #@! TO.C,D65*
X355636904Y-88065671D02*
X354836904Y-88065671D01*
X354836904Y-88256147D01*
X354875000Y-88370433D01*
X354951190Y-88446623D01*
X355027380Y-88484719D01*
X355179761Y-88522814D01*
X355294047Y-88522814D01*
X355446428Y-88484719D01*
X355522619Y-88446623D01*
X355598809Y-88370433D01*
X355636904Y-88256147D01*
X355636904Y-88065671D01*
X354836904Y-89208528D02*
X354836904Y-89056147D01*
X354875000Y-88979957D01*
X354913095Y-88941861D01*
X355027380Y-88865671D01*
X355179761Y-88827576D01*
X355484523Y-88827576D01*
X355560714Y-88865671D01*
X355598809Y-88903766D01*
X355636904Y-88979957D01*
X355636904Y-89132338D01*
X355598809Y-89208528D01*
X355560714Y-89246623D01*
X355484523Y-89284719D01*
X355294047Y-89284719D01*
X355217857Y-89246623D01*
X355179761Y-89208528D01*
X355141666Y-89132338D01*
X355141666Y-88979957D01*
X355179761Y-88903766D01*
X355217857Y-88865671D01*
X355294047Y-88827576D01*
X354836904Y-90008528D02*
X354836904Y-89627576D01*
X355217857Y-89589480D01*
X355179761Y-89627576D01*
X355141666Y-89703766D01*
X355141666Y-89894242D01*
X355179761Y-89970433D01*
X355217857Y-90008528D01*
X355294047Y-90046623D01*
X355484523Y-90046623D01*
X355560714Y-90008528D01*
X355598809Y-89970433D01*
X355636904Y-89894242D01*
X355636904Y-89703766D01*
X355598809Y-89627576D01*
X355560714Y-89589480D01*
G04 #@! TO.C,D66*
X179339285Y-19514880D02*
X179339285Y-18514880D01*
X179101190Y-18514880D01*
X178958333Y-18562500D01*
X178863095Y-18657738D01*
X178815476Y-18752976D01*
X178767857Y-18943452D01*
X178767857Y-19086309D01*
X178815476Y-19276785D01*
X178863095Y-19372023D01*
X178958333Y-19467261D01*
X179101190Y-19514880D01*
X179339285Y-19514880D01*
X177910714Y-18514880D02*
X178101190Y-18514880D01*
X178196428Y-18562500D01*
X178244047Y-18610119D01*
X178339285Y-18752976D01*
X178386904Y-18943452D01*
X178386904Y-19324404D01*
X178339285Y-19419642D01*
X178291666Y-19467261D01*
X178196428Y-19514880D01*
X178005952Y-19514880D01*
X177910714Y-19467261D01*
X177863095Y-19419642D01*
X177815476Y-19324404D01*
X177815476Y-19086309D01*
X177863095Y-18991071D01*
X177910714Y-18943452D01*
X178005952Y-18895833D01*
X178196428Y-18895833D01*
X178291666Y-18943452D01*
X178339285Y-18991071D01*
X178386904Y-19086309D01*
X176958333Y-18514880D02*
X177148809Y-18514880D01*
X177244047Y-18562500D01*
X177291666Y-18610119D01*
X177386904Y-18752976D01*
X177434523Y-18943452D01*
X177434523Y-19324404D01*
X177386904Y-19419642D01*
X177339285Y-19467261D01*
X177244047Y-19514880D01*
X177053571Y-19514880D01*
X176958333Y-19467261D01*
X176910714Y-19419642D01*
X176863095Y-19324404D01*
X176863095Y-19086309D01*
X176910714Y-18991071D01*
X176958333Y-18943452D01*
X177053571Y-18895833D01*
X177244047Y-18895833D01*
X177339285Y-18943452D01*
X177386904Y-18991071D01*
X177434523Y-19086309D01*
G04 #@! TO.C,D67*
X60589285Y-93139880D02*
X60589285Y-92139880D01*
X60351190Y-92139880D01*
X60208333Y-92187500D01*
X60113095Y-92282738D01*
X60065476Y-92377976D01*
X60017857Y-92568452D01*
X60017857Y-92711309D01*
X60065476Y-92901785D01*
X60113095Y-92997023D01*
X60208333Y-93092261D01*
X60351190Y-93139880D01*
X60589285Y-93139880D01*
X59160714Y-92139880D02*
X59351190Y-92139880D01*
X59446428Y-92187500D01*
X59494047Y-92235119D01*
X59589285Y-92377976D01*
X59636904Y-92568452D01*
X59636904Y-92949404D01*
X59589285Y-93044642D01*
X59541666Y-93092261D01*
X59446428Y-93139880D01*
X59255952Y-93139880D01*
X59160714Y-93092261D01*
X59113095Y-93044642D01*
X59065476Y-92949404D01*
X59065476Y-92711309D01*
X59113095Y-92616071D01*
X59160714Y-92568452D01*
X59255952Y-92520833D01*
X59446428Y-92520833D01*
X59541666Y-92568452D01*
X59589285Y-92616071D01*
X59636904Y-92711309D01*
X58732142Y-92139880D02*
X58065476Y-92139880D01*
X58494047Y-93139880D01*
G04 #@! TO.C,D69*
X355089285Y-19514880D02*
X355089285Y-18514880D01*
X354851190Y-18514880D01*
X354708333Y-18562500D01*
X354613095Y-18657738D01*
X354565476Y-18752976D01*
X354517857Y-18943452D01*
X354517857Y-19086309D01*
X354565476Y-19276785D01*
X354613095Y-19372023D01*
X354708333Y-19467261D01*
X354851190Y-19514880D01*
X355089285Y-19514880D01*
X353660714Y-18514880D02*
X353851190Y-18514880D01*
X353946428Y-18562500D01*
X353994047Y-18610119D01*
X354089285Y-18752976D01*
X354136904Y-18943452D01*
X354136904Y-19324404D01*
X354089285Y-19419642D01*
X354041666Y-19467261D01*
X353946428Y-19514880D01*
X353755952Y-19514880D01*
X353660714Y-19467261D01*
X353613095Y-19419642D01*
X353565476Y-19324404D01*
X353565476Y-19086309D01*
X353613095Y-18991071D01*
X353660714Y-18943452D01*
X353755952Y-18895833D01*
X353946428Y-18895833D01*
X354041666Y-18943452D01*
X354089285Y-18991071D01*
X354136904Y-19086309D01*
X353089285Y-19514880D02*
X352898809Y-19514880D01*
X352803571Y-19467261D01*
X352755952Y-19419642D01*
X352660714Y-19276785D01*
X352613095Y-19086309D01*
X352613095Y-18705357D01*
X352660714Y-18610119D01*
X352708333Y-18562500D01*
X352803571Y-18514880D01*
X352994047Y-18514880D01*
X353089285Y-18562500D01*
X353136904Y-18610119D01*
X353184523Y-18705357D01*
X353184523Y-18943452D01*
X353136904Y-19038690D01*
X353089285Y-19086309D01*
X352994047Y-19133928D01*
X352803571Y-19133928D01*
X352708333Y-19086309D01*
X352660714Y-19038690D01*
X352613095Y-18943452D01*
G04 #@! TO.C,D70*
X141339285Y-19514880D02*
X141339285Y-18514880D01*
X141101190Y-18514880D01*
X140958333Y-18562500D01*
X140863095Y-18657738D01*
X140815476Y-18752976D01*
X140767857Y-18943452D01*
X140767857Y-19086309D01*
X140815476Y-19276785D01*
X140863095Y-19372023D01*
X140958333Y-19467261D01*
X141101190Y-19514880D01*
X141339285Y-19514880D01*
X140434523Y-18514880D02*
X139767857Y-18514880D01*
X140196428Y-19514880D01*
X139196428Y-18514880D02*
X139101190Y-18514880D01*
X139005952Y-18562500D01*
X138958333Y-18610119D01*
X138910714Y-18705357D01*
X138863095Y-18895833D01*
X138863095Y-19133928D01*
X138910714Y-19324404D01*
X138958333Y-19419642D01*
X139005952Y-19467261D01*
X139101190Y-19514880D01*
X139196428Y-19514880D01*
X139291666Y-19467261D01*
X139339285Y-19419642D01*
X139386904Y-19324404D01*
X139434523Y-19133928D01*
X139434523Y-18895833D01*
X139386904Y-18705357D01*
X139339285Y-18610119D01*
X139291666Y-18562500D01*
X139196428Y-18514880D01*
G04 #@! TO.C,D71*
X100964285Y-93139880D02*
X100964285Y-92139880D01*
X100726190Y-92139880D01*
X100583333Y-92187500D01*
X100488095Y-92282738D01*
X100440476Y-92377976D01*
X100392857Y-92568452D01*
X100392857Y-92711309D01*
X100440476Y-92901785D01*
X100488095Y-92997023D01*
X100583333Y-93092261D01*
X100726190Y-93139880D01*
X100964285Y-93139880D01*
X100059523Y-92139880D02*
X99392857Y-92139880D01*
X99821428Y-93139880D01*
X98488095Y-93139880D02*
X99059523Y-93139880D01*
X98773809Y-93139880D02*
X98773809Y-92139880D01*
X98869047Y-92282738D01*
X98964285Y-92377976D01*
X99059523Y-92425595D01*
G04 #@! TO.C,D72*
X274339285Y-93139880D02*
X274339285Y-92139880D01*
X274101190Y-92139880D01*
X273958333Y-92187500D01*
X273863095Y-92282738D01*
X273815476Y-92377976D01*
X273767857Y-92568452D01*
X273767857Y-92711309D01*
X273815476Y-92901785D01*
X273863095Y-92997023D01*
X273958333Y-93092261D01*
X274101190Y-93139880D01*
X274339285Y-93139880D01*
X273434523Y-92139880D02*
X272767857Y-92139880D01*
X273196428Y-93139880D01*
X272434523Y-92235119D02*
X272386904Y-92187500D01*
X272291666Y-92139880D01*
X272053571Y-92139880D01*
X271958333Y-92187500D01*
X271910714Y-92235119D01*
X271863095Y-92330357D01*
X271863095Y-92425595D01*
X271910714Y-92568452D01*
X272482142Y-93139880D01*
X271863095Y-93139880D01*
G04 #@! TO.C,D73*
X312339285Y-19514880D02*
X312339285Y-18514880D01*
X312101190Y-18514880D01*
X311958333Y-18562500D01*
X311863095Y-18657738D01*
X311815476Y-18752976D01*
X311767857Y-18943452D01*
X311767857Y-19086309D01*
X311815476Y-19276785D01*
X311863095Y-19372023D01*
X311958333Y-19467261D01*
X312101190Y-19514880D01*
X312339285Y-19514880D01*
X311434523Y-18514880D02*
X310767857Y-18514880D01*
X311196428Y-19514880D01*
X310482142Y-18514880D02*
X309863095Y-18514880D01*
X310196428Y-18895833D01*
X310053571Y-18895833D01*
X309958333Y-18943452D01*
X309910714Y-18991071D01*
X309863095Y-19086309D01*
X309863095Y-19324404D01*
X309910714Y-19419642D01*
X309958333Y-19467261D01*
X310053571Y-19514880D01*
X310339285Y-19514880D01*
X310434523Y-19467261D01*
X310482142Y-19419642D01*
G04 #@! TO.C,D74*
X100964285Y-19514880D02*
X100964285Y-18514880D01*
X100726190Y-18514880D01*
X100583333Y-18562500D01*
X100488095Y-18657738D01*
X100440476Y-18752976D01*
X100392857Y-18943452D01*
X100392857Y-19086309D01*
X100440476Y-19276785D01*
X100488095Y-19372023D01*
X100583333Y-19467261D01*
X100726190Y-19514880D01*
X100964285Y-19514880D01*
X100059523Y-18514880D02*
X99392857Y-18514880D01*
X99821428Y-19514880D01*
X98583333Y-18848214D02*
X98583333Y-19514880D01*
X98821428Y-18467261D02*
X99059523Y-19181547D01*
X98440476Y-19181547D01*
G04 #@! TO.C,D75*
X141339285Y-93139880D02*
X141339285Y-92139880D01*
X141101190Y-92139880D01*
X140958333Y-92187500D01*
X140863095Y-92282738D01*
X140815476Y-92377976D01*
X140767857Y-92568452D01*
X140767857Y-92711309D01*
X140815476Y-92901785D01*
X140863095Y-92997023D01*
X140958333Y-93092261D01*
X141101190Y-93139880D01*
X141339285Y-93139880D01*
X140434523Y-92139880D02*
X139767857Y-92139880D01*
X140196428Y-93139880D01*
X138910714Y-92139880D02*
X139386904Y-92139880D01*
X139434523Y-92616071D01*
X139386904Y-92568452D01*
X139291666Y-92520833D01*
X139053571Y-92520833D01*
X138958333Y-92568452D01*
X138910714Y-92616071D01*
X138863095Y-92711309D01*
X138863095Y-92949404D01*
X138910714Y-93044642D01*
X138958333Y-93092261D01*
X139053571Y-93139880D01*
X139291666Y-93139880D01*
X139386904Y-93092261D01*
X139434523Y-93044642D01*
G04 #@! TO.C,D76*
X312339285Y-93139880D02*
X312339285Y-92139880D01*
X312101190Y-92139880D01*
X311958333Y-92187500D01*
X311863095Y-92282738D01*
X311815476Y-92377976D01*
X311767857Y-92568452D01*
X311767857Y-92711309D01*
X311815476Y-92901785D01*
X311863095Y-92997023D01*
X311958333Y-93092261D01*
X312101190Y-93139880D01*
X312339285Y-93139880D01*
X311434523Y-92139880D02*
X310767857Y-92139880D01*
X311196428Y-93139880D01*
X309958333Y-92139880D02*
X310148809Y-92139880D01*
X310244047Y-92187500D01*
X310291666Y-92235119D01*
X310386904Y-92377976D01*
X310434523Y-92568452D01*
X310434523Y-92949404D01*
X310386904Y-93044642D01*
X310339285Y-93092261D01*
X310244047Y-93139880D01*
X310053571Y-93139880D01*
X309958333Y-93092261D01*
X309910714Y-93044642D01*
X309863095Y-92949404D01*
X309863095Y-92711309D01*
X309910714Y-92616071D01*
X309958333Y-92568452D01*
X310053571Y-92520833D01*
X310244047Y-92520833D01*
X310339285Y-92568452D01*
X310386904Y-92616071D01*
X310434523Y-92711309D01*
G04 #@! TO.C,D77*
X274339285Y-19514880D02*
X274339285Y-18514880D01*
X274101190Y-18514880D01*
X273958333Y-18562500D01*
X273863095Y-18657738D01*
X273815476Y-18752976D01*
X273767857Y-18943452D01*
X273767857Y-19086309D01*
X273815476Y-19276785D01*
X273863095Y-19372023D01*
X273958333Y-19467261D01*
X274101190Y-19514880D01*
X274339285Y-19514880D01*
X273434523Y-18514880D02*
X272767857Y-18514880D01*
X273196428Y-19514880D01*
X272482142Y-18514880D02*
X271815476Y-18514880D01*
X272244047Y-19514880D01*
G04 #@! TO.C,D78*
X60589285Y-19514880D02*
X60589285Y-18514880D01*
X60351190Y-18514880D01*
X60208333Y-18562500D01*
X60113095Y-18657738D01*
X60065476Y-18752976D01*
X60017857Y-18943452D01*
X60017857Y-19086309D01*
X60065476Y-19276785D01*
X60113095Y-19372023D01*
X60208333Y-19467261D01*
X60351190Y-19514880D01*
X60589285Y-19514880D01*
X59684523Y-18514880D02*
X59017857Y-18514880D01*
X59446428Y-19514880D01*
X58494047Y-18943452D02*
X58589285Y-18895833D01*
X58636904Y-18848214D01*
X58684523Y-18752976D01*
X58684523Y-18705357D01*
X58636904Y-18610119D01*
X58589285Y-18562500D01*
X58494047Y-18514880D01*
X58303571Y-18514880D01*
X58208333Y-18562500D01*
X58160714Y-18610119D01*
X58113095Y-18705357D01*
X58113095Y-18752976D01*
X58160714Y-18848214D01*
X58208333Y-18895833D01*
X58303571Y-18943452D01*
X58494047Y-18943452D01*
X58589285Y-18991071D01*
X58636904Y-19038690D01*
X58684523Y-19133928D01*
X58684523Y-19324404D01*
X58636904Y-19419642D01*
X58589285Y-19467261D01*
X58494047Y-19514880D01*
X58303571Y-19514880D01*
X58208333Y-19467261D01*
X58160714Y-19419642D01*
X58113095Y-19324404D01*
X58113095Y-19133928D01*
X58160714Y-19038690D01*
X58208333Y-18991071D01*
X58303571Y-18943452D01*
G04 #@! TO.C,D79*
X179339285Y-93139880D02*
X179339285Y-92139880D01*
X179101190Y-92139880D01*
X178958333Y-92187500D01*
X178863095Y-92282738D01*
X178815476Y-92377976D01*
X178767857Y-92568452D01*
X178767857Y-92711309D01*
X178815476Y-92901785D01*
X178863095Y-92997023D01*
X178958333Y-93092261D01*
X179101190Y-93139880D01*
X179339285Y-93139880D01*
X178434523Y-92139880D02*
X177767857Y-92139880D01*
X178196428Y-93139880D01*
X177339285Y-93139880D02*
X177148809Y-93139880D01*
X177053571Y-93092261D01*
X177005952Y-93044642D01*
X176910714Y-92901785D01*
X176863095Y-92711309D01*
X176863095Y-92330357D01*
X176910714Y-92235119D01*
X176958333Y-92187500D01*
X177053571Y-92139880D01*
X177244047Y-92139880D01*
X177339285Y-92187500D01*
X177386904Y-92235119D01*
X177434523Y-92330357D01*
X177434523Y-92568452D01*
X177386904Y-92663690D01*
X177339285Y-92711309D01*
X177244047Y-92758928D01*
X177053571Y-92758928D01*
X176958333Y-92711309D01*
X176910714Y-92663690D01*
X176863095Y-92568452D01*
G04 #@! TO.C,D80*
X355089285Y-93139880D02*
X355089285Y-92139880D01*
X354851190Y-92139880D01*
X354708333Y-92187500D01*
X354613095Y-92282738D01*
X354565476Y-92377976D01*
X354517857Y-92568452D01*
X354517857Y-92711309D01*
X354565476Y-92901785D01*
X354613095Y-92997023D01*
X354708333Y-93092261D01*
X354851190Y-93139880D01*
X355089285Y-93139880D01*
X353946428Y-92568452D02*
X354041666Y-92520833D01*
X354089285Y-92473214D01*
X354136904Y-92377976D01*
X354136904Y-92330357D01*
X354089285Y-92235119D01*
X354041666Y-92187500D01*
X353946428Y-92139880D01*
X353755952Y-92139880D01*
X353660714Y-92187500D01*
X353613095Y-92235119D01*
X353565476Y-92330357D01*
X353565476Y-92377976D01*
X353613095Y-92473214D01*
X353660714Y-92520833D01*
X353755952Y-92568452D01*
X353946428Y-92568452D01*
X354041666Y-92616071D01*
X354089285Y-92663690D01*
X354136904Y-92758928D01*
X354136904Y-92949404D01*
X354089285Y-93044642D01*
X354041666Y-93092261D01*
X353946428Y-93139880D01*
X353755952Y-93139880D01*
X353660714Y-93092261D01*
X353613095Y-93044642D01*
X353565476Y-92949404D01*
X353565476Y-92758928D01*
X353613095Y-92663690D01*
X353660714Y-92616071D01*
X353755952Y-92568452D01*
X352946428Y-92139880D02*
X352851190Y-92139880D01*
X352755952Y-92187500D01*
X352708333Y-92235119D01*
X352660714Y-92330357D01*
X352613095Y-92520833D01*
X352613095Y-92758928D01*
X352660714Y-92949404D01*
X352708333Y-93044642D01*
X352755952Y-93092261D01*
X352851190Y-93139880D01*
X352946428Y-93139880D01*
X353041666Y-93092261D01*
X353089285Y-93044642D01*
X353136904Y-92949404D01*
X353184523Y-92758928D01*
X353184523Y-92520833D01*
X353136904Y-92330357D01*
X353089285Y-92235119D01*
X353041666Y-92187500D01*
X352946428Y-92139880D01*
G04 #@! TO.C,D81*
X236339285Y-19514880D02*
X236339285Y-18514880D01*
X236101190Y-18514880D01*
X235958333Y-18562500D01*
X235863095Y-18657738D01*
X235815476Y-18752976D01*
X235767857Y-18943452D01*
X235767857Y-19086309D01*
X235815476Y-19276785D01*
X235863095Y-19372023D01*
X235958333Y-19467261D01*
X236101190Y-19514880D01*
X236339285Y-19514880D01*
X235196428Y-18943452D02*
X235291666Y-18895833D01*
X235339285Y-18848214D01*
X235386904Y-18752976D01*
X235386904Y-18705357D01*
X235339285Y-18610119D01*
X235291666Y-18562500D01*
X235196428Y-18514880D01*
X235005952Y-18514880D01*
X234910714Y-18562500D01*
X234863095Y-18610119D01*
X234815476Y-18705357D01*
X234815476Y-18752976D01*
X234863095Y-18848214D01*
X234910714Y-18895833D01*
X235005952Y-18943452D01*
X235196428Y-18943452D01*
X235291666Y-18991071D01*
X235339285Y-19038690D01*
X235386904Y-19133928D01*
X235386904Y-19324404D01*
X235339285Y-19419642D01*
X235291666Y-19467261D01*
X235196428Y-19514880D01*
X235005952Y-19514880D01*
X234910714Y-19467261D01*
X234863095Y-19419642D01*
X234815476Y-19324404D01*
X234815476Y-19133928D01*
X234863095Y-19038690D01*
X234910714Y-18991071D01*
X235005952Y-18943452D01*
X233863095Y-19514880D02*
X234434523Y-19514880D01*
X234148809Y-19514880D02*
X234148809Y-18514880D01*
X234244047Y-18657738D01*
X234339285Y-18752976D01*
X234434523Y-18800595D01*
G04 #@! TO.C,U1*
X201487809Y-52935357D02*
X201373523Y-52973452D01*
X201335428Y-53011547D01*
X201297333Y-53087738D01*
X201297333Y-53202023D01*
X201335428Y-53278214D01*
X201373523Y-53316309D01*
X201449714Y-53354404D01*
X201754476Y-53354404D01*
X201754476Y-52554404D01*
X201487809Y-52554404D01*
X201411619Y-52592500D01*
X201373523Y-52630595D01*
X201335428Y-52706785D01*
X201335428Y-52782976D01*
X201373523Y-52859166D01*
X201411619Y-52897261D01*
X201487809Y-52935357D01*
X201754476Y-52935357D01*
X200992571Y-52630595D02*
X200954476Y-52592500D01*
X200878285Y-52554404D01*
X200687809Y-52554404D01*
X200611619Y-52592500D01*
X200573523Y-52630595D01*
X200535428Y-52706785D01*
X200535428Y-52782976D01*
X200573523Y-52897261D01*
X201030666Y-53354404D01*
X200535428Y-53354404D01*
X201430666Y-45315357D02*
X201697333Y-45315357D01*
X201697333Y-45734404D02*
X201697333Y-44934404D01*
X201316380Y-44934404D01*
X201087809Y-44934404D02*
X200554476Y-44934404D01*
X200897333Y-45734404D01*
X201430666Y-42775357D02*
X201697333Y-42775357D01*
X201697333Y-43194404D02*
X201697333Y-42394404D01*
X201316380Y-42394404D01*
X200668761Y-42394404D02*
X200821142Y-42394404D01*
X200897333Y-42432500D01*
X200935428Y-42470595D01*
X201011619Y-42584880D01*
X201049714Y-42737261D01*
X201049714Y-43042023D01*
X201011619Y-43118214D01*
X200973523Y-43156309D01*
X200897333Y-43194404D01*
X200744952Y-43194404D01*
X200668761Y-43156309D01*
X200630666Y-43118214D01*
X200592571Y-43042023D01*
X200592571Y-42851547D01*
X200630666Y-42775357D01*
X200668761Y-42737261D01*
X200744952Y-42699166D01*
X200897333Y-42699166D01*
X200973523Y-42737261D01*
X201011619Y-42775357D01*
X201049714Y-42851547D01*
X201430666Y-40235357D02*
X201697333Y-40235357D01*
X201697333Y-40654404D02*
X201697333Y-39854404D01*
X201316380Y-39854404D01*
X200630666Y-39854404D02*
X201011619Y-39854404D01*
X201049714Y-40235357D01*
X201011619Y-40197261D01*
X200935428Y-40159166D01*
X200744952Y-40159166D01*
X200668761Y-40197261D01*
X200630666Y-40235357D01*
X200592571Y-40311547D01*
X200592571Y-40502023D01*
X200630666Y-40578214D01*
X200668761Y-40616309D01*
X200744952Y-40654404D01*
X200935428Y-40654404D01*
X201011619Y-40616309D01*
X201049714Y-40578214D01*
X201487809Y-27535357D02*
X201373523Y-27573452D01*
X201335428Y-27611547D01*
X201297333Y-27687738D01*
X201297333Y-27802023D01*
X201335428Y-27878214D01*
X201373523Y-27916309D01*
X201449714Y-27954404D01*
X201754476Y-27954404D01*
X201754476Y-27154404D01*
X201487809Y-27154404D01*
X201411619Y-27192500D01*
X201373523Y-27230595D01*
X201335428Y-27306785D01*
X201335428Y-27382976D01*
X201373523Y-27459166D01*
X201411619Y-27497261D01*
X201487809Y-27535357D01*
X201754476Y-27535357D01*
X200802095Y-27154404D02*
X200725904Y-27154404D01*
X200649714Y-27192500D01*
X200611619Y-27230595D01*
X200573523Y-27306785D01*
X200535428Y-27459166D01*
X200535428Y-27649642D01*
X200573523Y-27802023D01*
X200611619Y-27878214D01*
X200649714Y-27916309D01*
X200725904Y-27954404D01*
X200802095Y-27954404D01*
X200878285Y-27916309D01*
X200916380Y-27878214D01*
X200954476Y-27802023D01*
X200992571Y-27649642D01*
X200992571Y-27459166D01*
X200954476Y-27306785D01*
X200916380Y-27230595D01*
X200878285Y-27192500D01*
X200802095Y-27154404D01*
X201773523Y-29732500D02*
X201849714Y-29694404D01*
X201964000Y-29694404D01*
X202078285Y-29732500D01*
X202154476Y-29808690D01*
X202192571Y-29884880D01*
X202230666Y-30037261D01*
X202230666Y-30151547D01*
X202192571Y-30303928D01*
X202154476Y-30380119D01*
X202078285Y-30456309D01*
X201964000Y-30494404D01*
X201887809Y-30494404D01*
X201773523Y-30456309D01*
X201735428Y-30418214D01*
X201735428Y-30151547D01*
X201887809Y-30151547D01*
X201392571Y-30494404D02*
X201392571Y-29694404D01*
X200935428Y-30494404D01*
X200935428Y-29694404D01*
X200554476Y-30494404D02*
X200554476Y-29694404D01*
X200364000Y-29694404D01*
X200249714Y-29732500D01*
X200173523Y-29808690D01*
X200135428Y-29884880D01*
X200097333Y-30037261D01*
X200097333Y-30151547D01*
X200135428Y-30303928D01*
X200173523Y-30380119D01*
X200249714Y-30456309D01*
X200364000Y-30494404D01*
X200554476Y-30494404D01*
X201425213Y-32966309D02*
X201310927Y-33004404D01*
X201120451Y-33004404D01*
X201044260Y-32966309D01*
X201006165Y-32928214D01*
X200968070Y-32852023D01*
X200968070Y-32775833D01*
X201006165Y-32699642D01*
X201044260Y-32661547D01*
X201120451Y-32623452D01*
X201272832Y-32585357D01*
X201349022Y-32547261D01*
X201387118Y-32509166D01*
X201425213Y-32432976D01*
X201425213Y-32356785D01*
X201387118Y-32280595D01*
X201349022Y-32242500D01*
X201272832Y-32204404D01*
X201082356Y-32204404D01*
X200968070Y-32242500D01*
X200739499Y-32204404D02*
X200282356Y-32204404D01*
X200510927Y-33004404D02*
X200510927Y-32204404D01*
X202230666Y-34774404D02*
X201964000Y-35574404D01*
X201697333Y-34774404D01*
X200973523Y-35498214D02*
X201011619Y-35536309D01*
X201125904Y-35574404D01*
X201202095Y-35574404D01*
X201316380Y-35536309D01*
X201392571Y-35460119D01*
X201430666Y-35383928D01*
X201468761Y-35231547D01*
X201468761Y-35117261D01*
X201430666Y-34964880D01*
X201392571Y-34888690D01*
X201316380Y-34812500D01*
X201202095Y-34774404D01*
X201125904Y-34774404D01*
X201011619Y-34812500D01*
X200973523Y-34850595D01*
X200173523Y-35498214D02*
X200211619Y-35536309D01*
X200325904Y-35574404D01*
X200402095Y-35574404D01*
X200516380Y-35536309D01*
X200592571Y-35460119D01*
X200630666Y-35383928D01*
X200668761Y-35231547D01*
X200668761Y-35117261D01*
X200630666Y-34964880D01*
X200592571Y-34888690D01*
X200516380Y-34812500D01*
X200402095Y-34774404D01*
X200325904Y-34774404D01*
X200211619Y-34812500D01*
X200173523Y-34850595D01*
X201430666Y-37695357D02*
X201697333Y-37695357D01*
X201697333Y-38114404D02*
X201697333Y-37314404D01*
X201316380Y-37314404D01*
X200668761Y-37581071D02*
X200668761Y-38114404D01*
X200859238Y-37276309D02*
X201049714Y-37847738D01*
X200554476Y-37847738D01*
X201487809Y-47855357D02*
X201373523Y-47893452D01*
X201335428Y-47931547D01*
X201297333Y-48007738D01*
X201297333Y-48122023D01*
X201335428Y-48198214D01*
X201373523Y-48236309D01*
X201449714Y-48274404D01*
X201754476Y-48274404D01*
X201754476Y-47474404D01*
X201487809Y-47474404D01*
X201411619Y-47512500D01*
X201373523Y-47550595D01*
X201335428Y-47626785D01*
X201335428Y-47702976D01*
X201373523Y-47779166D01*
X201411619Y-47817261D01*
X201487809Y-47855357D01*
X201754476Y-47855357D01*
X200535428Y-48274404D02*
X200992571Y-48274404D01*
X200764000Y-48274404D02*
X200764000Y-47474404D01*
X200840190Y-47588690D01*
X200916380Y-47664880D01*
X200992571Y-47702976D01*
X201487809Y-50395357D02*
X201373523Y-50433452D01*
X201335428Y-50471547D01*
X201297333Y-50547738D01*
X201297333Y-50662023D01*
X201335428Y-50738214D01*
X201373523Y-50776309D01*
X201449714Y-50814404D01*
X201754476Y-50814404D01*
X201754476Y-50014404D01*
X201487809Y-50014404D01*
X201411619Y-50052500D01*
X201373523Y-50090595D01*
X201335428Y-50166785D01*
X201335428Y-50242976D01*
X201373523Y-50319166D01*
X201411619Y-50357261D01*
X201487809Y-50395357D01*
X201754476Y-50395357D01*
X201030666Y-50014404D02*
X200535428Y-50014404D01*
X200802095Y-50319166D01*
X200687809Y-50319166D01*
X200611619Y-50357261D01*
X200573523Y-50395357D01*
X200535428Y-50471547D01*
X200535428Y-50662023D01*
X200573523Y-50738214D01*
X200611619Y-50776309D01*
X200687809Y-50814404D01*
X200916380Y-50814404D01*
X200992571Y-50776309D01*
X201030666Y-50738214D01*
X213189991Y-54026797D02*
X213142851Y-54121078D01*
X213142851Y-54168219D01*
X213166421Y-54238929D01*
X213237132Y-54309640D01*
X213307842Y-54333210D01*
X213354983Y-54333210D01*
X213425693Y-54309640D01*
X213614255Y-54121078D01*
X213119280Y-53626103D01*
X212954289Y-53791095D01*
X212930719Y-53861806D01*
X212930719Y-53908946D01*
X212954289Y-53979657D01*
X213001429Y-54026797D01*
X213072140Y-54050367D01*
X213119280Y-54050367D01*
X213189991Y-54026797D01*
X213354983Y-53861806D01*
X212388603Y-54356780D02*
X212624306Y-54121078D01*
X212883578Y-54333210D01*
X212836438Y-54333210D01*
X212765727Y-54356780D01*
X212647876Y-54474632D01*
X212624306Y-54545342D01*
X212624306Y-54592483D01*
X212647876Y-54663193D01*
X212765727Y-54781044D01*
X212836438Y-54804615D01*
X212883578Y-54804615D01*
X212954289Y-54781044D01*
X213072140Y-54663193D01*
X213095710Y-54592483D01*
X213095710Y-54545342D01*
X212409809Y-52935357D02*
X212295523Y-52973452D01*
X212257428Y-53011547D01*
X212219333Y-53087738D01*
X212219333Y-53202023D01*
X212257428Y-53278214D01*
X212295523Y-53316309D01*
X212371714Y-53354404D01*
X212676476Y-53354404D01*
X212676476Y-52554404D01*
X212409809Y-52554404D01*
X212333619Y-52592500D01*
X212295523Y-52630595D01*
X212257428Y-52706785D01*
X212257428Y-52782976D01*
X212295523Y-52859166D01*
X212333619Y-52897261D01*
X212409809Y-52935357D01*
X212676476Y-52935357D01*
X211533619Y-52821071D02*
X211533619Y-53354404D01*
X211724095Y-52516309D02*
X211914571Y-53087738D01*
X211419333Y-53087738D01*
X212638380Y-50395357D02*
X212371714Y-50395357D01*
X212257428Y-50814404D02*
X212638380Y-50814404D01*
X212638380Y-50014404D01*
X212257428Y-50014404D01*
X211571714Y-50014404D02*
X211724095Y-50014404D01*
X211800285Y-50052500D01*
X211838380Y-50090595D01*
X211914571Y-50204880D01*
X211952666Y-50357261D01*
X211952666Y-50662023D01*
X211914571Y-50738214D01*
X211876476Y-50776309D01*
X211800285Y-50814404D01*
X211647904Y-50814404D01*
X211571714Y-50776309D01*
X211533619Y-50738214D01*
X211495523Y-50662023D01*
X211495523Y-50471547D01*
X211533619Y-50395357D01*
X211571714Y-50357261D01*
X211647904Y-50319166D01*
X211800285Y-50319166D01*
X211876476Y-50357261D01*
X211914571Y-50395357D01*
X211952666Y-50471547D01*
X212676476Y-48274404D02*
X212676476Y-47474404D01*
X212486000Y-47474404D01*
X212371714Y-47512500D01*
X212295523Y-47588690D01*
X212257428Y-47664880D01*
X212219333Y-47817261D01*
X212219333Y-47931547D01*
X212257428Y-48083928D01*
X212295523Y-48160119D01*
X212371714Y-48236309D01*
X212486000Y-48274404D01*
X212676476Y-48274404D01*
X211952666Y-47474404D02*
X211419333Y-47474404D01*
X211762190Y-48274404D01*
X212219333Y-45658214D02*
X212257428Y-45696309D01*
X212371714Y-45734404D01*
X212447904Y-45734404D01*
X212562190Y-45696309D01*
X212638380Y-45620119D01*
X212676476Y-45543928D01*
X212714571Y-45391547D01*
X212714571Y-45277261D01*
X212676476Y-45124880D01*
X212638380Y-45048690D01*
X212562190Y-44972500D01*
X212447904Y-44934404D01*
X212371714Y-44934404D01*
X212257428Y-44972500D01*
X212219333Y-45010595D01*
X211533619Y-44934404D02*
X211686000Y-44934404D01*
X211762190Y-44972500D01*
X211800285Y-45010595D01*
X211876476Y-45124880D01*
X211914571Y-45277261D01*
X211914571Y-45582023D01*
X211876476Y-45658214D01*
X211838380Y-45696309D01*
X211762190Y-45734404D01*
X211609809Y-45734404D01*
X211533619Y-45696309D01*
X211495523Y-45658214D01*
X211457428Y-45582023D01*
X211457428Y-45391547D01*
X211495523Y-45315357D01*
X211533619Y-45277261D01*
X211609809Y-45239166D01*
X211762190Y-45239166D01*
X211838380Y-45277261D01*
X211876476Y-45315357D01*
X211914571Y-45391547D01*
X212676476Y-43194404D02*
X212676476Y-42394404D01*
X212486000Y-42394404D01*
X212371714Y-42432500D01*
X212295523Y-42508690D01*
X212257428Y-42584880D01*
X212219333Y-42737261D01*
X212219333Y-42851547D01*
X212257428Y-43003928D01*
X212295523Y-43080119D01*
X212371714Y-43156309D01*
X212486000Y-43194404D01*
X212676476Y-43194404D01*
X211533619Y-42661071D02*
X211533619Y-43194404D01*
X211724095Y-42356309D02*
X211914571Y-42927738D01*
X211419333Y-42927738D01*
X212695523Y-32272500D02*
X212771714Y-32234404D01*
X212886000Y-32234404D01*
X213000285Y-32272500D01*
X213076476Y-32348690D01*
X213114571Y-32424880D01*
X213152666Y-32577261D01*
X213152666Y-32691547D01*
X213114571Y-32843928D01*
X213076476Y-32920119D01*
X213000285Y-32996309D01*
X212886000Y-33034404D01*
X212809809Y-33034404D01*
X212695523Y-32996309D01*
X212657428Y-32958214D01*
X212657428Y-32691547D01*
X212809809Y-32691547D01*
X212314571Y-33034404D02*
X212314571Y-32234404D01*
X211857428Y-33034404D01*
X211857428Y-32234404D01*
X211476476Y-33034404D02*
X211476476Y-32234404D01*
X211286000Y-32234404D01*
X211171714Y-32272500D01*
X211095523Y-32348690D01*
X211057428Y-32424880D01*
X211019333Y-32577261D01*
X211019333Y-32691547D01*
X211057428Y-32843928D01*
X211095523Y-32920119D01*
X211171714Y-32996309D01*
X211286000Y-33034404D01*
X211476476Y-33034404D01*
X212695523Y-34812500D02*
X212771714Y-34774404D01*
X212886000Y-34774404D01*
X213000285Y-34812500D01*
X213076476Y-34888690D01*
X213114571Y-34964880D01*
X213152666Y-35117261D01*
X213152666Y-35231547D01*
X213114571Y-35383928D01*
X213076476Y-35460119D01*
X213000285Y-35536309D01*
X212886000Y-35574404D01*
X212809809Y-35574404D01*
X212695523Y-35536309D01*
X212657428Y-35498214D01*
X212657428Y-35231547D01*
X212809809Y-35231547D01*
X212314571Y-35574404D02*
X212314571Y-34774404D01*
X211857428Y-35574404D01*
X211857428Y-34774404D01*
X211476476Y-35574404D02*
X211476476Y-34774404D01*
X211286000Y-34774404D01*
X211171714Y-34812500D01*
X211095523Y-34888690D01*
X211057428Y-34964880D01*
X211019333Y-35117261D01*
X211019333Y-35231547D01*
X211057428Y-35383928D01*
X211095523Y-35460119D01*
X211171714Y-35536309D01*
X211286000Y-35574404D01*
X211476476Y-35574404D01*
X212676476Y-38114404D02*
X212676476Y-37314404D01*
X212486000Y-37314404D01*
X212371714Y-37352500D01*
X212295523Y-37428690D01*
X212257428Y-37504880D01*
X212219333Y-37657261D01*
X212219333Y-37771547D01*
X212257428Y-37923928D01*
X212295523Y-38000119D01*
X212371714Y-38076309D01*
X212486000Y-38114404D01*
X212676476Y-38114404D01*
X211457428Y-38114404D02*
X211914571Y-38114404D01*
X211686000Y-38114404D02*
X211686000Y-37314404D01*
X211762190Y-37428690D01*
X211838380Y-37504880D01*
X211914571Y-37542976D01*
X212676476Y-40654404D02*
X212676476Y-39854404D01*
X212486000Y-39854404D01*
X212371714Y-39892500D01*
X212295523Y-39968690D01*
X212257428Y-40044880D01*
X212219333Y-40197261D01*
X212219333Y-40311547D01*
X212257428Y-40463928D01*
X212295523Y-40540119D01*
X212371714Y-40616309D01*
X212486000Y-40654404D01*
X212676476Y-40654404D01*
X211724095Y-39854404D02*
X211647904Y-39854404D01*
X211571714Y-39892500D01*
X211533619Y-39930595D01*
X211495523Y-40006785D01*
X211457428Y-40159166D01*
X211457428Y-40349642D01*
X211495523Y-40502023D01*
X211533619Y-40578214D01*
X211571714Y-40616309D01*
X211647904Y-40654404D01*
X211724095Y-40654404D01*
X211800285Y-40616309D01*
X211838380Y-40578214D01*
X211876476Y-40502023D01*
X211914571Y-40349642D01*
X211914571Y-40159166D01*
X211876476Y-40006785D01*
X211838380Y-39930595D01*
X211800285Y-39892500D01*
X211724095Y-39854404D01*
X212676476Y-30494404D02*
X212676476Y-29694404D01*
X212486000Y-29694404D01*
X212371714Y-29732500D01*
X212295523Y-29808690D01*
X212257428Y-29884880D01*
X212219333Y-30037261D01*
X212219333Y-30151547D01*
X212257428Y-30303928D01*
X212295523Y-30380119D01*
X212371714Y-30456309D01*
X212486000Y-30494404D01*
X212676476Y-30494404D01*
X211914571Y-29770595D02*
X211876476Y-29732500D01*
X211800285Y-29694404D01*
X211609809Y-29694404D01*
X211533619Y-29732500D01*
X211495523Y-29770595D01*
X211457428Y-29846785D01*
X211457428Y-29922976D01*
X211495523Y-30037261D01*
X211952666Y-30494404D01*
X211457428Y-30494404D01*
X212387348Y-27154404D02*
X211930205Y-27154404D01*
X212158776Y-27954404D02*
X212158776Y-27154404D01*
X211739729Y-27154404D02*
X211206395Y-27954404D01*
X211206395Y-27154404D02*
X211739729Y-27954404D01*
X210749252Y-27154404D02*
X210673062Y-27154404D01*
X210596872Y-27192500D01*
X210558776Y-27230595D01*
X210520681Y-27306785D01*
X210482586Y-27459166D01*
X210482586Y-27649642D01*
X210520681Y-27802023D01*
X210558776Y-27878214D01*
X210596872Y-27916309D01*
X210673062Y-27954404D01*
X210749252Y-27954404D01*
X210825443Y-27916309D01*
X210863538Y-27878214D01*
X210901633Y-27802023D01*
X210939729Y-27649642D01*
X210939729Y-27459166D01*
X210901633Y-27306785D01*
X210863538Y-27230595D01*
X210825443Y-27192500D01*
X210749252Y-27154404D01*
X209568300Y-27116309D02*
X210254014Y-28144880D01*
X209301633Y-27954404D02*
X209301633Y-27154404D01*
X209111157Y-27154404D01*
X208996872Y-27192500D01*
X208920681Y-27268690D01*
X208882586Y-27344880D01*
X208844491Y-27497261D01*
X208844491Y-27611547D01*
X208882586Y-27763928D01*
X208920681Y-27840119D01*
X208996872Y-27916309D01*
X209111157Y-27954404D01*
X209301633Y-27954404D01*
X208577824Y-27154404D02*
X208082586Y-27154404D01*
X208349252Y-27459166D01*
X208234967Y-27459166D01*
X208158776Y-27497261D01*
X208120681Y-27535357D01*
X208082586Y-27611547D01*
X208082586Y-27802023D01*
X208120681Y-27878214D01*
X208158776Y-27916309D01*
X208234967Y-27954404D01*
X208463538Y-27954404D01*
X208539729Y-27916309D01*
X208577824Y-27878214D01*
X211408333Y-54112500D02*
X211308333Y-54145833D01*
X211275000Y-54179166D01*
X211241666Y-54245833D01*
X211241666Y-54345833D01*
X211275000Y-54412500D01*
X211308333Y-54445833D01*
X211375000Y-54479166D01*
X211641666Y-54479166D01*
X211641666Y-53779166D01*
X211408333Y-53779166D01*
X211341666Y-53812500D01*
X211308333Y-53845833D01*
X211275000Y-53912500D01*
X211275000Y-53979166D01*
X211308333Y-54045833D01*
X211341666Y-54079166D01*
X211408333Y-54112500D01*
X211641666Y-54112500D01*
X211008333Y-53779166D02*
X210541666Y-53779166D01*
X210841666Y-54479166D01*
X202358333Y-54112500D02*
X202591666Y-54112500D01*
X202591666Y-54479166D02*
X202591666Y-53779166D01*
X202258333Y-53779166D01*
X201858333Y-53779166D02*
X201791666Y-53779166D01*
X201725000Y-53812500D01*
X201691666Y-53845833D01*
X201658333Y-53912500D01*
X201625000Y-54045833D01*
X201625000Y-54212500D01*
X201658333Y-54345833D01*
X201691666Y-54412500D01*
X201725000Y-54445833D01*
X201791666Y-54479166D01*
X201858333Y-54479166D01*
X201925000Y-54445833D01*
X201958333Y-54412500D01*
X201991666Y-54345833D01*
X202025000Y-54212500D01*
X202025000Y-54045833D01*
X201991666Y-53912500D01*
X201958333Y-53845833D01*
X201925000Y-53812500D01*
X201858333Y-53779166D01*
X199989297Y-54097508D02*
X200083578Y-54144648D01*
X200130719Y-54144648D01*
X200201429Y-54121078D01*
X200272140Y-54050367D01*
X200295710Y-53979657D01*
X200295710Y-53932516D01*
X200272140Y-53861806D01*
X200083578Y-53673244D01*
X199588603Y-54168219D01*
X199753595Y-54333210D01*
X199824306Y-54356780D01*
X199871446Y-54356780D01*
X199942157Y-54333210D01*
X199989297Y-54286070D01*
X200012867Y-54215359D01*
X200012867Y-54168219D01*
X199989297Y-54097508D01*
X199824306Y-53932516D01*
X200295710Y-54875325D02*
X200201429Y-54781044D01*
X200177859Y-54710334D01*
X200177859Y-54663193D01*
X200201429Y-54545342D01*
X200272140Y-54427491D01*
X200460702Y-54238929D01*
X200531412Y-54215359D01*
X200578553Y-54215359D01*
X200649264Y-54238929D01*
X200743544Y-54333210D01*
X200767115Y-54403921D01*
X200767115Y-54451061D01*
X200743544Y-54521772D01*
X200625693Y-54639623D01*
X200554983Y-54663193D01*
X200507842Y-54663193D01*
X200437132Y-54639623D01*
X200342851Y-54545342D01*
X200319280Y-54474632D01*
X200319280Y-54427491D01*
X200342851Y-54356780D01*
X206758333Y-54248214D02*
X206796428Y-54286309D01*
X206910714Y-54324404D01*
X206986904Y-54324404D01*
X207101190Y-54286309D01*
X207177380Y-54210119D01*
X207215476Y-54133928D01*
X207253571Y-53981547D01*
X207253571Y-53867261D01*
X207215476Y-53714880D01*
X207177380Y-53638690D01*
X207101190Y-53562500D01*
X206986904Y-53524404D01*
X206910714Y-53524404D01*
X206796428Y-53562500D01*
X206758333Y-53600595D01*
X206491666Y-53524404D02*
X205958333Y-53524404D01*
X206301190Y-54324404D01*
X204351666Y-53905357D02*
X204618333Y-53905357D01*
X204618333Y-54324404D02*
X204618333Y-53524404D01*
X204237380Y-53524404D01*
X203513571Y-54324404D02*
X203970714Y-54324404D01*
X203742142Y-54324404D02*
X203742142Y-53524404D01*
X203818333Y-53638690D01*
X203894523Y-53714880D01*
X203970714Y-53752976D01*
X209755476Y-54324404D02*
X209755476Y-53524404D01*
X209565000Y-53524404D01*
X209450714Y-53562500D01*
X209374523Y-53638690D01*
X209336428Y-53714880D01*
X209298333Y-53867261D01*
X209298333Y-53981547D01*
X209336428Y-54133928D01*
X209374523Y-54210119D01*
X209450714Y-54286309D01*
X209565000Y-54324404D01*
X209755476Y-54324404D01*
X208574523Y-53524404D02*
X208955476Y-53524404D01*
X208993571Y-53905357D01*
X208955476Y-53867261D01*
X208879285Y-53829166D01*
X208688809Y-53829166D01*
X208612619Y-53867261D01*
X208574523Y-53905357D01*
X208536428Y-53981547D01*
X208536428Y-54172023D01*
X208574523Y-54248214D01*
X208612619Y-54286309D01*
X208688809Y-54324404D01*
X208879285Y-54324404D01*
X208955476Y-54286309D01*
X208993571Y-54248214D01*
G04 #@! TO.C,D4*
X59949404Y-86071623D02*
X59149404Y-86071623D01*
X59149404Y-86262100D01*
X59187500Y-86376385D01*
X59263690Y-86452576D01*
X59339880Y-86490671D01*
X59492261Y-86528766D01*
X59606547Y-86528766D01*
X59758928Y-86490671D01*
X59835119Y-86452576D01*
X59911309Y-86376385D01*
X59949404Y-86262100D01*
X59949404Y-86071623D01*
X59416071Y-87214480D02*
X59949404Y-87214480D01*
X59111309Y-87024004D02*
X59682738Y-86833528D01*
X59682738Y-87328766D01*
G04 #@! TD*
M02*
