  0
SECTION
  2
HEADER
  9
$ACADVER
  1
AC1009
  9
$EXTMIN
 10
0.0
 20
0.0
 30
0.0
  9
$EXTMAX
 10
1000.0
 20
1000.0
 30
0.0
  9
$FILLMODE
 70
 0
  9
$SPLFRAME
 70
 1
  0
ENDSEC
  0
SECTION
  2
TABLES
  0
TABLE
  2
LAYER
 70
1
  0
LAYER
  2
0
 70
     0
 62
     7
  6
CONTINUOUS
  0
ENDTAB
  0
ENDSEC
  0
SECTION
  2
ENTITIES
  0
LINE
  8
0
 62
     0
 10
0.0937066
 20
93.0631
 30
0.0
 11
345.47
 21
93.0631
 31
0.0
  0
LINE
  8
0
 62
     0
 10
345.47
 20
93.0631
 30
0.0
 11
345.47
 21
0.0992188
 31
0.0
  0
LINE
  8
0
 62
     0
 10
345.47
 20
0.0992188
 30
0.0
 11
0.0937066
 21
0.0992188
 31
0.0
  0
LINE
  8
0
 62
     0
 10
0.0937066
 20
0.0992188
 30
0.0
 11
0.0937066
 21
93.0631
 31
0.0
  0
LINE
  8
0
 62
     0
 10
342.16
 20
4.05144
 30
0.0
 11
341.882
 21
3.90948
 31
0.0
  0
LINE
  8
0
 62
     0
 10
341.882
 20
3.90948
 30
0.0
 11
341.66
 21
3.68762
 31
0.0
  0
LINE
  8
0
 62
     0
 10
341.66
 20
3.68762
 30
0.0
 11
341.518
 21
3.40927
 31
0.0
  0
LINE
  8
0
 62
     0
 10
341.518
 20
3.40927
 30
0.0
 11
341.469
 21
3.10058
 31
0.0
  0
LINE
  8
0
 62
     0
 10
341.469
 20
3.10058
 30
0.0
 11
341.518
 21
2.79053
 31
0.0
  0
LINE
  8
0
 62
     0
 10
341.518
 20
2.79053
 30
0.0
 11
341.66
 21
2.51216
 31
0.0
  0
LINE
  8
0
 62
     0
 10
341.66
 20
2.51216
 30
0.0
 11
341.882
 21
2.29168
 31
0.0
  0
LINE
  8
0
 62
     0
 10
341.882
 20
2.29168
 30
0.0
 11
342.16
 21
2.14836
 31
0.0
  0
LINE
  8
0
 62
     0
 10
342.16
 20
2.14836
 30
0.0
 11
342.47
 21
2.10013
 31
0.0
  0
LINE
  8
0
 62
     0
 10
342.47
 20
2.10013
 30
0.0
 11
342.779
 21
2.14836
 31
0.0
  0
LINE
  8
0
 62
     0
 10
342.779
 20
2.14836
 30
0.0
 11
343.057
 21
2.29168
 31
0.0
  0
LINE
  8
0
 62
     0
 10
343.057
 20
2.29168
 30
0.0
 11
343.279
 21
2.51216
 31
0.0
  0
LINE
  8
0
 62
     0
 10
343.279
 20
2.51216
 30
0.0
 11
343.421
 21
2.79053
 31
0.0
  0
LINE
  8
0
 62
     0
 10
343.421
 20
2.79053
 30
0.0
 11
343.469
 21
3.10058
 31
0.0
  0
LINE
  8
0
 62
     0
 10
343.469
 20
3.10058
 30
0.0
 11
343.421
 21
3.40927
 31
0.0
  0
LINE
  8
0
 62
     0
 10
343.421
 20
3.40927
 30
0.0
 11
343.279
 21
3.68762
 31
0.0
  0
LINE
  8
0
 62
     0
 10
343.279
 20
3.68762
 30
0.0
 11
343.057
 21
3.90948
 31
0.0
  0
LINE
  8
0
 62
     0
 10
343.057
 20
3.90948
 30
0.0
 11
342.779
 21
4.05144
 31
0.0
  0
LINE
  8
0
 62
     0
 10
342.779
 20
4.05144
 30
0.0
 11
342.47
 21
4.09967
 31
0.0
  0
LINE
  8
0
 62
     0
 10
342.47
 20
4.09967
 30
0.0
 11
342.16
 21
4.05144
 31
0.0
  0
LINE
  8
0
 62
     0
 10
229.034
 20
4.05144
 30
0.0
 11
228.756
 21
3.90948
 31
0.0
  0
LINE
  8
0
 62
     0
 10
228.756
 20
3.90948
 30
0.0
 11
228.535
 21
3.68762
 31
0.0
  0
LINE
  8
0
 62
     0
 10
228.535
 20
3.68762
 30
0.0
 11
228.393
 21
3.40927
 31
0.0
  0
LINE
  8
0
 62
     0
 10
228.393
 20
3.40927
 30
0.0
 11
228.344
 21
3.10058
 31
0.0
  0
LINE
  8
0
 62
     0
 10
228.344
 20
3.10058
 30
0.0
 11
228.393
 21
2.79053
 31
0.0
  0
LINE
  8
0
 62
     0
 10
228.393
 20
2.79053
 30
0.0
 11
228.535
 21
2.51216
 31
0.0
  0
LINE
  8
0
 62
     0
 10
228.535
 20
2.51216
 30
0.0
 11
228.756
 21
2.29168
 31
0.0
  0
LINE
  8
0
 62
     0
 10
228.756
 20
2.29168
 30
0.0
 11
229.034
 21
2.14836
 31
0.0
  0
LINE
  8
0
 62
     0
 10
229.034
 20
2.14836
 30
0.0
 11
229.344
 21
2.10013
 31
0.0
  0
LINE
  8
0
 62
     0
 10
229.344
 20
2.10013
 30
0.0
 11
229.653
 21
2.14836
 31
0.0
  0
LINE
  8
0
 62
     0
 10
229.653
 20
2.14836
 30
0.0
 11
229.931
 21
2.29168
 31
0.0
  0
LINE
  8
0
 62
     0
 10
229.931
 20
2.29168
 30
0.0
 11
230.153
 21
2.51216
 31
0.0
  0
LINE
  8
0
 62
     0
 10
230.153
 20
2.51216
 30
0.0
 11
230.295
 21
2.79053
 31
0.0
  0
LINE
  8
0
 62
     0
 10
230.295
 20
2.79053
 30
0.0
 11
230.343
 21
3.10058
 31
0.0
  0
LINE
  8
0
 62
     0
 10
230.343
 20
3.10058
 30
0.0
 11
230.295
 21
3.40927
 31
0.0
  0
LINE
  8
0
 62
     0
 10
230.295
 20
3.40927
 30
0.0
 11
230.153
 21
3.68762
 31
0.0
  0
LINE
  8
0
 62
     0
 10
230.153
 20
3.68762
 30
0.0
 11
229.931
 21
3.90948
 31
0.0
  0
LINE
  8
0
 62
     0
 10
229.931
 20
3.90948
 30
0.0
 11
229.653
 21
4.05144
 31
0.0
  0
LINE
  8
0
 62
     0
 10
229.653
 20
4.05144
 30
0.0
 11
229.344
 21
4.09967
 31
0.0
  0
LINE
  8
0
 62
     0
 10
229.344
 20
4.09967
 30
0.0
 11
229.034
 21
4.05144
 31
0.0
  0
LINE
  8
0
 62
     0
 10
115.91
 20
4.05144
 30
0.0
 11
115.631
 21
3.90948
 31
0.0
  0
LINE
  8
0
 62
     0
 10
115.631
 20
3.90948
 30
0.0
 11
115.409
 21
3.68762
 31
0.0
  0
LINE
  8
0
 62
     0
 10
115.409
 20
3.68762
 30
0.0
 11
115.267
 21
3.40927
 31
0.0
  0
LINE
  8
0
 62
     0
 10
115.267
 20
3.40927
 30
0.0
 11
115.219
 21
3.10058
 31
0.0
  0
LINE
  8
0
 62
     0
 10
115.219
 20
3.10058
 30
0.0
 11
115.267
 21
2.79053
 31
0.0
  0
LINE
  8
0
 62
     0
 10
115.267
 20
2.79053
 30
0.0
 11
115.409
 21
2.51216
 31
0.0
  0
LINE
  8
0
 62
     0
 10
115.409
 20
2.51216
 30
0.0
 11
115.631
 21
2.29168
 31
0.0
  0
LINE
  8
0
 62
     0
 10
115.631
 20
2.29168
 30
0.0
 11
115.91
 21
2.14836
 31
0.0
  0
LINE
  8
0
 62
     0
 10
115.91
 20
2.14836
 30
0.0
 11
116.218
 21
2.10013
 31
0.0
  0
LINE
  8
0
 62
     0
 10
116.218
 20
2.10013
 30
0.0
 11
116.528
 21
2.14836
 31
0.0
  0
LINE
  8
0
 62
     0
 10
116.528
 20
2.14836
 30
0.0
 11
116.806
 21
2.29168
 31
0.0
  0
LINE
  8
0
 62
     0
 10
116.806
 20
2.29168
 30
0.0
 11
117.027
 21
2.51216
 31
0.0
  0
LINE
  8
0
 62
     0
 10
117.027
 20
2.51216
 30
0.0
 11
117.169
 21
2.79053
 31
0.0
  0
LINE
  8
0
 62
     0
 10
117.169
 20
2.79053
 30
0.0
 11
117.219
 21
3.10058
 31
0.0
  0
LINE
  8
0
 62
     0
 10
117.219
 20
3.10058
 30
0.0
 11
117.169
 21
3.40927
 31
0.0
  0
LINE
  8
0
 62
     0
 10
117.169
 20
3.40927
 30
0.0
 11
117.027
 21
3.68762
 31
0.0
  0
LINE
  8
0
 62
     0
 10
117.027
 20
3.68762
 30
0.0
 11
116.806
 21
3.90948
 31
0.0
  0
LINE
  8
0
 62
     0
 10
116.806
 20
3.90948
 30
0.0
 11
116.528
 21
4.05144
 31
0.0
  0
LINE
  8
0
 62
     0
 10
116.528
 20
4.05144
 30
0.0
 11
116.218
 21
4.09967
 31
0.0
  0
LINE
  8
0
 62
     0
 10
116.218
 20
4.09967
 30
0.0
 11
115.91
 21
4.05144
 31
0.0
  0
LINE
  8
0
 62
     0
 10
2.78364
 20
4.05144
 30
0.0
 11
2.50527
 21
3.90948
 31
0.0
  0
LINE
  8
0
 62
     0
 10
2.50527
 20
3.90948
 30
0.0
 11
2.28341
 21
3.68762
 31
0.0
  0
LINE
  8
0
 62
     0
 10
2.28341
 20
3.68762
 30
0.0
 11
2.14147
 21
3.40927
 31
0.0
  0
LINE
  8
0
 62
     0
 10
2.14147
 20
3.40927
 30
0.0
 11
2.09324
 21
3.10058
 31
0.0
  0
LINE
  8
0
 62
     0
 10
2.09324
 20
3.10058
 30
0.0
 11
2.14147
 21
2.79053
 31
0.0
  0
LINE
  8
0
 62
     0
 10
2.14147
 20
2.79053
 30
0.0
 11
2.28341
 21
2.51216
 31
0.0
  0
LINE
  8
0
 62
     0
 10
2.28341
 20
2.51216
 30
0.0
 11
2.50527
 21
2.29168
 31
0.0
  0
LINE
  8
0
 62
     0
 10
2.50527
 20
2.29168
 30
0.0
 11
2.78364
 21
2.14836
 31
0.0
  0
LINE
  8
0
 62
     0
 10
2.78364
 20
2.14836
 30
0.0
 11
3.0937
 21
2.10013
 31
0.0
  0
LINE
  8
0
 62
     0
 10
3.0937
 20
2.10013
 30
0.0
 11
3.40238
 21
2.14836
 31
0.0
  0
LINE
  8
0
 62
     0
 10
3.40238
 20
2.14836
 30
0.0
 11
3.68074
 21
2.29168
 31
0.0
  0
LINE
  8
0
 62
     0
 10
3.68074
 20
2.29168
 30
0.0
 11
3.9026
 21
2.51216
 31
0.0
  0
LINE
  8
0
 62
     0
 10
3.9026
 20
2.51216
 30
0.0
 11
4.04453
 21
2.79053
 31
0.0
  0
LINE
  8
0
 62
     0
 10
4.04453
 20
2.79053
 30
0.0
 11
4.09416
 21
3.10058
 31
0.0
  0
LINE
  8
0
 62
     0
 10
4.09416
 20
3.10058
 30
0.0
 11
4.04453
 21
3.40927
 31
0.0
  0
LINE
  8
0
 62
     0
 10
4.04453
 20
3.40927
 30
0.0
 11
3.9026
 21
3.68762
 31
0.0
  0
LINE
  8
0
 62
     0
 10
3.9026
 20
3.68762
 30
0.0
 11
3.68074
 21
3.90948
 31
0.0
  0
LINE
  8
0
 62
     0
 10
3.68074
 20
3.90948
 30
0.0
 11
3.40238
 21
4.05144
 31
0.0
  0
LINE
  8
0
 62
     0
 10
3.40238
 20
4.05144
 30
0.0
 11
3.0937
 21
4.09967
 31
0.0
  0
LINE
  8
0
 62
     0
 10
3.0937
 20
4.09967
 30
0.0
 11
2.78364
 21
4.05144
 31
0.0
  0
LINE
  8
0
 62
     0
 10
301.367
 20
44.2006
 30
0.0
 11
301.367
 21
25.1506
 31
0.0
  0
LINE
  8
0
 62
     0
 10
301.367
 20
25.1506
 30
0.0
 11
282.317
 21
25.1506
 31
0.0
  0
LINE
  8
0
 62
     0
 10
282.317
 20
25.1506
 30
0.0
 11
282.317
 21
6.10059
 31
0.0
  0
LINE
  8
0
 62
     0
 10
282.317
 20
6.10059
 30
0.0
 11
339.47
 21
6.10059
 31
0.0
  0
LINE
  8
0
 62
     0
 10
339.47
 20
6.10059
 30
0.0
 11
339.47
 21
25.1506
 31
0.0
  0
LINE
  8
0
 62
     0
 10
339.47
 20
25.1506
 30
0.0
 11
320.42
 21
25.1506
 31
0.0
  0
LINE
  8
0
 62
     0
 10
320.42
 20
25.1506
 30
0.0
 11
320.42
 21
44.2006
 31
0.0
  0
LINE
  8
0
 62
     0
 10
320.42
 20
44.2006
 30
0.0
 11
301.367
 21
44.2006
 31
0.0
  0
LINE
  8
0
 62
     0
 10
6.0923
 20
87.0631
 30
0.0
 11
63.2449
 21
87.0631
 31
0.0
  0
LINE
  8
0
 62
     0
 10
63.2449
 20
87.0631
 30
0.0
 11
63.2449
 21
10.8603
 31
0.0
  0
LINE
  8
0
 62
     0
 10
63.2449
 20
10.8603
 30
0.0
 11
6.0923
 21
10.8603
 31
0.0
  0
LINE
  8
0
 62
     0
 10
6.0923
 20
10.8603
 30
0.0
 11
6.0923
 21
87.0631
 31
0.0
  0
LINE
  8
0
 62
     0
 10
68.005
 20
87.0631
 30
0.0
 11
68.005
 21
10.8617
 31
0.0
  0
LINE
  8
0
 62
     0
 10
68.005
 20
10.8617
 30
0.0
 11
277.556
 21
10.8617
 31
0.0
  0
LINE
  8
0
 62
     0
 10
277.556
 20
10.8617
 30
0.0
 11
277.556
 21
29.9117
 31
0.0
  0
LINE
  8
0
 62
     0
 10
277.556
 20
29.9117
 30
0.0
 11
296.606
 21
29.9117
 31
0.0
  0
LINE
  8
0
 62
     0
 10
296.606
 20
29.9117
 30
0.0
 11
296.606
 21
87.0631
 31
0.0
  0
LINE
  8
0
 62
     0
 10
296.606
 20
87.0631
 30
0.0
 11
68.005
 21
87.0631
 31
0.0
  0
LINE
  8
0
 62
     0
 10
301.367
 20
87.0631
 30
0.0
 11
339.47
 21
87.0631
 31
0.0
  0
LINE
  8
0
 62
     0
 10
339.47
 20
87.0631
 30
0.0
 11
339.47
 21
48.9603
 31
0.0
  0
LINE
  8
0
 62
     0
 10
339.47
 20
48.9603
 30
0.0
 11
301.367
 21
48.9603
 31
0.0
  0
LINE
  8
0
 62
     0
 10
301.367
 20
48.9603
 30
0.0
 11
301.367
 21
87.0631
 31
0.0
  0
LINE
  8
0
 62
     0
 10
115.91
 20
91.0153
 30
0.0
 11
115.631
 21
90.8734
 31
0.0
  0
LINE
  8
0
 62
     0
 10
115.631
 20
90.8734
 30
0.0
 11
115.409
 21
90.6515
 31
0.0
  0
LINE
  8
0
 62
     0
 10
115.409
 20
90.6515
 30
0.0
 11
115.267
 21
90.3732
 31
0.0
  0
LINE
  8
0
 62
     0
 10
115.267
 20
90.3732
 30
0.0
 11
115.219
 21
90.0645
 31
0.0
  0
LINE
  8
0
 62
     0
 10
115.219
 20
90.0645
 30
0.0
 11
115.267
 21
89.753
 31
0.0
  0
LINE
  8
0
 62
     0
 10
115.267
 20
89.753
 30
0.0
 11
115.409
 21
89.4761
 31
0.0
  0
LINE
  8
0
 62
     0
 10
115.409
 20
89.4761
 30
0.0
 11
115.631
 21
89.2528
 31
0.0
  0
LINE
  8
0
 62
     0
 10
115.631
 20
89.2528
 30
0.0
 11
115.91
 21
89.1124
 31
0.0
  0
LINE
  8
0
 62
     0
 10
115.91
 20
89.1124
 30
0.0
 11
116.218
 21
89.0626
 31
0.0
  0
LINE
  8
0
 62
     0
 10
116.218
 20
89.0626
 30
0.0
 11
116.528
 21
89.1124
 31
0.0
  0
LINE
  8
0
 62
     0
 10
116.528
 20
89.1124
 30
0.0
 11
116.806
 21
89.2528
 31
0.0
  0
LINE
  8
0
 62
     0
 10
116.806
 20
89.2528
 30
0.0
 11
117.027
 21
89.4761
 31
0.0
  0
LINE
  8
0
 62
     0
 10
117.027
 20
89.4761
 30
0.0
 11
117.169
 21
89.753
 31
0.0
  0
LINE
  8
0
 62
     0
 10
117.169
 20
89.753
 30
0.0
 11
117.219
 21
90.0617
 31
0.0
  0
LINE
  8
0
 62
     0
 10
117.219
 20
90.0617
 30
0.0
 11
117.169
 21
90.3732
 31
0.0
  0
LINE
  8
0
 62
     0
 10
117.169
 20
90.3732
 30
0.0
 11
117.027
 21
90.6515
 31
0.0
  0
LINE
  8
0
 62
     0
 10
117.027
 20
90.6515
 30
0.0
 11
116.806
 21
90.8734
 31
0.0
  0
LINE
  8
0
 62
     0
 10
116.806
 20
90.8734
 30
0.0
 11
116.528
 21
91.0153
 31
0.0
  0
LINE
  8
0
 62
     0
 10
116.528
 20
91.0153
 30
0.0
 11
116.218
 21
91.0636
 31
0.0
  0
LINE
  8
0
 62
     0
 10
116.218
 20
91.0636
 30
0.0
 11
115.91
 21
91.0153
 31
0.0
  0
LINE
  8
0
 62
     0
 10
229.034
 20
91.0153
 30
0.0
 11
228.756
 21
90.8734
 31
0.0
  0
LINE
  8
0
 62
     0
 10
228.756
 20
90.8734
 30
0.0
 11
228.535
 21
90.6515
 31
0.0
  0
LINE
  8
0
 62
     0
 10
228.535
 20
90.6515
 30
0.0
 11
228.393
 21
90.3732
 31
0.0
  0
LINE
  8
0
 62
     0
 10
228.393
 20
90.3732
 30
0.0
 11
228.344
 21
90.0645
 31
0.0
  0
LINE
  8
0
 62
     0
 10
228.344
 20
90.0645
 30
0.0
 11
228.393
 21
89.753
 31
0.0
  0
LINE
  8
0
 62
     0
 10
228.393
 20
89.753
 30
0.0
 11
228.535
 21
89.4761
 31
0.0
  0
LINE
  8
0
 62
     0
 10
228.535
 20
89.4761
 30
0.0
 11
228.756
 21
89.2528
 31
0.0
  0
LINE
  8
0
 62
     0
 10
228.756
 20
89.2528
 30
0.0
 11
229.034
 21
89.1124
 31
0.0
  0
LINE
  8
0
 62
     0
 10
229.034
 20
89.1124
 30
0.0
 11
229.344
 21
89.0626
 31
0.0
  0
LINE
  8
0
 62
     0
 10
229.344
 20
89.0626
 30
0.0
 11
229.653
 21
89.1124
 31
0.0
  0
LINE
  8
0
 62
     0
 10
229.653
 20
89.1124
 30
0.0
 11
229.931
 21
89.2528
 31
0.0
  0
LINE
  8
0
 62
     0
 10
229.931
 20
89.2528
 30
0.0
 11
230.153
 21
89.4761
 31
0.0
  0
LINE
  8
0
 62
     0
 10
230.153
 20
89.4761
 30
0.0
 11
230.295
 21
89.753
 31
0.0
  0
LINE
  8
0
 62
     0
 10
230.295
 20
89.753
 30
0.0
 11
230.343
 21
90.0617
 31
0.0
  0
LINE
  8
0
 62
     0
 10
230.343
 20
90.0617
 30
0.0
 11
230.295
 21
90.3732
 31
0.0
  0
LINE
  8
0
 62
     0
 10
230.295
 20
90.3732
 30
0.0
 11
230.153
 21
90.6515
 31
0.0
  0
LINE
  8
0
 62
     0
 10
230.153
 20
90.6515
 30
0.0
 11
229.931
 21
90.8734
 31
0.0
  0
LINE
  8
0
 62
     0
 10
229.931
 20
90.8734
 30
0.0
 11
229.653
 21
91.0153
 31
0.0
  0
LINE
  8
0
 62
     0
 10
229.653
 20
91.0153
 30
0.0
 11
229.344
 21
91.0636
 31
0.0
  0
LINE
  8
0
 62
     0
 10
229.344
 20
91.0636
 30
0.0
 11
229.034
 21
91.0153
 31
0.0
  0
LINE
  8
0
 62
     0
 10
342.16
 20
91.0153
 30
0.0
 11
341.882
 21
90.8734
 31
0.0
  0
LINE
  8
0
 62
     0
 10
341.882
 20
90.8734
 30
0.0
 11
341.66
 21
90.6515
 31
0.0
  0
LINE
  8
0
 62
     0
 10
341.66
 20
90.6515
 30
0.0
 11
341.518
 21
90.3732
 31
0.0
  0
LINE
  8
0
 62
     0
 10
341.518
 20
90.3732
 30
0.0
 11
341.469
 21
90.0645
 31
0.0
  0
LINE
  8
0
 62
     0
 10
341.469
 20
90.0645
 30
0.0
 11
341.518
 21
89.753
 31
0.0
  0
LINE
  8
0
 62
     0
 10
341.518
 20
89.753
 30
0.0
 11
341.66
 21
89.4761
 31
0.0
  0
LINE
  8
0
 62
     0
 10
341.66
 20
89.4761
 30
0.0
 11
341.882
 21
89.2528
 31
0.0
  0
LINE
  8
0
 62
     0
 10
341.882
 20
89.2528
 30
0.0
 11
342.16
 21
89.1124
 31
0.0
  0
LINE
  8
0
 62
     0
 10
342.16
 20
89.1124
 30
0.0
 11
342.47
 21
89.0626
 31
0.0
  0
LINE
  8
0
 62
     0
 10
342.47
 20
89.0626
 30
0.0
 11
342.779
 21
89.1124
 31
0.0
  0
LINE
  8
0
 62
     0
 10
342.779
 20
89.1124
 30
0.0
 11
343.057
 21
89.2528
 31
0.0
  0
LINE
  8
0
 62
     0
 10
343.057
 20
89.2528
 30
0.0
 11
343.279
 21
89.4761
 31
0.0
  0
LINE
  8
0
 62
     0
 10
343.279
 20
89.4761
 30
0.0
 11
343.421
 21
89.753
 31
0.0
  0
LINE
  8
0
 62
     0
 10
343.421
 20
89.753
 30
0.0
 11
343.469
 21
90.0617
 31
0.0
  0
LINE
  8
0
 62
     0
 10
343.469
 20
90.0617
 30
0.0
 11
343.421
 21
90.3732
 31
0.0
  0
LINE
  8
0
 62
     0
 10
343.421
 20
90.3732
 30
0.0
 11
343.279
 21
90.6515
 31
0.0
  0
LINE
  8
0
 62
     0
 10
343.279
 20
90.6515
 30
0.0
 11
343.057
 21
90.8734
 31
0.0
  0
LINE
  8
0
 62
     0
 10
343.057
 20
90.8734
 30
0.0
 11
342.779
 21
91.0153
 31
0.0
  0
LINE
  8
0
 62
     0
 10
342.779
 20
91.0153
 30
0.0
 11
342.47
 21
91.0636
 31
0.0
  0
LINE
  8
0
 62
     0
 10
342.47
 20
91.0636
 30
0.0
 11
342.16
 21
91.0153
 31
0.0
  0
LINE
  8
0
 62
     0
 10
2.78364
 20
91.0153
 30
0.0
 11
2.50527
 21
90.8734
 31
0.0
  0
LINE
  8
0
 62
     0
 10
2.50527
 20
90.8734
 30
0.0
 11
2.28341
 21
90.6515
 31
0.0
  0
LINE
  8
0
 62
     0
 10
2.28341
 20
90.6515
 30
0.0
 11
2.14147
 21
90.3732
 31
0.0
  0
LINE
  8
0
 62
     0
 10
2.14147
 20
90.3732
 30
0.0
 11
2.09324
 21
90.0645
 31
0.0
  0
LINE
  8
0
 62
     0
 10
2.09324
 20
90.0645
 30
0.0
 11
2.14147
 21
89.753
 31
0.0
  0
LINE
  8
0
 62
     0
 10
2.14147
 20
89.753
 30
0.0
 11
2.28341
 21
89.4761
 31
0.0
  0
LINE
  8
0
 62
     0
 10
2.28341
 20
89.4761
 30
0.0
 11
2.50527
 21
89.2528
 31
0.0
  0
LINE
  8
0
 62
     0
 10
2.50527
 20
89.2528
 30
0.0
 11
2.78364
 21
89.1124
 31
0.0
  0
LINE
  8
0
 62
     0
 10
2.78364
 20
89.1124
 30
0.0
 11
3.0937
 21
89.0626
 31
0.0
  0
LINE
  8
0
 62
     0
 10
3.0937
 20
89.0626
 30
0.0
 11
3.40238
 21
89.1124
 31
0.0
  0
LINE
  8
0
 62
     0
 10
3.40238
 20
89.1124
 30
0.0
 11
3.68074
 21
89.2528
 31
0.0
  0
LINE
  8
0
 62
     0
 10
3.68074
 20
89.2528
 30
0.0
 11
3.9026
 21
89.4761
 31
0.0
  0
LINE
  8
0
 62
     0
 10
3.9026
 20
89.4761
 30
0.0
 11
4.04453
 21
89.753
 31
0.0
  0
LINE
  8
0
 62
     0
 10
4.04453
 20
89.753
 30
0.0
 11
4.09416
 21
90.0617
 31
0.0
  0
LINE
  8
0
 62
     0
 10
4.09416
 20
90.0617
 30
0.0
 11
4.04453
 21
90.3732
 31
0.0
  0
LINE
  8
0
 62
     0
 10
4.04453
 20
90.3732
 30
0.0
 11
3.9026
 21
90.6515
 31
0.0
  0
LINE
  8
0
 62
     0
 10
3.9026
 20
90.6515
 30
0.0
 11
3.68074
 21
90.8734
 31
0.0
  0
LINE
  8
0
 62
     0
 10
3.68074
 20
90.8734
 30
0.0
 11
3.40238
 21
91.0153
 31
0.0
  0
LINE
  8
0
 62
     0
 10
3.40238
 20
91.0153
 30
0.0
 11
3.0937
 21
91.0636
 31
0.0
  0
LINE
  8
0
 62
     0
 10
3.0937
 20
91.0636
 30
0.0
 11
2.78364
 21
91.0153
 31
0.0
  0
ENDSEC
  0
EOF
