  0
SECTION
  2
HEADER
  9
$ACADVER
  1
AC1009
  9
$EXTMIN
 10
0.0
 20
0.0
 30
0.0
  9
$EXTMAX
 10
1000.0
 20
1000.0
 30
0.0
  9
$FILLMODE
 70
 0
  9
$SPLFRAME
 70
 1
  0
ENDSEC
  0
SECTION
  2
TABLES
  0
TABLE
  2
LAYER
 70
1
  0
LAYER
  2
0
 70
     0
 62
     7
  6
CONTINUOUS
  0
ENDTAB
  0
ENDSEC
  0
SECTION
  2
ENTITIES
  0
LINE
  8
0
 62
     0
 10
0.0937066
 20
93.0631
 30
0.0
 11
345.47
 21
93.0631
 31
0.0
  0
LINE
  8
0
 62
     0
 10
345.47
 20
93.0631
 30
0.0
 11
345.47
 21
0.0992188
 31
0.0
  0
LINE
  8
0
 62
     0
 10
345.47
 20
0.0992188
 30
0.0
 11
0.0937066
 21
0.0992188
 31
0.0
  0
LINE
  8
0
 62
     0
 10
0.0937066
 20
0.0992188
 30
0.0
 11
0.0937066
 21
93.0631
 31
0.0
  0
LINE
  8
0
 62
     0
 10
342.16
 20
4.05144
 30
0.0
 11
341.882
 21
3.90948
 31
0.0
  0
LINE
  8
0
 62
     0
 10
341.882
 20
3.90948
 30
0.0
 11
341.66
 21
3.68762
 31
0.0
  0
LINE
  8
0
 62
     0
 10
341.66
 20
3.68762
 30
0.0
 11
341.518
 21
3.40927
 31
0.0
  0
LINE
  8
0
 62
     0
 10
341.518
 20
3.40927
 30
0.0
 11
341.469
 21
3.10058
 31
0.0
  0
LINE
  8
0
 62
     0
 10
341.469
 20
3.10058
 30
0.0
 11
341.518
 21
2.79053
 31
0.0
  0
LINE
  8
0
 62
     0
 10
341.518
 20
2.79053
 30
0.0
 11
341.66
 21
2.51216
 31
0.0
  0
LINE
  8
0
 62
     0
 10
341.66
 20
2.51216
 30
0.0
 11
341.882
 21
2.29168
 31
0.0
  0
LINE
  8
0
 62
     0
 10
341.882
 20
2.29168
 30
0.0
 11
342.16
 21
2.14836
 31
0.0
  0
LINE
  8
0
 62
     0
 10
342.16
 20
2.14836
 30
0.0
 11
342.47
 21
2.10013
 31
0.0
  0
LINE
  8
0
 62
     0
 10
342.47
 20
2.10013
 30
0.0
 11
342.779
 21
2.14836
 31
0.0
  0
LINE
  8
0
 62
     0
 10
342.779
 20
2.14836
 30
0.0
 11
343.057
 21
2.29168
 31
0.0
  0
LINE
  8
0
 62
     0
 10
343.057
 20
2.29168
 30
0.0
 11
343.279
 21
2.51216
 31
0.0
  0
LINE
  8
0
 62
     0
 10
343.279
 20
2.51216
 30
0.0
 11
343.421
 21
2.79053
 31
0.0
  0
LINE
  8
0
 62
     0
 10
343.421
 20
2.79053
 30
0.0
 11
343.469
 21
3.10058
 31
0.0
  0
LINE
  8
0
 62
     0
 10
343.469
 20
3.10058
 30
0.0
 11
343.421
 21
3.40927
 31
0.0
  0
LINE
  8
0
 62
     0
 10
343.421
 20
3.40927
 30
0.0
 11
343.279
 21
3.68762
 31
0.0
  0
LINE
  8
0
 62
     0
 10
343.279
 20
3.68762
 30
0.0
 11
343.057
 21
3.90948
 31
0.0
  0
LINE
  8
0
 62
     0
 10
343.057
 20
3.90948
 30
0.0
 11
342.779
 21
4.05144
 31
0.0
  0
LINE
  8
0
 62
     0
 10
342.779
 20
4.05144
 30
0.0
 11
342.47
 21
4.09967
 31
0.0
  0
LINE
  8
0
 62
     0
 10
342.47
 20
4.09967
 30
0.0
 11
342.16
 21
4.05144
 31
0.0
  0
LINE
  8
0
 62
     0
 10
229.034
 20
4.05144
 30
0.0
 11
228.756
 21
3.90948
 31
0.0
  0
LINE
  8
0
 62
     0
 10
228.756
 20
3.90948
 30
0.0
 11
228.535
 21
3.68762
 31
0.0
  0
LINE
  8
0
 62
     0
 10
228.535
 20
3.68762
 30
0.0
 11
228.393
 21
3.40927
 31
0.0
  0
LINE
  8
0
 62
     0
 10
228.393
 20
3.40927
 30
0.0
 11
228.344
 21
3.10058
 31
0.0
  0
LINE
  8
0
 62
     0
 10
228.344
 20
3.10058
 30
0.0
 11
228.393
 21
2.79053
 31
0.0
  0
LINE
  8
0
 62
     0
 10
228.393
 20
2.79053
 30
0.0
 11
228.535
 21
2.51216
 31
0.0
  0
LINE
  8
0
 62
     0
 10
228.535
 20
2.51216
 30
0.0
 11
228.756
 21
2.29168
 31
0.0
  0
LINE
  8
0
 62
     0
 10
228.756
 20
2.29168
 30
0.0
 11
229.034
 21
2.14836
 31
0.0
  0
LINE
  8
0
 62
     0
 10
229.034
 20
2.14836
 30
0.0
 11
229.344
 21
2.10013
 31
0.0
  0
LINE
  8
0
 62
     0
 10
229.344
 20
2.10013
 30
0.0
 11
229.653
 21
2.14836
 31
0.0
  0
LINE
  8
0
 62
     0
 10
229.653
 20
2.14836
 30
0.0
 11
229.931
 21
2.29168
 31
0.0
  0
LINE
  8
0
 62
     0
 10
229.931
 20
2.29168
 30
0.0
 11
230.153
 21
2.51216
 31
0.0
  0
LINE
  8
0
 62
     0
 10
230.153
 20
2.51216
 30
0.0
 11
230.295
 21
2.79053
 31
0.0
  0
LINE
  8
0
 62
     0
 10
230.295
 20
2.79053
 30
0.0
 11
230.343
 21
3.10058
 31
0.0
  0
LINE
  8
0
 62
     0
 10
230.343
 20
3.10058
 30
0.0
 11
230.295
 21
3.40927
 31
0.0
  0
LINE
  8
0
 62
     0
 10
230.295
 20
3.40927
 30
0.0
 11
230.153
 21
3.68762
 31
0.0
  0
LINE
  8
0
 62
     0
 10
230.153
 20
3.68762
 30
0.0
 11
229.931
 21
3.90948
 31
0.0
  0
LINE
  8
0
 62
     0
 10
229.931
 20
3.90948
 30
0.0
 11
229.653
 21
4.05144
 31
0.0
  0
LINE
  8
0
 62
     0
 10
229.653
 20
4.05144
 30
0.0
 11
229.344
 21
4.09967
 31
0.0
  0
LINE
  8
0
 62
     0
 10
229.344
 20
4.09967
 30
0.0
 11
229.034
 21
4.05144
 31
0.0
  0
LINE
  8
0
 62
     0
 10
115.91
 20
4.05144
 30
0.0
 11
115.631
 21
3.90948
 31
0.0
  0
LINE
  8
0
 62
     0
 10
115.631
 20
3.90948
 30
0.0
 11
115.409
 21
3.68762
 31
0.0
  0
LINE
  8
0
 62
     0
 10
115.409
 20
3.68762
 30
0.0
 11
115.267
 21
3.40927
 31
0.0
  0
LINE
  8
0
 62
     0
 10
115.267
 20
3.40927
 30
0.0
 11
115.219
 21
3.10058
 31
0.0
  0
LINE
  8
0
 62
     0
 10
115.219
 20
3.10058
 30
0.0
 11
115.267
 21
2.79053
 31
0.0
  0
LINE
  8
0
 62
     0
 10
115.267
 20
2.79053
 30
0.0
 11
115.409
 21
2.51216
 31
0.0
  0
LINE
  8
0
 62
     0
 10
115.409
 20
2.51216
 30
0.0
 11
115.631
 21
2.29168
 31
0.0
  0
LINE
  8
0
 62
     0
 10
115.631
 20
2.29168
 30
0.0
 11
115.91
 21
2.14836
 31
0.0
  0
LINE
  8
0
 62
     0
 10
115.91
 20
2.14836
 30
0.0
 11
116.218
 21
2.10013
 31
0.0
  0
LINE
  8
0
 62
     0
 10
116.218
 20
2.10013
 30
0.0
 11
116.528
 21
2.14836
 31
0.0
  0
LINE
  8
0
 62
     0
 10
116.528
 20
2.14836
 30
0.0
 11
116.806
 21
2.29168
 31
0.0
  0
LINE
  8
0
 62
     0
 10
116.806
 20
2.29168
 30
0.0
 11
117.027
 21
2.51216
 31
0.0
  0
LINE
  8
0
 62
     0
 10
117.027
 20
2.51216
 30
0.0
 11
117.169
 21
2.79053
 31
0.0
  0
LINE
  8
0
 62
     0
 10
117.169
 20
2.79053
 30
0.0
 11
117.219
 21
3.10058
 31
0.0
  0
LINE
  8
0
 62
     0
 10
117.219
 20
3.10058
 30
0.0
 11
117.169
 21
3.40927
 31
0.0
  0
LINE
  8
0
 62
     0
 10
117.169
 20
3.40927
 30
0.0
 11
117.027
 21
3.68762
 31
0.0
  0
LINE
  8
0
 62
     0
 10
117.027
 20
3.68762
 30
0.0
 11
116.806
 21
3.90948
 31
0.0
  0
LINE
  8
0
 62
     0
 10
116.806
 20
3.90948
 30
0.0
 11
116.528
 21
4.05144
 31
0.0
  0
LINE
  8
0
 62
     0
 10
116.528
 20
4.05144
 30
0.0
 11
116.218
 21
4.09967
 31
0.0
  0
LINE
  8
0
 62
     0
 10
116.218
 20
4.09967
 30
0.0
 11
115.91
 21
4.05144
 31
0.0
  0
LINE
  8
0
 62
     0
 10
2.78364
 20
4.05144
 30
0.0
 11
2.50527
 21
3.90948
 31
0.0
  0
LINE
  8
0
 62
     0
 10
2.50527
 20
3.90948
 30
0.0
 11
2.28341
 21
3.68762
 31
0.0
  0
LINE
  8
0
 62
     0
 10
2.28341
 20
3.68762
 30
0.0
 11
2.14147
 21
3.40927
 31
0.0
  0
LINE
  8
0
 62
     0
 10
2.14147
 20
3.40927
 30
0.0
 11
2.09324
 21
3.10058
 31
0.0
  0
LINE
  8
0
 62
     0
 10
2.09324
 20
3.10058
 30
0.0
 11
2.14147
 21
2.79053
 31
0.0
  0
LINE
  8
0
 62
     0
 10
2.14147
 20
2.79053
 30
0.0
 11
2.28341
 21
2.51216
 31
0.0
  0
LINE
  8
0
 62
     0
 10
2.28341
 20
2.51216
 30
0.0
 11
2.50527
 21
2.29168
 31
0.0
  0
LINE
  8
0
 62
     0
 10
2.50527
 20
2.29168
 30
0.0
 11
2.78364
 21
2.14836
 31
0.0
  0
LINE
  8
0
 62
     0
 10
2.78364
 20
2.14836
 30
0.0
 11
3.0937
 21
2.10013
 31
0.0
  0
LINE
  8
0
 62
     0
 10
3.0937
 20
2.10013
 30
0.0
 11
3.40238
 21
2.14836
 31
0.0
  0
LINE
  8
0
 62
     0
 10
3.40238
 20
2.14836
 30
0.0
 11
3.68074
 21
2.29168
 31
0.0
  0
LINE
  8
0
 62
     0
 10
3.68074
 20
2.29168
 30
0.0
 11
3.9026
 21
2.51216
 31
0.0
  0
LINE
  8
0
 62
     0
 10
3.9026
 20
2.51216
 30
0.0
 11
4.04453
 21
2.79053
 31
0.0
  0
LINE
  8
0
 62
     0
 10
4.04453
 20
2.79053
 30
0.0
 11
4.09416
 21
3.10058
 31
0.0
  0
LINE
  8
0
 62
     0
 10
4.09416
 20
3.10058
 30
0.0
 11
4.04453
 21
3.40927
 31
0.0
  0
LINE
  8
0
 62
     0
 10
4.04453
 20
3.40927
 30
0.0
 11
3.9026
 21
3.68762
 31
0.0
  0
LINE
  8
0
 62
     0
 10
3.9026
 20
3.68762
 30
0.0
 11
3.68074
 21
3.90948
 31
0.0
  0
LINE
  8
0
 62
     0
 10
3.68074
 20
3.90948
 30
0.0
 11
3.40238
 21
4.05144
 31
0.0
  0
LINE
  8
0
 62
     0
 10
3.40238
 20
4.05144
 30
0.0
 11
3.0937
 21
4.09967
 31
0.0
  0
LINE
  8
0
 62
     0
 10
3.0937
 20
4.09967
 30
0.0
 11
2.78364
 21
4.05144
 31
0.0
  0
LINE
  8
0
 62
     0
 10
284.843
 20
22.626
 30
0.0
 11
284.843
 21
21.6256
 31
0.0
  0
LINE
  8
0
 62
     0
 10
284.843
 20
21.6256
 30
0.0
 11
284.044
 21
21.6256
 31
0.0
  0
LINE
  8
0
 62
     0
 10
284.044
 20
21.6256
 30
0.0
 11
284.044
 21
18.5263
 31
0.0
  0
LINE
  8
0
 62
     0
 10
284.044
 20
18.5263
 30
0.0
 11
284.843
 21
18.5263
 31
0.0
  0
LINE
  8
0
 62
     0
 10
284.843
 20
18.5263
 30
0.0
 11
284.843
 21
12.7262
 31
0.0
  0
LINE
  8
0
 62
     0
 10
284.843
 20
12.7262
 30
0.0
 11
284.044
 21
12.7262
 31
0.0
  0
LINE
  8
0
 62
     0
 10
284.044
 20
12.7262
 30
0.0
 11
284.044
 21
9.62561
 31
0.0
  0
LINE
  8
0
 62
     0
 10
284.044
 20
9.62561
 30
0.0
 11
284.843
 21
9.62561
 31
0.0
  0
LINE
  8
0
 62
     0
 10
284.843
 20
9.62561
 30
0.0
 11
284.843
 21
8.62651
 31
0.0
  0
LINE
  8
0
 62
     0
 10
284.843
 20
8.62651
 30
0.0
 11
298.844
 21
8.62651
 31
0.0
  0
LINE
  8
0
 62
     0
 10
298.844
 20
8.62651
 30
0.0
 11
298.844
 21
9.62561
 31
0.0
  0
LINE
  8
0
 62
     0
 10
298.844
 20
9.62561
 30
0.0
 11
299.643
 21
9.62561
 31
0.0
  0
LINE
  8
0
 62
     0
 10
299.643
 20
9.62561
 30
0.0
 11
299.643
 21
12.7262
 31
0.0
  0
LINE
  8
0
 62
     0
 10
299.643
 20
12.7262
 30
0.0
 11
298.844
 21
12.7262
 31
0.0
  0
LINE
  8
0
 62
     0
 10
298.844
 20
12.7262
 30
0.0
 11
298.844
 21
18.5263
 31
0.0
  0
LINE
  8
0
 62
     0
 10
298.844
 20
18.5263
 30
0.0
 11
299.643
 21
18.5263
 31
0.0
  0
LINE
  8
0
 62
     0
 10
299.643
 20
18.5263
 30
0.0
 11
299.643
 21
21.6256
 31
0.0
  0
LINE
  8
0
 62
     0
 10
299.643
 20
21.6256
 30
0.0
 11
298.844
 21
21.6256
 31
0.0
  0
LINE
  8
0
 62
     0
 10
298.844
 20
21.6256
 30
0.0
 11
298.844
 21
22.626
 31
0.0
  0
LINE
  8
0
 62
     0
 10
298.844
 20
22.626
 30
0.0
 11
284.843
 21
22.626
 31
0.0
  0
LINE
  8
0
 62
     0
 10
303.893
 20
22.626
 30
0.0
 11
303.893
 21
21.6256
 31
0.0
  0
LINE
  8
0
 62
     0
 10
303.893
 20
21.6256
 30
0.0
 11
303.094
 21
21.6256
 31
0.0
  0
LINE
  8
0
 62
     0
 10
303.094
 20
21.6256
 30
0.0
 11
303.094
 21
18.5263
 31
0.0
  0
LINE
  8
0
 62
     0
 10
303.094
 20
18.5263
 30
0.0
 11
303.893
 21
18.5263
 31
0.0
  0
LINE
  8
0
 62
     0
 10
303.893
 20
18.5263
 30
0.0
 11
303.893
 21
12.7262
 31
0.0
  0
LINE
  8
0
 62
     0
 10
303.893
 20
12.7262
 30
0.0
 11
303.094
 21
12.7262
 31
0.0
  0
LINE
  8
0
 62
     0
 10
303.094
 20
12.7262
 30
0.0
 11
303.094
 21
9.62561
 31
0.0
  0
LINE
  8
0
 62
     0
 10
303.094
 20
9.62561
 30
0.0
 11
303.893
 21
9.62561
 31
0.0
  0
LINE
  8
0
 62
     0
 10
303.893
 20
9.62561
 30
0.0
 11
303.893
 21
8.62651
 31
0.0
  0
LINE
  8
0
 62
     0
 10
303.893
 20
8.62651
 30
0.0
 11
317.894
 21
8.62651
 31
0.0
  0
LINE
  8
0
 62
     0
 10
317.894
 20
8.62651
 30
0.0
 11
317.894
 21
9.62561
 31
0.0
  0
LINE
  8
0
 62
     0
 10
317.894
 20
9.62561
 30
0.0
 11
318.693
 21
9.62561
 31
0.0
  0
LINE
  8
0
 62
     0
 10
318.693
 20
9.62561
 30
0.0
 11
318.693
 21
12.7262
 31
0.0
  0
LINE
  8
0
 62
     0
 10
318.693
 20
12.7262
 30
0.0
 11
317.894
 21
12.7262
 31
0.0
  0
LINE
  8
0
 62
     0
 10
317.894
 20
12.7262
 30
0.0
 11
317.894
 21
18.5263
 31
0.0
  0
LINE
  8
0
 62
     0
 10
317.894
 20
18.5263
 30
0.0
 11
318.693
 21
18.5263
 31
0.0
  0
LINE
  8
0
 62
     0
 10
318.693
 20
18.5263
 30
0.0
 11
318.693
 21
21.6256
 31
0.0
  0
LINE
  8
0
 62
     0
 10
318.693
 20
21.6256
 30
0.0
 11
317.894
 21
21.6256
 31
0.0
  0
LINE
  8
0
 62
     0
 10
317.894
 20
21.6256
 30
0.0
 11
317.894
 21
22.626
 31
0.0
  0
LINE
  8
0
 62
     0
 10
317.894
 20
22.626
 30
0.0
 11
303.893
 21
22.626
 31
0.0
  0
LINE
  8
0
 62
     0
 10
322.943
 20
22.626
 30
0.0
 11
322.943
 21
21.6256
 31
0.0
  0
LINE
  8
0
 62
     0
 10
322.943
 20
21.6256
 30
0.0
 11
322.144
 21
21.6256
 31
0.0
  0
LINE
  8
0
 62
     0
 10
322.144
 20
21.6256
 30
0.0
 11
322.144
 21
18.5263
 31
0.0
  0
LINE
  8
0
 62
     0
 10
322.144
 20
18.5263
 30
0.0
 11
322.943
 21
18.5263
 31
0.0
  0
LINE
  8
0
 62
     0
 10
322.943
 20
18.5263
 30
0.0
 11
322.943
 21
12.7262
 31
0.0
  0
LINE
  8
0
 62
     0
 10
322.943
 20
12.7262
 30
0.0
 11
322.144
 21
12.7262
 31
0.0
  0
LINE
  8
0
 62
     0
 10
322.144
 20
12.7262
 30
0.0
 11
322.144
 21
9.62561
 31
0.0
  0
LINE
  8
0
 62
     0
 10
322.144
 20
9.62561
 30
0.0
 11
322.943
 21
9.62561
 31
0.0
  0
LINE
  8
0
 62
     0
 10
322.943
 20
9.62561
 30
0.0
 11
322.943
 21
8.62651
 31
0.0
  0
LINE
  8
0
 62
     0
 10
322.943
 20
8.62651
 30
0.0
 11
336.944
 21
8.62651
 31
0.0
  0
LINE
  8
0
 62
     0
 10
336.944
 20
8.62651
 30
0.0
 11
336.944
 21
9.62561
 31
0.0
  0
LINE
  8
0
 62
     0
 10
336.944
 20
9.62561
 30
0.0
 11
337.743
 21
9.62561
 31
0.0
  0
LINE
  8
0
 62
     0
 10
337.743
 20
9.62561
 30
0.0
 11
337.743
 21
12.7262
 31
0.0
  0
LINE
  8
0
 62
     0
 10
337.743
 20
12.7262
 30
0.0
 11
336.944
 21
12.7262
 31
0.0
  0
LINE
  8
0
 62
     0
 10
336.944
 20
12.7262
 30
0.0
 11
336.944
 21
18.5263
 31
0.0
  0
LINE
  8
0
 62
     0
 10
336.944
 20
18.5263
 30
0.0
 11
337.743
 21
18.5263
 31
0.0
  0
LINE
  8
0
 62
     0
 10
337.743
 20
18.5263
 30
0.0
 11
337.743
 21
21.6256
 31
0.0
  0
LINE
  8
0
 62
     0
 10
337.743
 20
21.6256
 30
0.0
 11
336.944
 21
21.6256
 31
0.0
  0
LINE
  8
0
 62
     0
 10
336.944
 20
21.6256
 30
0.0
 11
336.944
 21
22.626
 31
0.0
  0
LINE
  8
0
 62
     0
 10
336.944
 20
22.626
 30
0.0
 11
322.943
 21
22.626
 31
0.0
  0
LINE
  8
0
 62
     0
 10
137.206
 20
27.3885
 30
0.0
 11
137.206
 21
26.3881
 31
0.0
  0
LINE
  8
0
 62
     0
 10
137.206
 20
26.3881
 30
0.0
 11
136.405
 21
26.3881
 31
0.0
  0
LINE
  8
0
 62
     0
 10
136.405
 20
26.3881
 30
0.0
 11
136.405
 21
23.2875
 31
0.0
  0
LINE
  8
0
 62
     0
 10
136.405
 20
23.2875
 30
0.0
 11
137.206
 21
23.2875
 31
0.0
  0
LINE
  8
0
 62
     0
 10
137.206
 20
23.2875
 30
0.0
 11
137.206
 21
22.688
 31
0.0
  0
LINE
  8
0
 62
     0
 10
137.206
 20
22.688
 30
0.0
 11
135.68
 21
22.688
 31
0.0
  0
LINE
  8
0
 62
     0
 10
135.68
 20
22.688
 30
0.0
 11
135.68
 21
25.9182
 31
0.0
  0
LINE
  8
0
 62
     0
 10
135.68
 20
25.9182
 30
0.0
 11
133.956
 21
25.9182
 31
0.0
  0
LINE
  8
0
 62
     0
 10
133.956
 20
25.9182
 30
0.0
 11
133.956
 21
26.8387
 31
0.0
  0
LINE
  8
0
 62
     0
 10
133.956
 20
26.8387
 30
0.0
 11
130.656
 21
26.8387
 31
0.0
  0
LINE
  8
0
 62
     0
 10
130.656
 20
26.8387
 30
0.0
 11
130.656
 21
25.9182
 31
0.0
  0
LINE
  8
0
 62
     0
 10
130.656
 20
25.9182
 30
0.0
 11
128.931
 21
25.9182
 31
0.0
  0
LINE
  8
0
 62
     0
 10
128.931
 20
25.9182
 30
0.0
 11
128.931
 21
22.688
 31
0.0
  0
LINE
  8
0
 62
     0
 10
128.931
 20
22.688
 30
0.0
 11
128.105
 21
22.688
 31
0.0
  0
LINE
  8
0
 62
     0
 10
128.105
 20
22.688
 30
0.0
 11
128.105
 21
19.8878
 31
0.0
  0
LINE
  8
0
 62
     0
 10
128.105
 20
19.8878
 30
0.0
 11
128.931
 21
19.8878
 31
0.0
  0
LINE
  8
0
 62
     0
 10
128.931
 20
19.8878
 30
0.0
 11
128.931
 21
13.6178
 31
0.0
  0
LINE
  8
0
 62
     0
 10
128.931
 20
13.6178
 30
0.0
 11
130.656
 21
13.6178
 31
0.0
  0
LINE
  8
0
 62
     0
 10
130.656
 20
13.6178
 30
0.0
 11
130.656
 21
12.638
 31
0.0
  0
LINE
  8
0
 62
     0
 10
130.656
 20
12.638
 30
0.0
 11
133.956
 21
12.638
 31
0.0
  0
LINE
  8
0
 62
     0
 10
133.956
 20
12.638
 30
0.0
 11
133.956
 21
13.6178
 31
0.0
  0
LINE
  8
0
 62
     0
 10
133.956
 20
13.6178
 30
0.0
 11
135.68
 21
13.6178
 31
0.0
  0
LINE
  8
0
 62
     0
 10
135.68
 20
13.6178
 30
0.0
 11
135.68
 21
18.0881
 31
0.0
  0
LINE
  8
0
 62
     0
 10
135.68
 20
18.0881
 30
0.0
 11
137.206
 21
18.0881
 31
0.0
  0
LINE
  8
0
 62
     0
 10
137.206
 20
18.0881
 30
0.0
 11
137.206
 21
17.4887
 31
0.0
  0
LINE
  8
0
 62
     0
 10
137.206
 20
17.4887
 30
0.0
 11
136.405
 21
17.4887
 31
0.0
  0
LINE
  8
0
 62
     0
 10
136.405
 20
17.4887
 30
0.0
 11
136.405
 21
14.3881
 31
0.0
  0
LINE
  8
0
 62
     0
 10
136.405
 20
14.3881
 30
0.0
 11
137.206
 21
14.3881
 31
0.0
  0
LINE
  8
0
 62
     0
 10
137.206
 20
14.3881
 30
0.0
 11
137.206
 21
13.3876
 31
0.0
  0
LINE
  8
0
 62
     0
 10
137.206
 20
13.3876
 30
0.0
 11
151.205
 21
13.3876
 31
0.0
  0
LINE
  8
0
 62
     0
 10
151.205
 20
13.3876
 30
0.0
 11
151.205
 21
14.3881
 31
0.0
  0
LINE
  8
0
 62
     0
 10
151.205
 20
14.3881
 30
0.0
 11
152.006
 21
14.3881
 31
0.0
  0
LINE
  8
0
 62
     0
 10
152.006
 20
14.3881
 30
0.0
 11
152.006
 21
17.4887
 31
0.0
  0
LINE
  8
0
 62
     0
 10
152.006
 20
17.4887
 30
0.0
 11
151.205
 21
17.4887
 31
0.0
  0
LINE
  8
0
 62
     0
 10
151.205
 20
17.4887
 30
0.0
 11
151.205
 21
18.0881
 31
0.0
  0
LINE
  8
0
 62
     0
 10
151.205
 20
18.0881
 30
0.0
 11
152.731
 21
18.0881
 31
0.0
  0
LINE
  8
0
 62
     0
 10
152.731
 20
18.0881
 30
0.0
 11
152.731
 21
13.6178
 31
0.0
  0
LINE
  8
0
 62
     0
 10
152.731
 20
13.6178
 30
0.0
 11
154.456
 21
13.6178
 31
0.0
  0
LINE
  8
0
 62
     0
 10
154.456
 20
13.6178
 30
0.0
 11
154.456
 21
12.638
 31
0.0
  0
LINE
  8
0
 62
     0
 10
154.456
 20
12.638
 30
0.0
 11
157.757
 21
12.638
 31
0.0
  0
LINE
  8
0
 62
     0
 10
157.757
 20
12.638
 30
0.0
 11
157.757
 21
13.6178
 31
0.0
  0
LINE
  8
0
 62
     0
 10
157.757
 20
13.6178
 30
0.0
 11
159.48
 21
13.6178
 31
0.0
  0
LINE
  8
0
 62
     0
 10
159.48
 20
13.6178
 30
0.0
 11
159.48
 21
19.8878
 31
0.0
  0
LINE
  8
0
 62
     0
 10
159.48
 20
19.8878
 30
0.0
 11
160.306
 21
19.8878
 31
0.0
  0
LINE
  8
0
 62
     0
 10
160.306
 20
19.8878
 30
0.0
 11
160.306
 21
22.688
 31
0.0
  0
LINE
  8
0
 62
     0
 10
160.306
 20
22.688
 30
0.0
 11
159.48
 21
22.688
 31
0.0
  0
LINE
  8
0
 62
     0
 10
159.48
 20
22.688
 30
0.0
 11
159.48
 21
25.9182
 31
0.0
  0
LINE
  8
0
 62
     0
 10
159.48
 20
25.9182
 30
0.0
 11
157.757
 21
25.9182
 31
0.0
  0
LINE
  8
0
 62
     0
 10
157.757
 20
25.9182
 30
0.0
 11
157.757
 21
26.8387
 31
0.0
  0
LINE
  8
0
 62
     0
 10
157.757
 20
26.8387
 30
0.0
 11
154.456
 21
26.8387
 31
0.0
  0
LINE
  8
0
 62
     0
 10
154.456
 20
26.8387
 30
0.0
 11
154.456
 21
25.9182
 31
0.0
  0
LINE
  8
0
 62
     0
 10
154.456
 20
25.9182
 30
0.0
 11
152.731
 21
25.9182
 31
0.0
  0
LINE
  8
0
 62
     0
 10
152.731
 20
25.9182
 30
0.0
 11
152.731
 21
22.688
 31
0.0
  0
LINE
  8
0
 62
     0
 10
152.731
 20
22.688
 30
0.0
 11
151.205
 21
22.688
 31
0.0
  0
LINE
  8
0
 62
     0
 10
151.205
 20
22.688
 30
0.0
 11
151.205
 21
23.2875
 31
0.0
  0
LINE
  8
0
 62
     0
 10
151.205
 20
23.2875
 30
0.0
 11
152.006
 21
23.2875
 31
0.0
  0
LINE
  8
0
 62
     0
 10
152.006
 20
23.2875
 30
0.0
 11
152.006
 21
26.3881
 31
0.0
  0
LINE
  8
0
 62
     0
 10
152.006
 20
26.3881
 30
0.0
 11
151.205
 21
26.3881
 31
0.0
  0
LINE
  8
0
 62
     0
 10
151.205
 20
26.3881
 30
0.0
 11
151.205
 21
27.3885
 31
0.0
  0
LINE
  8
0
 62
     0
 10
151.205
 20
27.3885
 30
0.0
 11
137.206
 21
27.3885
 31
0.0
  0
LINE
  8
0
 62
     0
 10
175.306
 20
27.3885
 30
0.0
 11
175.306
 21
26.3881
 31
0.0
  0
LINE
  8
0
 62
     0
 10
175.306
 20
26.3881
 30
0.0
 11
174.505
 21
26.3881
 31
0.0
  0
LINE
  8
0
 62
     0
 10
174.505
 20
26.3881
 30
0.0
 11
174.505
 21
23.2875
 31
0.0
  0
LINE
  8
0
 62
     0
 10
174.505
 20
23.2875
 30
0.0
 11
175.306
 21
23.2875
 31
0.0
  0
LINE
  8
0
 62
     0
 10
175.306
 20
23.2875
 30
0.0
 11
175.306
 21
22.688
 31
0.0
  0
LINE
  8
0
 62
     0
 10
175.306
 20
22.688
 30
0.0
 11
173.78
 21
22.688
 31
0.0
  0
LINE
  8
0
 62
     0
 10
173.78
 20
22.688
 30
0.0
 11
173.78
 21
25.9182
 31
0.0
  0
LINE
  8
0
 62
     0
 10
173.78
 20
25.9182
 30
0.0
 11
172.056
 21
25.9182
 31
0.0
  0
LINE
  8
0
 62
     0
 10
172.056
 20
25.9182
 30
0.0
 11
172.056
 21
26.8387
 31
0.0
  0
LINE
  8
0
 62
     0
 10
172.056
 20
26.8387
 30
0.0
 11
168.756
 21
26.8387
 31
0.0
  0
LINE
  8
0
 62
     0
 10
168.756
 20
26.8387
 30
0.0
 11
168.756
 21
25.9182
 31
0.0
  0
LINE
  8
0
 62
     0
 10
168.756
 20
25.9182
 30
0.0
 11
167.031
 21
25.9182
 31
0.0
  0
LINE
  8
0
 62
     0
 10
167.031
 20
25.9182
 30
0.0
 11
167.031
 21
22.688
 31
0.0
  0
LINE
  8
0
 62
     0
 10
167.031
 20
22.688
 30
0.0
 11
166.205
 21
22.688
 31
0.0
  0
LINE
  8
0
 62
     0
 10
166.205
 20
22.688
 30
0.0
 11
166.205
 21
19.8878
 31
0.0
  0
LINE
  8
0
 62
     0
 10
166.205
 20
19.8878
 30
0.0
 11
167.031
 21
19.8878
 31
0.0
  0
LINE
  8
0
 62
     0
 10
167.031
 20
19.8878
 30
0.0
 11
167.031
 21
13.6178
 31
0.0
  0
LINE
  8
0
 62
     0
 10
167.031
 20
13.6178
 30
0.0
 11
168.756
 21
13.6178
 31
0.0
  0
LINE
  8
0
 62
     0
 10
168.756
 20
13.6178
 30
0.0
 11
168.756
 21
12.638
 31
0.0
  0
LINE
  8
0
 62
     0
 10
168.756
 20
12.638
 30
0.0
 11
172.056
 21
12.638
 31
0.0
  0
LINE
  8
0
 62
     0
 10
172.056
 20
12.638
 30
0.0
 11
172.056
 21
13.6178
 31
0.0
  0
LINE
  8
0
 62
     0
 10
172.056
 20
13.6178
 30
0.0
 11
173.78
 21
13.6178
 31
0.0
  0
LINE
  8
0
 62
     0
 10
173.78
 20
13.6178
 30
0.0
 11
173.78
 21
18.0881
 31
0.0
  0
LINE
  8
0
 62
     0
 10
173.78
 20
18.0881
 30
0.0
 11
175.306
 21
18.0881
 31
0.0
  0
LINE
  8
0
 62
     0
 10
175.306
 20
18.0881
 30
0.0
 11
175.306
 21
17.4887
 31
0.0
  0
LINE
  8
0
 62
     0
 10
175.306
 20
17.4887
 30
0.0
 11
174.505
 21
17.4887
 31
0.0
  0
LINE
  8
0
 62
     0
 10
174.505
 20
17.4887
 30
0.0
 11
174.505
 21
14.3881
 31
0.0
  0
LINE
  8
0
 62
     0
 10
174.505
 20
14.3881
 30
0.0
 11
175.306
 21
14.3881
 31
0.0
  0
LINE
  8
0
 62
     0
 10
175.306
 20
14.3881
 30
0.0
 11
175.306
 21
13.3876
 31
0.0
  0
LINE
  8
0
 62
     0
 10
175.306
 20
13.3876
 30
0.0
 11
189.305
 21
13.3876
 31
0.0
  0
LINE
  8
0
 62
     0
 10
189.305
 20
13.3876
 30
0.0
 11
189.305
 21
14.3881
 31
0.0
  0
LINE
  8
0
 62
     0
 10
189.305
 20
14.3881
 30
0.0
 11
190.106
 21
14.3881
 31
0.0
  0
LINE
  8
0
 62
     0
 10
190.106
 20
14.3881
 30
0.0
 11
190.106
 21
17.4887
 31
0.0
  0
LINE
  8
0
 62
     0
 10
190.106
 20
17.4887
 30
0.0
 11
189.305
 21
17.4887
 31
0.0
  0
LINE
  8
0
 62
     0
 10
189.305
 20
17.4887
 30
0.0
 11
189.305
 21
18.0881
 31
0.0
  0
LINE
  8
0
 62
     0
 10
189.305
 20
18.0881
 30
0.0
 11
190.831
 21
18.0881
 31
0.0
  0
LINE
  8
0
 62
     0
 10
190.831
 20
18.0881
 30
0.0
 11
190.831
 21
13.6178
 31
0.0
  0
LINE
  8
0
 62
     0
 10
190.831
 20
13.6178
 30
0.0
 11
192.556
 21
13.6178
 31
0.0
  0
LINE
  8
0
 62
     0
 10
192.556
 20
13.6178
 30
0.0
 11
192.556
 21
12.638
 31
0.0
  0
LINE
  8
0
 62
     0
 10
192.556
 20
12.638
 30
0.0
 11
195.857
 21
12.638
 31
0.0
  0
LINE
  8
0
 62
     0
 10
195.857
 20
12.638
 30
0.0
 11
195.857
 21
13.6178
 31
0.0
  0
LINE
  8
0
 62
     0
 10
195.857
 20
13.6178
 30
0.0
 11
197.58
 21
13.6178
 31
0.0
  0
LINE
  8
0
 62
     0
 10
197.58
 20
13.6178
 30
0.0
 11
197.58
 21
19.8878
 31
0.0
  0
LINE
  8
0
 62
     0
 10
197.58
 20
19.8878
 30
0.0
 11
198.406
 21
19.8878
 31
0.0
  0
LINE
  8
0
 62
     0
 10
198.406
 20
19.8878
 30
0.0
 11
198.406
 21
22.688
 31
0.0
  0
LINE
  8
0
 62
     0
 10
198.406
 20
22.688
 30
0.0
 11
197.58
 21
22.688
 31
0.0
  0
LINE
  8
0
 62
     0
 10
197.58
 20
22.688
 30
0.0
 11
197.58
 21
25.9182
 31
0.0
  0
LINE
  8
0
 62
     0
 10
197.58
 20
25.9182
 30
0.0
 11
195.857
 21
25.9182
 31
0.0
  0
LINE
  8
0
 62
     0
 10
195.857
 20
25.9182
 30
0.0
 11
195.857
 21
26.8387
 31
0.0
  0
LINE
  8
0
 62
     0
 10
195.857
 20
26.8387
 30
0.0
 11
192.556
 21
26.8387
 31
0.0
  0
LINE
  8
0
 62
     0
 10
192.556
 20
26.8387
 30
0.0
 11
192.556
 21
25.9182
 31
0.0
  0
LINE
  8
0
 62
     0
 10
192.556
 20
25.9182
 30
0.0
 11
190.831
 21
25.9182
 31
0.0
  0
LINE
  8
0
 62
     0
 10
190.831
 20
25.9182
 30
0.0
 11
190.831
 21
22.688
 31
0.0
  0
LINE
  8
0
 62
     0
 10
190.831
 20
22.688
 30
0.0
 11
189.305
 21
22.688
 31
0.0
  0
LINE
  8
0
 62
     0
 10
189.305
 20
22.688
 30
0.0
 11
189.305
 21
23.2875
 31
0.0
  0
LINE
  8
0
 62
     0
 10
189.305
 20
23.2875
 30
0.0
 11
190.106
 21
23.2875
 31
0.0
  0
LINE
  8
0
 62
     0
 10
190.106
 20
23.2875
 30
0.0
 11
190.106
 21
26.3881
 31
0.0
  0
LINE
  8
0
 62
     0
 10
190.106
 20
26.3881
 30
0.0
 11
189.305
 21
26.3881
 31
0.0
  0
LINE
  8
0
 62
     0
 10
189.305
 20
26.3881
 30
0.0
 11
189.305
 21
27.3885
 31
0.0
  0
LINE
  8
0
 62
     0
 10
189.305
 20
27.3885
 30
0.0
 11
175.306
 21
27.3885
 31
0.0
  0
LINE
  8
0
 62
     0
 10
213.406
 20
27.3885
 30
0.0
 11
213.406
 21
26.3881
 31
0.0
  0
LINE
  8
0
 62
     0
 10
213.406
 20
26.3881
 30
0.0
 11
212.605
 21
26.3881
 31
0.0
  0
LINE
  8
0
 62
     0
 10
212.605
 20
26.3881
 30
0.0
 11
212.605
 21
23.2875
 31
0.0
  0
LINE
  8
0
 62
     0
 10
212.605
 20
23.2875
 30
0.0
 11
213.406
 21
23.2875
 31
0.0
  0
LINE
  8
0
 62
     0
 10
213.406
 20
23.2875
 30
0.0
 11
213.406
 21
22.688
 31
0.0
  0
LINE
  8
0
 62
     0
 10
213.406
 20
22.688
 30
0.0
 11
211.88
 21
22.688
 31
0.0
  0
LINE
  8
0
 62
     0
 10
211.88
 20
22.688
 30
0.0
 11
211.88
 21
25.9182
 31
0.0
  0
LINE
  8
0
 62
     0
 10
211.88
 20
25.9182
 30
0.0
 11
210.156
 21
25.9182
 31
0.0
  0
LINE
  8
0
 62
     0
 10
210.156
 20
25.9182
 30
0.0
 11
210.156
 21
26.8387
 31
0.0
  0
LINE
  8
0
 62
     0
 10
210.156
 20
26.8387
 30
0.0
 11
206.856
 21
26.8387
 31
0.0
  0
LINE
  8
0
 62
     0
 10
206.856
 20
26.8387
 30
0.0
 11
206.856
 21
25.9182
 31
0.0
  0
LINE
  8
0
 62
     0
 10
206.856
 20
25.9182
 30
0.0
 11
205.131
 21
25.9182
 31
0.0
  0
LINE
  8
0
 62
     0
 10
205.131
 20
25.9182
 30
0.0
 11
205.131
 21
22.688
 31
0.0
  0
LINE
  8
0
 62
     0
 10
205.131
 20
22.688
 30
0.0
 11
204.305
 21
22.688
 31
0.0
  0
LINE
  8
0
 62
     0
 10
204.305
 20
22.688
 30
0.0
 11
204.305
 21
19.8878
 31
0.0
  0
LINE
  8
0
 62
     0
 10
204.305
 20
19.8878
 30
0.0
 11
205.131
 21
19.8878
 31
0.0
  0
LINE
  8
0
 62
     0
 10
205.131
 20
19.8878
 30
0.0
 11
205.131
 21
13.6178
 31
0.0
  0
LINE
  8
0
 62
     0
 10
205.131
 20
13.6178
 30
0.0
 11
206.856
 21
13.6178
 31
0.0
  0
LINE
  8
0
 62
     0
 10
206.856
 20
13.6178
 30
0.0
 11
206.856
 21
12.638
 31
0.0
  0
LINE
  8
0
 62
     0
 10
206.856
 20
12.638
 30
0.0
 11
210.156
 21
12.638
 31
0.0
  0
LINE
  8
0
 62
     0
 10
210.156
 20
12.638
 30
0.0
 11
210.156
 21
13.6178
 31
0.0
  0
LINE
  8
0
 62
     0
 10
210.156
 20
13.6178
 30
0.0
 11
211.88
 21
13.6178
 31
0.0
  0
LINE
  8
0
 62
     0
 10
211.88
 20
13.6178
 30
0.0
 11
211.88
 21
18.0881
 31
0.0
  0
LINE
  8
0
 62
     0
 10
211.88
 20
18.0881
 30
0.0
 11
213.406
 21
18.0881
 31
0.0
  0
LINE
  8
0
 62
     0
 10
213.406
 20
18.0881
 30
0.0
 11
213.406
 21
17.4887
 31
0.0
  0
LINE
  8
0
 62
     0
 10
213.406
 20
17.4887
 30
0.0
 11
212.605
 21
17.4887
 31
0.0
  0
LINE
  8
0
 62
     0
 10
212.605
 20
17.4887
 30
0.0
 11
212.605
 21
14.3881
 31
0.0
  0
LINE
  8
0
 62
     0
 10
212.605
 20
14.3881
 30
0.0
 11
213.406
 21
14.3881
 31
0.0
  0
LINE
  8
0
 62
     0
 10
213.406
 20
14.3881
 30
0.0
 11
213.406
 21
13.3876
 31
0.0
  0
LINE
  8
0
 62
     0
 10
213.406
 20
13.3876
 30
0.0
 11
227.405
 21
13.3876
 31
0.0
  0
LINE
  8
0
 62
     0
 10
227.405
 20
13.3876
 30
0.0
 11
227.405
 21
14.3881
 31
0.0
  0
LINE
  8
0
 62
     0
 10
227.405
 20
14.3881
 30
0.0
 11
228.206
 21
14.3881
 31
0.0
  0
LINE
  8
0
 62
     0
 10
228.206
 20
14.3881
 30
0.0
 11
228.206
 21
17.4887
 31
0.0
  0
LINE
  8
0
 62
     0
 10
228.206
 20
17.4887
 30
0.0
 11
227.405
 21
17.4887
 31
0.0
  0
LINE
  8
0
 62
     0
 10
227.405
 20
17.4887
 30
0.0
 11
227.405
 21
18.0881
 31
0.0
  0
LINE
  8
0
 62
     0
 10
227.405
 20
18.0881
 30
0.0
 11
228.931
 21
18.0881
 31
0.0
  0
LINE
  8
0
 62
     0
 10
228.931
 20
18.0881
 30
0.0
 11
228.931
 21
13.6178
 31
0.0
  0
LINE
  8
0
 62
     0
 10
228.931
 20
13.6178
 30
0.0
 11
230.656
 21
13.6178
 31
0.0
  0
LINE
  8
0
 62
     0
 10
230.656
 20
13.6178
 30
0.0
 11
230.656
 21
12.638
 31
0.0
  0
LINE
  8
0
 62
     0
 10
230.656
 20
12.638
 30
0.0
 11
233.957
 21
12.638
 31
0.0
  0
LINE
  8
0
 62
     0
 10
233.957
 20
12.638
 30
0.0
 11
233.957
 21
13.6178
 31
0.0
  0
LINE
  8
0
 62
     0
 10
233.957
 20
13.6178
 30
0.0
 11
235.68
 21
13.6178
 31
0.0
  0
LINE
  8
0
 62
     0
 10
235.68
 20
13.6178
 30
0.0
 11
235.68
 21
19.8878
 31
0.0
  0
LINE
  8
0
 62
     0
 10
235.68
 20
19.8878
 30
0.0
 11
236.506
 21
19.8878
 31
0.0
  0
LINE
  8
0
 62
     0
 10
236.506
 20
19.8878
 30
0.0
 11
236.506
 21
22.688
 31
0.0
  0
LINE
  8
0
 62
     0
 10
236.506
 20
22.688
 30
0.0
 11
235.68
 21
22.688
 31
0.0
  0
LINE
  8
0
 62
     0
 10
235.68
 20
22.688
 30
0.0
 11
235.68
 21
25.9182
 31
0.0
  0
LINE
  8
0
 62
     0
 10
235.68
 20
25.9182
 30
0.0
 11
233.957
 21
25.9182
 31
0.0
  0
LINE
  8
0
 62
     0
 10
233.957
 20
25.9182
 30
0.0
 11
233.957
 21
26.8387
 31
0.0
  0
LINE
  8
0
 62
     0
 10
233.957
 20
26.8387
 30
0.0
 11
230.656
 21
26.8387
 31
0.0
  0
LINE
  8
0
 62
     0
 10
230.656
 20
26.8387
 30
0.0
 11
230.656
 21
25.9182
 31
0.0
  0
LINE
  8
0
 62
     0
 10
230.656
 20
25.9182
 30
0.0
 11
228.931
 21
25.9182
 31
0.0
  0
LINE
  8
0
 62
     0
 10
228.931
 20
25.9182
 30
0.0
 11
228.931
 21
22.688
 31
0.0
  0
LINE
  8
0
 62
     0
 10
228.931
 20
22.688
 30
0.0
 11
227.405
 21
22.688
 31
0.0
  0
LINE
  8
0
 62
     0
 10
227.405
 20
22.688
 30
0.0
 11
227.405
 21
23.2875
 31
0.0
  0
LINE
  8
0
 62
     0
 10
227.405
 20
23.2875
 30
0.0
 11
228.206
 21
23.2875
 31
0.0
  0
LINE
  8
0
 62
     0
 10
228.206
 20
23.2875
 30
0.0
 11
228.206
 21
26.3881
 31
0.0
  0
LINE
  8
0
 62
     0
 10
228.206
 20
26.3881
 30
0.0
 11
227.405
 21
26.3881
 31
0.0
  0
LINE
  8
0
 62
     0
 10
227.405
 20
26.3881
 30
0.0
 11
227.405
 21
27.3885
 31
0.0
  0
LINE
  8
0
 62
     0
 10
227.405
 20
27.3885
 30
0.0
 11
213.406
 21
27.3885
 31
0.0
  0
LINE
  8
0
 62
     0
 10
8.61826
 20
27.3885
 30
0.0
 11
8.61826
 21
26.3881
 31
0.0
  0
LINE
  8
0
 62
     0
 10
8.61826
 20
26.3881
 30
0.0
 11
7.81763
 21
26.3881
 31
0.0
  0
LINE
  8
0
 62
     0
 10
7.81763
 20
26.3881
 30
0.0
 11
7.81763
 21
23.2875
 31
0.0
  0
LINE
  8
0
 62
     0
 10
7.81763
 20
23.2875
 30
0.0
 11
8.61826
 21
23.2875
 31
0.0
  0
LINE
  8
0
 62
     0
 10
8.61826
 20
23.2875
 30
0.0
 11
8.61826
 21
17.4887
 31
0.0
  0
LINE
  8
0
 62
     0
 10
8.61826
 20
17.4887
 30
0.0
 11
7.81763
 21
17.4887
 31
0.0
  0
LINE
  8
0
 62
     0
 10
7.81763
 20
17.4887
 30
0.0
 11
7.81763
 21
14.3881
 31
0.0
  0
LINE
  8
0
 62
     0
 10
7.81763
 20
14.3881
 30
0.0
 11
8.61826
 21
14.3881
 31
0.0
  0
LINE
  8
0
 62
     0
 10
8.61826
 20
14.3881
 30
0.0
 11
8.61826
 21
13.3876
 31
0.0
  0
LINE
  8
0
 62
     0
 10
8.61826
 20
13.3876
 30
0.0
 11
22.6191
 21
13.3876
 31
0.0
  0
LINE
  8
0
 62
     0
 10
22.6191
 20
13.3876
 30
0.0
 11
22.6191
 21
14.3881
 31
0.0
  0
LINE
  8
0
 62
     0
 10
22.6191
 20
14.3881
 30
0.0
 11
23.4184
 21
14.3881
 31
0.0
  0
LINE
  8
0
 62
     0
 10
23.4184
 20
14.3881
 30
0.0
 11
23.4184
 21
17.4887
 31
0.0
  0
LINE
  8
0
 62
     0
 10
23.4184
 20
17.4887
 30
0.0
 11
22.6191
 21
17.4887
 31
0.0
  0
LINE
  8
0
 62
     0
 10
22.6191
 20
17.4887
 30
0.0
 11
22.6191
 21
23.2875
 31
0.0
  0
LINE
  8
0
 62
     0
 10
22.6191
 20
23.2875
 30
0.0
 11
23.4184
 21
23.2875
 31
0.0
  0
LINE
  8
0
 62
     0
 10
23.4184
 20
23.2875
 30
0.0
 11
23.4184
 21
26.3881
 31
0.0
  0
LINE
  8
0
 62
     0
 10
23.4184
 20
26.3881
 30
0.0
 11
22.6191
 21
26.3881
 31
0.0
  0
LINE
  8
0
 62
     0
 10
22.6191
 20
26.3881
 30
0.0
 11
22.6191
 21
27.3885
 31
0.0
  0
LINE
  8
0
 62
     0
 10
22.6191
 20
27.3885
 30
0.0
 11
8.61826
 21
27.3885
 31
0.0
  0
LINE
  8
0
 62
     0
 10
27.6683
 20
27.3885
 30
0.0
 11
27.6683
 21
26.3881
 31
0.0
  0
LINE
  8
0
 62
     0
 10
27.6683
 20
26.3881
 30
0.0
 11
26.869
 21
26.3881
 31
0.0
  0
LINE
  8
0
 62
     0
 10
26.869
 20
26.3881
 30
0.0
 11
26.869
 21
23.2875
 31
0.0
  0
LINE
  8
0
 62
     0
 10
26.869
 20
23.2875
 30
0.0
 11
27.6683
 21
23.2875
 31
0.0
  0
LINE
  8
0
 62
     0
 10
27.6683
 20
23.2875
 30
0.0
 11
27.6683
 21
17.4887
 31
0.0
  0
LINE
  8
0
 62
     0
 10
27.6683
 20
17.4887
 30
0.0
 11
26.869
 21
17.4887
 31
0.0
  0
LINE
  8
0
 62
     0
 10
26.869
 20
17.4887
 30
0.0
 11
26.869
 21
14.3881
 31
0.0
  0
LINE
  8
0
 62
     0
 10
26.869
 20
14.3881
 30
0.0
 11
27.6683
 21
14.3881
 31
0.0
  0
LINE
  8
0
 62
     0
 10
27.6683
 20
14.3881
 30
0.0
 11
27.6683
 21
13.3876
 31
0.0
  0
LINE
  8
0
 62
     0
 10
27.6683
 20
13.3876
 30
0.0
 11
41.6691
 21
13.3876
 31
0.0
  0
LINE
  8
0
 62
     0
 10
41.6691
 20
13.3876
 30
0.0
 11
41.6691
 21
14.3881
 31
0.0
  0
LINE
  8
0
 62
     0
 10
41.6691
 20
14.3881
 30
0.0
 11
42.4684
 21
14.3881
 31
0.0
  0
LINE
  8
0
 62
     0
 10
42.4684
 20
14.3881
 30
0.0
 11
42.4684
 21
17.4887
 31
0.0
  0
LINE
  8
0
 62
     0
 10
42.4684
 20
17.4887
 30
0.0
 11
41.6691
 21
17.4887
 31
0.0
  0
LINE
  8
0
 62
     0
 10
41.6691
 20
17.4887
 30
0.0
 11
41.6691
 21
23.2875
 31
0.0
  0
LINE
  8
0
 62
     0
 10
41.6691
 20
23.2875
 30
0.0
 11
42.4684
 21
23.2875
 31
0.0
  0
LINE
  8
0
 62
     0
 10
42.4684
 20
23.2875
 30
0.0
 11
42.4684
 21
26.3881
 31
0.0
  0
LINE
  8
0
 62
     0
 10
42.4684
 20
26.3881
 30
0.0
 11
41.6691
 21
26.3881
 31
0.0
  0
LINE
  8
0
 62
     0
 10
41.6691
 20
26.3881
 30
0.0
 11
41.6691
 21
27.3885
 31
0.0
  0
LINE
  8
0
 62
     0
 10
41.6691
 20
27.3885
 30
0.0
 11
27.6683
 21
27.3885
 31
0.0
  0
LINE
  8
0
 62
     0
 10
46.7184
 20
27.3885
 30
0.0
 11
46.7184
 21
26.3881
 31
0.0
  0
LINE
  8
0
 62
     0
 10
46.7184
 20
26.3881
 30
0.0
 11
45.919
 21
26.3881
 31
0.0
  0
LINE
  8
0
 62
     0
 10
45.919
 20
26.3881
 30
0.0
 11
45.919
 21
23.2875
 31
0.0
  0
LINE
  8
0
 62
     0
 10
45.919
 20
23.2875
 30
0.0
 11
46.7184
 21
23.2875
 31
0.0
  0
LINE
  8
0
 62
     0
 10
46.7184
 20
23.2875
 30
0.0
 11
46.7184
 21
17.4887
 31
0.0
  0
LINE
  8
0
 62
     0
 10
46.7184
 20
17.4887
 30
0.0
 11
45.919
 21
17.4887
 31
0.0
  0
LINE
  8
0
 62
     0
 10
45.919
 20
17.4887
 30
0.0
 11
45.919
 21
14.3881
 31
0.0
  0
LINE
  8
0
 62
     0
 10
45.919
 20
14.3881
 30
0.0
 11
46.7184
 21
14.3881
 31
0.0
  0
LINE
  8
0
 62
     0
 10
46.7184
 20
14.3881
 30
0.0
 11
46.7184
 21
13.3876
 31
0.0
  0
LINE
  8
0
 62
     0
 10
46.7184
 20
13.3876
 30
0.0
 11
60.7191
 21
13.3876
 31
0.0
  0
LINE
  8
0
 62
     0
 10
60.7191
 20
13.3876
 30
0.0
 11
60.7191
 21
14.3881
 31
0.0
  0
LINE
  8
0
 62
     0
 10
60.7191
 20
14.3881
 30
0.0
 11
61.5184
 21
14.3881
 31
0.0
  0
LINE
  8
0
 62
     0
 10
61.5184
 20
14.3881
 30
0.0
 11
61.5184
 21
17.4887
 31
0.0
  0
LINE
  8
0
 62
     0
 10
61.5184
 20
17.4887
 30
0.0
 11
60.7191
 21
17.4887
 31
0.0
  0
LINE
  8
0
 62
     0
 10
60.7191
 20
17.4887
 30
0.0
 11
60.7191
 21
23.2875
 31
0.0
  0
LINE
  8
0
 62
     0
 10
60.7191
 20
23.2875
 30
0.0
 11
61.5184
 21
23.2875
 31
0.0
  0
LINE
  8
0
 62
     0
 10
61.5184
 20
23.2875
 30
0.0
 11
61.5184
 21
26.3881
 31
0.0
  0
LINE
  8
0
 62
     0
 10
61.5184
 20
26.3881
 30
0.0
 11
60.7191
 21
26.3881
 31
0.0
  0
LINE
  8
0
 62
     0
 10
60.7191
 20
26.3881
 30
0.0
 11
60.7191
 21
27.3885
 31
0.0
  0
LINE
  8
0
 62
     0
 10
60.7191
 20
27.3885
 30
0.0
 11
46.7184
 21
27.3885
 31
0.0
  0
LINE
  8
0
 62
     0
 10
70.5309
 20
27.3885
 30
0.0
 11
70.5309
 21
26.3881
 31
0.0
  0
LINE
  8
0
 62
     0
 10
70.5309
 20
26.3881
 30
0.0
 11
69.7301
 21
26.3881
 31
0.0
  0
LINE
  8
0
 62
     0
 10
69.7301
 20
26.3881
 30
0.0
 11
69.7301
 21
23.2875
 31
0.0
  0
LINE
  8
0
 62
     0
 10
69.7301
 20
23.2875
 30
0.0
 11
70.5309
 21
23.2875
 31
0.0
  0
LINE
  8
0
 62
     0
 10
70.5309
 20
23.2875
 30
0.0
 11
70.5309
 21
17.4887
 31
0.0
  0
LINE
  8
0
 62
     0
 10
70.5309
 20
17.4887
 30
0.0
 11
69.7301
 21
17.4887
 31
0.0
  0
LINE
  8
0
 62
     0
 10
69.7301
 20
17.4887
 30
0.0
 11
69.7301
 21
14.3881
 31
0.0
  0
LINE
  8
0
 62
     0
 10
69.7301
 20
14.3881
 30
0.0
 11
70.5309
 21
14.3881
 31
0.0
  0
LINE
  8
0
 62
     0
 10
70.5309
 20
14.3881
 30
0.0
 11
70.5309
 21
13.3876
 31
0.0
  0
LINE
  8
0
 62
     0
 10
70.5309
 20
13.3876
 30
0.0
 11
84.5301
 21
13.3876
 31
0.0
  0
LINE
  8
0
 62
     0
 10
84.5301
 20
13.3876
 30
0.0
 11
84.5301
 21
14.3881
 31
0.0
  0
LINE
  8
0
 62
     0
 10
84.5301
 20
14.3881
 30
0.0
 11
85.3309
 21
14.3881
 31
0.0
  0
LINE
  8
0
 62
     0
 10
85.3309
 20
14.3881
 30
0.0
 11
85.3309
 21
17.4887
 31
0.0
  0
LINE
  8
0
 62
     0
 10
85.3309
 20
17.4887
 30
0.0
 11
84.5301
 21
17.4887
 31
0.0
  0
LINE
  8
0
 62
     0
 10
84.5301
 20
17.4887
 30
0.0
 11
84.5301
 21
23.2875
 31
0.0
  0
LINE
  8
0
 62
     0
 10
84.5301
 20
23.2875
 30
0.0
 11
85.3309
 21
23.2875
 31
0.0
  0
LINE
  8
0
 62
     0
 10
85.3309
 20
23.2875
 30
0.0
 11
85.3309
 21
26.3881
 31
0.0
  0
LINE
  8
0
 62
     0
 10
85.3309
 20
26.3881
 30
0.0
 11
84.5301
 21
26.3881
 31
0.0
  0
LINE
  8
0
 62
     0
 10
84.5301
 20
26.3881
 30
0.0
 11
84.5301
 21
27.3885
 31
0.0
  0
LINE
  8
0
 62
     0
 10
84.5301
 20
27.3885
 30
0.0
 11
70.5309
 21
27.3885
 31
0.0
  0
LINE
  8
0
 62
     0
 10
89.5809
 20
27.3885
 30
0.0
 11
89.5809
 21
26.3881
 31
0.0
  0
LINE
  8
0
 62
     0
 10
89.5809
 20
26.3881
 30
0.0
 11
88.7801
 21
26.3881
 31
0.0
  0
LINE
  8
0
 62
     0
 10
88.7801
 20
26.3881
 30
0.0
 11
88.7801
 21
23.2875
 31
0.0
  0
LINE
  8
0
 62
     0
 10
88.7801
 20
23.2875
 30
0.0
 11
89.5809
 21
23.2875
 31
0.0
  0
LINE
  8
0
 62
     0
 10
89.5809
 20
23.2875
 30
0.0
 11
89.5809
 21
17.4887
 31
0.0
  0
LINE
  8
0
 62
     0
 10
89.5809
 20
17.4887
 30
0.0
 11
88.7801
 21
17.4887
 31
0.0
  0
LINE
  8
0
 62
     0
 10
88.7801
 20
17.4887
 30
0.0
 11
88.7801
 21
14.3881
 31
0.0
  0
LINE
  8
0
 62
     0
 10
88.7801
 20
14.3881
 30
0.0
 11
89.5809
 21
14.3881
 31
0.0
  0
LINE
  8
0
 62
     0
 10
89.5809
 20
14.3881
 30
0.0
 11
89.5809
 21
13.3876
 31
0.0
  0
LINE
  8
0
 62
     0
 10
89.5809
 20
13.3876
 30
0.0
 11
103.58
 21
13.3876
 31
0.0
  0
LINE
  8
0
 62
     0
 10
103.58
 20
13.3876
 30
0.0
 11
103.58
 21
14.3881
 31
0.0
  0
LINE
  8
0
 62
     0
 10
103.58
 20
14.3881
 30
0.0
 11
104.381
 21
14.3881
 31
0.0
  0
LINE
  8
0
 62
     0
 10
104.381
 20
14.3881
 30
0.0
 11
104.381
 21
17.4887
 31
0.0
  0
LINE
  8
0
 62
     0
 10
104.381
 20
17.4887
 30
0.0
 11
103.58
 21
17.4887
 31
0.0
  0
LINE
  8
0
 62
     0
 10
103.58
 20
17.4887
 30
0.0
 11
103.58
 21
23.2875
 31
0.0
  0
LINE
  8
0
 62
     0
 10
103.58
 20
23.2875
 30
0.0
 11
104.381
 21
23.2875
 31
0.0
  0
LINE
  8
0
 62
     0
 10
104.381
 20
23.2875
 30
0.0
 11
104.381
 21
26.3881
 31
0.0
  0
LINE
  8
0
 62
     0
 10
104.381
 20
26.3881
 30
0.0
 11
103.58
 21
26.3881
 31
0.0
  0
LINE
  8
0
 62
     0
 10
103.58
 20
26.3881
 30
0.0
 11
103.58
 21
27.3885
 31
0.0
  0
LINE
  8
0
 62
     0
 10
103.58
 20
27.3885
 30
0.0
 11
89.5809
 21
27.3885
 31
0.0
  0
LINE
  8
0
 62
     0
 10
108.631
 20
27.3885
 30
0.0
 11
108.631
 21
26.3881
 31
0.0
  0
LINE
  8
0
 62
     0
 10
108.631
 20
26.3881
 30
0.0
 11
107.83
 21
26.3881
 31
0.0
  0
LINE
  8
0
 62
     0
 10
107.83
 20
26.3881
 30
0.0
 11
107.83
 21
23.2875
 31
0.0
  0
LINE
  8
0
 62
     0
 10
107.83
 20
23.2875
 30
0.0
 11
108.631
 21
23.2875
 31
0.0
  0
LINE
  8
0
 62
     0
 10
108.631
 20
23.2875
 30
0.0
 11
108.631
 21
17.4887
 31
0.0
  0
LINE
  8
0
 62
     0
 10
108.631
 20
17.4887
 30
0.0
 11
107.83
 21
17.4887
 31
0.0
  0
LINE
  8
0
 62
     0
 10
107.83
 20
17.4887
 30
0.0
 11
107.83
 21
14.3881
 31
0.0
  0
LINE
  8
0
 62
     0
 10
107.83
 20
14.3881
 30
0.0
 11
108.631
 21
14.3881
 31
0.0
  0
LINE
  8
0
 62
     0
 10
108.631
 20
14.3881
 30
0.0
 11
108.631
 21
13.3876
 31
0.0
  0
LINE
  8
0
 62
     0
 10
108.631
 20
13.3876
 30
0.0
 11
122.63
 21
13.3876
 31
0.0
  0
LINE
  8
0
 62
     0
 10
122.63
 20
13.3876
 30
0.0
 11
122.63
 21
14.3881
 31
0.0
  0
LINE
  8
0
 62
     0
 10
122.63
 20
14.3881
 30
0.0
 11
123.43
 21
14.3881
 31
0.0
  0
LINE
  8
0
 62
     0
 10
123.43
 20
14.3881
 30
0.0
 11
123.43
 21
17.4887
 31
0.0
  0
LINE
  8
0
 62
     0
 10
123.43
 20
17.4887
 30
0.0
 11
122.63
 21
17.4887
 31
0.0
  0
LINE
  8
0
 62
     0
 10
122.63
 20
17.4887
 30
0.0
 11
122.63
 21
23.2875
 31
0.0
  0
LINE
  8
0
 62
     0
 10
122.63
 20
23.2875
 30
0.0
 11
123.43
 21
23.2875
 31
0.0
  0
LINE
  8
0
 62
     0
 10
123.43
 20
23.2875
 30
0.0
 11
123.43
 21
26.3881
 31
0.0
  0
LINE
  8
0
 62
     0
 10
123.43
 20
26.3881
 30
0.0
 11
122.63
 21
26.3881
 31
0.0
  0
LINE
  8
0
 62
     0
 10
122.63
 20
26.3881
 30
0.0
 11
122.63
 21
27.3885
 31
0.0
  0
LINE
  8
0
 62
     0
 10
122.63
 20
27.3885
 30
0.0
 11
108.631
 21
27.3885
 31
0.0
  0
LINE
  8
0
 62
     0
 10
241.981
 20
27.3885
 30
0.0
 11
241.981
 21
26.3881
 31
0.0
  0
LINE
  8
0
 62
     0
 10
241.981
 20
26.3881
 30
0.0
 11
241.18
 21
26.3881
 31
0.0
  0
LINE
  8
0
 62
     0
 10
241.18
 20
26.3881
 30
0.0
 11
241.18
 21
23.2875
 31
0.0
  0
LINE
  8
0
 62
     0
 10
241.18
 20
23.2875
 30
0.0
 11
241.981
 21
23.2875
 31
0.0
  0
LINE
  8
0
 62
     0
 10
241.981
 20
23.2875
 30
0.0
 11
241.981
 21
17.4887
 31
0.0
  0
LINE
  8
0
 62
     0
 10
241.981
 20
17.4887
 30
0.0
 11
241.18
 21
17.4887
 31
0.0
  0
LINE
  8
0
 62
     0
 10
241.18
 20
17.4887
 30
0.0
 11
241.18
 21
14.3881
 31
0.0
  0
LINE
  8
0
 62
     0
 10
241.18
 20
14.3881
 30
0.0
 11
241.981
 21
14.3881
 31
0.0
  0
LINE
  8
0
 62
     0
 10
241.981
 20
14.3881
 30
0.0
 11
241.981
 21
13.3876
 31
0.0
  0
LINE
  8
0
 62
     0
 10
241.981
 20
13.3876
 30
0.0
 11
255.98
 21
13.3876
 31
0.0
  0
LINE
  8
0
 62
     0
 10
255.98
 20
13.3876
 30
0.0
 11
255.98
 21
14.3881
 31
0.0
  0
LINE
  8
0
 62
     0
 10
255.98
 20
14.3881
 30
0.0
 11
256.781
 21
14.3881
 31
0.0
  0
LINE
  8
0
 62
     0
 10
256.781
 20
14.3881
 30
0.0
 11
256.781
 21
17.4887
 31
0.0
  0
LINE
  8
0
 62
     0
 10
256.781
 20
17.4887
 30
0.0
 11
255.98
 21
17.4887
 31
0.0
  0
LINE
  8
0
 62
     0
 10
255.98
 20
17.4887
 30
0.0
 11
255.98
 21
23.2875
 31
0.0
  0
LINE
  8
0
 62
     0
 10
255.98
 20
23.2875
 30
0.0
 11
256.781
 21
23.2875
 31
0.0
  0
LINE
  8
0
 62
     0
 10
256.781
 20
23.2875
 30
0.0
 11
256.781
 21
26.3881
 31
0.0
  0
LINE
  8
0
 62
     0
 10
256.781
 20
26.3881
 30
0.0
 11
255.98
 21
26.3881
 31
0.0
  0
LINE
  8
0
 62
     0
 10
255.98
 20
26.3881
 30
0.0
 11
255.98
 21
27.3885
 31
0.0
  0
LINE
  8
0
 62
     0
 10
255.98
 20
27.3885
 30
0.0
 11
241.981
 21
27.3885
 31
0.0
  0
LINE
  8
0
 62
     0
 10
261.031
 20
27.3885
 30
0.0
 11
261.031
 21
26.3881
 31
0.0
  0
LINE
  8
0
 62
     0
 10
261.031
 20
26.3881
 30
0.0
 11
260.23
 21
26.3881
 31
0.0
  0
LINE
  8
0
 62
     0
 10
260.23
 20
26.3881
 30
0.0
 11
260.23
 21
23.2875
 31
0.0
  0
LINE
  8
0
 62
     0
 10
260.23
 20
23.2875
 30
0.0
 11
261.031
 21
23.2875
 31
0.0
  0
LINE
  8
0
 62
     0
 10
261.031
 20
23.2875
 30
0.0
 11
261.031
 21
17.4887
 31
0.0
  0
LINE
  8
0
 62
     0
 10
261.031
 20
17.4887
 30
0.0
 11
260.23
 21
17.4887
 31
0.0
  0
LINE
  8
0
 62
     0
 10
260.23
 20
17.4887
 30
0.0
 11
260.23
 21
14.3881
 31
0.0
  0
LINE
  8
0
 62
     0
 10
260.23
 20
14.3881
 30
0.0
 11
261.031
 21
14.3881
 31
0.0
  0
LINE
  8
0
 62
     0
 10
261.031
 20
14.3881
 30
0.0
 11
261.031
 21
13.3876
 31
0.0
  0
LINE
  8
0
 62
     0
 10
261.031
 20
13.3876
 30
0.0
 11
275.03
 21
13.3876
 31
0.0
  0
LINE
  8
0
 62
     0
 10
275.03
 20
13.3876
 30
0.0
 11
275.03
 21
14.3881
 31
0.0
  0
LINE
  8
0
 62
     0
 10
275.03
 20
14.3881
 30
0.0
 11
275.831
 21
14.3881
 31
0.0
  0
LINE
  8
0
 62
     0
 10
275.831
 20
14.3881
 30
0.0
 11
275.831
 21
17.4887
 31
0.0
  0
LINE
  8
0
 62
     0
 10
275.831
 20
17.4887
 30
0.0
 11
275.03
 21
17.4887
 31
0.0
  0
LINE
  8
0
 62
     0
 10
275.03
 20
17.4887
 30
0.0
 11
275.03
 21
23.2875
 31
0.0
  0
LINE
  8
0
 62
     0
 10
275.03
 20
23.2875
 30
0.0
 11
275.831
 21
23.2875
 31
0.0
  0
LINE
  8
0
 62
     0
 10
275.831
 20
23.2875
 30
0.0
 11
275.831
 21
26.3881
 31
0.0
  0
LINE
  8
0
 62
     0
 10
275.831
 20
26.3881
 30
0.0
 11
275.03
 21
26.3881
 31
0.0
  0
LINE
  8
0
 62
     0
 10
275.03
 20
26.3881
 30
0.0
 11
275.03
 21
27.3885
 31
0.0
  0
LINE
  8
0
 62
     0
 10
275.03
 20
27.3885
 30
0.0
 11
261.031
 21
27.3885
 31
0.0
  0
LINE
  8
0
 62
     0
 10
303.893
 20
41.6761
 30
0.0
 11
303.893
 21
40.6756
 31
0.0
  0
LINE
  8
0
 62
     0
 10
303.893
 20
40.6756
 30
0.0
 11
303.094
 21
40.6756
 31
0.0
  0
LINE
  8
0
 62
     0
 10
303.094
 20
40.6756
 30
0.0
 11
303.094
 21
37.5765
 31
0.0
  0
LINE
  8
0
 62
     0
 10
303.094
 20
37.5765
 30
0.0
 11
303.893
 21
37.5765
 31
0.0
  0
LINE
  8
0
 62
     0
 10
303.893
 20
37.5765
 30
0.0
 11
303.893
 21
31.7762
 31
0.0
  0
LINE
  8
0
 62
     0
 10
303.893
 20
31.7762
 30
0.0
 11
303.094
 21
31.7762
 31
0.0
  0
LINE
  8
0
 62
     0
 10
303.094
 20
31.7762
 30
0.0
 11
303.094
 21
28.6756
 31
0.0
  0
LINE
  8
0
 62
     0
 10
303.094
 20
28.6756
 30
0.0
 11
303.893
 21
28.6756
 31
0.0
  0
LINE
  8
0
 62
     0
 10
303.893
 20
28.6756
 30
0.0
 11
303.893
 21
27.6765
 31
0.0
  0
LINE
  8
0
 62
     0
 10
303.893
 20
27.6765
 30
0.0
 11
317.894
 21
27.6765
 31
0.0
  0
LINE
  8
0
 62
     0
 10
317.894
 20
27.6765
 30
0.0
 11
317.894
 21
28.6756
 31
0.0
  0
LINE
  8
0
 62
     0
 10
317.894
 20
28.6756
 30
0.0
 11
318.693
 21
28.6756
 31
0.0
  0
LINE
  8
0
 62
     0
 10
318.693
 20
28.6756
 30
0.0
 11
318.693
 21
31.7762
 31
0.0
  0
LINE
  8
0
 62
     0
 10
318.693
 20
31.7762
 30
0.0
 11
317.894
 21
31.7762
 31
0.0
  0
LINE
  8
0
 62
     0
 10
317.894
 20
31.7762
 30
0.0
 11
317.894
 21
37.5765
 31
0.0
  0
LINE
  8
0
 62
     0
 10
317.894
 20
37.5765
 30
0.0
 11
318.693
 21
37.5765
 31
0.0
  0
LINE
  8
0
 62
     0
 10
318.693
 20
37.5765
 30
0.0
 11
318.693
 21
40.6756
 31
0.0
  0
LINE
  8
0
 62
     0
 10
318.693
 20
40.6756
 30
0.0
 11
317.894
 21
40.6756
 31
0.0
  0
LINE
  8
0
 62
     0
 10
317.894
 20
40.6756
 30
0.0
 11
317.894
 21
41.6761
 31
0.0
  0
LINE
  8
0
 62
     0
 10
317.894
 20
41.6761
 30
0.0
 11
303.893
 21
41.6761
 31
0.0
  0
LINE
  8
0
 62
     0
 10
8.61826
 20
46.4386
 30
0.0
 11
8.61826
 21
45.4381
 31
0.0
  0
LINE
  8
0
 62
     0
 10
8.61826
 20
45.4381
 30
0.0
 11
7.81763
 21
45.4381
 31
0.0
  0
LINE
  8
0
 62
     0
 10
7.81763
 20
45.4381
 30
0.0
 11
7.81763
 21
42.3376
 31
0.0
  0
LINE
  8
0
 62
     0
 10
7.81763
 20
42.3376
 30
0.0
 11
8.61826
 21
42.3376
 31
0.0
  0
LINE
  8
0
 62
     0
 10
8.61826
 20
42.3376
 30
0.0
 11
8.61826
 21
36.5386
 31
0.0
  0
LINE
  8
0
 62
     0
 10
8.61826
 20
36.5386
 30
0.0
 11
7.81763
 21
36.5386
 31
0.0
  0
LINE
  8
0
 62
     0
 10
7.81763
 20
36.5386
 30
0.0
 11
7.81763
 21
33.4381
 31
0.0
  0
LINE
  8
0
 62
     0
 10
7.81763
 20
33.4381
 30
0.0
 11
8.61826
 21
33.4381
 31
0.0
  0
LINE
  8
0
 62
     0
 10
8.61826
 20
33.4381
 30
0.0
 11
8.61826
 21
32.4376
 31
0.0
  0
LINE
  8
0
 62
     0
 10
8.61826
 20
32.4376
 30
0.0
 11
22.6191
 21
32.4376
 31
0.0
  0
LINE
  8
0
 62
     0
 10
22.6191
 20
32.4376
 30
0.0
 11
22.6191
 21
33.4381
 31
0.0
  0
LINE
  8
0
 62
     0
 10
22.6191
 20
33.4381
 30
0.0
 11
23.4184
 21
33.4381
 31
0.0
  0
LINE
  8
0
 62
     0
 10
23.4184
 20
33.4381
 30
0.0
 11
23.4184
 21
36.5386
 31
0.0
  0
LINE
  8
0
 62
     0
 10
23.4184
 20
36.5386
 30
0.0
 11
22.6191
 21
36.5386
 31
0.0
  0
LINE
  8
0
 62
     0
 10
22.6191
 20
36.5386
 30
0.0
 11
22.6191
 21
42.3376
 31
0.0
  0
LINE
  8
0
 62
     0
 10
22.6191
 20
42.3376
 30
0.0
 11
23.4184
 21
42.3376
 31
0.0
  0
LINE
  8
0
 62
     0
 10
23.4184
 20
42.3376
 30
0.0
 11
23.4184
 21
45.4381
 31
0.0
  0
LINE
  8
0
 62
     0
 10
23.4184
 20
45.4381
 30
0.0
 11
22.6191
 21
45.4381
 31
0.0
  0
LINE
  8
0
 62
     0
 10
22.6191
 20
45.4381
 30
0.0
 11
22.6191
 21
46.4386
 31
0.0
  0
LINE
  8
0
 62
     0
 10
22.6191
 20
46.4386
 30
0.0
 11
8.61826
 21
46.4386
 31
0.0
  0
LINE
  8
0
 62
     0
 10
27.6683
 20
46.4386
 30
0.0
 11
27.6683
 21
45.4381
 31
0.0
  0
LINE
  8
0
 62
     0
 10
27.6683
 20
45.4381
 30
0.0
 11
26.869
 21
45.4381
 31
0.0
  0
LINE
  8
0
 62
     0
 10
26.869
 20
45.4381
 30
0.0
 11
26.869
 21
42.3376
 31
0.0
  0
LINE
  8
0
 62
     0
 10
26.869
 20
42.3376
 30
0.0
 11
27.6683
 21
42.3376
 31
0.0
  0
LINE
  8
0
 62
     0
 10
27.6683
 20
42.3376
 30
0.0
 11
27.6683
 21
36.5386
 31
0.0
  0
LINE
  8
0
 62
     0
 10
27.6683
 20
36.5386
 30
0.0
 11
26.869
 21
36.5386
 31
0.0
  0
LINE
  8
0
 62
     0
 10
26.869
 20
36.5386
 30
0.0
 11
26.869
 21
33.4381
 31
0.0
  0
LINE
  8
0
 62
     0
 10
26.869
 20
33.4381
 30
0.0
 11
27.6683
 21
33.4381
 31
0.0
  0
LINE
  8
0
 62
     0
 10
27.6683
 20
33.4381
 30
0.0
 11
27.6683
 21
32.4376
 31
0.0
  0
LINE
  8
0
 62
     0
 10
27.6683
 20
32.4376
 30
0.0
 11
41.6691
 21
32.4376
 31
0.0
  0
LINE
  8
0
 62
     0
 10
41.6691
 20
32.4376
 30
0.0
 11
41.6691
 21
33.4381
 31
0.0
  0
LINE
  8
0
 62
     0
 10
41.6691
 20
33.4381
 30
0.0
 11
42.4684
 21
33.4381
 31
0.0
  0
LINE
  8
0
 62
     0
 10
42.4684
 20
33.4381
 30
0.0
 11
42.4684
 21
36.5386
 31
0.0
  0
LINE
  8
0
 62
     0
 10
42.4684
 20
36.5386
 30
0.0
 11
41.6691
 21
36.5386
 31
0.0
  0
LINE
  8
0
 62
     0
 10
41.6691
 20
36.5386
 30
0.0
 11
41.6691
 21
42.3376
 31
0.0
  0
LINE
  8
0
 62
     0
 10
41.6691
 20
42.3376
 30
0.0
 11
42.4684
 21
42.3376
 31
0.0
  0
LINE
  8
0
 62
     0
 10
42.4684
 20
42.3376
 30
0.0
 11
42.4684
 21
45.4381
 31
0.0
  0
LINE
  8
0
 62
     0
 10
42.4684
 20
45.4381
 30
0.0
 11
41.6691
 21
45.4381
 31
0.0
  0
LINE
  8
0
 62
     0
 10
41.6691
 20
45.4381
 30
0.0
 11
41.6691
 21
46.4386
 31
0.0
  0
LINE
  8
0
 62
     0
 10
41.6691
 20
46.4386
 30
0.0
 11
27.6683
 21
46.4386
 31
0.0
  0
LINE
  8
0
 62
     0
 10
46.7184
 20
46.4386
 30
0.0
 11
46.7184
 21
45.4381
 31
0.0
  0
LINE
  8
0
 62
     0
 10
46.7184
 20
45.4381
 30
0.0
 11
45.919
 21
45.4381
 31
0.0
  0
LINE
  8
0
 62
     0
 10
45.919
 20
45.4381
 30
0.0
 11
45.919
 21
42.3376
 31
0.0
  0
LINE
  8
0
 62
     0
 10
45.919
 20
42.3376
 30
0.0
 11
46.7184
 21
42.3376
 31
0.0
  0
LINE
  8
0
 62
     0
 10
46.7184
 20
42.3376
 30
0.0
 11
46.7184
 21
36.5386
 31
0.0
  0
LINE
  8
0
 62
     0
 10
46.7184
 20
36.5386
 30
0.0
 11
45.919
 21
36.5386
 31
0.0
  0
LINE
  8
0
 62
     0
 10
45.919
 20
36.5386
 30
0.0
 11
45.919
 21
33.4381
 31
0.0
  0
LINE
  8
0
 62
     0
 10
45.919
 20
33.4381
 30
0.0
 11
46.7184
 21
33.4381
 31
0.0
  0
LINE
  8
0
 62
     0
 10
46.7184
 20
33.4381
 30
0.0
 11
46.7184
 21
32.4376
 31
0.0
  0
LINE
  8
0
 62
     0
 10
46.7184
 20
32.4376
 30
0.0
 11
60.7191
 21
32.4376
 31
0.0
  0
LINE
  8
0
 62
     0
 10
60.7191
 20
32.4376
 30
0.0
 11
60.7191
 21
33.4381
 31
0.0
  0
LINE
  8
0
 62
     0
 10
60.7191
 20
33.4381
 30
0.0
 11
61.5184
 21
33.4381
 31
0.0
  0
LINE
  8
0
 62
     0
 10
61.5184
 20
33.4381
 30
0.0
 11
61.5184
 21
36.5386
 31
0.0
  0
LINE
  8
0
 62
     0
 10
61.5184
 20
36.5386
 30
0.0
 11
60.7191
 21
36.5386
 31
0.0
  0
LINE
  8
0
 62
     0
 10
60.7191
 20
36.5386
 30
0.0
 11
60.7191
 21
42.3376
 31
0.0
  0
LINE
  8
0
 62
     0
 10
60.7191
 20
42.3376
 30
0.0
 11
61.5184
 21
42.3376
 31
0.0
  0
LINE
  8
0
 62
     0
 10
61.5184
 20
42.3376
 30
0.0
 11
61.5184
 21
45.4381
 31
0.0
  0
LINE
  8
0
 62
     0
 10
61.5184
 20
45.4381
 30
0.0
 11
60.7191
 21
45.4381
 31
0.0
  0
LINE
  8
0
 62
     0
 10
60.7191
 20
45.4381
 30
0.0
 11
60.7191
 21
46.4386
 31
0.0
  0
LINE
  8
0
 62
     0
 10
60.7191
 20
46.4386
 30
0.0
 11
46.7184
 21
46.4386
 31
0.0
  0
LINE
  8
0
 62
     0
 10
70.5309
 20
46.4386
 30
0.0
 11
70.5309
 21
45.4381
 31
0.0
  0
LINE
  8
0
 62
     0
 10
70.5309
 20
45.4381
 30
0.0
 11
69.7301
 21
45.4381
 31
0.0
  0
LINE
  8
0
 62
     0
 10
69.7301
 20
45.4381
 30
0.0
 11
69.7301
 21
42.3376
 31
0.0
  0
LINE
  8
0
 62
     0
 10
69.7301
 20
42.3376
 30
0.0
 11
70.5309
 21
42.3376
 31
0.0
  0
LINE
  8
0
 62
     0
 10
70.5309
 20
42.3376
 30
0.0
 11
70.5309
 21
36.5386
 31
0.0
  0
LINE
  8
0
 62
     0
 10
70.5309
 20
36.5386
 30
0.0
 11
69.7301
 21
36.5386
 31
0.0
  0
LINE
  8
0
 62
     0
 10
69.7301
 20
36.5386
 30
0.0
 11
69.7301
 21
33.4381
 31
0.0
  0
LINE
  8
0
 62
     0
 10
69.7301
 20
33.4381
 30
0.0
 11
70.5309
 21
33.4381
 31
0.0
  0
LINE
  8
0
 62
     0
 10
70.5309
 20
33.4381
 30
0.0
 11
70.5309
 21
32.4376
 31
0.0
  0
LINE
  8
0
 62
     0
 10
70.5309
 20
32.4376
 30
0.0
 11
84.5301
 21
32.4376
 31
0.0
  0
LINE
  8
0
 62
     0
 10
84.5301
 20
32.4376
 30
0.0
 11
84.5301
 21
33.4381
 31
0.0
  0
LINE
  8
0
 62
     0
 10
84.5301
 20
33.4381
 30
0.0
 11
85.3309
 21
33.4381
 31
0.0
  0
LINE
  8
0
 62
     0
 10
85.3309
 20
33.4381
 30
0.0
 11
85.3309
 21
36.5386
 31
0.0
  0
LINE
  8
0
 62
     0
 10
85.3309
 20
36.5386
 30
0.0
 11
84.5301
 21
36.5386
 31
0.0
  0
LINE
  8
0
 62
     0
 10
84.5301
 20
36.5386
 30
0.0
 11
84.5301
 21
42.3376
 31
0.0
  0
LINE
  8
0
 62
     0
 10
84.5301
 20
42.3376
 30
0.0
 11
85.3309
 21
42.3376
 31
0.0
  0
LINE
  8
0
 62
     0
 10
85.3309
 20
42.3376
 30
0.0
 11
85.3309
 21
45.4381
 31
0.0
  0
LINE
  8
0
 62
     0
 10
85.3309
 20
45.4381
 30
0.0
 11
84.5301
 21
45.4381
 31
0.0
  0
LINE
  8
0
 62
     0
 10
84.5301
 20
45.4381
 30
0.0
 11
84.5301
 21
46.4386
 31
0.0
  0
LINE
  8
0
 62
     0
 10
84.5301
 20
46.4386
 30
0.0
 11
70.5309
 21
46.4386
 31
0.0
  0
LINE
  8
0
 62
     0
 10
89.5809
 20
46.4386
 30
0.0
 11
89.5809
 21
45.4381
 31
0.0
  0
LINE
  8
0
 62
     0
 10
89.5809
 20
45.4381
 30
0.0
 11
88.7801
 21
45.4381
 31
0.0
  0
LINE
  8
0
 62
     0
 10
88.7801
 20
45.4381
 30
0.0
 11
88.7801
 21
42.3376
 31
0.0
  0
LINE
  8
0
 62
     0
 10
88.7801
 20
42.3376
 30
0.0
 11
89.5809
 21
42.3376
 31
0.0
  0
LINE
  8
0
 62
     0
 10
89.5809
 20
42.3376
 30
0.0
 11
89.5809
 21
36.5386
 31
0.0
  0
LINE
  8
0
 62
     0
 10
89.5809
 20
36.5386
 30
0.0
 11
88.7801
 21
36.5386
 31
0.0
  0
LINE
  8
0
 62
     0
 10
88.7801
 20
36.5386
 30
0.0
 11
88.7801
 21
33.4381
 31
0.0
  0
LINE
  8
0
 62
     0
 10
88.7801
 20
33.4381
 30
0.0
 11
89.5809
 21
33.4381
 31
0.0
  0
LINE
  8
0
 62
     0
 10
89.5809
 20
33.4381
 30
0.0
 11
89.5809
 21
32.4376
 31
0.0
  0
LINE
  8
0
 62
     0
 10
89.5809
 20
32.4376
 30
0.0
 11
103.58
 21
32.4376
 31
0.0
  0
LINE
  8
0
 62
     0
 10
103.58
 20
32.4376
 30
0.0
 11
103.58
 21
33.4381
 31
0.0
  0
LINE
  8
0
 62
     0
 10
103.58
 20
33.4381
 30
0.0
 11
104.381
 21
33.4381
 31
0.0
  0
LINE
  8
0
 62
     0
 10
104.381
 20
33.4381
 30
0.0
 11
104.381
 21
36.5386
 31
0.0
  0
LINE
  8
0
 62
     0
 10
104.381
 20
36.5386
 30
0.0
 11
103.58
 21
36.5386
 31
0.0
  0
LINE
  8
0
 62
     0
 10
103.58
 20
36.5386
 30
0.0
 11
103.58
 21
42.3376
 31
0.0
  0
LINE
  8
0
 62
     0
 10
103.58
 20
42.3376
 30
0.0
 11
104.381
 21
42.3376
 31
0.0
  0
LINE
  8
0
 62
     0
 10
104.381
 20
42.3376
 30
0.0
 11
104.381
 21
45.4381
 31
0.0
  0
LINE
  8
0
 62
     0
 10
104.381
 20
45.4381
 30
0.0
 11
103.58
 21
45.4381
 31
0.0
  0
LINE
  8
0
 62
     0
 10
103.58
 20
45.4381
 30
0.0
 11
103.58
 21
46.4386
 31
0.0
  0
LINE
  8
0
 62
     0
 10
103.58
 20
46.4386
 30
0.0
 11
89.5809
 21
46.4386
 31
0.0
  0
LINE
  8
0
 62
     0
 10
108.631
 20
46.4386
 30
0.0
 11
108.631
 21
45.4381
 31
0.0
  0
LINE
  8
0
 62
     0
 10
108.631
 20
45.4381
 30
0.0
 11
107.83
 21
45.4381
 31
0.0
  0
LINE
  8
0
 62
     0
 10
107.83
 20
45.4381
 30
0.0
 11
107.83
 21
42.3376
 31
0.0
  0
LINE
  8
0
 62
     0
 10
107.83
 20
42.3376
 30
0.0
 11
108.631
 21
42.3376
 31
0.0
  0
LINE
  8
0
 62
     0
 10
108.631
 20
42.3376
 30
0.0
 11
108.631
 21
36.5386
 31
0.0
  0
LINE
  8
0
 62
     0
 10
108.631
 20
36.5386
 30
0.0
 11
107.83
 21
36.5386
 31
0.0
  0
LINE
  8
0
 62
     0
 10
107.83
 20
36.5386
 30
0.0
 11
107.83
 21
33.4381
 31
0.0
  0
LINE
  8
0
 62
     0
 10
107.83
 20
33.4381
 30
0.0
 11
108.631
 21
33.4381
 31
0.0
  0
LINE
  8
0
 62
     0
 10
108.631
 20
33.4381
 30
0.0
 11
108.631
 21
32.4376
 31
0.0
  0
LINE
  8
0
 62
     0
 10
108.631
 20
32.4376
 30
0.0
 11
122.63
 21
32.4376
 31
0.0
  0
LINE
  8
0
 62
     0
 10
122.63
 20
32.4376
 30
0.0
 11
122.63
 21
33.4381
 31
0.0
  0
LINE
  8
0
 62
     0
 10
122.63
 20
33.4381
 30
0.0
 11
123.43
 21
33.4381
 31
0.0
  0
LINE
  8
0
 62
     0
 10
123.43
 20
33.4381
 30
0.0
 11
123.43
 21
36.5386
 31
0.0
  0
LINE
  8
0
 62
     0
 10
123.43
 20
36.5386
 30
0.0
 11
122.63
 21
36.5386
 31
0.0
  0
LINE
  8
0
 62
     0
 10
122.63
 20
36.5386
 30
0.0
 11
122.63
 21
42.3376
 31
0.0
  0
LINE
  8
0
 62
     0
 10
122.63
 20
42.3376
 30
0.0
 11
123.43
 21
42.3376
 31
0.0
  0
LINE
  8
0
 62
     0
 10
123.43
 20
42.3376
 30
0.0
 11
123.43
 21
45.4381
 31
0.0
  0
LINE
  8
0
 62
     0
 10
123.43
 20
45.4381
 30
0.0
 11
122.63
 21
45.4381
 31
0.0
  0
LINE
  8
0
 62
     0
 10
122.63
 20
45.4381
 30
0.0
 11
122.63
 21
46.4386
 31
0.0
  0
LINE
  8
0
 62
     0
 10
122.63
 20
46.4386
 30
0.0
 11
108.631
 21
46.4386
 31
0.0
  0
LINE
  8
0
 62
     0
 10
127.681
 20
46.4386
 30
0.0
 11
127.681
 21
45.4381
 31
0.0
  0
LINE
  8
0
 62
     0
 10
127.681
 20
45.4381
 30
0.0
 11
126.88
 21
45.4381
 31
0.0
  0
LINE
  8
0
 62
     0
 10
126.88
 20
45.4381
 30
0.0
 11
126.88
 21
42.3376
 31
0.0
  0
LINE
  8
0
 62
     0
 10
126.88
 20
42.3376
 30
0.0
 11
127.681
 21
42.3376
 31
0.0
  0
LINE
  8
0
 62
     0
 10
127.681
 20
42.3376
 30
0.0
 11
127.681
 21
36.5386
 31
0.0
  0
LINE
  8
0
 62
     0
 10
127.681
 20
36.5386
 30
0.0
 11
126.88
 21
36.5386
 31
0.0
  0
LINE
  8
0
 62
     0
 10
126.88
 20
36.5386
 30
0.0
 11
126.88
 21
33.4381
 31
0.0
  0
LINE
  8
0
 62
     0
 10
126.88
 20
33.4381
 30
0.0
 11
127.681
 21
33.4381
 31
0.0
  0
LINE
  8
0
 62
     0
 10
127.681
 20
33.4381
 30
0.0
 11
127.681
 21
32.4376
 31
0.0
  0
LINE
  8
0
 62
     0
 10
127.681
 20
32.4376
 30
0.0
 11
141.68
 21
32.4376
 31
0.0
  0
LINE
  8
0
 62
     0
 10
141.68
 20
32.4376
 30
0.0
 11
141.68
 21
33.4381
 31
0.0
  0
LINE
  8
0
 62
     0
 10
141.68
 20
33.4381
 30
0.0
 11
142.481
 21
33.4381
 31
0.0
  0
LINE
  8
0
 62
     0
 10
142.481
 20
33.4381
 30
0.0
 11
142.481
 21
36.5386
 31
0.0
  0
LINE
  8
0
 62
     0
 10
142.481
 20
36.5386
 30
0.0
 11
141.68
 21
36.5386
 31
0.0
  0
LINE
  8
0
 62
     0
 10
141.68
 20
36.5386
 30
0.0
 11
141.68
 21
42.3376
 31
0.0
  0
LINE
  8
0
 62
     0
 10
141.68
 20
42.3376
 30
0.0
 11
142.481
 21
42.3376
 31
0.0
  0
LINE
  8
0
 62
     0
 10
142.481
 20
42.3376
 30
0.0
 11
142.481
 21
45.4381
 31
0.0
  0
LINE
  8
0
 62
     0
 10
142.481
 20
45.4381
 30
0.0
 11
141.68
 21
45.4381
 31
0.0
  0
LINE
  8
0
 62
     0
 10
141.68
 20
45.4381
 30
0.0
 11
141.68
 21
46.4386
 31
0.0
  0
LINE
  8
0
 62
     0
 10
141.68
 20
46.4386
 30
0.0
 11
127.681
 21
46.4386
 31
0.0
  0
LINE
  8
0
 62
     0
 10
146.731
 20
46.4386
 30
0.0
 11
146.731
 21
45.4381
 31
0.0
  0
LINE
  8
0
 62
     0
 10
146.731
 20
45.4381
 30
0.0
 11
145.93
 21
45.4381
 31
0.0
  0
LINE
  8
0
 62
     0
 10
145.93
 20
45.4381
 30
0.0
 11
145.93
 21
42.3376
 31
0.0
  0
LINE
  8
0
 62
     0
 10
145.93
 20
42.3376
 30
0.0
 11
146.731
 21
42.3376
 31
0.0
  0
LINE
  8
0
 62
     0
 10
146.731
 20
42.3376
 30
0.0
 11
146.731
 21
36.5386
 31
0.0
  0
LINE
  8
0
 62
     0
 10
146.731
 20
36.5386
 30
0.0
 11
145.93
 21
36.5386
 31
0.0
  0
LINE
  8
0
 62
     0
 10
145.93
 20
36.5386
 30
0.0
 11
145.93
 21
33.4381
 31
0.0
  0
LINE
  8
0
 62
     0
 10
145.93
 20
33.4381
 30
0.0
 11
146.731
 21
33.4381
 31
0.0
  0
LINE
  8
0
 62
     0
 10
146.731
 20
33.4381
 30
0.0
 11
146.731
 21
32.4376
 31
0.0
  0
LINE
  8
0
 62
     0
 10
146.731
 20
32.4376
 30
0.0
 11
160.73
 21
32.4376
 31
0.0
  0
LINE
  8
0
 62
     0
 10
160.73
 20
32.4376
 30
0.0
 11
160.73
 21
33.4381
 31
0.0
  0
LINE
  8
0
 62
     0
 10
160.73
 20
33.4381
 30
0.0
 11
161.531
 21
33.4381
 31
0.0
  0
LINE
  8
0
 62
     0
 10
161.531
 20
33.4381
 30
0.0
 11
161.531
 21
36.5386
 31
0.0
  0
LINE
  8
0
 62
     0
 10
161.531
 20
36.5386
 30
0.0
 11
160.73
 21
36.5386
 31
0.0
  0
LINE
  8
0
 62
     0
 10
160.73
 20
36.5386
 30
0.0
 11
160.73
 21
42.3376
 31
0.0
  0
LINE
  8
0
 62
     0
 10
160.73
 20
42.3376
 30
0.0
 11
161.531
 21
42.3376
 31
0.0
  0
LINE
  8
0
 62
     0
 10
161.531
 20
42.3376
 30
0.0
 11
161.531
 21
45.4381
 31
0.0
  0
LINE
  8
0
 62
     0
 10
161.531
 20
45.4381
 30
0.0
 11
160.73
 21
45.4381
 31
0.0
  0
LINE
  8
0
 62
     0
 10
160.73
 20
45.4381
 30
0.0
 11
160.73
 21
46.4386
 31
0.0
  0
LINE
  8
0
 62
     0
 10
160.73
 20
46.4386
 30
0.0
 11
146.731
 21
46.4386
 31
0.0
  0
LINE
  8
0
 62
     0
 10
165.781
 20
46.4386
 30
0.0
 11
165.781
 21
45.4381
 31
0.0
  0
LINE
  8
0
 62
     0
 10
165.781
 20
45.4381
 30
0.0
 11
164.98
 21
45.4381
 31
0.0
  0
LINE
  8
0
 62
     0
 10
164.98
 20
45.4381
 30
0.0
 11
164.98
 21
42.3376
 31
0.0
  0
LINE
  8
0
 62
     0
 10
164.98
 20
42.3376
 30
0.0
 11
165.781
 21
42.3376
 31
0.0
  0
LINE
  8
0
 62
     0
 10
165.781
 20
42.3376
 30
0.0
 11
165.781
 21
36.5386
 31
0.0
  0
LINE
  8
0
 62
     0
 10
165.781
 20
36.5386
 30
0.0
 11
164.98
 21
36.5386
 31
0.0
  0
LINE
  8
0
 62
     0
 10
164.98
 20
36.5386
 30
0.0
 11
164.98
 21
33.4381
 31
0.0
  0
LINE
  8
0
 62
     0
 10
164.98
 20
33.4381
 30
0.0
 11
165.781
 21
33.4381
 31
0.0
  0
LINE
  8
0
 62
     0
 10
165.781
 20
33.4381
 30
0.0
 11
165.781
 21
32.4376
 31
0.0
  0
LINE
  8
0
 62
     0
 10
165.781
 20
32.4376
 30
0.0
 11
179.78
 21
32.4376
 31
0.0
  0
LINE
  8
0
 62
     0
 10
179.78
 20
32.4376
 30
0.0
 11
179.78
 21
33.4381
 31
0.0
  0
LINE
  8
0
 62
     0
 10
179.78
 20
33.4381
 30
0.0
 11
180.581
 21
33.4381
 31
0.0
  0
LINE
  8
0
 62
     0
 10
180.581
 20
33.4381
 30
0.0
 11
180.581
 21
36.5386
 31
0.0
  0
LINE
  8
0
 62
     0
 10
180.581
 20
36.5386
 30
0.0
 11
179.78
 21
36.5386
 31
0.0
  0
LINE
  8
0
 62
     0
 10
179.78
 20
36.5386
 30
0.0
 11
179.78
 21
42.3376
 31
0.0
  0
LINE
  8
0
 62
     0
 10
179.78
 20
42.3376
 30
0.0
 11
180.581
 21
42.3376
 31
0.0
  0
LINE
  8
0
 62
     0
 10
180.581
 20
42.3376
 30
0.0
 11
180.581
 21
45.4381
 31
0.0
  0
LINE
  8
0
 62
     0
 10
180.581
 20
45.4381
 30
0.0
 11
179.78
 21
45.4381
 31
0.0
  0
LINE
  8
0
 62
     0
 10
179.78
 20
45.4381
 30
0.0
 11
179.78
 21
46.4386
 31
0.0
  0
LINE
  8
0
 62
     0
 10
179.78
 20
46.4386
 30
0.0
 11
165.781
 21
46.4386
 31
0.0
  0
LINE
  8
0
 62
     0
 10
184.831
 20
46.4386
 30
0.0
 11
184.831
 21
45.4381
 31
0.0
  0
LINE
  8
0
 62
     0
 10
184.831
 20
45.4381
 30
0.0
 11
184.03
 21
45.4381
 31
0.0
  0
LINE
  8
0
 62
     0
 10
184.03
 20
45.4381
 30
0.0
 11
184.03
 21
42.3376
 31
0.0
  0
LINE
  8
0
 62
     0
 10
184.03
 20
42.3376
 30
0.0
 11
184.831
 21
42.3376
 31
0.0
  0
LINE
  8
0
 62
     0
 10
184.831
 20
42.3376
 30
0.0
 11
184.831
 21
36.5386
 31
0.0
  0
LINE
  8
0
 62
     0
 10
184.831
 20
36.5386
 30
0.0
 11
184.03
 21
36.5386
 31
0.0
  0
LINE
  8
0
 62
     0
 10
184.03
 20
36.5386
 30
0.0
 11
184.03
 21
33.4381
 31
0.0
  0
LINE
  8
0
 62
     0
 10
184.03
 20
33.4381
 30
0.0
 11
184.831
 21
33.4381
 31
0.0
  0
LINE
  8
0
 62
     0
 10
184.831
 20
33.4381
 30
0.0
 11
184.831
 21
32.4376
 31
0.0
  0
LINE
  8
0
 62
     0
 10
184.831
 20
32.4376
 30
0.0
 11
198.83
 21
32.4376
 31
0.0
  0
LINE
  8
0
 62
     0
 10
198.83
 20
32.4376
 30
0.0
 11
198.83
 21
33.4381
 31
0.0
  0
LINE
  8
0
 62
     0
 10
198.83
 20
33.4381
 30
0.0
 11
199.631
 21
33.4381
 31
0.0
  0
LINE
  8
0
 62
     0
 10
199.631
 20
33.4381
 30
0.0
 11
199.631
 21
36.5386
 31
0.0
  0
LINE
  8
0
 62
     0
 10
199.631
 20
36.5386
 30
0.0
 11
198.83
 21
36.5386
 31
0.0
  0
LINE
  8
0
 62
     0
 10
198.83
 20
36.5386
 30
0.0
 11
198.83
 21
42.3376
 31
0.0
  0
LINE
  8
0
 62
     0
 10
198.83
 20
42.3376
 30
0.0
 11
199.631
 21
42.3376
 31
0.0
  0
LINE
  8
0
 62
     0
 10
199.631
 20
42.3376
 30
0.0
 11
199.631
 21
45.4381
 31
0.0
  0
LINE
  8
0
 62
     0
 10
199.631
 20
45.4381
 30
0.0
 11
198.83
 21
45.4381
 31
0.0
  0
LINE
  8
0
 62
     0
 10
198.83
 20
45.4381
 30
0.0
 11
198.83
 21
46.4386
 31
0.0
  0
LINE
  8
0
 62
     0
 10
198.83
 20
46.4386
 30
0.0
 11
184.831
 21
46.4386
 31
0.0
  0
LINE
  8
0
 62
     0
 10
203.881
 20
46.4386
 30
0.0
 11
203.881
 21
45.4381
 31
0.0
  0
LINE
  8
0
 62
     0
 10
203.881
 20
45.4381
 30
0.0
 11
203.08
 21
45.4381
 31
0.0
  0
LINE
  8
0
 62
     0
 10
203.08
 20
45.4381
 30
0.0
 11
203.08
 21
42.3376
 31
0.0
  0
LINE
  8
0
 62
     0
 10
203.08
 20
42.3376
 30
0.0
 11
203.881
 21
42.3376
 31
0.0
  0
LINE
  8
0
 62
     0
 10
203.881
 20
42.3376
 30
0.0
 11
203.881
 21
36.5386
 31
0.0
  0
LINE
  8
0
 62
     0
 10
203.881
 20
36.5386
 30
0.0
 11
203.08
 21
36.5386
 31
0.0
  0
LINE
  8
0
 62
     0
 10
203.08
 20
36.5386
 30
0.0
 11
203.08
 21
33.4381
 31
0.0
  0
LINE
  8
0
 62
     0
 10
203.08
 20
33.4381
 30
0.0
 11
203.881
 21
33.4381
 31
0.0
  0
LINE
  8
0
 62
     0
 10
203.881
 20
33.4381
 30
0.0
 11
203.881
 21
32.4376
 31
0.0
  0
LINE
  8
0
 62
     0
 10
203.881
 20
32.4376
 30
0.0
 11
217.88
 21
32.4376
 31
0.0
  0
LINE
  8
0
 62
     0
 10
217.88
 20
32.4376
 30
0.0
 11
217.88
 21
33.4381
 31
0.0
  0
LINE
  8
0
 62
     0
 10
217.88
 20
33.4381
 30
0.0
 11
218.681
 21
33.4381
 31
0.0
  0
LINE
  8
0
 62
     0
 10
218.681
 20
33.4381
 30
0.0
 11
218.681
 21
36.5386
 31
0.0
  0
LINE
  8
0
 62
     0
 10
218.681
 20
36.5386
 30
0.0
 11
217.88
 21
36.5386
 31
0.0
  0
LINE
  8
0
 62
     0
 10
217.88
 20
36.5386
 30
0.0
 11
217.88
 21
42.3376
 31
0.0
  0
LINE
  8
0
 62
     0
 10
217.88
 20
42.3376
 30
0.0
 11
218.681
 21
42.3376
 31
0.0
  0
LINE
  8
0
 62
     0
 10
218.681
 20
42.3376
 30
0.0
 11
218.681
 21
45.4381
 31
0.0
  0
LINE
  8
0
 62
     0
 10
218.681
 20
45.4381
 30
0.0
 11
217.88
 21
45.4381
 31
0.0
  0
LINE
  8
0
 62
     0
 10
217.88
 20
45.4381
 30
0.0
 11
217.88
 21
46.4386
 31
0.0
  0
LINE
  8
0
 62
     0
 10
217.88
 20
46.4386
 30
0.0
 11
203.881
 21
46.4386
 31
0.0
  0
LINE
  8
0
 62
     0
 10
222.931
 20
46.4386
 30
0.0
 11
222.931
 21
45.4381
 31
0.0
  0
LINE
  8
0
 62
     0
 10
222.931
 20
45.4381
 30
0.0
 11
222.13
 21
45.4381
 31
0.0
  0
LINE
  8
0
 62
     0
 10
222.13
 20
45.4381
 30
0.0
 11
222.13
 21
42.3376
 31
0.0
  0
LINE
  8
0
 62
     0
 10
222.13
 20
42.3376
 30
0.0
 11
222.931
 21
42.3376
 31
0.0
  0
LINE
  8
0
 62
     0
 10
222.931
 20
42.3376
 30
0.0
 11
222.931
 21
36.5386
 31
0.0
  0
LINE
  8
0
 62
     0
 10
222.931
 20
36.5386
 30
0.0
 11
222.13
 21
36.5386
 31
0.0
  0
LINE
  8
0
 62
     0
 10
222.13
 20
36.5386
 30
0.0
 11
222.13
 21
33.4381
 31
0.0
  0
LINE
  8
0
 62
     0
 10
222.13
 20
33.4381
 30
0.0
 11
222.931
 21
33.4381
 31
0.0
  0
LINE
  8
0
 62
     0
 10
222.931
 20
33.4381
 30
0.0
 11
222.931
 21
32.4376
 31
0.0
  0
LINE
  8
0
 62
     0
 10
222.931
 20
32.4376
 30
0.0
 11
236.93
 21
32.4376
 31
0.0
  0
LINE
  8
0
 62
     0
 10
236.93
 20
32.4376
 30
0.0
 11
236.93
 21
33.4381
 31
0.0
  0
LINE
  8
0
 62
     0
 10
236.93
 20
33.4381
 30
0.0
 11
237.731
 21
33.4381
 31
0.0
  0
LINE
  8
0
 62
     0
 10
237.731
 20
33.4381
 30
0.0
 11
237.731
 21
36.5386
 31
0.0
  0
LINE
  8
0
 62
     0
 10
237.731
 20
36.5386
 30
0.0
 11
236.93
 21
36.5386
 31
0.0
  0
LINE
  8
0
 62
     0
 10
236.93
 20
36.5386
 30
0.0
 11
236.93
 21
42.3376
 31
0.0
  0
LINE
  8
0
 62
     0
 10
236.93
 20
42.3376
 30
0.0
 11
237.731
 21
42.3376
 31
0.0
  0
LINE
  8
0
 62
     0
 10
237.731
 20
42.3376
 30
0.0
 11
237.731
 21
45.4381
 31
0.0
  0
LINE
  8
0
 62
     0
 10
237.731
 20
45.4381
 30
0.0
 11
236.93
 21
45.4381
 31
0.0
  0
LINE
  8
0
 62
     0
 10
236.93
 20
45.4381
 30
0.0
 11
236.93
 21
46.4386
 31
0.0
  0
LINE
  8
0
 62
     0
 10
236.93
 20
46.4386
 30
0.0
 11
222.931
 21
46.4386
 31
0.0
  0
LINE
  8
0
 62
     0
 10
241.981
 20
46.4386
 30
0.0
 11
241.981
 21
45.4381
 31
0.0
  0
LINE
  8
0
 62
     0
 10
241.981
 20
45.4381
 30
0.0
 11
241.18
 21
45.4381
 31
0.0
  0
LINE
  8
0
 62
     0
 10
241.18
 20
45.4381
 30
0.0
 11
241.18
 21
42.3376
 31
0.0
  0
LINE
  8
0
 62
     0
 10
241.18
 20
42.3376
 30
0.0
 11
241.981
 21
42.3376
 31
0.0
  0
LINE
  8
0
 62
     0
 10
241.981
 20
42.3376
 30
0.0
 11
241.981
 21
36.5386
 31
0.0
  0
LINE
  8
0
 62
     0
 10
241.981
 20
36.5386
 30
0.0
 11
241.18
 21
36.5386
 31
0.0
  0
LINE
  8
0
 62
     0
 10
241.18
 20
36.5386
 30
0.0
 11
241.18
 21
33.4381
 31
0.0
  0
LINE
  8
0
 62
     0
 10
241.18
 20
33.4381
 30
0.0
 11
241.981
 21
33.4381
 31
0.0
  0
LINE
  8
0
 62
     0
 10
241.981
 20
33.4381
 30
0.0
 11
241.981
 21
32.4376
 31
0.0
  0
LINE
  8
0
 62
     0
 10
241.981
 20
32.4376
 30
0.0
 11
255.98
 21
32.4376
 31
0.0
  0
LINE
  8
0
 62
     0
 10
255.98
 20
32.4376
 30
0.0
 11
255.98
 21
33.4381
 31
0.0
  0
LINE
  8
0
 62
     0
 10
255.98
 20
33.4381
 30
0.0
 11
256.781
 21
33.4381
 31
0.0
  0
LINE
  8
0
 62
     0
 10
256.781
 20
33.4381
 30
0.0
 11
256.781
 21
36.5386
 31
0.0
  0
LINE
  8
0
 62
     0
 10
256.781
 20
36.5386
 30
0.0
 11
255.98
 21
36.5386
 31
0.0
  0
LINE
  8
0
 62
     0
 10
255.98
 20
36.5386
 30
0.0
 11
255.98
 21
42.3376
 31
0.0
  0
LINE
  8
0
 62
     0
 10
255.98
 20
42.3376
 30
0.0
 11
256.781
 21
42.3376
 31
0.0
  0
LINE
  8
0
 62
     0
 10
256.781
 20
42.3376
 30
0.0
 11
256.781
 21
45.4381
 31
0.0
  0
LINE
  8
0
 62
     0
 10
256.781
 20
45.4381
 30
0.0
 11
255.98
 21
45.4381
 31
0.0
  0
LINE
  8
0
 62
     0
 10
255.98
 20
45.4381
 30
0.0
 11
255.98
 21
46.4386
 31
0.0
  0
LINE
  8
0
 62
     0
 10
255.98
 20
46.4386
 30
0.0
 11
241.981
 21
46.4386
 31
0.0
  0
LINE
  8
0
 62
     0
 10
261.031
 20
46.4386
 30
0.0
 11
261.031
 21
45.4381
 31
0.0
  0
LINE
  8
0
 62
     0
 10
261.031
 20
45.4381
 30
0.0
 11
260.23
 21
45.4381
 31
0.0
  0
LINE
  8
0
 62
     0
 10
260.23
 20
45.4381
 30
0.0
 11
260.23
 21
42.3376
 31
0.0
  0
LINE
  8
0
 62
     0
 10
260.23
 20
42.3376
 30
0.0
 11
261.031
 21
42.3376
 31
0.0
  0
LINE
  8
0
 62
     0
 10
261.031
 20
42.3376
 30
0.0
 11
261.031
 21
36.5386
 31
0.0
  0
LINE
  8
0
 62
     0
 10
261.031
 20
36.5386
 30
0.0
 11
260.23
 21
36.5386
 31
0.0
  0
LINE
  8
0
 62
     0
 10
260.23
 20
36.5386
 30
0.0
 11
260.23
 21
33.4381
 31
0.0
  0
LINE
  8
0
 62
     0
 10
260.23
 20
33.4381
 30
0.0
 11
261.031
 21
33.4381
 31
0.0
  0
LINE
  8
0
 62
     0
 10
261.031
 20
33.4381
 30
0.0
 11
261.031
 21
32.4376
 31
0.0
  0
LINE
  8
0
 62
     0
 10
261.031
 20
32.4376
 30
0.0
 11
275.03
 21
32.4376
 31
0.0
  0
LINE
  8
0
 62
     0
 10
275.03
 20
32.4376
 30
0.0
 11
275.03
 21
33.4381
 31
0.0
  0
LINE
  8
0
 62
     0
 10
275.03
 20
33.4381
 30
0.0
 11
275.831
 21
33.4381
 31
0.0
  0
LINE
  8
0
 62
     0
 10
275.831
 20
33.4381
 30
0.0
 11
275.831
 21
36.5386
 31
0.0
  0
LINE
  8
0
 62
     0
 10
275.831
 20
36.5386
 30
0.0
 11
275.03
 21
36.5386
 31
0.0
  0
LINE
  8
0
 62
     0
 10
275.03
 20
36.5386
 30
0.0
 11
275.03
 21
42.3376
 31
0.0
  0
LINE
  8
0
 62
     0
 10
275.03
 20
42.3376
 30
0.0
 11
275.831
 21
42.3376
 31
0.0
  0
LINE
  8
0
 62
     0
 10
275.831
 20
42.3376
 30
0.0
 11
275.831
 21
45.4381
 31
0.0
  0
LINE
  8
0
 62
     0
 10
275.831
 20
45.4381
 30
0.0
 11
275.03
 21
45.4381
 31
0.0
  0
LINE
  8
0
 62
     0
 10
275.03
 20
45.4381
 30
0.0
 11
275.03
 21
46.4386
 31
0.0
  0
LINE
  8
0
 62
     0
 10
275.03
 20
46.4386
 30
0.0
 11
261.031
 21
46.4386
 31
0.0
  0
LINE
  8
0
 62
     0
 10
280.081
 20
46.4386
 30
0.0
 11
280.081
 21
45.4381
 31
0.0
  0
LINE
  8
0
 62
     0
 10
280.081
 20
45.4381
 30
0.0
 11
279.28
 21
45.4381
 31
0.0
  0
LINE
  8
0
 62
     0
 10
279.28
 20
45.4381
 30
0.0
 11
279.28
 21
42.3376
 31
0.0
  0
LINE
  8
0
 62
     0
 10
279.28
 20
42.3376
 30
0.0
 11
280.081
 21
42.3376
 31
0.0
  0
LINE
  8
0
 62
     0
 10
280.081
 20
42.3376
 30
0.0
 11
280.081
 21
36.5386
 31
0.0
  0
LINE
  8
0
 62
     0
 10
280.081
 20
36.5386
 30
0.0
 11
279.28
 21
36.5386
 31
0.0
  0
LINE
  8
0
 62
     0
 10
279.28
 20
36.5386
 30
0.0
 11
279.28
 21
33.4381
 31
0.0
  0
LINE
  8
0
 62
     0
 10
279.28
 20
33.4381
 30
0.0
 11
280.081
 21
33.4381
 31
0.0
  0
LINE
  8
0
 62
     0
 10
280.081
 20
33.4381
 30
0.0
 11
280.081
 21
32.4376
 31
0.0
  0
LINE
  8
0
 62
     0
 10
280.081
 20
32.4376
 30
0.0
 11
294.08
 21
32.4376
 31
0.0
  0
LINE
  8
0
 62
     0
 10
294.08
 20
32.4376
 30
0.0
 11
294.08
 21
33.4381
 31
0.0
  0
LINE
  8
0
 62
     0
 10
294.08
 20
33.4381
 30
0.0
 11
294.881
 21
33.4381
 31
0.0
  0
LINE
  8
0
 62
     0
 10
294.881
 20
33.4381
 30
0.0
 11
294.881
 21
36.5386
 31
0.0
  0
LINE
  8
0
 62
     0
 10
294.881
 20
36.5386
 30
0.0
 11
294.08
 21
36.5386
 31
0.0
  0
LINE
  8
0
 62
     0
 10
294.08
 20
36.5386
 30
0.0
 11
294.08
 21
42.3376
 31
0.0
  0
LINE
  8
0
 62
     0
 10
294.08
 20
42.3376
 30
0.0
 11
294.881
 21
42.3376
 31
0.0
  0
LINE
  8
0
 62
     0
 10
294.881
 20
42.3376
 30
0.0
 11
294.881
 21
45.4381
 31
0.0
  0
LINE
  8
0
 62
     0
 10
294.881
 20
45.4381
 30
0.0
 11
294.08
 21
45.4381
 31
0.0
  0
LINE
  8
0
 62
     0
 10
294.08
 20
45.4381
 30
0.0
 11
294.08
 21
46.4386
 31
0.0
  0
LINE
  8
0
 62
     0
 10
294.08
 20
46.4386
 30
0.0
 11
280.081
 21
46.4386
 31
0.0
  0
LINE
  8
0
 62
     0
 10
8.61826
 20
65.4886
 30
0.0
 11
8.61826
 21
64.4881
 31
0.0
  0
LINE
  8
0
 62
     0
 10
8.61826
 20
64.4881
 30
0.0
 11
7.81763
 21
64.4881
 31
0.0
  0
LINE
  8
0
 62
     0
 10
7.81763
 20
64.4881
 30
0.0
 11
7.81763
 21
61.3876
 31
0.0
  0
LINE
  8
0
 62
     0
 10
7.81763
 20
61.3876
 30
0.0
 11
8.61826
 21
61.3876
 31
0.0
  0
LINE
  8
0
 62
     0
 10
8.61826
 20
61.3876
 30
0.0
 11
8.61826
 21
55.5886
 31
0.0
  0
LINE
  8
0
 62
     0
 10
8.61826
 20
55.5886
 30
0.0
 11
7.81763
 21
55.5886
 31
0.0
  0
LINE
  8
0
 62
     0
 10
7.81763
 20
55.5886
 30
0.0
 11
7.81763
 21
52.488
 31
0.0
  0
LINE
  8
0
 62
     0
 10
7.81763
 20
52.488
 30
0.0
 11
8.61826
 21
52.488
 31
0.0
  0
LINE
  8
0
 62
     0
 10
8.61826
 20
52.488
 30
0.0
 11
8.61826
 21
51.4876
 31
0.0
  0
LINE
  8
0
 62
     0
 10
8.61826
 20
51.4876
 30
0.0
 11
22.6191
 21
51.4876
 31
0.0
  0
LINE
  8
0
 62
     0
 10
22.6191
 20
51.4876
 30
0.0
 11
22.6191
 21
52.488
 31
0.0
  0
LINE
  8
0
 62
     0
 10
22.6191
 20
52.488
 30
0.0
 11
23.4184
 21
52.488
 31
0.0
  0
LINE
  8
0
 62
     0
 10
23.4184
 20
52.488
 30
0.0
 11
23.4184
 21
55.5886
 31
0.0
  0
LINE
  8
0
 62
     0
 10
23.4184
 20
55.5886
 30
0.0
 11
22.6191
 21
55.5886
 31
0.0
  0
LINE
  8
0
 62
     0
 10
22.6191
 20
55.5886
 30
0.0
 11
22.6191
 21
61.3876
 31
0.0
  0
LINE
  8
0
 62
     0
 10
22.6191
 20
61.3876
 30
0.0
 11
23.4184
 21
61.3876
 31
0.0
  0
LINE
  8
0
 62
     0
 10
23.4184
 20
61.3876
 30
0.0
 11
23.4184
 21
64.4881
 31
0.0
  0
LINE
  8
0
 62
     0
 10
23.4184
 20
64.4881
 30
0.0
 11
22.6191
 21
64.4881
 31
0.0
  0
LINE
  8
0
 62
     0
 10
22.6191
 20
64.4881
 30
0.0
 11
22.6191
 21
65.4886
 31
0.0
  0
LINE
  8
0
 62
     0
 10
22.6191
 20
65.4886
 30
0.0
 11
8.61826
 21
65.4886
 31
0.0
  0
LINE
  8
0
 62
     0
 10
27.6683
 20
65.4886
 30
0.0
 11
27.6683
 21
64.4881
 31
0.0
  0
LINE
  8
0
 62
     0
 10
27.6683
 20
64.4881
 30
0.0
 11
26.869
 21
64.4881
 31
0.0
  0
LINE
  8
0
 62
     0
 10
26.869
 20
64.4881
 30
0.0
 11
26.869
 21
61.3876
 31
0.0
  0
LINE
  8
0
 62
     0
 10
26.869
 20
61.3876
 30
0.0
 11
27.6683
 21
61.3876
 31
0.0
  0
LINE
  8
0
 62
     0
 10
27.6683
 20
61.3876
 30
0.0
 11
27.6683
 21
55.5886
 31
0.0
  0
LINE
  8
0
 62
     0
 10
27.6683
 20
55.5886
 30
0.0
 11
26.869
 21
55.5886
 31
0.0
  0
LINE
  8
0
 62
     0
 10
26.869
 20
55.5886
 30
0.0
 11
26.869
 21
52.488
 31
0.0
  0
LINE
  8
0
 62
     0
 10
26.869
 20
52.488
 30
0.0
 11
27.6683
 21
52.488
 31
0.0
  0
LINE
  8
0
 62
     0
 10
27.6683
 20
52.488
 30
0.0
 11
27.6683
 21
51.4876
 31
0.0
  0
LINE
  8
0
 62
     0
 10
27.6683
 20
51.4876
 30
0.0
 11
41.6691
 21
51.4876
 31
0.0
  0
LINE
  8
0
 62
     0
 10
41.6691
 20
51.4876
 30
0.0
 11
41.6691
 21
52.488
 31
0.0
  0
LINE
  8
0
 62
     0
 10
41.6691
 20
52.488
 30
0.0
 11
42.4684
 21
52.488
 31
0.0
  0
LINE
  8
0
 62
     0
 10
42.4684
 20
52.488
 30
0.0
 11
42.4684
 21
55.5886
 31
0.0
  0
LINE
  8
0
 62
     0
 10
42.4684
 20
55.5886
 30
0.0
 11
41.6691
 21
55.5886
 31
0.0
  0
LINE
  8
0
 62
     0
 10
41.6691
 20
55.5886
 30
0.0
 11
41.6691
 21
61.3876
 31
0.0
  0
LINE
  8
0
 62
     0
 10
41.6691
 20
61.3876
 30
0.0
 11
42.4684
 21
61.3876
 31
0.0
  0
LINE
  8
0
 62
     0
 10
42.4684
 20
61.3876
 30
0.0
 11
42.4684
 21
64.4881
 31
0.0
  0
LINE
  8
0
 62
     0
 10
42.4684
 20
64.4881
 30
0.0
 11
41.6691
 21
64.4881
 31
0.0
  0
LINE
  8
0
 62
     0
 10
41.6691
 20
64.4881
 30
0.0
 11
41.6691
 21
65.4886
 31
0.0
  0
LINE
  8
0
 62
     0
 10
41.6691
 20
65.4886
 30
0.0
 11
27.6683
 21
65.4886
 31
0.0
  0
LINE
  8
0
 62
     0
 10
46.7184
 20
65.4886
 30
0.0
 11
46.7184
 21
64.4881
 31
0.0
  0
LINE
  8
0
 62
     0
 10
46.7184
 20
64.4881
 30
0.0
 11
45.919
 21
64.4881
 31
0.0
  0
LINE
  8
0
 62
     0
 10
45.919
 20
64.4881
 30
0.0
 11
45.919
 21
61.3876
 31
0.0
  0
LINE
  8
0
 62
     0
 10
45.919
 20
61.3876
 30
0.0
 11
46.7184
 21
61.3876
 31
0.0
  0
LINE
  8
0
 62
     0
 10
46.7184
 20
61.3876
 30
0.0
 11
46.7184
 21
55.5886
 31
0.0
  0
LINE
  8
0
 62
     0
 10
46.7184
 20
55.5886
 30
0.0
 11
45.919
 21
55.5886
 31
0.0
  0
LINE
  8
0
 62
     0
 10
45.919
 20
55.5886
 30
0.0
 11
45.919
 21
52.488
 31
0.0
  0
LINE
  8
0
 62
     0
 10
45.919
 20
52.488
 30
0.0
 11
46.7184
 21
52.488
 31
0.0
  0
LINE
  8
0
 62
     0
 10
46.7184
 20
52.488
 30
0.0
 11
46.7184
 21
51.4876
 31
0.0
  0
LINE
  8
0
 62
     0
 10
46.7184
 20
51.4876
 30
0.0
 11
60.7191
 21
51.4876
 31
0.0
  0
LINE
  8
0
 62
     0
 10
60.7191
 20
51.4876
 30
0.0
 11
60.7191
 21
52.488
 31
0.0
  0
LINE
  8
0
 62
     0
 10
60.7191
 20
52.488
 30
0.0
 11
61.5184
 21
52.488
 31
0.0
  0
LINE
  8
0
 62
     0
 10
61.5184
 20
52.488
 30
0.0
 11
61.5184
 21
55.5886
 31
0.0
  0
LINE
  8
0
 62
     0
 10
61.5184
 20
55.5886
 30
0.0
 11
60.7191
 21
55.5886
 31
0.0
  0
LINE
  8
0
 62
     0
 10
60.7191
 20
55.5886
 30
0.0
 11
60.7191
 21
61.3876
 31
0.0
  0
LINE
  8
0
 62
     0
 10
60.7191
 20
61.3876
 30
0.0
 11
61.5184
 21
61.3876
 31
0.0
  0
LINE
  8
0
 62
     0
 10
61.5184
 20
61.3876
 30
0.0
 11
61.5184
 21
64.4881
 31
0.0
  0
LINE
  8
0
 62
     0
 10
61.5184
 20
64.4881
 30
0.0
 11
60.7191
 21
64.4881
 31
0.0
  0
LINE
  8
0
 62
     0
 10
60.7191
 20
64.4881
 30
0.0
 11
60.7191
 21
65.4886
 31
0.0
  0
LINE
  8
0
 62
     0
 10
60.7191
 20
65.4886
 30
0.0
 11
46.7184
 21
65.4886
 31
0.0
  0
LINE
  8
0
 62
     0
 10
70.5309
 20
65.4886
 30
0.0
 11
70.5309
 21
64.4881
 31
0.0
  0
LINE
  8
0
 62
     0
 10
70.5309
 20
64.4881
 30
0.0
 11
69.7301
 21
64.4881
 31
0.0
  0
LINE
  8
0
 62
     0
 10
69.7301
 20
64.4881
 30
0.0
 11
69.7301
 21
61.3876
 31
0.0
  0
LINE
  8
0
 62
     0
 10
69.7301
 20
61.3876
 30
0.0
 11
70.5309
 21
61.3876
 31
0.0
  0
LINE
  8
0
 62
     0
 10
70.5309
 20
61.3876
 30
0.0
 11
70.5309
 21
55.5886
 31
0.0
  0
LINE
  8
0
 62
     0
 10
70.5309
 20
55.5886
 30
0.0
 11
69.7301
 21
55.5886
 31
0.0
  0
LINE
  8
0
 62
     0
 10
69.7301
 20
55.5886
 30
0.0
 11
69.7301
 21
52.488
 31
0.0
  0
LINE
  8
0
 62
     0
 10
69.7301
 20
52.488
 30
0.0
 11
70.5309
 21
52.488
 31
0.0
  0
LINE
  8
0
 62
     0
 10
70.5309
 20
52.488
 30
0.0
 11
70.5309
 21
51.4876
 31
0.0
  0
LINE
  8
0
 62
     0
 10
70.5309
 20
51.4876
 30
0.0
 11
84.5301
 21
51.4876
 31
0.0
  0
LINE
  8
0
 62
     0
 10
84.5301
 20
51.4876
 30
0.0
 11
84.5301
 21
52.488
 31
0.0
  0
LINE
  8
0
 62
     0
 10
84.5301
 20
52.488
 30
0.0
 11
85.3309
 21
52.488
 31
0.0
  0
LINE
  8
0
 62
     0
 10
85.3309
 20
52.488
 30
0.0
 11
85.3309
 21
55.5886
 31
0.0
  0
LINE
  8
0
 62
     0
 10
85.3309
 20
55.5886
 30
0.0
 11
84.5301
 21
55.5886
 31
0.0
  0
LINE
  8
0
 62
     0
 10
84.5301
 20
55.5886
 30
0.0
 11
84.5301
 21
61.3876
 31
0.0
  0
LINE
  8
0
 62
     0
 10
84.5301
 20
61.3876
 30
0.0
 11
85.3309
 21
61.3876
 31
0.0
  0
LINE
  8
0
 62
     0
 10
85.3309
 20
61.3876
 30
0.0
 11
85.3309
 21
64.4881
 31
0.0
  0
LINE
  8
0
 62
     0
 10
85.3309
 20
64.4881
 30
0.0
 11
84.5301
 21
64.4881
 31
0.0
  0
LINE
  8
0
 62
     0
 10
84.5301
 20
64.4881
 30
0.0
 11
84.5301
 21
65.4886
 31
0.0
  0
LINE
  8
0
 62
     0
 10
84.5301
 20
65.4886
 30
0.0
 11
70.5309
 21
65.4886
 31
0.0
  0
LINE
  8
0
 62
     0
 10
89.5809
 20
65.4886
 30
0.0
 11
89.5809
 21
64.4881
 31
0.0
  0
LINE
  8
0
 62
     0
 10
89.5809
 20
64.4881
 30
0.0
 11
88.7801
 21
64.4881
 31
0.0
  0
LINE
  8
0
 62
     0
 10
88.7801
 20
64.4881
 30
0.0
 11
88.7801
 21
61.3876
 31
0.0
  0
LINE
  8
0
 62
     0
 10
88.7801
 20
61.3876
 30
0.0
 11
89.5809
 21
61.3876
 31
0.0
  0
LINE
  8
0
 62
     0
 10
89.5809
 20
61.3876
 30
0.0
 11
89.5809
 21
55.5886
 31
0.0
  0
LINE
  8
0
 62
     0
 10
89.5809
 20
55.5886
 30
0.0
 11
88.7801
 21
55.5886
 31
0.0
  0
LINE
  8
0
 62
     0
 10
88.7801
 20
55.5886
 30
0.0
 11
88.7801
 21
52.488
 31
0.0
  0
LINE
  8
0
 62
     0
 10
88.7801
 20
52.488
 30
0.0
 11
89.5809
 21
52.488
 31
0.0
  0
LINE
  8
0
 62
     0
 10
89.5809
 20
52.488
 30
0.0
 11
89.5809
 21
51.4876
 31
0.0
  0
LINE
  8
0
 62
     0
 10
89.5809
 20
51.4876
 30
0.0
 11
103.58
 21
51.4876
 31
0.0
  0
LINE
  8
0
 62
     0
 10
103.58
 20
51.4876
 30
0.0
 11
103.58
 21
52.488
 31
0.0
  0
LINE
  8
0
 62
     0
 10
103.58
 20
52.488
 30
0.0
 11
104.381
 21
52.488
 31
0.0
  0
LINE
  8
0
 62
     0
 10
104.381
 20
52.488
 30
0.0
 11
104.381
 21
55.5886
 31
0.0
  0
LINE
  8
0
 62
     0
 10
104.381
 20
55.5886
 30
0.0
 11
103.58
 21
55.5886
 31
0.0
  0
LINE
  8
0
 62
     0
 10
103.58
 20
55.5886
 30
0.0
 11
103.58
 21
61.3876
 31
0.0
  0
LINE
  8
0
 62
     0
 10
103.58
 20
61.3876
 30
0.0
 11
104.381
 21
61.3876
 31
0.0
  0
LINE
  8
0
 62
     0
 10
104.381
 20
61.3876
 30
0.0
 11
104.381
 21
64.4881
 31
0.0
  0
LINE
  8
0
 62
     0
 10
104.381
 20
64.4881
 30
0.0
 11
103.58
 21
64.4881
 31
0.0
  0
LINE
  8
0
 62
     0
 10
103.58
 20
64.4881
 30
0.0
 11
103.58
 21
65.4886
 31
0.0
  0
LINE
  8
0
 62
     0
 10
103.58
 20
65.4886
 30
0.0
 11
89.5809
 21
65.4886
 31
0.0
  0
LINE
  8
0
 62
     0
 10
108.631
 20
65.4886
 30
0.0
 11
108.631
 21
64.4881
 31
0.0
  0
LINE
  8
0
 62
     0
 10
108.631
 20
64.4881
 30
0.0
 11
107.83
 21
64.4881
 31
0.0
  0
LINE
  8
0
 62
     0
 10
107.83
 20
64.4881
 30
0.0
 11
107.83
 21
61.3876
 31
0.0
  0
LINE
  8
0
 62
     0
 10
107.83
 20
61.3876
 30
0.0
 11
108.631
 21
61.3876
 31
0.0
  0
LINE
  8
0
 62
     0
 10
108.631
 20
61.3876
 30
0.0
 11
108.631
 21
55.5886
 31
0.0
  0
LINE
  8
0
 62
     0
 10
108.631
 20
55.5886
 30
0.0
 11
107.83
 21
55.5886
 31
0.0
  0
LINE
  8
0
 62
     0
 10
107.83
 20
55.5886
 30
0.0
 11
107.83
 21
52.488
 31
0.0
  0
LINE
  8
0
 62
     0
 10
107.83
 20
52.488
 30
0.0
 11
108.631
 21
52.488
 31
0.0
  0
LINE
  8
0
 62
     0
 10
108.631
 20
52.488
 30
0.0
 11
108.631
 21
51.4876
 31
0.0
  0
LINE
  8
0
 62
     0
 10
108.631
 20
51.4876
 30
0.0
 11
122.63
 21
51.4876
 31
0.0
  0
LINE
  8
0
 62
     0
 10
122.63
 20
51.4876
 30
0.0
 11
122.63
 21
52.488
 31
0.0
  0
LINE
  8
0
 62
     0
 10
122.63
 20
52.488
 30
0.0
 11
123.43
 21
52.488
 31
0.0
  0
LINE
  8
0
 62
     0
 10
123.43
 20
52.488
 30
0.0
 11
123.43
 21
55.5886
 31
0.0
  0
LINE
  8
0
 62
     0
 10
123.43
 20
55.5886
 30
0.0
 11
122.63
 21
55.5886
 31
0.0
  0
LINE
  8
0
 62
     0
 10
122.63
 20
55.5886
 30
0.0
 11
122.63
 21
61.3876
 31
0.0
  0
LINE
  8
0
 62
     0
 10
122.63
 20
61.3876
 30
0.0
 11
123.43
 21
61.3876
 31
0.0
  0
LINE
  8
0
 62
     0
 10
123.43
 20
61.3876
 30
0.0
 11
123.43
 21
64.4881
 31
0.0
  0
LINE
  8
0
 62
     0
 10
123.43
 20
64.4881
 30
0.0
 11
122.63
 21
64.4881
 31
0.0
  0
LINE
  8
0
 62
     0
 10
122.63
 20
64.4881
 30
0.0
 11
122.63
 21
65.4886
 31
0.0
  0
LINE
  8
0
 62
     0
 10
122.63
 20
65.4886
 30
0.0
 11
108.631
 21
65.4886
 31
0.0
  0
LINE
  8
0
 62
     0
 10
127.681
 20
65.4886
 30
0.0
 11
127.681
 21
64.4881
 31
0.0
  0
LINE
  8
0
 62
     0
 10
127.681
 20
64.4881
 30
0.0
 11
126.88
 21
64.4881
 31
0.0
  0
LINE
  8
0
 62
     0
 10
126.88
 20
64.4881
 30
0.0
 11
126.88
 21
61.3876
 31
0.0
  0
LINE
  8
0
 62
     0
 10
126.88
 20
61.3876
 30
0.0
 11
127.681
 21
61.3876
 31
0.0
  0
LINE
  8
0
 62
     0
 10
127.681
 20
61.3876
 30
0.0
 11
127.681
 21
55.5886
 31
0.0
  0
LINE
  8
0
 62
     0
 10
127.681
 20
55.5886
 30
0.0
 11
126.88
 21
55.5886
 31
0.0
  0
LINE
  8
0
 62
     0
 10
126.88
 20
55.5886
 30
0.0
 11
126.88
 21
52.488
 31
0.0
  0
LINE
  8
0
 62
     0
 10
126.88
 20
52.488
 30
0.0
 11
127.681
 21
52.488
 31
0.0
  0
LINE
  8
0
 62
     0
 10
127.681
 20
52.488
 30
0.0
 11
127.681
 21
51.4876
 31
0.0
  0
LINE
  8
0
 62
     0
 10
127.681
 20
51.4876
 30
0.0
 11
141.68
 21
51.4876
 31
0.0
  0
LINE
  8
0
 62
     0
 10
141.68
 20
51.4876
 30
0.0
 11
141.68
 21
52.488
 31
0.0
  0
LINE
  8
0
 62
     0
 10
141.68
 20
52.488
 30
0.0
 11
142.481
 21
52.488
 31
0.0
  0
LINE
  8
0
 62
     0
 10
142.481
 20
52.488
 30
0.0
 11
142.481
 21
55.5886
 31
0.0
  0
LINE
  8
0
 62
     0
 10
142.481
 20
55.5886
 30
0.0
 11
141.68
 21
55.5886
 31
0.0
  0
LINE
  8
0
 62
     0
 10
141.68
 20
55.5886
 30
0.0
 11
141.68
 21
61.3876
 31
0.0
  0
LINE
  8
0
 62
     0
 10
141.68
 20
61.3876
 30
0.0
 11
142.481
 21
61.3876
 31
0.0
  0
LINE
  8
0
 62
     0
 10
142.481
 20
61.3876
 30
0.0
 11
142.481
 21
64.4881
 31
0.0
  0
LINE
  8
0
 62
     0
 10
142.481
 20
64.4881
 30
0.0
 11
141.68
 21
64.4881
 31
0.0
  0
LINE
  8
0
 62
     0
 10
141.68
 20
64.4881
 30
0.0
 11
141.68
 21
65.4886
 31
0.0
  0
LINE
  8
0
 62
     0
 10
141.68
 20
65.4886
 30
0.0
 11
127.681
 21
65.4886
 31
0.0
  0
LINE
  8
0
 62
     0
 10
146.731
 20
65.4886
 30
0.0
 11
146.731
 21
64.4881
 31
0.0
  0
LINE
  8
0
 62
     0
 10
146.731
 20
64.4881
 30
0.0
 11
145.93
 21
64.4881
 31
0.0
  0
LINE
  8
0
 62
     0
 10
145.93
 20
64.4881
 30
0.0
 11
145.93
 21
61.3876
 31
0.0
  0
LINE
  8
0
 62
     0
 10
145.93
 20
61.3876
 30
0.0
 11
146.731
 21
61.3876
 31
0.0
  0
LINE
  8
0
 62
     0
 10
146.731
 20
61.3876
 30
0.0
 11
146.731
 21
55.5886
 31
0.0
  0
LINE
  8
0
 62
     0
 10
146.731
 20
55.5886
 30
0.0
 11
145.93
 21
55.5886
 31
0.0
  0
LINE
  8
0
 62
     0
 10
145.93
 20
55.5886
 30
0.0
 11
145.93
 21
52.488
 31
0.0
  0
LINE
  8
0
 62
     0
 10
145.93
 20
52.488
 30
0.0
 11
146.731
 21
52.488
 31
0.0
  0
LINE
  8
0
 62
     0
 10
146.731
 20
52.488
 30
0.0
 11
146.731
 21
51.4876
 31
0.0
  0
LINE
  8
0
 62
     0
 10
146.731
 20
51.4876
 30
0.0
 11
160.73
 21
51.4876
 31
0.0
  0
LINE
  8
0
 62
     0
 10
160.73
 20
51.4876
 30
0.0
 11
160.73
 21
52.488
 31
0.0
  0
LINE
  8
0
 62
     0
 10
160.73
 20
52.488
 30
0.0
 11
161.531
 21
52.488
 31
0.0
  0
LINE
  8
0
 62
     0
 10
161.531
 20
52.488
 30
0.0
 11
161.531
 21
55.5886
 31
0.0
  0
LINE
  8
0
 62
     0
 10
161.531
 20
55.5886
 30
0.0
 11
160.73
 21
55.5886
 31
0.0
  0
LINE
  8
0
 62
     0
 10
160.73
 20
55.5886
 30
0.0
 11
160.73
 21
61.3876
 31
0.0
  0
LINE
  8
0
 62
     0
 10
160.73
 20
61.3876
 30
0.0
 11
161.531
 21
61.3876
 31
0.0
  0
LINE
  8
0
 62
     0
 10
161.531
 20
61.3876
 30
0.0
 11
161.531
 21
64.4881
 31
0.0
  0
LINE
  8
0
 62
     0
 10
161.531
 20
64.4881
 30
0.0
 11
160.73
 21
64.4881
 31
0.0
  0
LINE
  8
0
 62
     0
 10
160.73
 20
64.4881
 30
0.0
 11
160.73
 21
65.4886
 31
0.0
  0
LINE
  8
0
 62
     0
 10
160.73
 20
65.4886
 30
0.0
 11
146.731
 21
65.4886
 31
0.0
  0
LINE
  8
0
 62
     0
 10
165.781
 20
65.4886
 30
0.0
 11
165.781
 21
64.4881
 31
0.0
  0
LINE
  8
0
 62
     0
 10
165.781
 20
64.4881
 30
0.0
 11
164.98
 21
64.4881
 31
0.0
  0
LINE
  8
0
 62
     0
 10
164.98
 20
64.4881
 30
0.0
 11
164.98
 21
61.3876
 31
0.0
  0
LINE
  8
0
 62
     0
 10
164.98
 20
61.3876
 30
0.0
 11
165.781
 21
61.3876
 31
0.0
  0
LINE
  8
0
 62
     0
 10
165.781
 20
61.3876
 30
0.0
 11
165.781
 21
55.5886
 31
0.0
  0
LINE
  8
0
 62
     0
 10
165.781
 20
55.5886
 30
0.0
 11
164.98
 21
55.5886
 31
0.0
  0
LINE
  8
0
 62
     0
 10
164.98
 20
55.5886
 30
0.0
 11
164.98
 21
52.488
 31
0.0
  0
LINE
  8
0
 62
     0
 10
164.98
 20
52.488
 30
0.0
 11
165.781
 21
52.488
 31
0.0
  0
LINE
  8
0
 62
     0
 10
165.781
 20
52.488
 30
0.0
 11
165.781
 21
51.4876
 31
0.0
  0
LINE
  8
0
 62
     0
 10
165.781
 20
51.4876
 30
0.0
 11
179.78
 21
51.4876
 31
0.0
  0
LINE
  8
0
 62
     0
 10
179.78
 20
51.4876
 30
0.0
 11
179.78
 21
52.488
 31
0.0
  0
LINE
  8
0
 62
     0
 10
179.78
 20
52.488
 30
0.0
 11
180.581
 21
52.488
 31
0.0
  0
LINE
  8
0
 62
     0
 10
180.581
 20
52.488
 30
0.0
 11
180.581
 21
55.5886
 31
0.0
  0
LINE
  8
0
 62
     0
 10
180.581
 20
55.5886
 30
0.0
 11
179.78
 21
55.5886
 31
0.0
  0
LINE
  8
0
 62
     0
 10
179.78
 20
55.5886
 30
0.0
 11
179.78
 21
61.3876
 31
0.0
  0
LINE
  8
0
 62
     0
 10
179.78
 20
61.3876
 30
0.0
 11
180.581
 21
61.3876
 31
0.0
  0
LINE
  8
0
 62
     0
 10
180.581
 20
61.3876
 30
0.0
 11
180.581
 21
64.4881
 31
0.0
  0
LINE
  8
0
 62
     0
 10
180.581
 20
64.4881
 30
0.0
 11
179.78
 21
64.4881
 31
0.0
  0
LINE
  8
0
 62
     0
 10
179.78
 20
64.4881
 30
0.0
 11
179.78
 21
65.4886
 31
0.0
  0
LINE
  8
0
 62
     0
 10
179.78
 20
65.4886
 30
0.0
 11
165.781
 21
65.4886
 31
0.0
  0
LINE
  8
0
 62
     0
 10
184.831
 20
65.4886
 30
0.0
 11
184.831
 21
64.4881
 31
0.0
  0
LINE
  8
0
 62
     0
 10
184.831
 20
64.4881
 30
0.0
 11
184.03
 21
64.4881
 31
0.0
  0
LINE
  8
0
 62
     0
 10
184.03
 20
64.4881
 30
0.0
 11
184.03
 21
61.3876
 31
0.0
  0
LINE
  8
0
 62
     0
 10
184.03
 20
61.3876
 30
0.0
 11
184.831
 21
61.3876
 31
0.0
  0
LINE
  8
0
 62
     0
 10
184.831
 20
61.3876
 30
0.0
 11
184.831
 21
55.5886
 31
0.0
  0
LINE
  8
0
 62
     0
 10
184.831
 20
55.5886
 30
0.0
 11
184.03
 21
55.5886
 31
0.0
  0
LINE
  8
0
 62
     0
 10
184.03
 20
55.5886
 30
0.0
 11
184.03
 21
52.488
 31
0.0
  0
LINE
  8
0
 62
     0
 10
184.03
 20
52.488
 30
0.0
 11
184.831
 21
52.488
 31
0.0
  0
LINE
  8
0
 62
     0
 10
184.831
 20
52.488
 30
0.0
 11
184.831
 21
51.4876
 31
0.0
  0
LINE
  8
0
 62
     0
 10
184.831
 20
51.4876
 30
0.0
 11
198.83
 21
51.4876
 31
0.0
  0
LINE
  8
0
 62
     0
 10
198.83
 20
51.4876
 30
0.0
 11
198.83
 21
52.488
 31
0.0
  0
LINE
  8
0
 62
     0
 10
198.83
 20
52.488
 30
0.0
 11
199.631
 21
52.488
 31
0.0
  0
LINE
  8
0
 62
     0
 10
199.631
 20
52.488
 30
0.0
 11
199.631
 21
55.5886
 31
0.0
  0
LINE
  8
0
 62
     0
 10
199.631
 20
55.5886
 30
0.0
 11
198.83
 21
55.5886
 31
0.0
  0
LINE
  8
0
 62
     0
 10
198.83
 20
55.5886
 30
0.0
 11
198.83
 21
61.3876
 31
0.0
  0
LINE
  8
0
 62
     0
 10
198.83
 20
61.3876
 30
0.0
 11
199.631
 21
61.3876
 31
0.0
  0
LINE
  8
0
 62
     0
 10
199.631
 20
61.3876
 30
0.0
 11
199.631
 21
64.4881
 31
0.0
  0
LINE
  8
0
 62
     0
 10
199.631
 20
64.4881
 30
0.0
 11
198.83
 21
64.4881
 31
0.0
  0
LINE
  8
0
 62
     0
 10
198.83
 20
64.4881
 30
0.0
 11
198.83
 21
65.4886
 31
0.0
  0
LINE
  8
0
 62
     0
 10
198.83
 20
65.4886
 30
0.0
 11
184.831
 21
65.4886
 31
0.0
  0
LINE
  8
0
 62
     0
 10
203.881
 20
65.4886
 30
0.0
 11
203.881
 21
64.4881
 31
0.0
  0
LINE
  8
0
 62
     0
 10
203.881
 20
64.4881
 30
0.0
 11
203.08
 21
64.4881
 31
0.0
  0
LINE
  8
0
 62
     0
 10
203.08
 20
64.4881
 30
0.0
 11
203.08
 21
61.3876
 31
0.0
  0
LINE
  8
0
 62
     0
 10
203.08
 20
61.3876
 30
0.0
 11
203.881
 21
61.3876
 31
0.0
  0
LINE
  8
0
 62
     0
 10
203.881
 20
61.3876
 30
0.0
 11
203.881
 21
55.5886
 31
0.0
  0
LINE
  8
0
 62
     0
 10
203.881
 20
55.5886
 30
0.0
 11
203.08
 21
55.5886
 31
0.0
  0
LINE
  8
0
 62
     0
 10
203.08
 20
55.5886
 30
0.0
 11
203.08
 21
52.488
 31
0.0
  0
LINE
  8
0
 62
     0
 10
203.08
 20
52.488
 30
0.0
 11
203.881
 21
52.488
 31
0.0
  0
LINE
  8
0
 62
     0
 10
203.881
 20
52.488
 30
0.0
 11
203.881
 21
51.4876
 31
0.0
  0
LINE
  8
0
 62
     0
 10
203.881
 20
51.4876
 30
0.0
 11
217.88
 21
51.4876
 31
0.0
  0
LINE
  8
0
 62
     0
 10
217.88
 20
51.4876
 30
0.0
 11
217.88
 21
52.488
 31
0.0
  0
LINE
  8
0
 62
     0
 10
217.88
 20
52.488
 30
0.0
 11
218.681
 21
52.488
 31
0.0
  0
LINE
  8
0
 62
     0
 10
218.681
 20
52.488
 30
0.0
 11
218.681
 21
55.5886
 31
0.0
  0
LINE
  8
0
 62
     0
 10
218.681
 20
55.5886
 30
0.0
 11
217.88
 21
55.5886
 31
0.0
  0
LINE
  8
0
 62
     0
 10
217.88
 20
55.5886
 30
0.0
 11
217.88
 21
61.3876
 31
0.0
  0
LINE
  8
0
 62
     0
 10
217.88
 20
61.3876
 30
0.0
 11
218.681
 21
61.3876
 31
0.0
  0
LINE
  8
0
 62
     0
 10
218.681
 20
61.3876
 30
0.0
 11
218.681
 21
64.4881
 31
0.0
  0
LINE
  8
0
 62
     0
 10
218.681
 20
64.4881
 30
0.0
 11
217.88
 21
64.4881
 31
0.0
  0
LINE
  8
0
 62
     0
 10
217.88
 20
64.4881
 30
0.0
 11
217.88
 21
65.4886
 31
0.0
  0
LINE
  8
0
 62
     0
 10
217.88
 20
65.4886
 30
0.0
 11
203.881
 21
65.4886
 31
0.0
  0
LINE
  8
0
 62
     0
 10
222.931
 20
65.4886
 30
0.0
 11
222.931
 21
64.4881
 31
0.0
  0
LINE
  8
0
 62
     0
 10
222.931
 20
64.4881
 30
0.0
 11
222.13
 21
64.4881
 31
0.0
  0
LINE
  8
0
 62
     0
 10
222.13
 20
64.4881
 30
0.0
 11
222.13
 21
61.3876
 31
0.0
  0
LINE
  8
0
 62
     0
 10
222.13
 20
61.3876
 30
0.0
 11
222.931
 21
61.3876
 31
0.0
  0
LINE
  8
0
 62
     0
 10
222.931
 20
61.3876
 30
0.0
 11
222.931
 21
55.5886
 31
0.0
  0
LINE
  8
0
 62
     0
 10
222.931
 20
55.5886
 30
0.0
 11
222.13
 21
55.5886
 31
0.0
  0
LINE
  8
0
 62
     0
 10
222.13
 20
55.5886
 30
0.0
 11
222.13
 21
52.488
 31
0.0
  0
LINE
  8
0
 62
     0
 10
222.13
 20
52.488
 30
0.0
 11
222.931
 21
52.488
 31
0.0
  0
LINE
  8
0
 62
     0
 10
222.931
 20
52.488
 30
0.0
 11
222.931
 21
51.4876
 31
0.0
  0
LINE
  8
0
 62
     0
 10
222.931
 20
51.4876
 30
0.0
 11
236.93
 21
51.4876
 31
0.0
  0
LINE
  8
0
 62
     0
 10
236.93
 20
51.4876
 30
0.0
 11
236.93
 21
52.488
 31
0.0
  0
LINE
  8
0
 62
     0
 10
236.93
 20
52.488
 30
0.0
 11
237.731
 21
52.488
 31
0.0
  0
LINE
  8
0
 62
     0
 10
237.731
 20
52.488
 30
0.0
 11
237.731
 21
55.5886
 31
0.0
  0
LINE
  8
0
 62
     0
 10
237.731
 20
55.5886
 30
0.0
 11
236.93
 21
55.5886
 31
0.0
  0
LINE
  8
0
 62
     0
 10
236.93
 20
55.5886
 30
0.0
 11
236.93
 21
61.3876
 31
0.0
  0
LINE
  8
0
 62
     0
 10
236.93
 20
61.3876
 30
0.0
 11
237.731
 21
61.3876
 31
0.0
  0
LINE
  8
0
 62
     0
 10
237.731
 20
61.3876
 30
0.0
 11
237.731
 21
64.4881
 31
0.0
  0
LINE
  8
0
 62
     0
 10
237.731
 20
64.4881
 30
0.0
 11
236.93
 21
64.4881
 31
0.0
  0
LINE
  8
0
 62
     0
 10
236.93
 20
64.4881
 30
0.0
 11
236.93
 21
65.4886
 31
0.0
  0
LINE
  8
0
 62
     0
 10
236.93
 20
65.4886
 30
0.0
 11
222.931
 21
65.4886
 31
0.0
  0
LINE
  8
0
 62
     0
 10
241.981
 20
65.4886
 30
0.0
 11
241.981
 21
64.4881
 31
0.0
  0
LINE
  8
0
 62
     0
 10
241.981
 20
64.4881
 30
0.0
 11
241.18
 21
64.4881
 31
0.0
  0
LINE
  8
0
 62
     0
 10
241.18
 20
64.4881
 30
0.0
 11
241.18
 21
61.3876
 31
0.0
  0
LINE
  8
0
 62
     0
 10
241.18
 20
61.3876
 30
0.0
 11
241.981
 21
61.3876
 31
0.0
  0
LINE
  8
0
 62
     0
 10
241.981
 20
61.3876
 30
0.0
 11
241.981
 21
55.5886
 31
0.0
  0
LINE
  8
0
 62
     0
 10
241.981
 20
55.5886
 30
0.0
 11
241.18
 21
55.5886
 31
0.0
  0
LINE
  8
0
 62
     0
 10
241.18
 20
55.5886
 30
0.0
 11
241.18
 21
52.488
 31
0.0
  0
LINE
  8
0
 62
     0
 10
241.18
 20
52.488
 30
0.0
 11
241.981
 21
52.488
 31
0.0
  0
LINE
  8
0
 62
     0
 10
241.981
 20
52.488
 30
0.0
 11
241.981
 21
51.4876
 31
0.0
  0
LINE
  8
0
 62
     0
 10
241.981
 20
51.4876
 30
0.0
 11
255.98
 21
51.4876
 31
0.0
  0
LINE
  8
0
 62
     0
 10
255.98
 20
51.4876
 30
0.0
 11
255.98
 21
52.488
 31
0.0
  0
LINE
  8
0
 62
     0
 10
255.98
 20
52.488
 30
0.0
 11
256.781
 21
52.488
 31
0.0
  0
LINE
  8
0
 62
     0
 10
256.781
 20
52.488
 30
0.0
 11
256.781
 21
55.5886
 31
0.0
  0
LINE
  8
0
 62
     0
 10
256.781
 20
55.5886
 30
0.0
 11
255.98
 21
55.5886
 31
0.0
  0
LINE
  8
0
 62
     0
 10
255.98
 20
55.5886
 30
0.0
 11
255.98
 21
61.3876
 31
0.0
  0
LINE
  8
0
 62
     0
 10
255.98
 20
61.3876
 30
0.0
 11
256.781
 21
61.3876
 31
0.0
  0
LINE
  8
0
 62
     0
 10
256.781
 20
61.3876
 30
0.0
 11
256.781
 21
64.4881
 31
0.0
  0
LINE
  8
0
 62
     0
 10
256.781
 20
64.4881
 30
0.0
 11
255.98
 21
64.4881
 31
0.0
  0
LINE
  8
0
 62
     0
 10
255.98
 20
64.4881
 30
0.0
 11
255.98
 21
65.4886
 31
0.0
  0
LINE
  8
0
 62
     0
 10
255.98
 20
65.4886
 30
0.0
 11
241.981
 21
65.4886
 31
0.0
  0
LINE
  8
0
 62
     0
 10
261.031
 20
65.4886
 30
0.0
 11
261.031
 21
64.4881
 31
0.0
  0
LINE
  8
0
 62
     0
 10
261.031
 20
64.4881
 30
0.0
 11
260.23
 21
64.4881
 31
0.0
  0
LINE
  8
0
 62
     0
 10
260.23
 20
64.4881
 30
0.0
 11
260.23
 21
61.3876
 31
0.0
  0
LINE
  8
0
 62
     0
 10
260.23
 20
61.3876
 30
0.0
 11
261.031
 21
61.3876
 31
0.0
  0
LINE
  8
0
 62
     0
 10
261.031
 20
61.3876
 30
0.0
 11
261.031
 21
55.5886
 31
0.0
  0
LINE
  8
0
 62
     0
 10
261.031
 20
55.5886
 30
0.0
 11
260.23
 21
55.5886
 31
0.0
  0
LINE
  8
0
 62
     0
 10
260.23
 20
55.5886
 30
0.0
 11
260.23
 21
52.488
 31
0.0
  0
LINE
  8
0
 62
     0
 10
260.23
 20
52.488
 30
0.0
 11
261.031
 21
52.488
 31
0.0
  0
LINE
  8
0
 62
     0
 10
261.031
 20
52.488
 30
0.0
 11
261.031
 21
51.4876
 31
0.0
  0
LINE
  8
0
 62
     0
 10
261.031
 20
51.4876
 30
0.0
 11
275.03
 21
51.4876
 31
0.0
  0
LINE
  8
0
 62
     0
 10
275.03
 20
51.4876
 30
0.0
 11
275.03
 21
52.488
 31
0.0
  0
LINE
  8
0
 62
     0
 10
275.03
 20
52.488
 30
0.0
 11
275.831
 21
52.488
 31
0.0
  0
LINE
  8
0
 62
     0
 10
275.831
 20
52.488
 30
0.0
 11
275.831
 21
55.5886
 31
0.0
  0
LINE
  8
0
 62
     0
 10
275.831
 20
55.5886
 30
0.0
 11
275.03
 21
55.5886
 31
0.0
  0
LINE
  8
0
 62
     0
 10
275.03
 20
55.5886
 30
0.0
 11
275.03
 21
61.3876
 31
0.0
  0
LINE
  8
0
 62
     0
 10
275.03
 20
61.3876
 30
0.0
 11
275.831
 21
61.3876
 31
0.0
  0
LINE
  8
0
 62
     0
 10
275.831
 20
61.3876
 30
0.0
 11
275.831
 21
64.4881
 31
0.0
  0
LINE
  8
0
 62
     0
 10
275.831
 20
64.4881
 30
0.0
 11
275.03
 21
64.4881
 31
0.0
  0
LINE
  8
0
 62
     0
 10
275.03
 20
64.4881
 30
0.0
 11
275.03
 21
65.4886
 31
0.0
  0
LINE
  8
0
 62
     0
 10
275.03
 20
65.4886
 30
0.0
 11
261.031
 21
65.4886
 31
0.0
  0
LINE
  8
0
 62
     0
 10
280.081
 20
65.4886
 30
0.0
 11
280.081
 21
64.4881
 31
0.0
  0
LINE
  8
0
 62
     0
 10
280.081
 20
64.4881
 30
0.0
 11
279.28
 21
64.4881
 31
0.0
  0
LINE
  8
0
 62
     0
 10
279.28
 20
64.4881
 30
0.0
 11
279.28
 21
61.3876
 31
0.0
  0
LINE
  8
0
 62
     0
 10
279.28
 20
61.3876
 30
0.0
 11
280.081
 21
61.3876
 31
0.0
  0
LINE
  8
0
 62
     0
 10
280.081
 20
61.3876
 30
0.0
 11
280.081
 21
55.5886
 31
0.0
  0
LINE
  8
0
 62
     0
 10
280.081
 20
55.5886
 30
0.0
 11
279.28
 21
55.5886
 31
0.0
  0
LINE
  8
0
 62
     0
 10
279.28
 20
55.5886
 30
0.0
 11
279.28
 21
52.488
 31
0.0
  0
LINE
  8
0
 62
     0
 10
279.28
 20
52.488
 30
0.0
 11
280.081
 21
52.488
 31
0.0
  0
LINE
  8
0
 62
     0
 10
280.081
 20
52.488
 30
0.0
 11
280.081
 21
51.4876
 31
0.0
  0
LINE
  8
0
 62
     0
 10
280.081
 20
51.4876
 30
0.0
 11
294.08
 21
51.4876
 31
0.0
  0
LINE
  8
0
 62
     0
 10
294.08
 20
51.4876
 30
0.0
 11
294.08
 21
52.488
 31
0.0
  0
LINE
  8
0
 62
     0
 10
294.08
 20
52.488
 30
0.0
 11
294.881
 21
52.488
 31
0.0
  0
LINE
  8
0
 62
     0
 10
294.881
 20
52.488
 30
0.0
 11
294.881
 21
55.5886
 31
0.0
  0
LINE
  8
0
 62
     0
 10
294.881
 20
55.5886
 30
0.0
 11
294.08
 21
55.5886
 31
0.0
  0
LINE
  8
0
 62
     0
 10
294.08
 20
55.5886
 30
0.0
 11
294.08
 21
61.3876
 31
0.0
  0
LINE
  8
0
 62
     0
 10
294.08
 20
61.3876
 30
0.0
 11
294.881
 21
61.3876
 31
0.0
  0
LINE
  8
0
 62
     0
 10
294.881
 20
61.3876
 30
0.0
 11
294.881
 21
64.4881
 31
0.0
  0
LINE
  8
0
 62
     0
 10
294.881
 20
64.4881
 30
0.0
 11
294.08
 21
64.4881
 31
0.0
  0
LINE
  8
0
 62
     0
 10
294.08
 20
64.4881
 30
0.0
 11
294.08
 21
65.4886
 31
0.0
  0
LINE
  8
0
 62
     0
 10
294.08
 20
65.4886
 30
0.0
 11
280.081
 21
65.4886
 31
0.0
  0
LINE
  8
0
 62
     0
 10
303.893
 20
65.4886
 30
0.0
 11
303.893
 21
64.4881
 31
0.0
  0
LINE
  8
0
 62
     0
 10
303.893
 20
64.4881
 30
0.0
 11
303.094
 21
64.4881
 31
0.0
  0
LINE
  8
0
 62
     0
 10
303.094
 20
64.4881
 30
0.0
 11
303.094
 21
61.3876
 31
0.0
  0
LINE
  8
0
 62
     0
 10
303.094
 20
61.3876
 30
0.0
 11
303.893
 21
61.3876
 31
0.0
  0
LINE
  8
0
 62
     0
 10
303.893
 20
61.3876
 30
0.0
 11
303.893
 21
55.5886
 31
0.0
  0
LINE
  8
0
 62
     0
 10
303.893
 20
55.5886
 30
0.0
 11
303.094
 21
55.5886
 31
0.0
  0
LINE
  8
0
 62
     0
 10
303.094
 20
55.5886
 30
0.0
 11
303.094
 21
52.488
 31
0.0
  0
LINE
  8
0
 62
     0
 10
303.094
 20
52.488
 30
0.0
 11
303.893
 21
52.488
 31
0.0
  0
LINE
  8
0
 62
     0
 10
303.893
 20
52.488
 30
0.0
 11
303.893
 21
51.4876
 31
0.0
  0
LINE
  8
0
 62
     0
 10
303.893
 20
51.4876
 30
0.0
 11
317.894
 21
51.4876
 31
0.0
  0
LINE
  8
0
 62
     0
 10
317.894
 20
51.4876
 30
0.0
 11
317.894
 21
52.488
 31
0.0
  0
LINE
  8
0
 62
     0
 10
317.894
 20
52.488
 30
0.0
 11
318.693
 21
52.488
 31
0.0
  0
LINE
  8
0
 62
     0
 10
318.693
 20
52.488
 30
0.0
 11
318.693
 21
55.5886
 31
0.0
  0
LINE
  8
0
 62
     0
 10
318.693
 20
55.5886
 30
0.0
 11
317.894
 21
55.5886
 31
0.0
  0
LINE
  8
0
 62
     0
 10
317.894
 20
55.5886
 30
0.0
 11
317.894
 21
61.3876
 31
0.0
  0
LINE
  8
0
 62
     0
 10
317.894
 20
61.3876
 30
0.0
 11
318.693
 21
61.3876
 31
0.0
  0
LINE
  8
0
 62
     0
 10
318.693
 20
61.3876
 30
0.0
 11
318.693
 21
64.4881
 31
0.0
  0
LINE
  8
0
 62
     0
 10
318.693
 20
64.4881
 30
0.0
 11
317.894
 21
64.4881
 31
0.0
  0
LINE
  8
0
 62
     0
 10
317.894
 20
64.4881
 30
0.0
 11
317.894
 21
65.4886
 31
0.0
  0
LINE
  8
0
 62
     0
 10
317.894
 20
65.4886
 30
0.0
 11
303.893
 21
65.4886
 31
0.0
  0
LINE
  8
0
 62
     0
 10
322.943
 20
65.4886
 30
0.0
 11
322.943
 21
64.4881
 31
0.0
  0
LINE
  8
0
 62
     0
 10
322.943
 20
64.4881
 30
0.0
 11
322.144
 21
64.4881
 31
0.0
  0
LINE
  8
0
 62
     0
 10
322.144
 20
64.4881
 30
0.0
 11
322.144
 21
61.3876
 31
0.0
  0
LINE
  8
0
 62
     0
 10
322.144
 20
61.3876
 30
0.0
 11
322.943
 21
61.3876
 31
0.0
  0
LINE
  8
0
 62
     0
 10
322.943
 20
61.3876
 30
0.0
 11
322.943
 21
55.5886
 31
0.0
  0
LINE
  8
0
 62
     0
 10
322.943
 20
55.5886
 30
0.0
 11
322.144
 21
55.5886
 31
0.0
  0
LINE
  8
0
 62
     0
 10
322.144
 20
55.5886
 30
0.0
 11
322.144
 21
52.488
 31
0.0
  0
LINE
  8
0
 62
     0
 10
322.144
 20
52.488
 30
0.0
 11
322.943
 21
52.488
 31
0.0
  0
LINE
  8
0
 62
     0
 10
322.943
 20
52.488
 30
0.0
 11
322.943
 21
51.4876
 31
0.0
  0
LINE
  8
0
 62
     0
 10
322.943
 20
51.4876
 30
0.0
 11
336.944
 21
51.4876
 31
0.0
  0
LINE
  8
0
 62
     0
 10
336.944
 20
51.4876
 30
0.0
 11
336.944
 21
52.488
 31
0.0
  0
LINE
  8
0
 62
     0
 10
336.944
 20
52.488
 30
0.0
 11
337.743
 21
52.488
 31
0.0
  0
LINE
  8
0
 62
     0
 10
337.743
 20
52.488
 30
0.0
 11
337.743
 21
55.5886
 31
0.0
  0
LINE
  8
0
 62
     0
 10
337.743
 20
55.5886
 30
0.0
 11
336.944
 21
55.5886
 31
0.0
  0
LINE
  8
0
 62
     0
 10
336.944
 20
55.5886
 30
0.0
 11
336.944
 21
61.3876
 31
0.0
  0
LINE
  8
0
 62
     0
 10
336.944
 20
61.3876
 30
0.0
 11
337.743
 21
61.3876
 31
0.0
  0
LINE
  8
0
 62
     0
 10
337.743
 20
61.3876
 30
0.0
 11
337.743
 21
64.4881
 31
0.0
  0
LINE
  8
0
 62
     0
 10
337.743
 20
64.4881
 30
0.0
 11
336.944
 21
64.4881
 31
0.0
  0
LINE
  8
0
 62
     0
 10
336.944
 20
64.4881
 30
0.0
 11
336.944
 21
65.4886
 31
0.0
  0
LINE
  8
0
 62
     0
 10
336.944
 20
65.4886
 30
0.0
 11
322.943
 21
65.4886
 31
0.0
  0
LINE
  8
0
 62
     0
 10
8.61826
 20
84.5386
 30
0.0
 11
8.61826
 21
83.5395
 31
0.0
  0
LINE
  8
0
 62
     0
 10
8.61826
 20
83.5395
 30
0.0
 11
7.81763
 21
83.5395
 31
0.0
  0
LINE
  8
0
 62
     0
 10
7.81763
 20
83.5395
 30
0.0
 11
7.81763
 21
80.4376
 31
0.0
  0
LINE
  8
0
 62
     0
 10
7.81763
 20
80.4376
 30
0.0
 11
8.61826
 21
80.4376
 31
0.0
  0
LINE
  8
0
 62
     0
 10
8.61826
 20
80.4376
 30
0.0
 11
8.61826
 21
74.6386
 31
0.0
  0
LINE
  8
0
 62
     0
 10
8.61826
 20
74.6386
 30
0.0
 11
7.81763
 21
74.6386
 31
0.0
  0
LINE
  8
0
 62
     0
 10
7.81763
 20
74.6386
 30
0.0
 11
7.81763
 21
71.538
 31
0.0
  0
LINE
  8
0
 62
     0
 10
7.81763
 20
71.538
 30
0.0
 11
8.61826
 21
71.538
 31
0.0
  0
LINE
  8
0
 62
     0
 10
8.61826
 20
71.538
 30
0.0
 11
8.61826
 21
70.5376
 31
0.0
  0
LINE
  8
0
 62
     0
 10
8.61826
 20
70.5376
 30
0.0
 11
22.6191
 21
70.5376
 31
0.0
  0
LINE
  8
0
 62
     0
 10
22.6191
 20
70.5376
 30
0.0
 11
22.6191
 21
71.538
 31
0.0
  0
LINE
  8
0
 62
     0
 10
22.6191
 20
71.538
 30
0.0
 11
23.4184
 21
71.538
 31
0.0
  0
LINE
  8
0
 62
     0
 10
23.4184
 20
71.538
 30
0.0
 11
23.4184
 21
74.6386
 31
0.0
  0
LINE
  8
0
 62
     0
 10
23.4184
 20
74.6386
 30
0.0
 11
22.6191
 21
74.6386
 31
0.0
  0
LINE
  8
0
 62
     0
 10
22.6191
 20
74.6386
 30
0.0
 11
22.6191
 21
80.4376
 31
0.0
  0
LINE
  8
0
 62
     0
 10
22.6191
 20
80.4376
 30
0.0
 11
23.4184
 21
80.4376
 31
0.0
  0
LINE
  8
0
 62
     0
 10
23.4184
 20
80.4376
 30
0.0
 11
23.4184
 21
83.5395
 31
0.0
  0
LINE
  8
0
 62
     0
 10
23.4184
 20
83.5395
 30
0.0
 11
22.6191
 21
83.5395
 31
0.0
  0
LINE
  8
0
 62
     0
 10
22.6191
 20
83.5395
 30
0.0
 11
22.6191
 21
84.5386
 31
0.0
  0
LINE
  8
0
 62
     0
 10
22.6191
 20
84.5386
 30
0.0
 11
8.61826
 21
84.5386
 31
0.0
  0
LINE
  8
0
 62
     0
 10
27.6683
 20
84.5386
 30
0.0
 11
27.6683
 21
83.5395
 31
0.0
  0
LINE
  8
0
 62
     0
 10
27.6683
 20
83.5395
 30
0.0
 11
26.869
 21
83.5395
 31
0.0
  0
LINE
  8
0
 62
     0
 10
26.869
 20
83.5395
 30
0.0
 11
26.869
 21
80.4376
 31
0.0
  0
LINE
  8
0
 62
     0
 10
26.869
 20
80.4376
 30
0.0
 11
27.6683
 21
80.4376
 31
0.0
  0
LINE
  8
0
 62
     0
 10
27.6683
 20
80.4376
 30
0.0
 11
27.6683
 21
74.6386
 31
0.0
  0
LINE
  8
0
 62
     0
 10
27.6683
 20
74.6386
 30
0.0
 11
26.869
 21
74.6386
 31
0.0
  0
LINE
  8
0
 62
     0
 10
26.869
 20
74.6386
 30
0.0
 11
26.869
 21
71.538
 31
0.0
  0
LINE
  8
0
 62
     0
 10
26.869
 20
71.538
 30
0.0
 11
27.6683
 21
71.538
 31
0.0
  0
LINE
  8
0
 62
     0
 10
27.6683
 20
71.538
 30
0.0
 11
27.6683
 21
70.5376
 31
0.0
  0
LINE
  8
0
 62
     0
 10
27.6683
 20
70.5376
 30
0.0
 11
41.6691
 21
70.5376
 31
0.0
  0
LINE
  8
0
 62
     0
 10
41.6691
 20
70.5376
 30
0.0
 11
41.6691
 21
71.538
 31
0.0
  0
LINE
  8
0
 62
     0
 10
41.6691
 20
71.538
 30
0.0
 11
42.4684
 21
71.538
 31
0.0
  0
LINE
  8
0
 62
     0
 10
42.4684
 20
71.538
 30
0.0
 11
42.4684
 21
74.6386
 31
0.0
  0
LINE
  8
0
 62
     0
 10
42.4684
 20
74.6386
 30
0.0
 11
41.6691
 21
74.6386
 31
0.0
  0
LINE
  8
0
 62
     0
 10
41.6691
 20
74.6386
 30
0.0
 11
41.6691
 21
80.4376
 31
0.0
  0
LINE
  8
0
 62
     0
 10
41.6691
 20
80.4376
 30
0.0
 11
42.4684
 21
80.4376
 31
0.0
  0
LINE
  8
0
 62
     0
 10
42.4684
 20
80.4376
 30
0.0
 11
42.4684
 21
83.5395
 31
0.0
  0
LINE
  8
0
 62
     0
 10
42.4684
 20
83.5395
 30
0.0
 11
41.6691
 21
83.5395
 31
0.0
  0
LINE
  8
0
 62
     0
 10
41.6691
 20
83.5395
 30
0.0
 11
41.6691
 21
84.5386
 31
0.0
  0
LINE
  8
0
 62
     0
 10
41.6691
 20
84.5386
 30
0.0
 11
27.6683
 21
84.5386
 31
0.0
  0
LINE
  8
0
 62
     0
 10
46.7184
 20
84.5386
 30
0.0
 11
46.7184
 21
83.5395
 31
0.0
  0
LINE
  8
0
 62
     0
 10
46.7184
 20
83.5395
 30
0.0
 11
45.919
 21
83.5395
 31
0.0
  0
LINE
  8
0
 62
     0
 10
45.919
 20
83.5395
 30
0.0
 11
45.919
 21
80.4376
 31
0.0
  0
LINE
  8
0
 62
     0
 10
45.919
 20
80.4376
 30
0.0
 11
46.7184
 21
80.4376
 31
0.0
  0
LINE
  8
0
 62
     0
 10
46.7184
 20
80.4376
 30
0.0
 11
46.7184
 21
74.6386
 31
0.0
  0
LINE
  8
0
 62
     0
 10
46.7184
 20
74.6386
 30
0.0
 11
45.919
 21
74.6386
 31
0.0
  0
LINE
  8
0
 62
     0
 10
45.919
 20
74.6386
 30
0.0
 11
45.919
 21
71.538
 31
0.0
  0
LINE
  8
0
 62
     0
 10
45.919
 20
71.538
 30
0.0
 11
46.7184
 21
71.538
 31
0.0
  0
LINE
  8
0
 62
     0
 10
46.7184
 20
71.538
 30
0.0
 11
46.7184
 21
70.5376
 31
0.0
  0
LINE
  8
0
 62
     0
 10
46.7184
 20
70.5376
 30
0.0
 11
60.7191
 21
70.5376
 31
0.0
  0
LINE
  8
0
 62
     0
 10
60.7191
 20
70.5376
 30
0.0
 11
60.7191
 21
71.538
 31
0.0
  0
LINE
  8
0
 62
     0
 10
60.7191
 20
71.538
 30
0.0
 11
61.5184
 21
71.538
 31
0.0
  0
LINE
  8
0
 62
     0
 10
61.5184
 20
71.538
 30
0.0
 11
61.5184
 21
74.6386
 31
0.0
  0
LINE
  8
0
 62
     0
 10
61.5184
 20
74.6386
 30
0.0
 11
60.7191
 21
74.6386
 31
0.0
  0
LINE
  8
0
 62
     0
 10
60.7191
 20
74.6386
 30
0.0
 11
60.7191
 21
80.4376
 31
0.0
  0
LINE
  8
0
 62
     0
 10
60.7191
 20
80.4376
 30
0.0
 11
61.5184
 21
80.4376
 31
0.0
  0
LINE
  8
0
 62
     0
 10
61.5184
 20
80.4376
 30
0.0
 11
61.5184
 21
83.5395
 31
0.0
  0
LINE
  8
0
 62
     0
 10
61.5184
 20
83.5395
 30
0.0
 11
60.7191
 21
83.5395
 31
0.0
  0
LINE
  8
0
 62
     0
 10
60.7191
 20
83.5395
 30
0.0
 11
60.7191
 21
84.5386
 31
0.0
  0
LINE
  8
0
 62
     0
 10
60.7191
 20
84.5386
 30
0.0
 11
46.7184
 21
84.5386
 31
0.0
  0
LINE
  8
0
 62
     0
 10
70.5309
 20
84.5386
 30
0.0
 11
70.5309
 21
83.5395
 31
0.0
  0
LINE
  8
0
 62
     0
 10
70.5309
 20
83.5395
 30
0.0
 11
69.7301
 21
83.5395
 31
0.0
  0
LINE
  8
0
 62
     0
 10
69.7301
 20
83.5395
 30
0.0
 11
69.7301
 21
80.4376
 31
0.0
  0
LINE
  8
0
 62
     0
 10
69.7301
 20
80.4376
 30
0.0
 11
70.5309
 21
80.4376
 31
0.0
  0
LINE
  8
0
 62
     0
 10
70.5309
 20
80.4376
 30
0.0
 11
70.5309
 21
74.6386
 31
0.0
  0
LINE
  8
0
 62
     0
 10
70.5309
 20
74.6386
 30
0.0
 11
69.7301
 21
74.6386
 31
0.0
  0
LINE
  8
0
 62
     0
 10
69.7301
 20
74.6386
 30
0.0
 11
69.7301
 21
71.538
 31
0.0
  0
LINE
  8
0
 62
     0
 10
69.7301
 20
71.538
 30
0.0
 11
70.5309
 21
71.538
 31
0.0
  0
LINE
  8
0
 62
     0
 10
70.5309
 20
71.538
 30
0.0
 11
70.5309
 21
70.5376
 31
0.0
  0
LINE
  8
0
 62
     0
 10
70.5309
 20
70.5376
 30
0.0
 11
84.5301
 21
70.5376
 31
0.0
  0
LINE
  8
0
 62
     0
 10
84.5301
 20
70.5376
 30
0.0
 11
84.5301
 21
71.538
 31
0.0
  0
LINE
  8
0
 62
     0
 10
84.5301
 20
71.538
 30
0.0
 11
85.3309
 21
71.538
 31
0.0
  0
LINE
  8
0
 62
     0
 10
85.3309
 20
71.538
 30
0.0
 11
85.3309
 21
74.6386
 31
0.0
  0
LINE
  8
0
 62
     0
 10
85.3309
 20
74.6386
 30
0.0
 11
84.5301
 21
74.6386
 31
0.0
  0
LINE
  8
0
 62
     0
 10
84.5301
 20
74.6386
 30
0.0
 11
84.5301
 21
80.4376
 31
0.0
  0
LINE
  8
0
 62
     0
 10
84.5301
 20
80.4376
 30
0.0
 11
85.3309
 21
80.4376
 31
0.0
  0
LINE
  8
0
 62
     0
 10
85.3309
 20
80.4376
 30
0.0
 11
85.3309
 21
83.5395
 31
0.0
  0
LINE
  8
0
 62
     0
 10
85.3309
 20
83.5395
 30
0.0
 11
84.5301
 21
83.5395
 31
0.0
  0
LINE
  8
0
 62
     0
 10
84.5301
 20
83.5395
 30
0.0
 11
84.5301
 21
84.5386
 31
0.0
  0
LINE
  8
0
 62
     0
 10
84.5301
 20
84.5386
 30
0.0
 11
70.5309
 21
84.5386
 31
0.0
  0
LINE
  8
0
 62
     0
 10
89.5809
 20
84.5386
 30
0.0
 11
89.5809
 21
83.5395
 31
0.0
  0
LINE
  8
0
 62
     0
 10
89.5809
 20
83.5395
 30
0.0
 11
88.7801
 21
83.5395
 31
0.0
  0
LINE
  8
0
 62
     0
 10
88.7801
 20
83.5395
 30
0.0
 11
88.7801
 21
80.4376
 31
0.0
  0
LINE
  8
0
 62
     0
 10
88.7801
 20
80.4376
 30
0.0
 11
89.5809
 21
80.4376
 31
0.0
  0
LINE
  8
0
 62
     0
 10
89.5809
 20
80.4376
 30
0.0
 11
89.5809
 21
74.6386
 31
0.0
  0
LINE
  8
0
 62
     0
 10
89.5809
 20
74.6386
 30
0.0
 11
88.7801
 21
74.6386
 31
0.0
  0
LINE
  8
0
 62
     0
 10
88.7801
 20
74.6386
 30
0.0
 11
88.7801
 21
71.538
 31
0.0
  0
LINE
  8
0
 62
     0
 10
88.7801
 20
71.538
 30
0.0
 11
89.5809
 21
71.538
 31
0.0
  0
LINE
  8
0
 62
     0
 10
89.5809
 20
71.538
 30
0.0
 11
89.5809
 21
70.5376
 31
0.0
  0
LINE
  8
0
 62
     0
 10
89.5809
 20
70.5376
 30
0.0
 11
103.58
 21
70.5376
 31
0.0
  0
LINE
  8
0
 62
     0
 10
103.58
 20
70.5376
 30
0.0
 11
103.58
 21
71.538
 31
0.0
  0
LINE
  8
0
 62
     0
 10
103.58
 20
71.538
 30
0.0
 11
104.381
 21
71.538
 31
0.0
  0
LINE
  8
0
 62
     0
 10
104.381
 20
71.538
 30
0.0
 11
104.381
 21
74.6386
 31
0.0
  0
LINE
  8
0
 62
     0
 10
104.381
 20
74.6386
 30
0.0
 11
103.58
 21
74.6386
 31
0.0
  0
LINE
  8
0
 62
     0
 10
103.58
 20
74.6386
 30
0.0
 11
103.58
 21
80.4376
 31
0.0
  0
LINE
  8
0
 62
     0
 10
103.58
 20
80.4376
 30
0.0
 11
104.381
 21
80.4376
 31
0.0
  0
LINE
  8
0
 62
     0
 10
104.381
 20
80.4376
 30
0.0
 11
104.381
 21
83.5395
 31
0.0
  0
LINE
  8
0
 62
     0
 10
104.381
 20
83.5395
 30
0.0
 11
103.58
 21
83.5395
 31
0.0
  0
LINE
  8
0
 62
     0
 10
103.58
 20
83.5395
 30
0.0
 11
103.58
 21
84.5386
 31
0.0
  0
LINE
  8
0
 62
     0
 10
103.58
 20
84.5386
 30
0.0
 11
89.5809
 21
84.5386
 31
0.0
  0
LINE
  8
0
 62
     0
 10
108.631
 20
84.5386
 30
0.0
 11
108.631
 21
83.5395
 31
0.0
  0
LINE
  8
0
 62
     0
 10
108.631
 20
83.5395
 30
0.0
 11
107.83
 21
83.5395
 31
0.0
  0
LINE
  8
0
 62
     0
 10
107.83
 20
83.5395
 30
0.0
 11
107.83
 21
80.4376
 31
0.0
  0
LINE
  8
0
 62
     0
 10
107.83
 20
80.4376
 30
0.0
 11
108.631
 21
80.4376
 31
0.0
  0
LINE
  8
0
 62
     0
 10
108.631
 20
80.4376
 30
0.0
 11
108.631
 21
74.6386
 31
0.0
  0
LINE
  8
0
 62
     0
 10
108.631
 20
74.6386
 30
0.0
 11
107.83
 21
74.6386
 31
0.0
  0
LINE
  8
0
 62
     0
 10
107.83
 20
74.6386
 30
0.0
 11
107.83
 21
71.538
 31
0.0
  0
LINE
  8
0
 62
     0
 10
107.83
 20
71.538
 30
0.0
 11
108.631
 21
71.538
 31
0.0
  0
LINE
  8
0
 62
     0
 10
108.631
 20
71.538
 30
0.0
 11
108.631
 21
70.5376
 31
0.0
  0
LINE
  8
0
 62
     0
 10
108.631
 20
70.5376
 30
0.0
 11
122.63
 21
70.5376
 31
0.0
  0
LINE
  8
0
 62
     0
 10
122.63
 20
70.5376
 30
0.0
 11
122.63
 21
71.538
 31
0.0
  0
LINE
  8
0
 62
     0
 10
122.63
 20
71.538
 30
0.0
 11
123.43
 21
71.538
 31
0.0
  0
LINE
  8
0
 62
     0
 10
123.43
 20
71.538
 30
0.0
 11
123.43
 21
74.6386
 31
0.0
  0
LINE
  8
0
 62
     0
 10
123.43
 20
74.6386
 30
0.0
 11
122.63
 21
74.6386
 31
0.0
  0
LINE
  8
0
 62
     0
 10
122.63
 20
74.6386
 30
0.0
 11
122.63
 21
80.4376
 31
0.0
  0
LINE
  8
0
 62
     0
 10
122.63
 20
80.4376
 30
0.0
 11
123.43
 21
80.4376
 31
0.0
  0
LINE
  8
0
 62
     0
 10
123.43
 20
80.4376
 30
0.0
 11
123.43
 21
83.5395
 31
0.0
  0
LINE
  8
0
 62
     0
 10
123.43
 20
83.5395
 30
0.0
 11
122.63
 21
83.5395
 31
0.0
  0
LINE
  8
0
 62
     0
 10
122.63
 20
83.5395
 30
0.0
 11
122.63
 21
84.5386
 31
0.0
  0
LINE
  8
0
 62
     0
 10
122.63
 20
84.5386
 30
0.0
 11
108.631
 21
84.5386
 31
0.0
  0
LINE
  8
0
 62
     0
 10
127.681
 20
84.5386
 30
0.0
 11
127.681
 21
83.5395
 31
0.0
  0
LINE
  8
0
 62
     0
 10
127.681
 20
83.5395
 30
0.0
 11
126.88
 21
83.5395
 31
0.0
  0
LINE
  8
0
 62
     0
 10
126.88
 20
83.5395
 30
0.0
 11
126.88
 21
80.4376
 31
0.0
  0
LINE
  8
0
 62
     0
 10
126.88
 20
80.4376
 30
0.0
 11
127.681
 21
80.4376
 31
0.0
  0
LINE
  8
0
 62
     0
 10
127.681
 20
80.4376
 30
0.0
 11
127.681
 21
74.6386
 31
0.0
  0
LINE
  8
0
 62
     0
 10
127.681
 20
74.6386
 30
0.0
 11
126.88
 21
74.6386
 31
0.0
  0
LINE
  8
0
 62
     0
 10
126.88
 20
74.6386
 30
0.0
 11
126.88
 21
71.538
 31
0.0
  0
LINE
  8
0
 62
     0
 10
126.88
 20
71.538
 30
0.0
 11
127.681
 21
71.538
 31
0.0
  0
LINE
  8
0
 62
     0
 10
127.681
 20
71.538
 30
0.0
 11
127.681
 21
70.5376
 31
0.0
  0
LINE
  8
0
 62
     0
 10
127.681
 20
70.5376
 30
0.0
 11
141.68
 21
70.5376
 31
0.0
  0
LINE
  8
0
 62
     0
 10
141.68
 20
70.5376
 30
0.0
 11
141.68
 21
71.538
 31
0.0
  0
LINE
  8
0
 62
     0
 10
141.68
 20
71.538
 30
0.0
 11
142.481
 21
71.538
 31
0.0
  0
LINE
  8
0
 62
     0
 10
142.481
 20
71.538
 30
0.0
 11
142.481
 21
74.6386
 31
0.0
  0
LINE
  8
0
 62
     0
 10
142.481
 20
74.6386
 30
0.0
 11
141.68
 21
74.6386
 31
0.0
  0
LINE
  8
0
 62
     0
 10
141.68
 20
74.6386
 30
0.0
 11
141.68
 21
80.4376
 31
0.0
  0
LINE
  8
0
 62
     0
 10
141.68
 20
80.4376
 30
0.0
 11
142.481
 21
80.4376
 31
0.0
  0
LINE
  8
0
 62
     0
 10
142.481
 20
80.4376
 30
0.0
 11
142.481
 21
83.5395
 31
0.0
  0
LINE
  8
0
 62
     0
 10
142.481
 20
83.5395
 30
0.0
 11
141.68
 21
83.5395
 31
0.0
  0
LINE
  8
0
 62
     0
 10
141.68
 20
83.5395
 30
0.0
 11
141.68
 21
84.5386
 31
0.0
  0
LINE
  8
0
 62
     0
 10
141.68
 20
84.5386
 30
0.0
 11
127.681
 21
84.5386
 31
0.0
  0
LINE
  8
0
 62
     0
 10
146.731
 20
84.5386
 30
0.0
 11
146.731
 21
83.5395
 31
0.0
  0
LINE
  8
0
 62
     0
 10
146.731
 20
83.5395
 30
0.0
 11
145.93
 21
83.5395
 31
0.0
  0
LINE
  8
0
 62
     0
 10
145.93
 20
83.5395
 30
0.0
 11
145.93
 21
80.4376
 31
0.0
  0
LINE
  8
0
 62
     0
 10
145.93
 20
80.4376
 30
0.0
 11
146.731
 21
80.4376
 31
0.0
  0
LINE
  8
0
 62
     0
 10
146.731
 20
80.4376
 30
0.0
 11
146.731
 21
74.6386
 31
0.0
  0
LINE
  8
0
 62
     0
 10
146.731
 20
74.6386
 30
0.0
 11
145.93
 21
74.6386
 31
0.0
  0
LINE
  8
0
 62
     0
 10
145.93
 20
74.6386
 30
0.0
 11
145.93
 21
71.538
 31
0.0
  0
LINE
  8
0
 62
     0
 10
145.93
 20
71.538
 30
0.0
 11
146.731
 21
71.538
 31
0.0
  0
LINE
  8
0
 62
     0
 10
146.731
 20
71.538
 30
0.0
 11
146.731
 21
70.5376
 31
0.0
  0
LINE
  8
0
 62
     0
 10
146.731
 20
70.5376
 30
0.0
 11
160.73
 21
70.5376
 31
0.0
  0
LINE
  8
0
 62
     0
 10
160.73
 20
70.5376
 30
0.0
 11
160.73
 21
71.538
 31
0.0
  0
LINE
  8
0
 62
     0
 10
160.73
 20
71.538
 30
0.0
 11
161.531
 21
71.538
 31
0.0
  0
LINE
  8
0
 62
     0
 10
161.531
 20
71.538
 30
0.0
 11
161.531
 21
74.6386
 31
0.0
  0
LINE
  8
0
 62
     0
 10
161.531
 20
74.6386
 30
0.0
 11
160.73
 21
74.6386
 31
0.0
  0
LINE
  8
0
 62
     0
 10
160.73
 20
74.6386
 30
0.0
 11
160.73
 21
80.4376
 31
0.0
  0
LINE
  8
0
 62
     0
 10
160.73
 20
80.4376
 30
0.0
 11
161.531
 21
80.4376
 31
0.0
  0
LINE
  8
0
 62
     0
 10
161.531
 20
80.4376
 30
0.0
 11
161.531
 21
83.5395
 31
0.0
  0
LINE
  8
0
 62
     0
 10
161.531
 20
83.5395
 30
0.0
 11
160.73
 21
83.5395
 31
0.0
  0
LINE
  8
0
 62
     0
 10
160.73
 20
83.5395
 30
0.0
 11
160.73
 21
84.5386
 31
0.0
  0
LINE
  8
0
 62
     0
 10
160.73
 20
84.5386
 30
0.0
 11
146.731
 21
84.5386
 31
0.0
  0
LINE
  8
0
 62
     0
 10
165.781
 20
84.5386
 30
0.0
 11
165.781
 21
83.5395
 31
0.0
  0
LINE
  8
0
 62
     0
 10
165.781
 20
83.5395
 30
0.0
 11
164.98
 21
83.5395
 31
0.0
  0
LINE
  8
0
 62
     0
 10
164.98
 20
83.5395
 30
0.0
 11
164.98
 21
80.4376
 31
0.0
  0
LINE
  8
0
 62
     0
 10
164.98
 20
80.4376
 30
0.0
 11
165.781
 21
80.4376
 31
0.0
  0
LINE
  8
0
 62
     0
 10
165.781
 20
80.4376
 30
0.0
 11
165.781
 21
74.6386
 31
0.0
  0
LINE
  8
0
 62
     0
 10
165.781
 20
74.6386
 30
0.0
 11
164.98
 21
74.6386
 31
0.0
  0
LINE
  8
0
 62
     0
 10
164.98
 20
74.6386
 30
0.0
 11
164.98
 21
71.538
 31
0.0
  0
LINE
  8
0
 62
     0
 10
164.98
 20
71.538
 30
0.0
 11
165.781
 21
71.538
 31
0.0
  0
LINE
  8
0
 62
     0
 10
165.781
 20
71.538
 30
0.0
 11
165.781
 21
70.5376
 31
0.0
  0
LINE
  8
0
 62
     0
 10
165.781
 20
70.5376
 30
0.0
 11
179.78
 21
70.5376
 31
0.0
  0
LINE
  8
0
 62
     0
 10
179.78
 20
70.5376
 30
0.0
 11
179.78
 21
71.538
 31
0.0
  0
LINE
  8
0
 62
     0
 10
179.78
 20
71.538
 30
0.0
 11
180.581
 21
71.538
 31
0.0
  0
LINE
  8
0
 62
     0
 10
180.581
 20
71.538
 30
0.0
 11
180.581
 21
74.6386
 31
0.0
  0
LINE
  8
0
 62
     0
 10
180.581
 20
74.6386
 30
0.0
 11
179.78
 21
74.6386
 31
0.0
  0
LINE
  8
0
 62
     0
 10
179.78
 20
74.6386
 30
0.0
 11
179.78
 21
80.4376
 31
0.0
  0
LINE
  8
0
 62
     0
 10
179.78
 20
80.4376
 30
0.0
 11
180.581
 21
80.4376
 31
0.0
  0
LINE
  8
0
 62
     0
 10
180.581
 20
80.4376
 30
0.0
 11
180.581
 21
83.5395
 31
0.0
  0
LINE
  8
0
 62
     0
 10
180.581
 20
83.5395
 30
0.0
 11
179.78
 21
83.5395
 31
0.0
  0
LINE
  8
0
 62
     0
 10
179.78
 20
83.5395
 30
0.0
 11
179.78
 21
84.5386
 31
0.0
  0
LINE
  8
0
 62
     0
 10
179.78
 20
84.5386
 30
0.0
 11
165.781
 21
84.5386
 31
0.0
  0
LINE
  8
0
 62
     0
 10
184.831
 20
84.5386
 30
0.0
 11
184.831
 21
83.5395
 31
0.0
  0
LINE
  8
0
 62
     0
 10
184.831
 20
83.5395
 30
0.0
 11
184.03
 21
83.5395
 31
0.0
  0
LINE
  8
0
 62
     0
 10
184.03
 20
83.5395
 30
0.0
 11
184.03
 21
80.4376
 31
0.0
  0
LINE
  8
0
 62
     0
 10
184.03
 20
80.4376
 30
0.0
 11
184.831
 21
80.4376
 31
0.0
  0
LINE
  8
0
 62
     0
 10
184.831
 20
80.4376
 30
0.0
 11
184.831
 21
74.6386
 31
0.0
  0
LINE
  8
0
 62
     0
 10
184.831
 20
74.6386
 30
0.0
 11
184.03
 21
74.6386
 31
0.0
  0
LINE
  8
0
 62
     0
 10
184.03
 20
74.6386
 30
0.0
 11
184.03
 21
71.538
 31
0.0
  0
LINE
  8
0
 62
     0
 10
184.03
 20
71.538
 30
0.0
 11
184.831
 21
71.538
 31
0.0
  0
LINE
  8
0
 62
     0
 10
184.831
 20
71.538
 30
0.0
 11
184.831
 21
70.5376
 31
0.0
  0
LINE
  8
0
 62
     0
 10
184.831
 20
70.5376
 30
0.0
 11
198.83
 21
70.5376
 31
0.0
  0
LINE
  8
0
 62
     0
 10
198.83
 20
70.5376
 30
0.0
 11
198.83
 21
71.538
 31
0.0
  0
LINE
  8
0
 62
     0
 10
198.83
 20
71.538
 30
0.0
 11
199.631
 21
71.538
 31
0.0
  0
LINE
  8
0
 62
     0
 10
199.631
 20
71.538
 30
0.0
 11
199.631
 21
74.6386
 31
0.0
  0
LINE
  8
0
 62
     0
 10
199.631
 20
74.6386
 30
0.0
 11
198.83
 21
74.6386
 31
0.0
  0
LINE
  8
0
 62
     0
 10
198.83
 20
74.6386
 30
0.0
 11
198.83
 21
80.4376
 31
0.0
  0
LINE
  8
0
 62
     0
 10
198.83
 20
80.4376
 30
0.0
 11
199.631
 21
80.4376
 31
0.0
  0
LINE
  8
0
 62
     0
 10
199.631
 20
80.4376
 30
0.0
 11
199.631
 21
83.5395
 31
0.0
  0
LINE
  8
0
 62
     0
 10
199.631
 20
83.5395
 30
0.0
 11
198.83
 21
83.5395
 31
0.0
  0
LINE
  8
0
 62
     0
 10
198.83
 20
83.5395
 30
0.0
 11
198.83
 21
84.5386
 31
0.0
  0
LINE
  8
0
 62
     0
 10
198.83
 20
84.5386
 30
0.0
 11
184.831
 21
84.5386
 31
0.0
  0
LINE
  8
0
 62
     0
 10
203.881
 20
84.5386
 30
0.0
 11
203.881
 21
83.5395
 31
0.0
  0
LINE
  8
0
 62
     0
 10
203.881
 20
83.5395
 30
0.0
 11
203.08
 21
83.5395
 31
0.0
  0
LINE
  8
0
 62
     0
 10
203.08
 20
83.5395
 30
0.0
 11
203.08
 21
80.4376
 31
0.0
  0
LINE
  8
0
 62
     0
 10
203.08
 20
80.4376
 30
0.0
 11
203.881
 21
80.4376
 31
0.0
  0
LINE
  8
0
 62
     0
 10
203.881
 20
80.4376
 30
0.0
 11
203.881
 21
74.6386
 31
0.0
  0
LINE
  8
0
 62
     0
 10
203.881
 20
74.6386
 30
0.0
 11
203.08
 21
74.6386
 31
0.0
  0
LINE
  8
0
 62
     0
 10
203.08
 20
74.6386
 30
0.0
 11
203.08
 21
71.538
 31
0.0
  0
LINE
  8
0
 62
     0
 10
203.08
 20
71.538
 30
0.0
 11
203.881
 21
71.538
 31
0.0
  0
LINE
  8
0
 62
     0
 10
203.881
 20
71.538
 30
0.0
 11
203.881
 21
70.5376
 31
0.0
  0
LINE
  8
0
 62
     0
 10
203.881
 20
70.5376
 30
0.0
 11
217.88
 21
70.5376
 31
0.0
  0
LINE
  8
0
 62
     0
 10
217.88
 20
70.5376
 30
0.0
 11
217.88
 21
71.538
 31
0.0
  0
LINE
  8
0
 62
     0
 10
217.88
 20
71.538
 30
0.0
 11
218.681
 21
71.538
 31
0.0
  0
LINE
  8
0
 62
     0
 10
218.681
 20
71.538
 30
0.0
 11
218.681
 21
74.6386
 31
0.0
  0
LINE
  8
0
 62
     0
 10
218.681
 20
74.6386
 30
0.0
 11
217.88
 21
74.6386
 31
0.0
  0
LINE
  8
0
 62
     0
 10
217.88
 20
74.6386
 30
0.0
 11
217.88
 21
80.4376
 31
0.0
  0
LINE
  8
0
 62
     0
 10
217.88
 20
80.4376
 30
0.0
 11
218.681
 21
80.4376
 31
0.0
  0
LINE
  8
0
 62
     0
 10
218.681
 20
80.4376
 30
0.0
 11
218.681
 21
83.5395
 31
0.0
  0
LINE
  8
0
 62
     0
 10
218.681
 20
83.5395
 30
0.0
 11
217.88
 21
83.5395
 31
0.0
  0
LINE
  8
0
 62
     0
 10
217.88
 20
83.5395
 30
0.0
 11
217.88
 21
84.5386
 31
0.0
  0
LINE
  8
0
 62
     0
 10
217.88
 20
84.5386
 30
0.0
 11
203.881
 21
84.5386
 31
0.0
  0
LINE
  8
0
 62
     0
 10
222.931
 20
84.5386
 30
0.0
 11
222.931
 21
83.5395
 31
0.0
  0
LINE
  8
0
 62
     0
 10
222.931
 20
83.5395
 30
0.0
 11
222.13
 21
83.5395
 31
0.0
  0
LINE
  8
0
 62
     0
 10
222.13
 20
83.5395
 30
0.0
 11
222.13
 21
80.4376
 31
0.0
  0
LINE
  8
0
 62
     0
 10
222.13
 20
80.4376
 30
0.0
 11
222.931
 21
80.4376
 31
0.0
  0
LINE
  8
0
 62
     0
 10
222.931
 20
80.4376
 30
0.0
 11
222.931
 21
74.6386
 31
0.0
  0
LINE
  8
0
 62
     0
 10
222.931
 20
74.6386
 30
0.0
 11
222.13
 21
74.6386
 31
0.0
  0
LINE
  8
0
 62
     0
 10
222.13
 20
74.6386
 30
0.0
 11
222.13
 21
71.538
 31
0.0
  0
LINE
  8
0
 62
     0
 10
222.13
 20
71.538
 30
0.0
 11
222.931
 21
71.538
 31
0.0
  0
LINE
  8
0
 62
     0
 10
222.931
 20
71.538
 30
0.0
 11
222.931
 21
70.5376
 31
0.0
  0
LINE
  8
0
 62
     0
 10
222.931
 20
70.5376
 30
0.0
 11
236.93
 21
70.5376
 31
0.0
  0
LINE
  8
0
 62
     0
 10
236.93
 20
70.5376
 30
0.0
 11
236.93
 21
71.538
 31
0.0
  0
LINE
  8
0
 62
     0
 10
236.93
 20
71.538
 30
0.0
 11
237.731
 21
71.538
 31
0.0
  0
LINE
  8
0
 62
     0
 10
237.731
 20
71.538
 30
0.0
 11
237.731
 21
74.6386
 31
0.0
  0
LINE
  8
0
 62
     0
 10
237.731
 20
74.6386
 30
0.0
 11
236.93
 21
74.6386
 31
0.0
  0
LINE
  8
0
 62
     0
 10
236.93
 20
74.6386
 30
0.0
 11
236.93
 21
80.4376
 31
0.0
  0
LINE
  8
0
 62
     0
 10
236.93
 20
80.4376
 30
0.0
 11
237.731
 21
80.4376
 31
0.0
  0
LINE
  8
0
 62
     0
 10
237.731
 20
80.4376
 30
0.0
 11
237.731
 21
83.5395
 31
0.0
  0
LINE
  8
0
 62
     0
 10
237.731
 20
83.5395
 30
0.0
 11
236.93
 21
83.5395
 31
0.0
  0
LINE
  8
0
 62
     0
 10
236.93
 20
83.5395
 30
0.0
 11
236.93
 21
84.5386
 31
0.0
  0
LINE
  8
0
 62
     0
 10
236.93
 20
84.5386
 30
0.0
 11
222.931
 21
84.5386
 31
0.0
  0
LINE
  8
0
 62
     0
 10
241.981
 20
84.5386
 30
0.0
 11
241.981
 21
83.5395
 31
0.0
  0
LINE
  8
0
 62
     0
 10
241.981
 20
83.5395
 30
0.0
 11
241.18
 21
83.5395
 31
0.0
  0
LINE
  8
0
 62
     0
 10
241.18
 20
83.5395
 30
0.0
 11
241.18
 21
80.4376
 31
0.0
  0
LINE
  8
0
 62
     0
 10
241.18
 20
80.4376
 30
0.0
 11
241.981
 21
80.4376
 31
0.0
  0
LINE
  8
0
 62
     0
 10
241.981
 20
80.4376
 30
0.0
 11
241.981
 21
74.6386
 31
0.0
  0
LINE
  8
0
 62
     0
 10
241.981
 20
74.6386
 30
0.0
 11
241.18
 21
74.6386
 31
0.0
  0
LINE
  8
0
 62
     0
 10
241.18
 20
74.6386
 30
0.0
 11
241.18
 21
71.538
 31
0.0
  0
LINE
  8
0
 62
     0
 10
241.18
 20
71.538
 30
0.0
 11
241.981
 21
71.538
 31
0.0
  0
LINE
  8
0
 62
     0
 10
241.981
 20
71.538
 30
0.0
 11
241.981
 21
70.5376
 31
0.0
  0
LINE
  8
0
 62
     0
 10
241.981
 20
70.5376
 30
0.0
 11
255.98
 21
70.5376
 31
0.0
  0
LINE
  8
0
 62
     0
 10
255.98
 20
70.5376
 30
0.0
 11
255.98
 21
71.538
 31
0.0
  0
LINE
  8
0
 62
     0
 10
255.98
 20
71.538
 30
0.0
 11
256.781
 21
71.538
 31
0.0
  0
LINE
  8
0
 62
     0
 10
256.781
 20
71.538
 30
0.0
 11
256.781
 21
74.6386
 31
0.0
  0
LINE
  8
0
 62
     0
 10
256.781
 20
74.6386
 30
0.0
 11
255.98
 21
74.6386
 31
0.0
  0
LINE
  8
0
 62
     0
 10
255.98
 20
74.6386
 30
0.0
 11
255.98
 21
80.4376
 31
0.0
  0
LINE
  8
0
 62
     0
 10
255.98
 20
80.4376
 30
0.0
 11
256.781
 21
80.4376
 31
0.0
  0
LINE
  8
0
 62
     0
 10
256.781
 20
80.4376
 30
0.0
 11
256.781
 21
83.5395
 31
0.0
  0
LINE
  8
0
 62
     0
 10
256.781
 20
83.5395
 30
0.0
 11
255.98
 21
83.5395
 31
0.0
  0
LINE
  8
0
 62
     0
 10
255.98
 20
83.5395
 30
0.0
 11
255.98
 21
84.5386
 31
0.0
  0
LINE
  8
0
 62
     0
 10
255.98
 20
84.5386
 30
0.0
 11
241.981
 21
84.5386
 31
0.0
  0
LINE
  8
0
 62
     0
 10
261.031
 20
84.5386
 30
0.0
 11
261.031
 21
83.5395
 31
0.0
  0
LINE
  8
0
 62
     0
 10
261.031
 20
83.5395
 30
0.0
 11
260.23
 21
83.5395
 31
0.0
  0
LINE
  8
0
 62
     0
 10
260.23
 20
83.5395
 30
0.0
 11
260.23
 21
80.4376
 31
0.0
  0
LINE
  8
0
 62
     0
 10
260.23
 20
80.4376
 30
0.0
 11
261.031
 21
80.4376
 31
0.0
  0
LINE
  8
0
 62
     0
 10
261.031
 20
80.4376
 30
0.0
 11
261.031
 21
74.6386
 31
0.0
  0
LINE
  8
0
 62
     0
 10
261.031
 20
74.6386
 30
0.0
 11
260.23
 21
74.6386
 31
0.0
  0
LINE
  8
0
 62
     0
 10
260.23
 20
74.6386
 30
0.0
 11
260.23
 21
71.538
 31
0.0
  0
LINE
  8
0
 62
     0
 10
260.23
 20
71.538
 30
0.0
 11
261.031
 21
71.538
 31
0.0
  0
LINE
  8
0
 62
     0
 10
261.031
 20
71.538
 30
0.0
 11
261.031
 21
70.5376
 31
0.0
  0
LINE
  8
0
 62
     0
 10
261.031
 20
70.5376
 30
0.0
 11
275.03
 21
70.5376
 31
0.0
  0
LINE
  8
0
 62
     0
 10
275.03
 20
70.5376
 30
0.0
 11
275.03
 21
71.538
 31
0.0
  0
LINE
  8
0
 62
     0
 10
275.03
 20
71.538
 30
0.0
 11
275.831
 21
71.538
 31
0.0
  0
LINE
  8
0
 62
     0
 10
275.831
 20
71.538
 30
0.0
 11
275.831
 21
74.6386
 31
0.0
  0
LINE
  8
0
 62
     0
 10
275.831
 20
74.6386
 30
0.0
 11
275.03
 21
74.6386
 31
0.0
  0
LINE
  8
0
 62
     0
 10
275.03
 20
74.6386
 30
0.0
 11
275.03
 21
80.4376
 31
0.0
  0
LINE
  8
0
 62
     0
 10
275.03
 20
80.4376
 30
0.0
 11
275.831
 21
80.4376
 31
0.0
  0
LINE
  8
0
 62
     0
 10
275.831
 20
80.4376
 30
0.0
 11
275.831
 21
83.5395
 31
0.0
  0
LINE
  8
0
 62
     0
 10
275.831
 20
83.5395
 30
0.0
 11
275.03
 21
83.5395
 31
0.0
  0
LINE
  8
0
 62
     0
 10
275.03
 20
83.5395
 30
0.0
 11
275.03
 21
84.5386
 31
0.0
  0
LINE
  8
0
 62
     0
 10
275.03
 20
84.5386
 30
0.0
 11
261.031
 21
84.5386
 31
0.0
  0
LINE
  8
0
 62
     0
 10
280.081
 20
84.5386
 30
0.0
 11
280.081
 21
83.5395
 31
0.0
  0
LINE
  8
0
 62
     0
 10
280.081
 20
83.5395
 30
0.0
 11
279.28
 21
83.5395
 31
0.0
  0
LINE
  8
0
 62
     0
 10
279.28
 20
83.5395
 30
0.0
 11
279.28
 21
80.4376
 31
0.0
  0
LINE
  8
0
 62
     0
 10
279.28
 20
80.4376
 30
0.0
 11
280.081
 21
80.4376
 31
0.0
  0
LINE
  8
0
 62
     0
 10
280.081
 20
80.4376
 30
0.0
 11
280.081
 21
74.6386
 31
0.0
  0
LINE
  8
0
 62
     0
 10
280.081
 20
74.6386
 30
0.0
 11
279.28
 21
74.6386
 31
0.0
  0
LINE
  8
0
 62
     0
 10
279.28
 20
74.6386
 30
0.0
 11
279.28
 21
71.538
 31
0.0
  0
LINE
  8
0
 62
     0
 10
279.28
 20
71.538
 30
0.0
 11
280.081
 21
71.538
 31
0.0
  0
LINE
  8
0
 62
     0
 10
280.081
 20
71.538
 30
0.0
 11
280.081
 21
70.5376
 31
0.0
  0
LINE
  8
0
 62
     0
 10
280.081
 20
70.5376
 30
0.0
 11
294.08
 21
70.5376
 31
0.0
  0
LINE
  8
0
 62
     0
 10
294.08
 20
70.5376
 30
0.0
 11
294.08
 21
71.538
 31
0.0
  0
LINE
  8
0
 62
     0
 10
294.08
 20
71.538
 30
0.0
 11
294.881
 21
71.538
 31
0.0
  0
LINE
  8
0
 62
     0
 10
294.881
 20
71.538
 30
0.0
 11
294.881
 21
74.6386
 31
0.0
  0
LINE
  8
0
 62
     0
 10
294.881
 20
74.6386
 30
0.0
 11
294.08
 21
74.6386
 31
0.0
  0
LINE
  8
0
 62
     0
 10
294.08
 20
74.6386
 30
0.0
 11
294.08
 21
80.4376
 31
0.0
  0
LINE
  8
0
 62
     0
 10
294.08
 20
80.4376
 30
0.0
 11
294.881
 21
80.4376
 31
0.0
  0
LINE
  8
0
 62
     0
 10
294.881
 20
80.4376
 30
0.0
 11
294.881
 21
83.5395
 31
0.0
  0
LINE
  8
0
 62
     0
 10
294.881
 20
83.5395
 30
0.0
 11
294.08
 21
83.5395
 31
0.0
  0
LINE
  8
0
 62
     0
 10
294.08
 20
83.5395
 30
0.0
 11
294.08
 21
84.5386
 31
0.0
  0
LINE
  8
0
 62
     0
 10
294.08
 20
84.5386
 30
0.0
 11
280.081
 21
84.5386
 31
0.0
  0
LINE
  8
0
 62
     0
 10
303.893
 20
84.5386
 30
0.0
 11
303.893
 21
83.5395
 31
0.0
  0
LINE
  8
0
 62
     0
 10
303.893
 20
83.5395
 30
0.0
 11
303.094
 21
83.5395
 31
0.0
  0
LINE
  8
0
 62
     0
 10
303.094
 20
83.5395
 30
0.0
 11
303.094
 21
80.4376
 31
0.0
  0
LINE
  8
0
 62
     0
 10
303.094
 20
80.4376
 30
0.0
 11
303.893
 21
80.4376
 31
0.0
  0
LINE
  8
0
 62
     0
 10
303.893
 20
80.4376
 30
0.0
 11
303.893
 21
74.6386
 31
0.0
  0
LINE
  8
0
 62
     0
 10
303.893
 20
74.6386
 30
0.0
 11
303.094
 21
74.6386
 31
0.0
  0
LINE
  8
0
 62
     0
 10
303.094
 20
74.6386
 30
0.0
 11
303.094
 21
71.538
 31
0.0
  0
LINE
  8
0
 62
     0
 10
303.094
 20
71.538
 30
0.0
 11
303.893
 21
71.538
 31
0.0
  0
LINE
  8
0
 62
     0
 10
303.893
 20
71.538
 30
0.0
 11
303.893
 21
70.5376
 31
0.0
  0
LINE
  8
0
 62
     0
 10
303.893
 20
70.5376
 30
0.0
 11
317.894
 21
70.5376
 31
0.0
  0
LINE
  8
0
 62
     0
 10
317.894
 20
70.5376
 30
0.0
 11
317.894
 21
71.538
 31
0.0
  0
LINE
  8
0
 62
     0
 10
317.894
 20
71.538
 30
0.0
 11
318.693
 21
71.538
 31
0.0
  0
LINE
  8
0
 62
     0
 10
318.693
 20
71.538
 30
0.0
 11
318.693
 21
74.6386
 31
0.0
  0
LINE
  8
0
 62
     0
 10
318.693
 20
74.6386
 30
0.0
 11
317.894
 21
74.6386
 31
0.0
  0
LINE
  8
0
 62
     0
 10
317.894
 20
74.6386
 30
0.0
 11
317.894
 21
80.4376
 31
0.0
  0
LINE
  8
0
 62
     0
 10
317.894
 20
80.4376
 30
0.0
 11
318.693
 21
80.4376
 31
0.0
  0
LINE
  8
0
 62
     0
 10
318.693
 20
80.4376
 30
0.0
 11
318.693
 21
83.5395
 31
0.0
  0
LINE
  8
0
 62
     0
 10
318.693
 20
83.5395
 30
0.0
 11
317.894
 21
83.5395
 31
0.0
  0
LINE
  8
0
 62
     0
 10
317.894
 20
83.5395
 30
0.0
 11
317.894
 21
84.5386
 31
0.0
  0
LINE
  8
0
 62
     0
 10
317.894
 20
84.5386
 30
0.0
 11
303.893
 21
84.5386
 31
0.0
  0
LINE
  8
0
 62
     0
 10
322.943
 20
84.5386
 30
0.0
 11
322.943
 21
83.5395
 31
0.0
  0
LINE
  8
0
 62
     0
 10
322.943
 20
83.5395
 30
0.0
 11
322.144
 21
83.5395
 31
0.0
  0
LINE
  8
0
 62
     0
 10
322.144
 20
83.5395
 30
0.0
 11
322.144
 21
80.4376
 31
0.0
  0
LINE
  8
0
 62
     0
 10
322.144
 20
80.4376
 30
0.0
 11
322.943
 21
80.4376
 31
0.0
  0
LINE
  8
0
 62
     0
 10
322.943
 20
80.4376
 30
0.0
 11
322.943
 21
74.6386
 31
0.0
  0
LINE
  8
0
 62
     0
 10
322.943
 20
74.6386
 30
0.0
 11
322.144
 21
74.6386
 31
0.0
  0
LINE
  8
0
 62
     0
 10
322.144
 20
74.6386
 30
0.0
 11
322.144
 21
71.538
 31
0.0
  0
LINE
  8
0
 62
     0
 10
322.144
 20
71.538
 30
0.0
 11
322.943
 21
71.538
 31
0.0
  0
LINE
  8
0
 62
     0
 10
322.943
 20
71.538
 30
0.0
 11
322.943
 21
70.5376
 31
0.0
  0
LINE
  8
0
 62
     0
 10
322.943
 20
70.5376
 30
0.0
 11
336.944
 21
70.5376
 31
0.0
  0
LINE
  8
0
 62
     0
 10
336.944
 20
70.5376
 30
0.0
 11
336.944
 21
71.538
 31
0.0
  0
LINE
  8
0
 62
     0
 10
336.944
 20
71.538
 30
0.0
 11
337.743
 21
71.538
 31
0.0
  0
LINE
  8
0
 62
     0
 10
337.743
 20
71.538
 30
0.0
 11
337.743
 21
74.6386
 31
0.0
  0
LINE
  8
0
 62
     0
 10
337.743
 20
74.6386
 30
0.0
 11
336.944
 21
74.6386
 31
0.0
  0
LINE
  8
0
 62
     0
 10
336.944
 20
74.6386
 30
0.0
 11
336.944
 21
80.4376
 31
0.0
  0
LINE
  8
0
 62
     0
 10
336.944
 20
80.4376
 30
0.0
 11
337.743
 21
80.4376
 31
0.0
  0
LINE
  8
0
 62
     0
 10
337.743
 20
80.4376
 30
0.0
 11
337.743
 21
83.5395
 31
0.0
  0
LINE
  8
0
 62
     0
 10
337.743
 20
83.5395
 30
0.0
 11
336.944
 21
83.5395
 31
0.0
  0
LINE
  8
0
 62
     0
 10
336.944
 20
83.5395
 30
0.0
 11
336.944
 21
84.5386
 31
0.0
  0
LINE
  8
0
 62
     0
 10
336.944
 20
84.5386
 30
0.0
 11
322.943
 21
84.5386
 31
0.0
  0
LINE
  8
0
 62
     0
 10
115.91
 20
91.0153
 30
0.0
 11
115.631
 21
90.8734
 31
0.0
  0
LINE
  8
0
 62
     0
 10
115.631
 20
90.8734
 30
0.0
 11
115.409
 21
90.6515
 31
0.0
  0
LINE
  8
0
 62
     0
 10
115.409
 20
90.6515
 30
0.0
 11
115.267
 21
90.3732
 31
0.0
  0
LINE
  8
0
 62
     0
 10
115.267
 20
90.3732
 30
0.0
 11
115.219
 21
90.0645
 31
0.0
  0
LINE
  8
0
 62
     0
 10
115.219
 20
90.0645
 30
0.0
 11
115.267
 21
89.753
 31
0.0
  0
LINE
  8
0
 62
     0
 10
115.267
 20
89.753
 30
0.0
 11
115.409
 21
89.4761
 31
0.0
  0
LINE
  8
0
 62
     0
 10
115.409
 20
89.4761
 30
0.0
 11
115.631
 21
89.2528
 31
0.0
  0
LINE
  8
0
 62
     0
 10
115.631
 20
89.2528
 30
0.0
 11
115.91
 21
89.1124
 31
0.0
  0
LINE
  8
0
 62
     0
 10
115.91
 20
89.1124
 30
0.0
 11
116.218
 21
89.0626
 31
0.0
  0
LINE
  8
0
 62
     0
 10
116.218
 20
89.0626
 30
0.0
 11
116.528
 21
89.1124
 31
0.0
  0
LINE
  8
0
 62
     0
 10
116.528
 20
89.1124
 30
0.0
 11
116.806
 21
89.2528
 31
0.0
  0
LINE
  8
0
 62
     0
 10
116.806
 20
89.2528
 30
0.0
 11
117.027
 21
89.4761
 31
0.0
  0
LINE
  8
0
 62
     0
 10
117.027
 20
89.4761
 30
0.0
 11
117.169
 21
89.753
 31
0.0
  0
LINE
  8
0
 62
     0
 10
117.169
 20
89.753
 30
0.0
 11
117.219
 21
90.0617
 31
0.0
  0
LINE
  8
0
 62
     0
 10
117.219
 20
90.0617
 30
0.0
 11
117.169
 21
90.3732
 31
0.0
  0
LINE
  8
0
 62
     0
 10
117.169
 20
90.3732
 30
0.0
 11
117.027
 21
90.6515
 31
0.0
  0
LINE
  8
0
 62
     0
 10
117.027
 20
90.6515
 30
0.0
 11
116.806
 21
90.8734
 31
0.0
  0
LINE
  8
0
 62
     0
 10
116.806
 20
90.8734
 30
0.0
 11
116.528
 21
91.0153
 31
0.0
  0
LINE
  8
0
 62
     0
 10
116.528
 20
91.0153
 30
0.0
 11
116.218
 21
91.0636
 31
0.0
  0
LINE
  8
0
 62
     0
 10
116.218
 20
91.0636
 30
0.0
 11
115.91
 21
91.0153
 31
0.0
  0
LINE
  8
0
 62
     0
 10
229.034
 20
91.0153
 30
0.0
 11
228.756
 21
90.8734
 31
0.0
  0
LINE
  8
0
 62
     0
 10
228.756
 20
90.8734
 30
0.0
 11
228.535
 21
90.6515
 31
0.0
  0
LINE
  8
0
 62
     0
 10
228.535
 20
90.6515
 30
0.0
 11
228.393
 21
90.3732
 31
0.0
  0
LINE
  8
0
 62
     0
 10
228.393
 20
90.3732
 30
0.0
 11
228.344
 21
90.0645
 31
0.0
  0
LINE
  8
0
 62
     0
 10
228.344
 20
90.0645
 30
0.0
 11
228.393
 21
89.753
 31
0.0
  0
LINE
  8
0
 62
     0
 10
228.393
 20
89.753
 30
0.0
 11
228.535
 21
89.4761
 31
0.0
  0
LINE
  8
0
 62
     0
 10
228.535
 20
89.4761
 30
0.0
 11
228.756
 21
89.2528
 31
0.0
  0
LINE
  8
0
 62
     0
 10
228.756
 20
89.2528
 30
0.0
 11
229.034
 21
89.1124
 31
0.0
  0
LINE
  8
0
 62
     0
 10
229.034
 20
89.1124
 30
0.0
 11
229.344
 21
89.0626
 31
0.0
  0
LINE
  8
0
 62
     0
 10
229.344
 20
89.0626
 30
0.0
 11
229.653
 21
89.1124
 31
0.0
  0
LINE
  8
0
 62
     0
 10
229.653
 20
89.1124
 30
0.0
 11
229.931
 21
89.2528
 31
0.0
  0
LINE
  8
0
 62
     0
 10
229.931
 20
89.2528
 30
0.0
 11
230.153
 21
89.4761
 31
0.0
  0
LINE
  8
0
 62
     0
 10
230.153
 20
89.4761
 30
0.0
 11
230.295
 21
89.753
 31
0.0
  0
LINE
  8
0
 62
     0
 10
230.295
 20
89.753
 30
0.0
 11
230.343
 21
90.0617
 31
0.0
  0
LINE
  8
0
 62
     0
 10
230.343
 20
90.0617
 30
0.0
 11
230.295
 21
90.3732
 31
0.0
  0
LINE
  8
0
 62
     0
 10
230.295
 20
90.3732
 30
0.0
 11
230.153
 21
90.6515
 31
0.0
  0
LINE
  8
0
 62
     0
 10
230.153
 20
90.6515
 30
0.0
 11
229.931
 21
90.8734
 31
0.0
  0
LINE
  8
0
 62
     0
 10
229.931
 20
90.8734
 30
0.0
 11
229.653
 21
91.0153
 31
0.0
  0
LINE
  8
0
 62
     0
 10
229.653
 20
91.0153
 30
0.0
 11
229.344
 21
91.0636
 31
0.0
  0
LINE
  8
0
 62
     0
 10
229.344
 20
91.0636
 30
0.0
 11
229.034
 21
91.0153
 31
0.0
  0
LINE
  8
0
 62
     0
 10
342.16
 20
91.0153
 30
0.0
 11
341.882
 21
90.8734
 31
0.0
  0
LINE
  8
0
 62
     0
 10
341.882
 20
90.8734
 30
0.0
 11
341.66
 21
90.6515
 31
0.0
  0
LINE
  8
0
 62
     0
 10
341.66
 20
90.6515
 30
0.0
 11
341.518
 21
90.3732
 31
0.0
  0
LINE
  8
0
 62
     0
 10
341.518
 20
90.3732
 30
0.0
 11
341.469
 21
90.0645
 31
0.0
  0
LINE
  8
0
 62
     0
 10
341.469
 20
90.0645
 30
0.0
 11
341.518
 21
89.753
 31
0.0
  0
LINE
  8
0
 62
     0
 10
341.518
 20
89.753
 30
0.0
 11
341.66
 21
89.4761
 31
0.0
  0
LINE
  8
0
 62
     0
 10
341.66
 20
89.4761
 30
0.0
 11
341.882
 21
89.2528
 31
0.0
  0
LINE
  8
0
 62
     0
 10
341.882
 20
89.2528
 30
0.0
 11
342.16
 21
89.1124
 31
0.0
  0
LINE
  8
0
 62
     0
 10
342.16
 20
89.1124
 30
0.0
 11
342.47
 21
89.0626
 31
0.0
  0
LINE
  8
0
 62
     0
 10
342.47
 20
89.0626
 30
0.0
 11
342.779
 21
89.1124
 31
0.0
  0
LINE
  8
0
 62
     0
 10
342.779
 20
89.1124
 30
0.0
 11
343.057
 21
89.2528
 31
0.0
  0
LINE
  8
0
 62
     0
 10
343.057
 20
89.2528
 30
0.0
 11
343.279
 21
89.4761
 31
0.0
  0
LINE
  8
0
 62
     0
 10
343.279
 20
89.4761
 30
0.0
 11
343.421
 21
89.753
 31
0.0
  0
LINE
  8
0
 62
     0
 10
343.421
 20
89.753
 30
0.0
 11
343.469
 21
90.0617
 31
0.0
  0
LINE
  8
0
 62
     0
 10
343.469
 20
90.0617
 30
0.0
 11
343.421
 21
90.3732
 31
0.0
  0
LINE
  8
0
 62
     0
 10
343.421
 20
90.3732
 30
0.0
 11
343.279
 21
90.6515
 31
0.0
  0
LINE
  8
0
 62
     0
 10
343.279
 20
90.6515
 30
0.0
 11
343.057
 21
90.8734
 31
0.0
  0
LINE
  8
0
 62
     0
 10
343.057
 20
90.8734
 30
0.0
 11
342.779
 21
91.0153
 31
0.0
  0
LINE
  8
0
 62
     0
 10
342.779
 20
91.0153
 30
0.0
 11
342.47
 21
91.0636
 31
0.0
  0
LINE
  8
0
 62
     0
 10
342.47
 20
91.0636
 30
0.0
 11
342.16
 21
91.0153
 31
0.0
  0
LINE
  8
0
 62
     0
 10
2.78364
 20
91.0153
 30
0.0
 11
2.50527
 21
90.8734
 31
0.0
  0
LINE
  8
0
 62
     0
 10
2.50527
 20
90.8734
 30
0.0
 11
2.28341
 21
90.6515
 31
0.0
  0
LINE
  8
0
 62
     0
 10
2.28341
 20
90.6515
 30
0.0
 11
2.14147
 21
90.3732
 31
0.0
  0
LINE
  8
0
 62
     0
 10
2.14147
 20
90.3732
 30
0.0
 11
2.09324
 21
90.0645
 31
0.0
  0
LINE
  8
0
 62
     0
 10
2.09324
 20
90.0645
 30
0.0
 11
2.14147
 21
89.753
 31
0.0
  0
LINE
  8
0
 62
     0
 10
2.14147
 20
89.753
 30
0.0
 11
2.28341
 21
89.4761
 31
0.0
  0
LINE
  8
0
 62
     0
 10
2.28341
 20
89.4761
 30
0.0
 11
2.50527
 21
89.2528
 31
0.0
  0
LINE
  8
0
 62
     0
 10
2.50527
 20
89.2528
 30
0.0
 11
2.78364
 21
89.1124
 31
0.0
  0
LINE
  8
0
 62
     0
 10
2.78364
 20
89.1124
 30
0.0
 11
3.0937
 21
89.0626
 31
0.0
  0
LINE
  8
0
 62
     0
 10
3.0937
 20
89.0626
 30
0.0
 11
3.40238
 21
89.1124
 31
0.0
  0
LINE
  8
0
 62
     0
 10
3.40238
 20
89.1124
 30
0.0
 11
3.68074
 21
89.2528
 31
0.0
  0
LINE
  8
0
 62
     0
 10
3.68074
 20
89.2528
 30
0.0
 11
3.9026
 21
89.4761
 31
0.0
  0
LINE
  8
0
 62
     0
 10
3.9026
 20
89.4761
 30
0.0
 11
4.04453
 21
89.753
 31
0.0
  0
LINE
  8
0
 62
     0
 10
4.04453
 20
89.753
 30
0.0
 11
4.09416
 21
90.0617
 31
0.0
  0
LINE
  8
0
 62
     0
 10
4.09416
 20
90.0617
 30
0.0
 11
4.04453
 21
90.3732
 31
0.0
  0
LINE
  8
0
 62
     0
 10
4.04453
 20
90.3732
 30
0.0
 11
3.9026
 21
90.6515
 31
0.0
  0
LINE
  8
0
 62
     0
 10
3.9026
 20
90.6515
 30
0.0
 11
3.68074
 21
90.8734
 31
0.0
  0
LINE
  8
0
 62
     0
 10
3.68074
 20
90.8734
 30
0.0
 11
3.40238
 21
91.0153
 31
0.0
  0
LINE
  8
0
 62
     0
 10
3.40238
 20
91.0153
 30
0.0
 11
3.0937
 21
91.0636
 31
0.0
  0
LINE
  8
0
 62
     0
 10
3.0937
 20
91.0636
 30
0.0
 11
2.78364
 21
91.0153
 31
0.0
  0
ENDSEC
  0
EOF
