  0
SECTION
  2
HEADER
  9
$ACADVER
  1
AC1009
  9
$EXTMIN
 10
0.0
 20
0.0
 30
0.0
  9
$EXTMAX
 10
1000.0
 20
1000.0
 30
0.0
  9
$FILLMODE
 70
 0
  9
$SPLFRAME
 70
 1
  0
ENDSEC
  0
SECTION
  2
TABLES
  0
TABLE
  2
LAYER
 70
1
  0
LAYER
  2
0
 70
     0
 62
     7
  6
CONTINUOUS
  0
ENDTAB
  0
ENDSEC
  0
SECTION
  2
ENTITIES
  0
LINE
  8
0
 62
     0
 10
345.471
 20
97.0608
 30
0.0
 11
345.784
 21
97.0499
 31
0.0
  0
LINE
  8
0
 62
     0
 10
345.784
 20
97.0499
 30
0.0
 11
346.096
 21
97.0125
 31
0.0
  0
LINE
  8
0
 62
     0
 10
346.096
 20
97.0125
 30
0.0
 11
346.405
 21
96.9504
 31
0.0
  0
LINE
  8
0
 62
     0
 10
346.405
 20
96.9504
 30
0.0
 11
346.706
 21
96.8664
 31
0.0
  0
LINE
  8
0
 62
     0
 10
346.706
 20
96.8664
 30
0.0
 11
347.001
 21
96.7574
 31
0.0
  0
LINE
  8
0
 62
     0
 10
347.001
 20
96.7574
 30
0.0
 11
347.286
 21
96.6265
 31
0.0
  0
LINE
  8
0
 62
     0
 10
347.286
 20
96.6265
 30
0.0
 11
347.559
 21
96.4724
 31
0.0
  0
LINE
  8
0
 62
     0
 10
347.559
 20
96.4724
 30
0.0
 11
347.822
 21
96.2988
 31
0.0
  0
LINE
  8
0
 62
     0
 10
347.822
 20
96.2988
 30
0.0
 11
348.067
 21
96.103
 31
0.0
  0
LINE
  8
0
 62
     0
 10
348.067
 20
96.103
 30
0.0
 11
348.299
 21
95.8896
 31
0.0
  0
LINE
  8
0
 62
     0
 10
348.299
 20
95.8896
 30
0.0
 11
348.511
 21
95.6592
 31
0.0
  0
LINE
  8
0
 62
     0
 10
348.511
 20
95.6592
 30
0.0
 11
348.707
 21
95.4126
 31
0.0
  0
LINE
  8
0
 62
     0
 10
348.707
 20
95.4126
 30
0.0
 11
348.881
 21
95.1509
 31
0.0
  0
LINE
  8
0
 62
     0
 10
348.881
 20
95.1509
 30
0.0
 11
349.035
 21
94.8764
 31
0.0
  0
LINE
  8
0
 62
     0
 10
349.035
 20
94.8764
 30
0.0
 11
349.166
 21
94.5928
 31
0.0
  0
LINE
  8
0
 62
     0
 10
349.166
 20
94.5928
 30
0.0
 11
349.275
 21
94.2979
 31
0.0
  0
LINE
  8
0
 62
     0
 10
349.275
 20
94.2979
 30
0.0
 11
349.36
 21
93.9945
 31
0.0
  0
LINE
  8
0
 62
     0
 10
349.36
 20
93.9945
 30
0.0
 11
349.421
 21
93.6872
 31
0.0
  0
LINE
  8
0
 62
     0
 10
349.421
 20
93.6872
 30
0.0
 11
349.458
 21
93.3746
 31
0.0
  0
LINE
  8
0
 62
     0
 10
349.458
 20
93.3746
 30
0.0
 11
349.47
 21
93.0617
 31
0.0
  0
LINE
  8
0
 62
     0
 10
349.47
 20
93.0617
 30
0.0
 11
349.47
 21
4.09829
 31
0.0
  0
LINE
  8
0
 62
     0
 10
349.47
 20
4.09829
 30
0.0
 11
349.458
 21
3.78411
 31
0.0
  0
LINE
  8
0
 62
     0
 10
349.458
 20
3.78411
 30
0.0
 11
349.421
 21
3.47266
 31
0.0
  0
LINE
  8
0
 62
     0
 10
349.421
 20
3.47266
 30
0.0
 11
349.36
 21
3.16398
 31
0.0
  0
LINE
  8
0
 62
     0
 10
349.36
 20
3.16398
 30
0.0
 11
349.275
 21
2.86219
 31
0.0
  0
LINE
  8
0
 62
     0
 10
349.275
 20
2.86219
 30
0.0
 11
349.166
 21
2.56728
 31
0.0
  0
LINE
  8
0
 62
     0
 10
349.166
 20
2.56728
 30
0.0
 11
349.035
 21
2.28203
 31
0.0
  0
LINE
  8
0
 62
     0
 10
349.035
 20
2.28203
 30
0.0
 11
348.881
 21
2.0078
 31
0.0
  0
LINE
  8
0
 62
     0
 10
348.881
 20
2.0078
 30
0.0
 11
348.707
 21
1.74735
 31
0.0
  0
LINE
  8
0
 62
     0
 10
348.707
 20
1.74735
 30
0.0
 11
348.511
 21
1.50068
 31
0.0
  0
LINE
  8
0
 62
     0
 10
348.511
 20
1.50068
 30
0.0
 11
348.299
 21
1.27055
 31
0.0
  0
LINE
  8
0
 62
     0
 10
348.299
 20
1.27055
 30
0.0
 11
348.067
 21
1.05558
 31
0.0
  0
LINE
  8
0
 62
     0
 10
348.067
 20
1.05558
 30
0.0
 11
347.822
 21
0.862651
 31
0.0
  0
LINE
  8
0
 62
     0
 10
347.822
 20
0.862651
 30
0.0
 11
347.559
 21
0.687641
 31
0.0
  0
LINE
  8
0
 62
     0
 10
347.559
 20
0.687641
 30
0.0
 11
347.286
 21
0.534681
 31
0.0
  0
LINE
  8
0
 62
     0
 10
347.286
 20
0.534681
 30
0.0
 11
347.001
 21
0.402389
 31
0.0
  0
LINE
  8
0
 62
     0
 10
347.001
 20
0.402389
 30
0.0
 11
346.706
 21
0.293522
 31
0.0
  0
LINE
  8
0
 62
     0
 10
346.706
 20
0.293522
 30
0.0
 11
346.405
 21
0.209462
 31
0.0
  0
LINE
  8
0
 62
     0
 10
346.405
 20
0.209462
 30
0.0
 11
346.096
 21
0.14745
 31
0.0
  0
LINE
  8
0
 62
     0
 10
346.096
 20
0.14745
 30
0.0
 11
345.784
 21
0.110243
 31
0.0
  0
LINE
  8
0
 62
     0
 10
345.784
 20
0.110243
 30
0.0
 11
345.471
 21
0.0978408
 31
0.0
  0
LINE
  8
0
 62
     0
 10
345.471
 20
0.0978408
 30
0.0
 11
4.09416
 21
0.0978408
 31
0.0
  0
LINE
  8
0
 62
     0
 10
4.09416
 20
0.0978408
 30
0.0
 11
3.78135
 21
0.110243
 31
0.0
  0
LINE
  8
0
 62
     0
 10
3.78135
 20
0.110243
 30
0.0
 11
3.46852
 21
0.14745
 31
0.0
  0
LINE
  8
0
 62
     0
 10
3.46852
 20
0.14745
 30
0.0
 11
3.16122
 21
0.209462
 31
0.0
  0
LINE
  8
0
 62
     0
 10
3.16122
 20
0.209462
 30
0.0
 11
2.85805
 21
0.293522
 31
0.0
  0
LINE
  8
0
 62
     0
 10
2.85805
 20
0.293522
 30
0.0
 11
2.56315
 21
0.402389
 31
0.0
  0
LINE
  8
0
 62
     0
 10
2.56315
 20
0.402389
 30
0.0
 11
2.27928
 21
0.534681
 31
0.0
  0
LINE
  8
0
 62
     0
 10
2.27928
 20
0.534681
 30
0.0
 11
2.00504
 21
0.687641
 31
0.0
  0
LINE
  8
0
 62
     0
 10
2.00504
 20
0.687641
 30
0.0
 11
1.74322
 21
0.862651
 31
0.0
  0
LINE
  8
0
 62
     0
 10
1.74322
 20
0.862651
 30
0.0
 11
1.49655
 21
1.05558
 31
0.0
  0
LINE
  8
0
 62
     0
 10
1.49655
 20
1.05558
 30
0.0
 11
1.26642
 21
1.27055
 31
0.0
  0
LINE
  8
0
 62
     0
 10
1.26642
 20
1.27055
 30
0.0
 11
1.05282
 21
1.50068
 31
0.0
  0
LINE
  8
0
 62
     0
 10
1.05282
 20
1.50068
 30
0.0
 11
0.857141
 21
1.74735
 31
0.0
  0
LINE
  8
0
 62
     0
 10
0.857141
 20
1.74735
 30
0.0
 11
0.683507
 21
2.0078
 31
0.0
  0
LINE
  8
0
 62
     0
 10
0.683507
 20
2.0078
 30
0.0
 11
0.529167
 21
2.28203
 31
0.0
  0
LINE
  8
0
 62
     0
 10
0.529167
 20
2.28203
 30
0.0
 11
0.398254
 21
2.56728
 31
0.0
  0
LINE
  8
0
 62
     0
 10
0.398254
 20
2.56728
 30
0.0
 11
0.289388
 21
2.86219
 31
0.0
  0
LINE
  8
0
 62
     0
 10
0.289388
 20
2.86219
 30
0.0
 11
0.205328
 21
3.16398
 31
0.0
  0
LINE
  8
0
 62
     0
 10
0.205328
 20
3.16398
 30
0.0
 11
0.143316
 21
3.47266
 31
0.0
  0
LINE
  8
0
 62
     0
 10
0.143316
 20
3.47266
 30
0.0
 11
0.106109
 21
3.78411
 31
0.0
  0
LINE
  8
0
 62
     0
 10
0.106109
 20
3.78411
 30
0.0
 11
0.0937066
 21
4.09829
 31
0.0
  0
LINE
  8
0
 62
     0
 10
0.0937066
 20
4.09829
 30
0.0
 11
0.0950846
 21
93.0617
 31
0.0
  0
LINE
  8
0
 62
     0
 10
0.0950846
 20
93.0617
 30
0.0
 11
0.106109
 21
93.3746
 31
0.0
  0
LINE
  8
0
 62
     0
 10
0.106109
 20
93.3746
 30
0.0
 11
0.143316
 21
93.6872
 31
0.0
  0
LINE
  8
0
 62
     0
 10
0.143316
 20
93.6872
 30
0.0
 11
0.205328
 21
93.9945
 31
0.0
  0
LINE
  8
0
 62
     0
 10
0.205328
 20
93.9945
 30
0.0
 11
0.289388
 21
94.2979
 31
0.0
  0
LINE
  8
0
 62
     0
 10
0.289388
 20
94.2979
 30
0.0
 11
0.398254
 21
94.5928
 31
0.0
  0
LINE
  8
0
 62
     0
 10
0.398254
 20
94.5928
 30
0.0
 11
0.529167
 21
94.8764
 31
0.0
  0
LINE
  8
0
 62
     0
 10
0.529167
 20
94.8764
 30
0.0
 11
0.683507
 21
95.1509
 31
0.0
  0
LINE
  8
0
 62
     0
 10
0.683507
 20
95.1509
 30
0.0
 11
0.857141
 21
95.4126
 31
0.0
  0
LINE
  8
0
 62
     0
 10
0.857141
 20
95.4126
 30
0.0
 11
1.05282
 21
95.6592
 31
0.0
  0
LINE
  8
0
 62
     0
 10
1.05282
 20
95.6592
 30
0.0
 11
1.26642
 21
95.8896
 31
0.0
  0
LINE
  8
0
 62
     0
 10
1.26642
 20
95.8896
 30
0.0
 11
1.49655
 21
96.103
 31
0.0
  0
LINE
  8
0
 62
     0
 10
1.49655
 20
96.103
 30
0.0
 11
1.74322
 21
96.2988
 31
0.0
  0
LINE
  8
0
 62
     0
 10
1.74322
 20
96.2988
 30
0.0
 11
2.00504
 21
96.4724
 31
0.0
  0
LINE
  8
0
 62
     0
 10
2.00504
 20
96.4724
 30
0.0
 11
2.27928
 21
96.6265
 31
0.0
  0
LINE
  8
0
 62
     0
 10
2.27928
 20
96.6265
 30
0.0
 11
2.56315
 21
96.7574
 31
0.0
  0
LINE
  8
0
 62
     0
 10
2.56315
 20
96.7574
 30
0.0
 11
2.85805
 21
96.8664
 31
0.0
  0
LINE
  8
0
 62
     0
 10
2.85805
 20
96.8664
 30
0.0
 11
3.16122
 21
96.9504
 31
0.0
  0
LINE
  8
0
 62
     0
 10
3.16122
 20
96.9504
 30
0.0
 11
3.46852
 21
97.0125
 31
0.0
  0
LINE
  8
0
 62
     0
 10
3.46852
 20
97.0125
 30
0.0
 11
3.78135
 21
97.0499
 31
0.0
  0
LINE
  8
0
 62
     0
 10
3.78135
 20
97.0499
 30
0.0
 11
4.09416
 21
97.0622
 31
0.0
  0
LINE
  8
0
 62
     0
 10
4.09416
 20
97.0622
 30
0.0
 11
345.471
 21
97.0608
 31
0.0
  0
LINE
  8
0
 62
     0
 10
345.161
 20
5.04913
 30
0.0
 11
344.883
 21
4.90721
 31
0.0
  0
LINE
  8
0
 62
     0
 10
344.883
 20
4.90721
 30
0.0
 11
344.661
 21
4.68672
 31
0.0
  0
LINE
  8
0
 62
     0
 10
344.661
 20
4.68672
 30
0.0
 11
344.519
 21
4.40697
 31
0.0
  0
LINE
  8
0
 62
     0
 10
344.519
 20
4.40697
 30
0.0
 11
344.471
 21
4.09829
 31
0.0
  0
LINE
  8
0
 62
     0
 10
344.471
 20
4.09829
 30
0.0
 11
344.519
 21
3.78961
 31
0.0
  0
LINE
  8
0
 62
     0
 10
344.519
 20
3.78961
 30
0.0
 11
344.661
 21
3.50986
 31
0.0
  0
LINE
  8
0
 62
     0
 10
344.661
 20
3.50986
 30
0.0
 11
344.883
 21
3.28938
 31
0.0
  0
LINE
  8
0
 62
     0
 10
344.883
 20
3.28938
 30
0.0
 11
345.161
 21
3.14744
 31
0.0
  0
LINE
  8
0
 62
     0
 10
345.161
 20
3.14744
 30
0.0
 11
345.471
 21
3.09783
 31
0.0
  0
LINE
  8
0
 62
     0
 10
345.471
 20
3.09783
 30
0.0
 11
345.78
 21
3.14744
 31
0.0
  0
LINE
  8
0
 62
     0
 10
345.78
 20
3.14744
 30
0.0
 11
346.057
 21
3.28938
 31
0.0
  0
LINE
  8
0
 62
     0
 10
346.057
 20
3.28938
 30
0.0
 11
346.28
 21
3.50986
 31
0.0
  0
LINE
  8
0
 62
     0
 10
346.28
 20
3.50986
 30
0.0
 11
346.422
 21
3.78961
 31
0.0
  0
LINE
  8
0
 62
     0
 10
346.422
 20
3.78961
 30
0.0
 11
346.47
 21
4.09829
 31
0.0
  0
LINE
  8
0
 62
     0
 10
346.47
 20
4.09829
 30
0.0
 11
346.422
 21
4.40697
 31
0.0
  0
LINE
  8
0
 62
     0
 10
346.422
 20
4.40697
 30
0.0
 11
346.28
 21
4.68672
 31
0.0
  0
LINE
  8
0
 62
     0
 10
346.28
 20
4.68672
 30
0.0
 11
346.057
 21
4.90721
 31
0.0
  0
LINE
  8
0
 62
     0
 10
346.057
 20
4.90721
 30
0.0
 11
345.78
 21
5.04913
 31
0.0
  0
LINE
  8
0
 62
     0
 10
345.78
 20
5.04913
 30
0.0
 11
345.471
 21
5.09873
 31
0.0
  0
LINE
  8
0
 62
     0
 10
345.471
 20
5.09873
 30
0.0
 11
345.161
 21
5.04913
 31
0.0
  0
LINE
  8
0
 62
     0
 10
231.369
 20
5.04913
 30
0.0
 11
231.09
 21
4.90721
 31
0.0
  0
LINE
  8
0
 62
     0
 10
231.09
 20
4.90721
 30
0.0
 11
230.868
 21
4.68672
 31
0.0
  0
LINE
  8
0
 62
     0
 10
230.868
 20
4.68672
 30
0.0
 11
230.726
 21
4.40697
 31
0.0
  0
LINE
  8
0
 62
     0
 10
230.726
 20
4.40697
 30
0.0
 11
230.678
 21
4.09829
 31
0.0
  0
LINE
  8
0
 62
     0
 10
230.678
 20
4.09829
 30
0.0
 11
230.726
 21
3.78961
 31
0.0
  0
LINE
  8
0
 62
     0
 10
230.726
 20
3.78961
 30
0.0
 11
230.868
 21
3.50986
 31
0.0
  0
LINE
  8
0
 62
     0
 10
230.868
 20
3.50986
 30
0.0
 11
231.09
 21
3.28938
 31
0.0
  0
LINE
  8
0
 62
     0
 10
231.09
 20
3.28938
 30
0.0
 11
231.369
 21
3.14744
 31
0.0
  0
LINE
  8
0
 62
     0
 10
231.369
 20
3.14744
 30
0.0
 11
231.679
 21
3.09783
 31
0.0
  0
LINE
  8
0
 62
     0
 10
231.679
 20
3.09783
 30
0.0
 11
231.987
 21
3.14744
 31
0.0
  0
LINE
  8
0
 62
     0
 10
231.987
 20
3.14744
 30
0.0
 11
232.266
 21
3.28938
 31
0.0
  0
LINE
  8
0
 62
     0
 10
232.266
 20
3.28938
 30
0.0
 11
232.488
 21
3.50986
 31
0.0
  0
LINE
  8
0
 62
     0
 10
232.488
 20
3.50986
 30
0.0
 11
232.629
 21
3.78961
 31
0.0
  0
LINE
  8
0
 62
     0
 10
232.629
 20
3.78961
 30
0.0
 11
232.679
 21
4.09829
 31
0.0
  0
LINE
  8
0
 62
     0
 10
232.679
 20
4.09829
 30
0.0
 11
232.629
 21
4.40697
 31
0.0
  0
LINE
  8
0
 62
     0
 10
232.629
 20
4.40697
 30
0.0
 11
232.488
 21
4.68672
 31
0.0
  0
LINE
  8
0
 62
     0
 10
232.488
 20
4.68672
 30
0.0
 11
232.266
 21
4.90721
 31
0.0
  0
LINE
  8
0
 62
     0
 10
232.266
 20
4.90721
 30
0.0
 11
231.987
 21
5.04913
 31
0.0
  0
LINE
  8
0
 62
     0
 10
231.987
 20
5.04913
 30
0.0
 11
231.679
 21
5.09873
 31
0.0
  0
LINE
  8
0
 62
     0
 10
231.679
 20
5.09873
 30
0.0
 11
231.369
 21
5.04913
 31
0.0
  0
LINE
  8
0
 62
     0
 10
117.577
 20
5.04913
 30
0.0
 11
117.299
 21
4.90721
 31
0.0
  0
LINE
  8
0
 62
     0
 10
117.299
 20
4.90721
 30
0.0
 11
117.077
 21
4.68672
 31
0.0
  0
LINE
  8
0
 62
     0
 10
117.077
 20
4.68672
 30
0.0
 11
116.935
 21
4.40697
 31
0.0
  0
LINE
  8
0
 62
     0
 10
116.935
 20
4.40697
 30
0.0
 11
116.887
 21
4.09829
 31
0.0
  0
LINE
  8
0
 62
     0
 10
116.887
 20
4.09829
 30
0.0
 11
116.935
 21
3.78961
 31
0.0
  0
LINE
  8
0
 62
     0
 10
116.935
 20
3.78961
 30
0.0
 11
117.077
 21
3.50986
 31
0.0
  0
LINE
  8
0
 62
     0
 10
117.077
 20
3.50986
 30
0.0
 11
117.299
 21
3.28938
 31
0.0
  0
LINE
  8
0
 62
     0
 10
117.299
 20
3.28938
 30
0.0
 11
117.577
 21
3.14744
 31
0.0
  0
LINE
  8
0
 62
     0
 10
117.577
 20
3.14744
 30
0.0
 11
117.887
 21
3.09783
 31
0.0
  0
LINE
  8
0
 62
     0
 10
117.887
 20
3.09783
 30
0.0
 11
118.196
 21
3.14744
 31
0.0
  0
LINE
  8
0
 62
     0
 10
118.196
 20
3.14744
 30
0.0
 11
118.474
 21
3.28938
 31
0.0
  0
LINE
  8
0
 62
     0
 10
118.474
 20
3.28938
 30
0.0
 11
118.696
 21
3.50986
 31
0.0
  0
LINE
  8
0
 62
     0
 10
118.696
 20
3.50986
 30
0.0
 11
118.838
 21
3.78961
 31
0.0
  0
LINE
  8
0
 62
     0
 10
118.838
 20
3.78961
 30
0.0
 11
118.886
 21
4.09829
 31
0.0
  0
LINE
  8
0
 62
     0
 10
118.886
 20
4.09829
 30
0.0
 11
118.838
 21
4.40697
 31
0.0
  0
LINE
  8
0
 62
     0
 10
118.838
 20
4.40697
 30
0.0
 11
118.696
 21
4.68672
 31
0.0
  0
LINE
  8
0
 62
     0
 10
118.696
 20
4.68672
 30
0.0
 11
118.474
 21
4.90721
 31
0.0
  0
LINE
  8
0
 62
     0
 10
118.474
 20
4.90721
 30
0.0
 11
118.196
 21
5.04913
 31
0.0
  0
LINE
  8
0
 62
     0
 10
118.196
 20
5.04913
 30
0.0
 11
117.887
 21
5.09873
 31
0.0
  0
LINE
  8
0
 62
     0
 10
117.887
 20
5.09873
 30
0.0
 11
117.577
 21
5.04913
 31
0.0
  0
LINE
  8
0
 62
     0
 10
3.78411
 20
5.04913
 30
0.0
 11
3.50711
 21
4.90721
 31
0.0
  0
LINE
  8
0
 62
     0
 10
3.50711
 20
4.90721
 30
0.0
 11
3.28386
 21
4.68672
 31
0.0
  0
LINE
  8
0
 62
     0
 10
3.28386
 20
4.68672
 30
0.0
 11
3.14331
 21
4.40697
 31
0.0
  0
LINE
  8
0
 62
     0
 10
3.14331
 20
4.40697
 30
0.0
 11
3.0937
 21
4.09829
 31
0.0
  0
LINE
  8
0
 62
     0
 10
3.0937
 20
4.09829
 30
0.0
 11
3.14331
 21
3.78961
 31
0.0
  0
LINE
  8
0
 62
     0
 10
3.14331
 20
3.78961
 30
0.0
 11
3.28386
 21
3.50986
 31
0.0
  0
LINE
  8
0
 62
     0
 10
3.28386
 20
3.50986
 30
0.0
 11
3.50711
 21
3.28938
 31
0.0
  0
LINE
  8
0
 62
     0
 10
3.50711
 20
3.28938
 30
0.0
 11
3.78411
 21
3.14744
 31
0.0
  0
LINE
  8
0
 62
     0
 10
3.78411
 20
3.14744
 30
0.0
 11
4.09416
 21
3.09783
 31
0.0
  0
LINE
  8
0
 62
     0
 10
4.09416
 20
3.09783
 30
0.0
 11
4.40422
 21
3.14744
 31
0.0
  0
LINE
  8
0
 62
     0
 10
4.40422
 20
3.14744
 30
0.0
 11
4.68118
 21
3.28938
 31
0.0
  0
LINE
  8
0
 62
     0
 10
4.68118
 20
3.28938
 30
0.0
 11
4.90442
 21
3.50986
 31
0.0
  0
LINE
  8
0
 62
     0
 10
4.90442
 20
3.50986
 30
0.0
 11
5.04638
 21
3.78961
 31
0.0
  0
LINE
  8
0
 62
     0
 10
5.04638
 20
3.78961
 30
0.0
 11
5.0946
 21
4.09829
 31
0.0
  0
LINE
  8
0
 62
     0
 10
5.0946
 20
4.09829
 30
0.0
 11
5.04638
 21
4.40697
 31
0.0
  0
LINE
  8
0
 62
     0
 10
5.04638
 20
4.40697
 30
0.0
 11
4.90442
 21
4.68672
 31
0.0
  0
LINE
  8
0
 62
     0
 10
4.90442
 20
4.68672
 30
0.0
 11
4.68118
 21
4.90721
 31
0.0
  0
LINE
  8
0
 62
     0
 10
4.68118
 20
4.90721
 30
0.0
 11
4.40422
 21
5.04913
 31
0.0
  0
LINE
  8
0
 62
     0
 10
4.40422
 20
5.04913
 30
0.0
 11
4.09416
 21
5.09873
 31
0.0
  0
LINE
  8
0
 62
     0
 10
4.09416
 20
5.09873
 30
0.0
 11
3.78411
 21
5.04913
 31
0.0
  0
LINE
  8
0
 62
     0
 10
286.844
 20
24.6242
 30
0.0
 11
286.844
 21
23.6237
 31
0.0
  0
LINE
  8
0
 62
     0
 10
286.844
 20
23.6237
 30
0.0
 11
286.045
 21
23.6237
 31
0.0
  0
LINE
  8
0
 62
     0
 10
286.045
 20
23.6237
 30
0.0
 11
286.045
 21
20.5245
 31
0.0
  0
LINE
  8
0
 62
     0
 10
286.045
 20
20.5245
 30
0.0
 11
286.844
 21
20.5245
 31
0.0
  0
LINE
  8
0
 62
     0
 10
286.844
 20
20.5245
 30
0.0
 11
286.844
 21
14.7243
 31
0.0
  0
LINE
  8
0
 62
     0
 10
286.844
 20
14.7243
 30
0.0
 11
286.045
 21
14.7243
 31
0.0
  0
LINE
  8
0
 62
     0
 10
286.045
 20
14.7243
 30
0.0
 11
286.045
 21
11.6237
 31
0.0
  0
LINE
  8
0
 62
     0
 10
286.045
 20
11.6237
 30
0.0
 11
286.844
 21
11.6237
 31
0.0
  0
LINE
  8
0
 62
     0
 10
286.844
 20
11.6237
 30
0.0
 11
286.844
 21
10.6247
 31
0.0
  0
LINE
  8
0
 62
     0
 10
286.844
 20
10.6247
 30
0.0
 11
300.845
 21
10.6247
 31
0.0
  0
LINE
  8
0
 62
     0
 10
300.845
 20
10.6247
 30
0.0
 11
300.845
 21
11.6237
 31
0.0
  0
LINE
  8
0
 62
     0
 10
300.845
 20
11.6237
 30
0.0
 11
301.644
 21
11.6237
 31
0.0
  0
LINE
  8
0
 62
     0
 10
301.644
 20
11.6237
 30
0.0
 11
301.644
 21
14.7243
 31
0.0
  0
LINE
  8
0
 62
     0
 10
301.644
 20
14.7243
 30
0.0
 11
300.845
 21
14.7243
 31
0.0
  0
LINE
  8
0
 62
     0
 10
300.845
 20
14.7243
 30
0.0
 11
300.845
 21
20.5245
 31
0.0
  0
LINE
  8
0
 62
     0
 10
300.845
 20
20.5245
 30
0.0
 11
301.644
 21
20.5245
 31
0.0
  0
LINE
  8
0
 62
     0
 10
301.644
 20
20.5245
 30
0.0
 11
301.644
 21
23.6237
 31
0.0
  0
LINE
  8
0
 62
     0
 10
301.644
 20
23.6237
 30
0.0
 11
300.845
 21
23.6237
 31
0.0
  0
LINE
  8
0
 62
     0
 10
300.845
 20
23.6237
 30
0.0
 11
300.845
 21
24.6242
 31
0.0
  0
LINE
  8
0
 62
     0
 10
300.845
 20
24.6242
 30
0.0
 11
286.844
 21
24.6242
 31
0.0
  0
LINE
  8
0
 62
     0
 10
305.894
 20
24.6242
 30
0.0
 11
305.894
 21
23.6237
 31
0.0
  0
LINE
  8
0
 62
     0
 10
305.894
 20
23.6237
 30
0.0
 11
305.095
 21
23.6237
 31
0.0
  0
LINE
  8
0
 62
     0
 10
305.095
 20
23.6237
 30
0.0
 11
305.095
 21
20.5245
 31
0.0
  0
LINE
  8
0
 62
     0
 10
305.095
 20
20.5245
 30
0.0
 11
305.894
 21
20.5245
 31
0.0
  0
LINE
  8
0
 62
     0
 10
305.894
 20
20.5245
 30
0.0
 11
305.894
 21
14.7243
 31
0.0
  0
LINE
  8
0
 62
     0
 10
305.894
 20
14.7243
 30
0.0
 11
305.095
 21
14.7243
 31
0.0
  0
LINE
  8
0
 62
     0
 10
305.095
 20
14.7243
 30
0.0
 11
305.095
 21
11.6237
 31
0.0
  0
LINE
  8
0
 62
     0
 10
305.095
 20
11.6237
 30
0.0
 11
305.894
 21
11.6237
 31
0.0
  0
LINE
  8
0
 62
     0
 10
305.894
 20
11.6237
 30
0.0
 11
305.894
 21
10.6247
 31
0.0
  0
LINE
  8
0
 62
     0
 10
305.894
 20
10.6247
 30
0.0
 11
319.895
 21
10.6247
 31
0.0
  0
LINE
  8
0
 62
     0
 10
319.895
 20
10.6247
 30
0.0
 11
319.895
 21
11.6237
 31
0.0
  0
LINE
  8
0
 62
     0
 10
319.895
 20
11.6237
 30
0.0
 11
320.694
 21
11.6237
 31
0.0
  0
LINE
  8
0
 62
     0
 10
320.694
 20
11.6237
 30
0.0
 11
320.694
 21
14.7243
 31
0.0
  0
LINE
  8
0
 62
     0
 10
320.694
 20
14.7243
 30
0.0
 11
319.895
 21
14.7243
 31
0.0
  0
LINE
  8
0
 62
     0
 10
319.895
 20
14.7243
 30
0.0
 11
319.895
 21
20.5245
 31
0.0
  0
LINE
  8
0
 62
     0
 10
319.895
 20
20.5245
 30
0.0
 11
320.694
 21
20.5245
 31
0.0
  0
LINE
  8
0
 62
     0
 10
320.694
 20
20.5245
 30
0.0
 11
320.694
 21
23.6237
 31
0.0
  0
LINE
  8
0
 62
     0
 10
320.694
 20
23.6237
 30
0.0
 11
319.895
 21
23.6237
 31
0.0
  0
LINE
  8
0
 62
     0
 10
319.895
 20
23.6237
 30
0.0
 11
319.895
 21
24.6242
 31
0.0
  0
LINE
  8
0
 62
     0
 10
319.895
 20
24.6242
 30
0.0
 11
305.894
 21
24.6242
 31
0.0
  0
LINE
  8
0
 62
     0
 10
324.944
 20
24.6242
 30
0.0
 11
324.944
 21
23.6237
 31
0.0
  0
LINE
  8
0
 62
     0
 10
324.944
 20
23.6237
 30
0.0
 11
324.145
 21
23.6237
 31
0.0
  0
LINE
  8
0
 62
     0
 10
324.145
 20
23.6237
 30
0.0
 11
324.145
 21
20.5245
 31
0.0
  0
LINE
  8
0
 62
     0
 10
324.145
 20
20.5245
 30
0.0
 11
324.944
 21
20.5245
 31
0.0
  0
LINE
  8
0
 62
     0
 10
324.944
 20
20.5245
 30
0.0
 11
324.944
 21
14.7243
 31
0.0
  0
LINE
  8
0
 62
     0
 10
324.944
 20
14.7243
 30
0.0
 11
324.145
 21
14.7243
 31
0.0
  0
LINE
  8
0
 62
     0
 10
324.145
 20
14.7243
 30
0.0
 11
324.145
 21
11.6237
 31
0.0
  0
LINE
  8
0
 62
     0
 10
324.145
 20
11.6237
 30
0.0
 11
324.944
 21
11.6237
 31
0.0
  0
LINE
  8
0
 62
     0
 10
324.944
 20
11.6237
 30
0.0
 11
324.944
 21
10.6247
 31
0.0
  0
LINE
  8
0
 62
     0
 10
324.944
 20
10.6247
 30
0.0
 11
338.945
 21
10.6247
 31
0.0
  0
LINE
  8
0
 62
     0
 10
338.945
 20
10.6247
 30
0.0
 11
338.945
 21
11.6237
 31
0.0
  0
LINE
  8
0
 62
     0
 10
338.945
 20
11.6237
 30
0.0
 11
339.744
 21
11.6237
 31
0.0
  0
LINE
  8
0
 62
     0
 10
339.744
 20
11.6237
 30
0.0
 11
339.744
 21
14.7243
 31
0.0
  0
LINE
  8
0
 62
     0
 10
339.744
 20
14.7243
 30
0.0
 11
338.945
 21
14.7243
 31
0.0
  0
LINE
  8
0
 62
     0
 10
338.945
 20
14.7243
 30
0.0
 11
338.945
 21
20.5245
 31
0.0
  0
LINE
  8
0
 62
     0
 10
338.945
 20
20.5245
 30
0.0
 11
339.744
 21
20.5245
 31
0.0
  0
LINE
  8
0
 62
     0
 10
339.744
 20
20.5245
 30
0.0
 11
339.744
 21
23.6237
 31
0.0
  0
LINE
  8
0
 62
     0
 10
339.744
 20
23.6237
 30
0.0
 11
338.945
 21
23.6237
 31
0.0
  0
LINE
  8
0
 62
     0
 10
338.945
 20
23.6237
 30
0.0
 11
338.945
 21
24.6242
 31
0.0
  0
LINE
  8
0
 62
     0
 10
338.945
 20
24.6242
 30
0.0
 11
324.944
 21
24.6242
 31
0.0
  0
LINE
  8
0
 62
     0
 10
158.257
 20
29.3867
 30
0.0
 11
158.257
 21
28.3862
 31
0.0
  0
LINE
  8
0
 62
     0
 10
158.257
 20
28.3862
 30
0.0
 11
157.457
 21
28.3862
 31
0.0
  0
LINE
  8
0
 62
     0
 10
157.457
 20
28.3862
 30
0.0
 11
157.457
 21
25.2856
 31
0.0
  0
LINE
  8
0
 62
     0
 10
157.457
 20
25.2856
 30
0.0
 11
158.257
 21
25.2856
 31
0.0
  0
LINE
  8
0
 62
     0
 10
158.257
 20
25.2856
 30
0.0
 11
158.257
 21
24.6862
 31
0.0
  0
LINE
  8
0
 62
     0
 10
158.257
 20
24.6862
 30
0.0
 11
156.731
 21
24.6862
 31
0.0
  0
LINE
  8
0
 62
     0
 10
156.731
 20
24.6862
 30
0.0
 11
156.731
 21
27.9163
 31
0.0
  0
LINE
  8
0
 62
     0
 10
156.731
 20
27.9163
 30
0.0
 11
155.007
 21
27.9163
 31
0.0
  0
LINE
  8
0
 62
     0
 10
155.007
 20
27.9163
 30
0.0
 11
155.007
 21
28.8355
 31
0.0
  0
LINE
  8
0
 62
     0
 10
155.007
 20
28.8355
 30
0.0
 11
151.707
 21
28.8355
 31
0.0
  0
LINE
  8
0
 62
     0
 10
151.707
 20
28.8355
 30
0.0
 11
151.707
 21
27.9163
 31
0.0
  0
LINE
  8
0
 62
     0
 10
151.707
 20
27.9163
 30
0.0
 11
149.982
 21
27.9163
 31
0.0
  0
LINE
  8
0
 62
     0
 10
149.982
 20
27.9163
 30
0.0
 11
149.982
 21
24.6862
 31
0.0
  0
LINE
  8
0
 62
     0
 10
149.982
 20
24.6862
 30
0.0
 11
149.156
 21
24.6862
 31
0.0
  0
LINE
  8
0
 62
     0
 10
149.156
 20
24.6862
 30
0.0
 11
149.156
 21
21.886
 31
0.0
  0
LINE
  8
0
 62
     0
 10
149.156
 20
21.886
 30
0.0
 11
149.982
 21
21.886
 31
0.0
  0
LINE
  8
0
 62
     0
 10
149.982
 20
21.886
 30
0.0
 11
149.982
 21
15.6159
 31
0.0
  0
LINE
  8
0
 62
     0
 10
149.982
 20
15.6159
 30
0.0
 11
151.707
 21
15.6159
 31
0.0
  0
LINE
  8
0
 62
     0
 10
151.707
 20
15.6159
 30
0.0
 11
151.707
 21
14.6362
 31
0.0
  0
LINE
  8
0
 62
     0
 10
151.707
 20
14.6362
 30
0.0
 11
155.007
 21
14.6362
 31
0.0
  0
LINE
  8
0
 62
     0
 10
155.007
 20
14.6362
 30
0.0
 11
155.007
 21
15.6159
 31
0.0
  0
LINE
  8
0
 62
     0
 10
155.007
 20
15.6159
 30
0.0
 11
156.731
 21
15.6159
 31
0.0
  0
LINE
  8
0
 62
     0
 10
156.731
 20
15.6159
 30
0.0
 11
156.731
 21
20.0863
 31
0.0
  0
LINE
  8
0
 62
     0
 10
156.731
 20
20.0863
 30
0.0
 11
158.257
 21
20.0863
 31
0.0
  0
LINE
  8
0
 62
     0
 10
158.257
 20
20.0863
 30
0.0
 11
158.257
 21
19.4855
 31
0.0
  0
LINE
  8
0
 62
     0
 10
158.257
 20
19.4855
 30
0.0
 11
157.457
 21
19.4855
 31
0.0
  0
LINE
  8
0
 62
     0
 10
157.457
 20
19.4855
 30
0.0
 11
157.457
 21
16.3862
 31
0.0
  0
LINE
  8
0
 62
     0
 10
157.457
 20
16.3862
 30
0.0
 11
158.257
 21
16.3862
 31
0.0
  0
LINE
  8
0
 62
     0
 10
158.257
 20
16.3862
 30
0.0
 11
158.257
 21
15.3858
 31
0.0
  0
LINE
  8
0
 62
     0
 10
158.257
 20
15.3858
 30
0.0
 11
172.256
 21
15.3858
 31
0.0
  0
LINE
  8
0
 62
     0
 10
172.256
 20
15.3858
 30
0.0
 11
172.256
 21
16.3862
 31
0.0
  0
LINE
  8
0
 62
     0
 10
172.256
 20
16.3862
 30
0.0
 11
173.057
 21
16.3862
 31
0.0
  0
LINE
  8
0
 62
     0
 10
173.057
 20
16.3862
 30
0.0
 11
173.057
 21
19.4855
 31
0.0
  0
LINE
  8
0
 62
     0
 10
173.057
 20
19.4855
 30
0.0
 11
172.256
 21
19.4855
 31
0.0
  0
LINE
  8
0
 62
     0
 10
172.256
 20
19.4855
 30
0.0
 11
172.256
 21
20.0863
 31
0.0
  0
LINE
  8
0
 62
     0
 10
172.256
 20
20.0863
 30
0.0
 11
173.782
 21
20.0863
 31
0.0
  0
LINE
  8
0
 62
     0
 10
173.782
 20
20.0863
 30
0.0
 11
173.782
 21
15.6159
 31
0.0
  0
LINE
  8
0
 62
     0
 10
173.782
 20
15.6159
 30
0.0
 11
175.507
 21
15.6159
 31
0.0
  0
LINE
  8
0
 62
     0
 10
175.507
 20
15.6159
 30
0.0
 11
175.507
 21
14.6362
 31
0.0
  0
LINE
  8
0
 62
     0
 10
175.507
 20
14.6362
 30
0.0
 11
178.807
 21
14.6362
 31
0.0
  0
LINE
  8
0
 62
     0
 10
178.807
 20
14.6362
 30
0.0
 11
178.807
 21
15.6159
 31
0.0
  0
LINE
  8
0
 62
     0
 10
178.807
 20
15.6159
 30
0.0
 11
180.531
 21
15.6159
 31
0.0
  0
LINE
  8
0
 62
     0
 10
180.531
 20
15.6159
 30
0.0
 11
180.531
 21
21.886
 31
0.0
  0
LINE
  8
0
 62
     0
 10
180.531
 20
21.886
 30
0.0
 11
181.357
 21
21.886
 31
0.0
  0
LINE
  8
0
 62
     0
 10
181.357
 20
21.886
 30
0.0
 11
181.357
 21
24.6862
 31
0.0
  0
LINE
  8
0
 62
     0
 10
181.357
 20
24.6862
 30
0.0
 11
180.531
 21
24.6862
 31
0.0
  0
LINE
  8
0
 62
     0
 10
180.531
 20
24.6862
 30
0.0
 11
180.531
 21
27.9163
 31
0.0
  0
LINE
  8
0
 62
     0
 10
180.531
 20
27.9163
 30
0.0
 11
178.807
 21
27.9163
 31
0.0
  0
LINE
  8
0
 62
     0
 10
178.807
 20
27.9163
 30
0.0
 11
178.807
 21
28.8355
 31
0.0
  0
LINE
  8
0
 62
     0
 10
178.807
 20
28.8355
 30
0.0
 11
175.507
 21
28.8355
 31
0.0
  0
LINE
  8
0
 62
     0
 10
175.507
 20
28.8355
 30
0.0
 11
175.507
 21
27.9163
 31
0.0
  0
LINE
  8
0
 62
     0
 10
175.507
 20
27.9163
 30
0.0
 11
173.782
 21
27.9163
 31
0.0
  0
LINE
  8
0
 62
     0
 10
173.782
 20
27.9163
 30
0.0
 11
173.782
 21
24.6862
 31
0.0
  0
LINE
  8
0
 62
     0
 10
173.782
 20
24.6862
 30
0.0
 11
172.256
 21
24.6862
 31
0.0
  0
LINE
  8
0
 62
     0
 10
172.256
 20
24.6862
 30
0.0
 11
172.256
 21
25.2856
 31
0.0
  0
LINE
  8
0
 62
     0
 10
172.256
 20
25.2856
 30
0.0
 11
173.057
 21
25.2856
 31
0.0
  0
LINE
  8
0
 62
     0
 10
173.057
 20
25.2856
 30
0.0
 11
173.057
 21
28.3862
 31
0.0
  0
LINE
  8
0
 62
     0
 10
173.057
 20
28.3862
 30
0.0
 11
172.256
 21
28.3862
 31
0.0
  0
LINE
  8
0
 62
     0
 10
172.256
 20
28.3862
 30
0.0
 11
172.256
 21
29.3867
 31
0.0
  0
LINE
  8
0
 62
     0
 10
172.256
 20
29.3867
 30
0.0
 11
158.257
 21
29.3867
 31
0.0
  0
LINE
  8
0
 62
     0
 10
196.357
 20
29.3867
 30
0.0
 11
196.357
 21
28.3862
 31
0.0
  0
LINE
  8
0
 62
     0
 10
196.357
 20
28.3862
 30
0.0
 11
195.557
 21
28.3862
 31
0.0
  0
LINE
  8
0
 62
     0
 10
195.557
 20
28.3862
 30
0.0
 11
195.557
 21
25.2856
 31
0.0
  0
LINE
  8
0
 62
     0
 10
195.557
 20
25.2856
 30
0.0
 11
196.357
 21
25.2856
 31
0.0
  0
LINE
  8
0
 62
     0
 10
196.357
 20
25.2856
 30
0.0
 11
196.357
 21
24.6862
 31
0.0
  0
LINE
  8
0
 62
     0
 10
196.357
 20
24.6862
 30
0.0
 11
194.831
 21
24.6862
 31
0.0
  0
LINE
  8
0
 62
     0
 10
194.831
 20
24.6862
 30
0.0
 11
194.831
 21
27.9163
 31
0.0
  0
LINE
  8
0
 62
     0
 10
194.831
 20
27.9163
 30
0.0
 11
193.107
 21
27.9163
 31
0.0
  0
LINE
  8
0
 62
     0
 10
193.107
 20
27.9163
 30
0.0
 11
193.107
 21
28.8355
 31
0.0
  0
LINE
  8
0
 62
     0
 10
193.107
 20
28.8355
 30
0.0
 11
189.807
 21
28.8355
 31
0.0
  0
LINE
  8
0
 62
     0
 10
189.807
 20
28.8355
 30
0.0
 11
189.807
 21
27.9163
 31
0.0
  0
LINE
  8
0
 62
     0
 10
189.807
 20
27.9163
 30
0.0
 11
188.082
 21
27.9163
 31
0.0
  0
LINE
  8
0
 62
     0
 10
188.082
 20
27.9163
 30
0.0
 11
188.082
 21
24.6862
 31
0.0
  0
LINE
  8
0
 62
     0
 10
188.082
 20
24.6862
 30
0.0
 11
187.256
 21
24.6862
 31
0.0
  0
LINE
  8
0
 62
     0
 10
187.256
 20
24.6862
 30
0.0
 11
187.256
 21
21.886
 31
0.0
  0
LINE
  8
0
 62
     0
 10
187.256
 20
21.886
 30
0.0
 11
188.082
 21
21.886
 31
0.0
  0
LINE
  8
0
 62
     0
 10
188.082
 20
21.886
 30
0.0
 11
188.082
 21
15.6159
 31
0.0
  0
LINE
  8
0
 62
     0
 10
188.082
 20
15.6159
 30
0.0
 11
189.807
 21
15.6159
 31
0.0
  0
LINE
  8
0
 62
     0
 10
189.807
 20
15.6159
 30
0.0
 11
189.807
 21
14.6362
 31
0.0
  0
LINE
  8
0
 62
     0
 10
189.807
 20
14.6362
 30
0.0
 11
193.107
 21
14.6362
 31
0.0
  0
LINE
  8
0
 62
     0
 10
193.107
 20
14.6362
 30
0.0
 11
193.107
 21
15.6159
 31
0.0
  0
LINE
  8
0
 62
     0
 10
193.107
 20
15.6159
 30
0.0
 11
194.831
 21
15.6159
 31
0.0
  0
LINE
  8
0
 62
     0
 10
194.831
 20
15.6159
 30
0.0
 11
194.831
 21
20.0863
 31
0.0
  0
LINE
  8
0
 62
     0
 10
194.831
 20
20.0863
 30
0.0
 11
196.357
 21
20.0863
 31
0.0
  0
LINE
  8
0
 62
     0
 10
196.357
 20
20.0863
 30
0.0
 11
196.357
 21
19.4855
 31
0.0
  0
LINE
  8
0
 62
     0
 10
196.357
 20
19.4855
 30
0.0
 11
195.557
 21
19.4855
 31
0.0
  0
LINE
  8
0
 62
     0
 10
195.557
 20
19.4855
 30
0.0
 11
195.557
 21
16.3862
 31
0.0
  0
LINE
  8
0
 62
     0
 10
195.557
 20
16.3862
 30
0.0
 11
196.357
 21
16.3862
 31
0.0
  0
LINE
  8
0
 62
     0
 10
196.357
 20
16.3862
 30
0.0
 11
196.357
 21
15.3858
 31
0.0
  0
LINE
  8
0
 62
     0
 10
196.357
 20
15.3858
 30
0.0
 11
210.356
 21
15.3858
 31
0.0
  0
LINE
  8
0
 62
     0
 10
210.356
 20
15.3858
 30
0.0
 11
210.356
 21
16.3862
 31
0.0
  0
LINE
  8
0
 62
     0
 10
210.356
 20
16.3862
 30
0.0
 11
211.157
 21
16.3862
 31
0.0
  0
LINE
  8
0
 62
     0
 10
211.157
 20
16.3862
 30
0.0
 11
211.157
 21
19.4855
 31
0.0
  0
LINE
  8
0
 62
     0
 10
211.157
 20
19.4855
 30
0.0
 11
210.356
 21
19.4855
 31
0.0
  0
LINE
  8
0
 62
     0
 10
210.356
 20
19.4855
 30
0.0
 11
210.356
 21
20.0863
 31
0.0
  0
LINE
  8
0
 62
     0
 10
210.356
 20
20.0863
 30
0.0
 11
211.882
 21
20.0863
 31
0.0
  0
LINE
  8
0
 62
     0
 10
211.882
 20
20.0863
 30
0.0
 11
211.882
 21
15.6159
 31
0.0
  0
LINE
  8
0
 62
     0
 10
211.882
 20
15.6159
 30
0.0
 11
213.607
 21
15.6159
 31
0.0
  0
LINE
  8
0
 62
     0
 10
213.607
 20
15.6159
 30
0.0
 11
213.607
 21
14.6362
 31
0.0
  0
LINE
  8
0
 62
     0
 10
213.607
 20
14.6362
 30
0.0
 11
216.907
 21
14.6362
 31
0.0
  0
LINE
  8
0
 62
     0
 10
216.907
 20
14.6362
 30
0.0
 11
216.907
 21
15.6159
 31
0.0
  0
LINE
  8
0
 62
     0
 10
216.907
 20
15.6159
 30
0.0
 11
218.631
 21
15.6159
 31
0.0
  0
LINE
  8
0
 62
     0
 10
218.631
 20
15.6159
 30
0.0
 11
218.631
 21
21.886
 31
0.0
  0
LINE
  8
0
 62
     0
 10
218.631
 20
21.886
 30
0.0
 11
219.457
 21
21.886
 31
0.0
  0
LINE
  8
0
 62
     0
 10
219.457
 20
21.886
 30
0.0
 11
219.457
 21
24.6862
 31
0.0
  0
LINE
  8
0
 62
     0
 10
219.457
 20
24.6862
 30
0.0
 11
218.631
 21
24.6862
 31
0.0
  0
LINE
  8
0
 62
     0
 10
218.631
 20
24.6862
 30
0.0
 11
218.631
 21
27.9163
 31
0.0
  0
LINE
  8
0
 62
     0
 10
218.631
 20
27.9163
 30
0.0
 11
216.907
 21
27.9163
 31
0.0
  0
LINE
  8
0
 62
     0
 10
216.907
 20
27.9163
 30
0.0
 11
216.907
 21
28.8355
 31
0.0
  0
LINE
  8
0
 62
     0
 10
216.907
 20
28.8355
 30
0.0
 11
213.607
 21
28.8355
 31
0.0
  0
LINE
  8
0
 62
     0
 10
213.607
 20
28.8355
 30
0.0
 11
213.607
 21
27.9163
 31
0.0
  0
LINE
  8
0
 62
     0
 10
213.607
 20
27.9163
 30
0.0
 11
211.882
 21
27.9163
 31
0.0
  0
LINE
  8
0
 62
     0
 10
211.882
 20
27.9163
 30
0.0
 11
211.882
 21
24.6862
 31
0.0
  0
LINE
  8
0
 62
     0
 10
211.882
 20
24.6862
 30
0.0
 11
210.356
 21
24.6862
 31
0.0
  0
LINE
  8
0
 62
     0
 10
210.356
 20
24.6862
 30
0.0
 11
210.356
 21
25.2856
 31
0.0
  0
LINE
  8
0
 62
     0
 10
210.356
 20
25.2856
 30
0.0
 11
211.157
 21
25.2856
 31
0.0
  0
LINE
  8
0
 62
     0
 10
211.157
 20
25.2856
 30
0.0
 11
211.157
 21
28.3862
 31
0.0
  0
LINE
  8
0
 62
     0
 10
211.157
 20
28.3862
 30
0.0
 11
210.356
 21
28.3862
 31
0.0
  0
LINE
  8
0
 62
     0
 10
210.356
 20
28.3862
 30
0.0
 11
210.356
 21
29.3867
 31
0.0
  0
LINE
  8
0
 62
     0
 10
210.356
 20
29.3867
 30
0.0
 11
196.357
 21
29.3867
 31
0.0
  0
LINE
  8
0
 62
     0
 10
10.6192
 20
29.3867
 30
0.0
 11
10.6192
 21
28.3862
 31
0.0
  0
LINE
  8
0
 62
     0
 10
10.6192
 20
28.3862
 30
0.0
 11
9.81851
 21
28.3862
 31
0.0
  0
LINE
  8
0
 62
     0
 10
9.81851
 20
28.3862
 30
0.0
 11
9.81851
 21
25.2856
 31
0.0
  0
LINE
  8
0
 62
     0
 10
9.81851
 20
25.2856
 30
0.0
 11
10.6192
 21
25.2856
 31
0.0
  0
LINE
  8
0
 62
     0
 10
10.6192
 20
25.2856
 30
0.0
 11
10.6192
 21
19.4855
 31
0.0
  0
LINE
  8
0
 62
     0
 10
10.6192
 20
19.4855
 30
0.0
 11
9.81851
 21
19.4855
 31
0.0
  0
LINE
  8
0
 62
     0
 10
9.81851
 20
19.4855
 30
0.0
 11
9.81851
 21
16.3862
 31
0.0
  0
LINE
  8
0
 62
     0
 10
9.81851
 20
16.3862
 30
0.0
 11
10.6192
 21
16.3862
 31
0.0
  0
LINE
  8
0
 62
     0
 10
10.6192
 20
16.3862
 30
0.0
 11
10.6192
 21
15.3858
 31
0.0
  0
LINE
  8
0
 62
     0
 10
10.6192
 20
15.3858
 30
0.0
 11
24.62
 21
15.3858
 31
0.0
  0
LINE
  8
0
 62
     0
 10
24.62
 20
15.3858
 30
0.0
 11
24.62
 21
16.3862
 31
0.0
  0
LINE
  8
0
 62
     0
 10
24.62
 20
16.3862
 30
0.0
 11
25.4193
 21
16.3862
 31
0.0
  0
LINE
  8
0
 62
     0
 10
25.4193
 20
16.3862
 30
0.0
 11
25.4193
 21
19.4855
 31
0.0
  0
LINE
  8
0
 62
     0
 10
25.4193
 20
19.4855
 30
0.0
 11
24.62
 21
19.4855
 31
0.0
  0
LINE
  8
0
 62
     0
 10
24.62
 20
19.4855
 30
0.0
 11
24.62
 21
25.2856
 31
0.0
  0
LINE
  8
0
 62
     0
 10
24.62
 20
25.2856
 30
0.0
 11
25.4193
 21
25.2856
 31
0.0
  0
LINE
  8
0
 62
     0
 10
25.4193
 20
25.2856
 30
0.0
 11
25.4193
 21
28.3862
 31
0.0
  0
LINE
  8
0
 62
     0
 10
25.4193
 20
28.3862
 30
0.0
 11
24.62
 21
28.3862
 31
0.0
  0
LINE
  8
0
 62
     0
 10
24.62
 20
28.3862
 30
0.0
 11
24.62
 21
29.3867
 31
0.0
  0
LINE
  8
0
 62
     0
 10
24.62
 20
29.3867
 30
0.0
 11
10.6192
 21
29.3867
 31
0.0
  0
LINE
  8
0
 62
     0
 10
29.6692
 20
29.3867
 30
0.0
 11
29.6692
 21
28.3862
 31
0.0
  0
LINE
  8
0
 62
     0
 10
29.6692
 20
28.3862
 30
0.0
 11
28.8699
 21
28.3862
 31
0.0
  0
LINE
  8
0
 62
     0
 10
28.8699
 20
28.3862
 30
0.0
 11
28.8699
 21
25.2856
 31
0.0
  0
LINE
  8
0
 62
     0
 10
28.8699
 20
25.2856
 30
0.0
 11
29.6692
 21
25.2856
 31
0.0
  0
LINE
  8
0
 62
     0
 10
29.6692
 20
25.2856
 30
0.0
 11
29.6692
 21
19.4855
 31
0.0
  0
LINE
  8
0
 62
     0
 10
29.6692
 20
19.4855
 30
0.0
 11
28.8699
 21
19.4855
 31
0.0
  0
LINE
  8
0
 62
     0
 10
28.8699
 20
19.4855
 30
0.0
 11
28.8699
 21
16.3862
 31
0.0
  0
LINE
  8
0
 62
     0
 10
28.8699
 20
16.3862
 30
0.0
 11
29.6692
 21
16.3862
 31
0.0
  0
LINE
  8
0
 62
     0
 10
29.6692
 20
16.3862
 30
0.0
 11
29.6692
 21
15.3858
 31
0.0
  0
LINE
  8
0
 62
     0
 10
29.6692
 20
15.3858
 30
0.0
 11
43.67
 21
15.3858
 31
0.0
  0
LINE
  8
0
 62
     0
 10
43.67
 20
15.3858
 30
0.0
 11
43.67
 21
16.3862
 31
0.0
  0
LINE
  8
0
 62
     0
 10
43.67
 20
16.3862
 30
0.0
 11
44.4694
 21
16.3862
 31
0.0
  0
LINE
  8
0
 62
     0
 10
44.4694
 20
16.3862
 30
0.0
 11
44.4694
 21
19.4855
 31
0.0
  0
LINE
  8
0
 62
     0
 10
44.4694
 20
19.4855
 30
0.0
 11
43.67
 21
19.4855
 31
0.0
  0
LINE
  8
0
 62
     0
 10
43.67
 20
19.4855
 30
0.0
 11
43.67
 21
25.2856
 31
0.0
  0
LINE
  8
0
 62
     0
 10
43.67
 20
25.2856
 30
0.0
 11
44.4694
 21
25.2856
 31
0.0
  0
LINE
  8
0
 62
     0
 10
44.4694
 20
25.2856
 30
0.0
 11
44.4694
 21
28.3862
 31
0.0
  0
LINE
  8
0
 62
     0
 10
44.4694
 20
28.3862
 30
0.0
 11
43.67
 21
28.3862
 31
0.0
  0
LINE
  8
0
 62
     0
 10
43.67
 20
28.3862
 30
0.0
 11
43.67
 21
29.3867
 31
0.0
  0
LINE
  8
0
 62
     0
 10
43.67
 20
29.3867
 30
0.0
 11
29.6692
 21
29.3867
 31
0.0
  0
LINE
  8
0
 62
     0
 10
48.7193
 20
29.3867
 30
0.0
 11
48.7193
 21
28.3862
 31
0.0
  0
LINE
  8
0
 62
     0
 10
48.7193
 20
28.3862
 30
0.0
 11
47.9199
 21
28.3862
 31
0.0
  0
LINE
  8
0
 62
     0
 10
47.9199
 20
28.3862
 30
0.0
 11
47.9199
 21
25.2856
 31
0.0
  0
LINE
  8
0
 62
     0
 10
47.9199
 20
25.2856
 30
0.0
 11
48.7193
 21
25.2856
 31
0.0
  0
LINE
  8
0
 62
     0
 10
48.7193
 20
25.2856
 30
0.0
 11
48.7193
 21
19.4855
 31
0.0
  0
LINE
  8
0
 62
     0
 10
48.7193
 20
19.4855
 30
0.0
 11
47.9199
 21
19.4855
 31
0.0
  0
LINE
  8
0
 62
     0
 10
47.9199
 20
19.4855
 30
0.0
 11
47.9199
 21
16.3862
 31
0.0
  0
LINE
  8
0
 62
     0
 10
47.9199
 20
16.3862
 30
0.0
 11
48.7193
 21
16.3862
 31
0.0
  0
LINE
  8
0
 62
     0
 10
48.7193
 20
16.3862
 30
0.0
 11
48.7193
 21
15.3858
 31
0.0
  0
LINE
  8
0
 62
     0
 10
48.7193
 20
15.3858
 30
0.0
 11
62.72
 21
15.3858
 31
0.0
  0
LINE
  8
0
 62
     0
 10
62.72
 20
15.3858
 30
0.0
 11
62.72
 21
16.3862
 31
0.0
  0
LINE
  8
0
 62
     0
 10
62.72
 20
16.3862
 30
0.0
 11
63.5194
 21
16.3862
 31
0.0
  0
LINE
  8
0
 62
     0
 10
63.5194
 20
16.3862
 30
0.0
 11
63.5194
 21
19.4855
 31
0.0
  0
LINE
  8
0
 62
     0
 10
63.5194
 20
19.4855
 30
0.0
 11
62.72
 21
19.4855
 31
0.0
  0
LINE
  8
0
 62
     0
 10
62.72
 20
19.4855
 30
0.0
 11
62.72
 21
25.2856
 31
0.0
  0
LINE
  8
0
 62
     0
 10
62.72
 20
25.2856
 30
0.0
 11
63.5194
 21
25.2856
 31
0.0
  0
LINE
  8
0
 62
     0
 10
63.5194
 20
25.2856
 30
0.0
 11
63.5194
 21
28.3862
 31
0.0
  0
LINE
  8
0
 62
     0
 10
63.5194
 20
28.3862
 30
0.0
 11
62.72
 21
28.3862
 31
0.0
  0
LINE
  8
0
 62
     0
 10
62.72
 20
28.3862
 30
0.0
 11
62.72
 21
29.3867
 31
0.0
  0
LINE
  8
0
 62
     0
 10
62.72
 20
29.3867
 30
0.0
 11
48.7193
 21
29.3867
 31
0.0
  0
LINE
  8
0
 62
     0
 10
72.5318
 20
29.3867
 30
0.0
 11
72.5318
 21
28.3862
 31
0.0
  0
LINE
  8
0
 62
     0
 10
72.5318
 20
28.3862
 30
0.0
 11
71.7324
 21
28.3862
 31
0.0
  0
LINE
  8
0
 62
     0
 10
71.7324
 20
28.3862
 30
0.0
 11
71.7324
 21
25.2856
 31
0.0
  0
LINE
  8
0
 62
     0
 10
71.7324
 20
25.2856
 30
0.0
 11
72.5318
 21
25.2856
 31
0.0
  0
LINE
  8
0
 62
     0
 10
72.5318
 20
25.2856
 30
0.0
 11
72.5318
 21
19.4855
 31
0.0
  0
LINE
  8
0
 62
     0
 10
72.5318
 20
19.4855
 30
0.0
 11
71.7324
 21
19.4855
 31
0.0
  0
LINE
  8
0
 62
     0
 10
71.7324
 20
19.4855
 30
0.0
 11
71.7324
 21
16.3862
 31
0.0
  0
LINE
  8
0
 62
     0
 10
71.7324
 20
16.3862
 30
0.0
 11
72.5318
 21
16.3862
 31
0.0
  0
LINE
  8
0
 62
     0
 10
72.5318
 20
16.3862
 30
0.0
 11
72.5318
 21
15.3858
 31
0.0
  0
LINE
  8
0
 62
     0
 10
72.5318
 20
15.3858
 30
0.0
 11
86.5311
 21
15.3858
 31
0.0
  0
LINE
  8
0
 62
     0
 10
86.5311
 20
15.3858
 30
0.0
 11
86.5311
 21
16.3862
 31
0.0
  0
LINE
  8
0
 62
     0
 10
86.5311
 20
16.3862
 30
0.0
 11
87.3319
 21
16.3862
 31
0.0
  0
LINE
  8
0
 62
     0
 10
87.3319
 20
16.3862
 30
0.0
 11
87.3319
 21
19.4855
 31
0.0
  0
LINE
  8
0
 62
     0
 10
87.3319
 20
19.4855
 30
0.0
 11
86.5311
 21
19.4855
 31
0.0
  0
LINE
  8
0
 62
     0
 10
86.5311
 20
19.4855
 30
0.0
 11
86.5311
 21
25.2856
 31
0.0
  0
LINE
  8
0
 62
     0
 10
86.5311
 20
25.2856
 30
0.0
 11
87.3319
 21
25.2856
 31
0.0
  0
LINE
  8
0
 62
     0
 10
87.3319
 20
25.2856
 30
0.0
 11
87.3319
 21
28.3862
 31
0.0
  0
LINE
  8
0
 62
     0
 10
87.3319
 20
28.3862
 30
0.0
 11
86.5311
 21
28.3862
 31
0.0
  0
LINE
  8
0
 62
     0
 10
86.5311
 20
28.3862
 30
0.0
 11
86.5311
 21
29.3867
 31
0.0
  0
LINE
  8
0
 62
     0
 10
86.5311
 20
29.3867
 30
0.0
 11
72.5318
 21
29.3867
 31
0.0
  0
LINE
  8
0
 62
     0
 10
91.5818
 20
29.3867
 30
0.0
 11
91.5818
 21
28.3862
 31
0.0
  0
LINE
  8
0
 62
     0
 10
91.5818
 20
28.3862
 30
0.0
 11
90.7824
 21
28.3862
 31
0.0
  0
LINE
  8
0
 62
     0
 10
90.7824
 20
28.3862
 30
0.0
 11
90.7824
 21
25.2856
 31
0.0
  0
LINE
  8
0
 62
     0
 10
90.7824
 20
25.2856
 30
0.0
 11
91.5818
 21
25.2856
 31
0.0
  0
LINE
  8
0
 62
     0
 10
91.5818
 20
25.2856
 30
0.0
 11
91.5818
 21
19.4855
 31
0.0
  0
LINE
  8
0
 62
     0
 10
91.5818
 20
19.4855
 30
0.0
 11
90.7824
 21
19.4855
 31
0.0
  0
LINE
  8
0
 62
     0
 10
90.7824
 20
19.4855
 30
0.0
 11
90.7824
 21
16.3862
 31
0.0
  0
LINE
  8
0
 62
     0
 10
90.7824
 20
16.3862
 30
0.0
 11
91.5818
 21
16.3862
 31
0.0
  0
LINE
  8
0
 62
     0
 10
91.5818
 20
16.3862
 30
0.0
 11
91.5818
 21
15.3858
 31
0.0
  0
LINE
  8
0
 62
     0
 10
91.5818
 20
15.3858
 30
0.0
 11
105.581
 21
15.3858
 31
0.0
  0
LINE
  8
0
 62
     0
 10
105.581
 20
15.3858
 30
0.0
 11
105.581
 21
16.3862
 31
0.0
  0
LINE
  8
0
 62
     0
 10
105.581
 20
16.3862
 30
0.0
 11
106.382
 21
16.3862
 31
0.0
  0
LINE
  8
0
 62
     0
 10
106.382
 20
16.3862
 30
0.0
 11
106.382
 21
19.4855
 31
0.0
  0
LINE
  8
0
 62
     0
 10
106.382
 20
19.4855
 30
0.0
 11
105.581
 21
19.4855
 31
0.0
  0
LINE
  8
0
 62
     0
 10
105.581
 20
19.4855
 30
0.0
 11
105.581
 21
25.2856
 31
0.0
  0
LINE
  8
0
 62
     0
 10
105.581
 20
25.2856
 30
0.0
 11
106.382
 21
25.2856
 31
0.0
  0
LINE
  8
0
 62
     0
 10
106.382
 20
25.2856
 30
0.0
 11
106.382
 21
28.3862
 31
0.0
  0
LINE
  8
0
 62
     0
 10
106.382
 20
28.3862
 30
0.0
 11
105.581
 21
28.3862
 31
0.0
  0
LINE
  8
0
 62
     0
 10
105.581
 20
28.3862
 30
0.0
 11
105.581
 21
29.3867
 31
0.0
  0
LINE
  8
0
 62
     0
 10
105.581
 20
29.3867
 30
0.0
 11
91.5818
 21
29.3867
 31
0.0
  0
LINE
  8
0
 62
     0
 10
110.632
 20
29.3867
 30
0.0
 11
110.632
 21
28.3862
 31
0.0
  0
LINE
  8
0
 62
     0
 10
110.632
 20
28.3862
 30
0.0
 11
109.832
 21
28.3862
 31
0.0
  0
LINE
  8
0
 62
     0
 10
109.832
 20
28.3862
 30
0.0
 11
109.832
 21
25.2856
 31
0.0
  0
LINE
  8
0
 62
     0
 10
109.832
 20
25.2856
 30
0.0
 11
110.632
 21
25.2856
 31
0.0
  0
LINE
  8
0
 62
     0
 10
110.632
 20
25.2856
 30
0.0
 11
110.632
 21
19.4855
 31
0.0
  0
LINE
  8
0
 62
     0
 10
110.632
 20
19.4855
 30
0.0
 11
109.832
 21
19.4855
 31
0.0
  0
LINE
  8
0
 62
     0
 10
109.832
 20
19.4855
 30
0.0
 11
109.832
 21
16.3862
 31
0.0
  0
LINE
  8
0
 62
     0
 10
109.832
 20
16.3862
 30
0.0
 11
110.632
 21
16.3862
 31
0.0
  0
LINE
  8
0
 62
     0
 10
110.632
 20
16.3862
 30
0.0
 11
110.632
 21
15.3858
 31
0.0
  0
LINE
  8
0
 62
     0
 10
110.632
 20
15.3858
 30
0.0
 11
124.631
 21
15.3858
 31
0.0
  0
LINE
  8
0
 62
     0
 10
124.631
 20
15.3858
 30
0.0
 11
124.631
 21
16.3862
 31
0.0
  0
LINE
  8
0
 62
     0
 10
124.631
 20
16.3862
 30
0.0
 11
125.43
 21
16.3862
 31
0.0
  0
LINE
  8
0
 62
     0
 10
125.43
 20
16.3862
 30
0.0
 11
125.43
 21
19.4855
 31
0.0
  0
LINE
  8
0
 62
     0
 10
125.43
 20
19.4855
 30
0.0
 11
124.631
 21
19.4855
 31
0.0
  0
LINE
  8
0
 62
     0
 10
124.631
 20
19.4855
 30
0.0
 11
124.631
 21
25.2856
 31
0.0
  0
LINE
  8
0
 62
     0
 10
124.631
 20
25.2856
 30
0.0
 11
125.43
 21
25.2856
 31
0.0
  0
LINE
  8
0
 62
     0
 10
125.43
 20
25.2856
 30
0.0
 11
125.43
 21
28.3862
 31
0.0
  0
LINE
  8
0
 62
     0
 10
125.43
 20
28.3862
 30
0.0
 11
124.631
 21
28.3862
 31
0.0
  0
LINE
  8
0
 62
     0
 10
124.631
 20
28.3862
 30
0.0
 11
124.631
 21
29.3867
 31
0.0
  0
LINE
  8
0
 62
     0
 10
124.631
 20
29.3867
 30
0.0
 11
110.632
 21
29.3867
 31
0.0
  0
LINE
  8
0
 62
     0
 10
129.682
 20
29.3867
 30
0.0
 11
129.682
 21
28.3862
 31
0.0
  0
LINE
  8
0
 62
     0
 10
129.682
 20
28.3862
 30
0.0
 11
128.882
 21
28.3862
 31
0.0
  0
LINE
  8
0
 62
     0
 10
128.882
 20
28.3862
 30
0.0
 11
128.882
 21
25.2856
 31
0.0
  0
LINE
  8
0
 62
     0
 10
128.882
 20
25.2856
 30
0.0
 11
129.682
 21
25.2856
 31
0.0
  0
LINE
  8
0
 62
     0
 10
129.682
 20
25.2856
 30
0.0
 11
129.682
 21
19.4855
 31
0.0
  0
LINE
  8
0
 62
     0
 10
129.682
 20
19.4855
 30
0.0
 11
128.882
 21
19.4855
 31
0.0
  0
LINE
  8
0
 62
     0
 10
128.882
 20
19.4855
 30
0.0
 11
128.882
 21
16.3862
 31
0.0
  0
LINE
  8
0
 62
     0
 10
128.882
 20
16.3862
 30
0.0
 11
129.682
 21
16.3862
 31
0.0
  0
LINE
  8
0
 62
     0
 10
129.682
 20
16.3862
 30
0.0
 11
129.682
 21
15.3858
 31
0.0
  0
LINE
  8
0
 62
     0
 10
129.682
 20
15.3858
 30
0.0
 11
143.681
 21
15.3858
 31
0.0
  0
LINE
  8
0
 62
     0
 10
143.681
 20
15.3858
 30
0.0
 11
143.681
 21
16.3862
 31
0.0
  0
LINE
  8
0
 62
     0
 10
143.681
 20
16.3862
 30
0.0
 11
144.482
 21
16.3862
 31
0.0
  0
LINE
  8
0
 62
     0
 10
144.482
 20
16.3862
 30
0.0
 11
144.482
 21
19.4855
 31
0.0
  0
LINE
  8
0
 62
     0
 10
144.482
 20
19.4855
 30
0.0
 11
143.681
 21
19.4855
 31
0.0
  0
LINE
  8
0
 62
     0
 10
143.681
 20
19.4855
 30
0.0
 11
143.681
 21
25.2856
 31
0.0
  0
LINE
  8
0
 62
     0
 10
143.681
 20
25.2856
 30
0.0
 11
144.482
 21
25.2856
 31
0.0
  0
LINE
  8
0
 62
     0
 10
144.482
 20
25.2856
 30
0.0
 11
144.482
 21
28.3862
 31
0.0
  0
LINE
  8
0
 62
     0
 10
144.482
 20
28.3862
 30
0.0
 11
143.681
 21
28.3862
 31
0.0
  0
LINE
  8
0
 62
     0
 10
143.681
 20
28.3862
 30
0.0
 11
143.681
 21
29.3867
 31
0.0
  0
LINE
  8
0
 62
     0
 10
143.681
 20
29.3867
 30
0.0
 11
129.682
 21
29.3867
 31
0.0
  0
LINE
  8
0
 62
     0
 10
224.932
 20
29.3867
 30
0.0
 11
224.932
 21
28.3862
 31
0.0
  0
LINE
  8
0
 62
     0
 10
224.932
 20
28.3862
 30
0.0
 11
224.132
 21
28.3862
 31
0.0
  0
LINE
  8
0
 62
     0
 10
224.132
 20
28.3862
 30
0.0
 11
224.132
 21
25.2856
 31
0.0
  0
LINE
  8
0
 62
     0
 10
224.132
 20
25.2856
 30
0.0
 11
224.932
 21
25.2856
 31
0.0
  0
LINE
  8
0
 62
     0
 10
224.932
 20
25.2856
 30
0.0
 11
224.932
 21
19.4855
 31
0.0
  0
LINE
  8
0
 62
     0
 10
224.932
 20
19.4855
 30
0.0
 11
224.132
 21
19.4855
 31
0.0
  0
LINE
  8
0
 62
     0
 10
224.132
 20
19.4855
 30
0.0
 11
224.132
 21
16.3862
 31
0.0
  0
LINE
  8
0
 62
     0
 10
224.132
 20
16.3862
 30
0.0
 11
224.932
 21
16.3862
 31
0.0
  0
LINE
  8
0
 62
     0
 10
224.932
 20
16.3862
 30
0.0
 11
224.932
 21
15.3858
 31
0.0
  0
LINE
  8
0
 62
     0
 10
224.932
 20
15.3858
 30
0.0
 11
238.931
 21
15.3858
 31
0.0
  0
LINE
  8
0
 62
     0
 10
238.931
 20
15.3858
 30
0.0
 11
238.931
 21
16.3862
 31
0.0
  0
LINE
  8
0
 62
     0
 10
238.931
 20
16.3862
 30
0.0
 11
239.732
 21
16.3862
 31
0.0
  0
LINE
  8
0
 62
     0
 10
239.732
 20
16.3862
 30
0.0
 11
239.732
 21
19.4855
 31
0.0
  0
LINE
  8
0
 62
     0
 10
239.732
 20
19.4855
 30
0.0
 11
238.931
 21
19.4855
 31
0.0
  0
LINE
  8
0
 62
     0
 10
238.931
 20
19.4855
 30
0.0
 11
238.931
 21
25.2856
 31
0.0
  0
LINE
  8
0
 62
     0
 10
238.931
 20
25.2856
 30
0.0
 11
239.732
 21
25.2856
 31
0.0
  0
LINE
  8
0
 62
     0
 10
239.732
 20
25.2856
 30
0.0
 11
239.732
 21
28.3862
 31
0.0
  0
LINE
  8
0
 62
     0
 10
239.732
 20
28.3862
 30
0.0
 11
238.931
 21
28.3862
 31
0.0
  0
LINE
  8
0
 62
     0
 10
238.931
 20
28.3862
 30
0.0
 11
238.931
 21
29.3867
 31
0.0
  0
LINE
  8
0
 62
     0
 10
238.931
 20
29.3867
 30
0.0
 11
224.932
 21
29.3867
 31
0.0
  0
LINE
  8
0
 62
     0
 10
243.982
 20
29.3867
 30
0.0
 11
243.982
 21
28.3862
 31
0.0
  0
LINE
  8
0
 62
     0
 10
243.982
 20
28.3862
 30
0.0
 11
243.182
 21
28.3862
 31
0.0
  0
LINE
  8
0
 62
     0
 10
243.182
 20
28.3862
 30
0.0
 11
243.182
 21
25.2856
 31
0.0
  0
LINE
  8
0
 62
     0
 10
243.182
 20
25.2856
 30
0.0
 11
243.982
 21
25.2856
 31
0.0
  0
LINE
  8
0
 62
     0
 10
243.982
 20
25.2856
 30
0.0
 11
243.982
 21
19.4855
 31
0.0
  0
LINE
  8
0
 62
     0
 10
243.982
 20
19.4855
 30
0.0
 11
243.182
 21
19.4855
 31
0.0
  0
LINE
  8
0
 62
     0
 10
243.182
 20
19.4855
 30
0.0
 11
243.182
 21
16.3862
 31
0.0
  0
LINE
  8
0
 62
     0
 10
243.182
 20
16.3862
 30
0.0
 11
243.982
 21
16.3862
 31
0.0
  0
LINE
  8
0
 62
     0
 10
243.982
 20
16.3862
 30
0.0
 11
243.982
 21
15.3858
 31
0.0
  0
LINE
  8
0
 62
     0
 10
243.982
 20
15.3858
 30
0.0
 11
257.981
 21
15.3858
 31
0.0
  0
LINE
  8
0
 62
     0
 10
257.981
 20
15.3858
 30
0.0
 11
257.981
 21
16.3862
 31
0.0
  0
LINE
  8
0
 62
     0
 10
257.981
 20
16.3862
 30
0.0
 11
258.782
 21
16.3862
 31
0.0
  0
LINE
  8
0
 62
     0
 10
258.782
 20
16.3862
 30
0.0
 11
258.782
 21
19.4855
 31
0.0
  0
LINE
  8
0
 62
     0
 10
258.782
 20
19.4855
 30
0.0
 11
257.981
 21
19.4855
 31
0.0
  0
LINE
  8
0
 62
     0
 10
257.981
 20
19.4855
 30
0.0
 11
257.981
 21
25.2856
 31
0.0
  0
LINE
  8
0
 62
     0
 10
257.981
 20
25.2856
 30
0.0
 11
258.782
 21
25.2856
 31
0.0
  0
LINE
  8
0
 62
     0
 10
258.782
 20
25.2856
 30
0.0
 11
258.782
 21
28.3862
 31
0.0
  0
LINE
  8
0
 62
     0
 10
258.782
 20
28.3862
 30
0.0
 11
257.981
 21
28.3862
 31
0.0
  0
LINE
  8
0
 62
     0
 10
257.981
 20
28.3862
 30
0.0
 11
257.981
 21
29.3867
 31
0.0
  0
LINE
  8
0
 62
     0
 10
257.981
 20
29.3867
 30
0.0
 11
243.982
 21
29.3867
 31
0.0
  0
LINE
  8
0
 62
     0
 10
263.032
 20
29.3867
 30
0.0
 11
263.032
 21
28.3862
 31
0.0
  0
LINE
  8
0
 62
     0
 10
263.032
 20
28.3862
 30
0.0
 11
262.232
 21
28.3862
 31
0.0
  0
LINE
  8
0
 62
     0
 10
262.232
 20
28.3862
 30
0.0
 11
262.232
 21
25.2856
 31
0.0
  0
LINE
  8
0
 62
     0
 10
262.232
 20
25.2856
 30
0.0
 11
263.032
 21
25.2856
 31
0.0
  0
LINE
  8
0
 62
     0
 10
263.032
 20
25.2856
 30
0.0
 11
263.032
 21
19.4855
 31
0.0
  0
LINE
  8
0
 62
     0
 10
263.032
 20
19.4855
 30
0.0
 11
262.232
 21
19.4855
 31
0.0
  0
LINE
  8
0
 62
     0
 10
262.232
 20
19.4855
 30
0.0
 11
262.232
 21
16.3862
 31
0.0
  0
LINE
  8
0
 62
     0
 10
262.232
 20
16.3862
 30
0.0
 11
263.032
 21
16.3862
 31
0.0
  0
LINE
  8
0
 62
     0
 10
263.032
 20
16.3862
 30
0.0
 11
263.032
 21
15.3858
 31
0.0
  0
LINE
  8
0
 62
     0
 10
263.032
 20
15.3858
 30
0.0
 11
277.031
 21
15.3858
 31
0.0
  0
LINE
  8
0
 62
     0
 10
277.031
 20
15.3858
 30
0.0
 11
277.031
 21
16.3862
 31
0.0
  0
LINE
  8
0
 62
     0
 10
277.031
 20
16.3862
 30
0.0
 11
277.832
 21
16.3862
 31
0.0
  0
LINE
  8
0
 62
     0
 10
277.832
 20
16.3862
 30
0.0
 11
277.832
 21
19.4855
 31
0.0
  0
LINE
  8
0
 62
     0
 10
277.832
 20
19.4855
 30
0.0
 11
277.031
 21
19.4855
 31
0.0
  0
LINE
  8
0
 62
     0
 10
277.031
 20
19.4855
 30
0.0
 11
277.031
 21
25.2856
 31
0.0
  0
LINE
  8
0
 62
     0
 10
277.031
 20
25.2856
 30
0.0
 11
277.832
 21
25.2856
 31
0.0
  0
LINE
  8
0
 62
     0
 10
277.832
 20
25.2856
 30
0.0
 11
277.832
 21
28.3862
 31
0.0
  0
LINE
  8
0
 62
     0
 10
277.832
 20
28.3862
 30
0.0
 11
277.031
 21
28.3862
 31
0.0
  0
LINE
  8
0
 62
     0
 10
277.031
 20
28.3862
 30
0.0
 11
277.031
 21
29.3867
 31
0.0
  0
LINE
  8
0
 62
     0
 10
277.031
 20
29.3867
 30
0.0
 11
263.032
 21
29.3867
 31
0.0
  0
LINE
  8
0
 62
     0
 10
305.894
 20
43.6742
 30
0.0
 11
305.894
 21
42.6738
 31
0.0
  0
LINE
  8
0
 62
     0
 10
305.894
 20
42.6738
 30
0.0
 11
305.095
 21
42.6738
 31
0.0
  0
LINE
  8
0
 62
     0
 10
305.095
 20
42.6738
 30
0.0
 11
305.095
 21
39.5746
 31
0.0
  0
LINE
  8
0
 62
     0
 10
305.095
 20
39.5746
 30
0.0
 11
305.894
 21
39.5746
 31
0.0
  0
LINE
  8
0
 62
     0
 10
305.894
 20
39.5746
 30
0.0
 11
305.894
 21
33.7743
 31
0.0
  0
LINE
  8
0
 62
     0
 10
305.894
 20
33.7743
 30
0.0
 11
305.095
 21
33.7743
 31
0.0
  0
LINE
  8
0
 62
     0
 10
305.095
 20
33.7743
 30
0.0
 11
305.095
 21
30.6737
 31
0.0
  0
LINE
  8
0
 62
     0
 10
305.095
 20
30.6737
 30
0.0
 11
305.894
 21
30.6737
 31
0.0
  0
LINE
  8
0
 62
     0
 10
305.894
 20
30.6737
 30
0.0
 11
305.894
 21
29.6747
 31
0.0
  0
LINE
  8
0
 62
     0
 10
305.894
 20
29.6747
 30
0.0
 11
319.895
 21
29.6747
 31
0.0
  0
LINE
  8
0
 62
     0
 10
319.895
 20
29.6747
 30
0.0
 11
319.895
 21
30.6737
 31
0.0
  0
LINE
  8
0
 62
     0
 10
319.895
 20
30.6737
 30
0.0
 11
320.694
 21
30.6737
 31
0.0
  0
LINE
  8
0
 62
     0
 10
320.694
 20
30.6737
 30
0.0
 11
320.694
 21
33.7743
 31
0.0
  0
LINE
  8
0
 62
     0
 10
320.694
 20
33.7743
 30
0.0
 11
319.895
 21
33.7743
 31
0.0
  0
LINE
  8
0
 62
     0
 10
319.895
 20
33.7743
 30
0.0
 11
319.895
 21
39.5746
 31
0.0
  0
LINE
  8
0
 62
     0
 10
319.895
 20
39.5746
 30
0.0
 11
320.694
 21
39.5746
 31
0.0
  0
LINE
  8
0
 62
     0
 10
320.694
 20
39.5746
 30
0.0
 11
320.694
 21
42.6738
 31
0.0
  0
LINE
  8
0
 62
     0
 10
320.694
 20
42.6738
 30
0.0
 11
319.895
 21
42.6738
 31
0.0
  0
LINE
  8
0
 62
     0
 10
319.895
 20
42.6738
 30
0.0
 11
319.895
 21
43.6742
 31
0.0
  0
LINE
  8
0
 62
     0
 10
319.895
 20
43.6742
 30
0.0
 11
305.894
 21
43.6742
 31
0.0
  0
LINE
  8
0
 62
     0
 10
10.6192
 20
48.4367
 30
0.0
 11
10.6192
 21
47.4363
 31
0.0
  0
LINE
  8
0
 62
     0
 10
10.6192
 20
47.4363
 30
0.0
 11
9.81851
 21
47.4363
 31
0.0
  0
LINE
  8
0
 62
     0
 10
9.81851
 20
47.4363
 30
0.0
 11
9.81851
 21
44.3357
 31
0.0
  0
LINE
  8
0
 62
     0
 10
9.81851
 20
44.3357
 30
0.0
 11
10.6192
 21
44.3357
 31
0.0
  0
LINE
  8
0
 62
     0
 10
10.6192
 20
44.3357
 30
0.0
 11
10.6192
 21
38.5353
 31
0.0
  0
LINE
  8
0
 62
     0
 10
10.6192
 20
38.5353
 30
0.0
 11
9.81851
 21
38.5353
 31
0.0
  0
LINE
  8
0
 62
     0
 10
9.81851
 20
38.5353
 30
0.0
 11
9.81851
 21
35.4362
 31
0.0
  0
LINE
  8
0
 62
     0
 10
9.81851
 20
35.4362
 30
0.0
 11
10.6192
 21
35.4362
 31
0.0
  0
LINE
  8
0
 62
     0
 10
10.6192
 20
35.4362
 30
0.0
 11
10.6192
 21
34.4358
 31
0.0
  0
LINE
  8
0
 62
     0
 10
10.6192
 20
34.4358
 30
0.0
 11
24.62
 21
34.4358
 31
0.0
  0
LINE
  8
0
 62
     0
 10
24.62
 20
34.4358
 30
0.0
 11
24.62
 21
35.4362
 31
0.0
  0
LINE
  8
0
 62
     0
 10
24.62
 20
35.4362
 30
0.0
 11
25.4193
 21
35.4362
 31
0.0
  0
LINE
  8
0
 62
     0
 10
25.4193
 20
35.4362
 30
0.0
 11
25.4193
 21
38.5353
 31
0.0
  0
LINE
  8
0
 62
     0
 10
25.4193
 20
38.5353
 30
0.0
 11
24.62
 21
38.5353
 31
0.0
  0
LINE
  8
0
 62
     0
 10
24.62
 20
38.5353
 30
0.0
 11
24.62
 21
44.3357
 31
0.0
  0
LINE
  8
0
 62
     0
 10
24.62
 20
44.3357
 30
0.0
 11
25.4193
 21
44.3357
 31
0.0
  0
LINE
  8
0
 62
     0
 10
25.4193
 20
44.3357
 30
0.0
 11
25.4193
 21
47.4363
 31
0.0
  0
LINE
  8
0
 62
     0
 10
25.4193
 20
47.4363
 30
0.0
 11
24.62
 21
47.4363
 31
0.0
  0
LINE
  8
0
 62
     0
 10
24.62
 20
47.4363
 30
0.0
 11
24.62
 21
48.4367
 31
0.0
  0
LINE
  8
0
 62
     0
 10
24.62
 20
48.4367
 30
0.0
 11
10.6192
 21
48.4367
 31
0.0
  0
LINE
  8
0
 62
     0
 10
29.6692
 20
48.4367
 30
0.0
 11
29.6692
 21
47.4363
 31
0.0
  0
LINE
  8
0
 62
     0
 10
29.6692
 20
47.4363
 30
0.0
 11
28.8699
 21
47.4363
 31
0.0
  0
LINE
  8
0
 62
     0
 10
28.8699
 20
47.4363
 30
0.0
 11
28.8699
 21
44.3357
 31
0.0
  0
LINE
  8
0
 62
     0
 10
28.8699
 20
44.3357
 30
0.0
 11
29.6692
 21
44.3357
 31
0.0
  0
LINE
  8
0
 62
     0
 10
29.6692
 20
44.3357
 30
0.0
 11
29.6692
 21
38.5353
 31
0.0
  0
LINE
  8
0
 62
     0
 10
29.6692
 20
38.5353
 30
0.0
 11
28.8699
 21
38.5353
 31
0.0
  0
LINE
  8
0
 62
     0
 10
28.8699
 20
38.5353
 30
0.0
 11
28.8699
 21
35.4362
 31
0.0
  0
LINE
  8
0
 62
     0
 10
28.8699
 20
35.4362
 30
0.0
 11
29.6692
 21
35.4362
 31
0.0
  0
LINE
  8
0
 62
     0
 10
29.6692
 20
35.4362
 30
0.0
 11
29.6692
 21
34.4358
 31
0.0
  0
LINE
  8
0
 62
     0
 10
29.6692
 20
34.4358
 30
0.0
 11
43.67
 21
34.4358
 31
0.0
  0
LINE
  8
0
 62
     0
 10
43.67
 20
34.4358
 30
0.0
 11
43.67
 21
35.4362
 31
0.0
  0
LINE
  8
0
 62
     0
 10
43.67
 20
35.4362
 30
0.0
 11
44.4694
 21
35.4362
 31
0.0
  0
LINE
  8
0
 62
     0
 10
44.4694
 20
35.4362
 30
0.0
 11
44.4694
 21
38.5353
 31
0.0
  0
LINE
  8
0
 62
     0
 10
44.4694
 20
38.5353
 30
0.0
 11
43.67
 21
38.5353
 31
0.0
  0
LINE
  8
0
 62
     0
 10
43.67
 20
38.5353
 30
0.0
 11
43.67
 21
44.3357
 31
0.0
  0
LINE
  8
0
 62
     0
 10
43.67
 20
44.3357
 30
0.0
 11
44.4694
 21
44.3357
 31
0.0
  0
LINE
  8
0
 62
     0
 10
44.4694
 20
44.3357
 30
0.0
 11
44.4694
 21
47.4363
 31
0.0
  0
LINE
  8
0
 62
     0
 10
44.4694
 20
47.4363
 30
0.0
 11
43.67
 21
47.4363
 31
0.0
  0
LINE
  8
0
 62
     0
 10
43.67
 20
47.4363
 30
0.0
 11
43.67
 21
48.4367
 31
0.0
  0
LINE
  8
0
 62
     0
 10
43.67
 20
48.4367
 30
0.0
 11
29.6692
 21
48.4367
 31
0.0
  0
LINE
  8
0
 62
     0
 10
48.7193
 20
48.4367
 30
0.0
 11
48.7193
 21
47.4363
 31
0.0
  0
LINE
  8
0
 62
     0
 10
48.7193
 20
47.4363
 30
0.0
 11
47.9199
 21
47.4363
 31
0.0
  0
LINE
  8
0
 62
     0
 10
47.9199
 20
47.4363
 30
0.0
 11
47.9199
 21
44.3357
 31
0.0
  0
LINE
  8
0
 62
     0
 10
47.9199
 20
44.3357
 30
0.0
 11
48.7193
 21
44.3357
 31
0.0
  0
LINE
  8
0
 62
     0
 10
48.7193
 20
44.3357
 30
0.0
 11
48.7193
 21
38.5353
 31
0.0
  0
LINE
  8
0
 62
     0
 10
48.7193
 20
38.5353
 30
0.0
 11
47.9199
 21
38.5353
 31
0.0
  0
LINE
  8
0
 62
     0
 10
47.9199
 20
38.5353
 30
0.0
 11
47.9199
 21
35.4362
 31
0.0
  0
LINE
  8
0
 62
     0
 10
47.9199
 20
35.4362
 30
0.0
 11
48.7193
 21
35.4362
 31
0.0
  0
LINE
  8
0
 62
     0
 10
48.7193
 20
35.4362
 30
0.0
 11
48.7193
 21
34.4358
 31
0.0
  0
LINE
  8
0
 62
     0
 10
48.7193
 20
34.4358
 30
0.0
 11
62.72
 21
34.4358
 31
0.0
  0
LINE
  8
0
 62
     0
 10
62.72
 20
34.4358
 30
0.0
 11
62.72
 21
35.4362
 31
0.0
  0
LINE
  8
0
 62
     0
 10
62.72
 20
35.4362
 30
0.0
 11
63.5194
 21
35.4362
 31
0.0
  0
LINE
  8
0
 62
     0
 10
63.5194
 20
35.4362
 30
0.0
 11
63.5194
 21
38.5353
 31
0.0
  0
LINE
  8
0
 62
     0
 10
63.5194
 20
38.5353
 30
0.0
 11
62.72
 21
38.5353
 31
0.0
  0
LINE
  8
0
 62
     0
 10
62.72
 20
38.5353
 30
0.0
 11
62.72
 21
44.3357
 31
0.0
  0
LINE
  8
0
 62
     0
 10
62.72
 20
44.3357
 30
0.0
 11
63.5194
 21
44.3357
 31
0.0
  0
LINE
  8
0
 62
     0
 10
63.5194
 20
44.3357
 30
0.0
 11
63.5194
 21
47.4363
 31
0.0
  0
LINE
  8
0
 62
     0
 10
63.5194
 20
47.4363
 30
0.0
 11
62.72
 21
47.4363
 31
0.0
  0
LINE
  8
0
 62
     0
 10
62.72
 20
47.4363
 30
0.0
 11
62.72
 21
48.4367
 31
0.0
  0
LINE
  8
0
 62
     0
 10
62.72
 20
48.4367
 30
0.0
 11
48.7193
 21
48.4367
 31
0.0
  0
LINE
  8
0
 62
     0
 10
72.5318
 20
48.4367
 30
0.0
 11
72.5318
 21
47.4363
 31
0.0
  0
LINE
  8
0
 62
     0
 10
72.5318
 20
47.4363
 30
0.0
 11
71.7324
 21
47.4363
 31
0.0
  0
LINE
  8
0
 62
     0
 10
71.7324
 20
47.4363
 30
0.0
 11
71.7324
 21
44.3357
 31
0.0
  0
LINE
  8
0
 62
     0
 10
71.7324
 20
44.3357
 30
0.0
 11
72.5318
 21
44.3357
 31
0.0
  0
LINE
  8
0
 62
     0
 10
72.5318
 20
44.3357
 30
0.0
 11
72.5318
 21
38.5353
 31
0.0
  0
LINE
  8
0
 62
     0
 10
72.5318
 20
38.5353
 30
0.0
 11
71.7324
 21
38.5353
 31
0.0
  0
LINE
  8
0
 62
     0
 10
71.7324
 20
38.5353
 30
0.0
 11
71.7324
 21
35.4362
 31
0.0
  0
LINE
  8
0
 62
     0
 10
71.7324
 20
35.4362
 30
0.0
 11
72.5318
 21
35.4362
 31
0.0
  0
LINE
  8
0
 62
     0
 10
72.5318
 20
35.4362
 30
0.0
 11
72.5318
 21
34.4358
 31
0.0
  0
LINE
  8
0
 62
     0
 10
72.5318
 20
34.4358
 30
0.0
 11
86.5311
 21
34.4358
 31
0.0
  0
LINE
  8
0
 62
     0
 10
86.5311
 20
34.4358
 30
0.0
 11
86.5311
 21
35.4362
 31
0.0
  0
LINE
  8
0
 62
     0
 10
86.5311
 20
35.4362
 30
0.0
 11
87.3319
 21
35.4362
 31
0.0
  0
LINE
  8
0
 62
     0
 10
87.3319
 20
35.4362
 30
0.0
 11
87.3319
 21
38.5353
 31
0.0
  0
LINE
  8
0
 62
     0
 10
87.3319
 20
38.5353
 30
0.0
 11
86.5311
 21
38.5353
 31
0.0
  0
LINE
  8
0
 62
     0
 10
86.5311
 20
38.5353
 30
0.0
 11
86.5311
 21
44.3357
 31
0.0
  0
LINE
  8
0
 62
     0
 10
86.5311
 20
44.3357
 30
0.0
 11
87.3319
 21
44.3357
 31
0.0
  0
LINE
  8
0
 62
     0
 10
87.3319
 20
44.3357
 30
0.0
 11
87.3319
 21
47.4363
 31
0.0
  0
LINE
  8
0
 62
     0
 10
87.3319
 20
47.4363
 30
0.0
 11
86.5311
 21
47.4363
 31
0.0
  0
LINE
  8
0
 62
     0
 10
86.5311
 20
47.4363
 30
0.0
 11
86.5311
 21
48.4367
 31
0.0
  0
LINE
  8
0
 62
     0
 10
86.5311
 20
48.4367
 30
0.0
 11
72.5318
 21
48.4367
 31
0.0
  0
LINE
  8
0
 62
     0
 10
91.5818
 20
48.4367
 30
0.0
 11
91.5818
 21
47.4363
 31
0.0
  0
LINE
  8
0
 62
     0
 10
91.5818
 20
47.4363
 30
0.0
 11
90.7824
 21
47.4363
 31
0.0
  0
LINE
  8
0
 62
     0
 10
90.7824
 20
47.4363
 30
0.0
 11
90.7824
 21
44.3357
 31
0.0
  0
LINE
  8
0
 62
     0
 10
90.7824
 20
44.3357
 30
0.0
 11
91.5818
 21
44.3357
 31
0.0
  0
LINE
  8
0
 62
     0
 10
91.5818
 20
44.3357
 30
0.0
 11
91.5818
 21
38.5353
 31
0.0
  0
LINE
  8
0
 62
     0
 10
91.5818
 20
38.5353
 30
0.0
 11
90.7824
 21
38.5353
 31
0.0
  0
LINE
  8
0
 62
     0
 10
90.7824
 20
38.5353
 30
0.0
 11
90.7824
 21
35.4362
 31
0.0
  0
LINE
  8
0
 62
     0
 10
90.7824
 20
35.4362
 30
0.0
 11
91.5818
 21
35.4362
 31
0.0
  0
LINE
  8
0
 62
     0
 10
91.5818
 20
35.4362
 30
0.0
 11
91.5818
 21
34.4358
 31
0.0
  0
LINE
  8
0
 62
     0
 10
91.5818
 20
34.4358
 30
0.0
 11
105.581
 21
34.4358
 31
0.0
  0
LINE
  8
0
 62
     0
 10
105.581
 20
34.4358
 30
0.0
 11
105.581
 21
35.4362
 31
0.0
  0
LINE
  8
0
 62
     0
 10
105.581
 20
35.4362
 30
0.0
 11
106.382
 21
35.4362
 31
0.0
  0
LINE
  8
0
 62
     0
 10
106.382
 20
35.4362
 30
0.0
 11
106.382
 21
38.5353
 31
0.0
  0
LINE
  8
0
 62
     0
 10
106.382
 20
38.5353
 30
0.0
 11
105.581
 21
38.5353
 31
0.0
  0
LINE
  8
0
 62
     0
 10
105.581
 20
38.5353
 30
0.0
 11
105.581
 21
44.3357
 31
0.0
  0
LINE
  8
0
 62
     0
 10
105.581
 20
44.3357
 30
0.0
 11
106.382
 21
44.3357
 31
0.0
  0
LINE
  8
0
 62
     0
 10
106.382
 20
44.3357
 30
0.0
 11
106.382
 21
47.4363
 31
0.0
  0
LINE
  8
0
 62
     0
 10
106.382
 20
47.4363
 30
0.0
 11
105.581
 21
47.4363
 31
0.0
  0
LINE
  8
0
 62
     0
 10
105.581
 20
47.4363
 30
0.0
 11
105.581
 21
48.4367
 31
0.0
  0
LINE
  8
0
 62
     0
 10
105.581
 20
48.4367
 30
0.0
 11
91.5818
 21
48.4367
 31
0.0
  0
LINE
  8
0
 62
     0
 10
110.632
 20
48.4367
 30
0.0
 11
110.632
 21
47.4363
 31
0.0
  0
LINE
  8
0
 62
     0
 10
110.632
 20
47.4363
 30
0.0
 11
109.832
 21
47.4363
 31
0.0
  0
LINE
  8
0
 62
     0
 10
109.832
 20
47.4363
 30
0.0
 11
109.832
 21
44.3357
 31
0.0
  0
LINE
  8
0
 62
     0
 10
109.832
 20
44.3357
 30
0.0
 11
110.632
 21
44.3357
 31
0.0
  0
LINE
  8
0
 62
     0
 10
110.632
 20
44.3357
 30
0.0
 11
110.632
 21
38.5353
 31
0.0
  0
LINE
  8
0
 62
     0
 10
110.632
 20
38.5353
 30
0.0
 11
109.832
 21
38.5353
 31
0.0
  0
LINE
  8
0
 62
     0
 10
109.832
 20
38.5353
 30
0.0
 11
109.832
 21
35.4362
 31
0.0
  0
LINE
  8
0
 62
     0
 10
109.832
 20
35.4362
 30
0.0
 11
110.632
 21
35.4362
 31
0.0
  0
LINE
  8
0
 62
     0
 10
110.632
 20
35.4362
 30
0.0
 11
110.632
 21
34.4358
 31
0.0
  0
LINE
  8
0
 62
     0
 10
110.632
 20
34.4358
 30
0.0
 11
124.631
 21
34.4358
 31
0.0
  0
LINE
  8
0
 62
     0
 10
124.631
 20
34.4358
 30
0.0
 11
124.631
 21
35.4362
 31
0.0
  0
LINE
  8
0
 62
     0
 10
124.631
 20
35.4362
 30
0.0
 11
125.43
 21
35.4362
 31
0.0
  0
LINE
  8
0
 62
     0
 10
125.43
 20
35.4362
 30
0.0
 11
125.43
 21
38.5353
 31
0.0
  0
LINE
  8
0
 62
     0
 10
125.43
 20
38.5353
 30
0.0
 11
124.631
 21
38.5353
 31
0.0
  0
LINE
  8
0
 62
     0
 10
124.631
 20
38.5353
 30
0.0
 11
124.631
 21
44.3357
 31
0.0
  0
LINE
  8
0
 62
     0
 10
124.631
 20
44.3357
 30
0.0
 11
125.43
 21
44.3357
 31
0.0
  0
LINE
  8
0
 62
     0
 10
125.43
 20
44.3357
 30
0.0
 11
125.43
 21
47.4363
 31
0.0
  0
LINE
  8
0
 62
     0
 10
125.43
 20
47.4363
 30
0.0
 11
124.631
 21
47.4363
 31
0.0
  0
LINE
  8
0
 62
     0
 10
124.631
 20
47.4363
 30
0.0
 11
124.631
 21
48.4367
 31
0.0
  0
LINE
  8
0
 62
     0
 10
124.631
 20
48.4367
 30
0.0
 11
110.632
 21
48.4367
 31
0.0
  0
LINE
  8
0
 62
     0
 10
129.682
 20
48.4367
 30
0.0
 11
129.682
 21
47.4363
 31
0.0
  0
LINE
  8
0
 62
     0
 10
129.682
 20
47.4363
 30
0.0
 11
128.882
 21
47.4363
 31
0.0
  0
LINE
  8
0
 62
     0
 10
128.882
 20
47.4363
 30
0.0
 11
128.882
 21
44.3357
 31
0.0
  0
LINE
  8
0
 62
     0
 10
128.882
 20
44.3357
 30
0.0
 11
129.682
 21
44.3357
 31
0.0
  0
LINE
  8
0
 62
     0
 10
129.682
 20
44.3357
 30
0.0
 11
129.682
 21
38.5353
 31
0.0
  0
LINE
  8
0
 62
     0
 10
129.682
 20
38.5353
 30
0.0
 11
128.882
 21
38.5353
 31
0.0
  0
LINE
  8
0
 62
     0
 10
128.882
 20
38.5353
 30
0.0
 11
128.882
 21
35.4362
 31
0.0
  0
LINE
  8
0
 62
     0
 10
128.882
 20
35.4362
 30
0.0
 11
129.682
 21
35.4362
 31
0.0
  0
LINE
  8
0
 62
     0
 10
129.682
 20
35.4362
 30
0.0
 11
129.682
 21
34.4358
 31
0.0
  0
LINE
  8
0
 62
     0
 10
129.682
 20
34.4358
 30
0.0
 11
143.681
 21
34.4358
 31
0.0
  0
LINE
  8
0
 62
     0
 10
143.681
 20
34.4358
 30
0.0
 11
143.681
 21
35.4362
 31
0.0
  0
LINE
  8
0
 62
     0
 10
143.681
 20
35.4362
 30
0.0
 11
144.482
 21
35.4362
 31
0.0
  0
LINE
  8
0
 62
     0
 10
144.482
 20
35.4362
 30
0.0
 11
144.482
 21
38.5353
 31
0.0
  0
LINE
  8
0
 62
     0
 10
144.482
 20
38.5353
 30
0.0
 11
143.681
 21
38.5353
 31
0.0
  0
LINE
  8
0
 62
     0
 10
143.681
 20
38.5353
 30
0.0
 11
143.681
 21
44.3357
 31
0.0
  0
LINE
  8
0
 62
     0
 10
143.681
 20
44.3357
 30
0.0
 11
144.482
 21
44.3357
 31
0.0
  0
LINE
  8
0
 62
     0
 10
144.482
 20
44.3357
 30
0.0
 11
144.482
 21
47.4363
 31
0.0
  0
LINE
  8
0
 62
     0
 10
144.482
 20
47.4363
 30
0.0
 11
143.681
 21
47.4363
 31
0.0
  0
LINE
  8
0
 62
     0
 10
143.681
 20
47.4363
 30
0.0
 11
143.681
 21
48.4367
 31
0.0
  0
LINE
  8
0
 62
     0
 10
143.681
 20
48.4367
 30
0.0
 11
129.682
 21
48.4367
 31
0.0
  0
LINE
  8
0
 62
     0
 10
148.732
 20
48.4367
 30
0.0
 11
148.732
 21
47.4363
 31
0.0
  0
LINE
  8
0
 62
     0
 10
148.732
 20
47.4363
 30
0.0
 11
147.932
 21
47.4363
 31
0.0
  0
LINE
  8
0
 62
     0
 10
147.932
 20
47.4363
 30
0.0
 11
147.932
 21
44.3357
 31
0.0
  0
LINE
  8
0
 62
     0
 10
147.932
 20
44.3357
 30
0.0
 11
148.732
 21
44.3357
 31
0.0
  0
LINE
  8
0
 62
     0
 10
148.732
 20
44.3357
 30
0.0
 11
148.732
 21
38.5353
 31
0.0
  0
LINE
  8
0
 62
     0
 10
148.732
 20
38.5353
 30
0.0
 11
147.932
 21
38.5353
 31
0.0
  0
LINE
  8
0
 62
     0
 10
147.932
 20
38.5353
 30
0.0
 11
147.932
 21
35.4362
 31
0.0
  0
LINE
  8
0
 62
     0
 10
147.932
 20
35.4362
 30
0.0
 11
148.732
 21
35.4362
 31
0.0
  0
LINE
  8
0
 62
     0
 10
148.732
 20
35.4362
 30
0.0
 11
148.732
 21
34.4358
 31
0.0
  0
LINE
  8
0
 62
     0
 10
148.732
 20
34.4358
 30
0.0
 11
162.731
 21
34.4358
 31
0.0
  0
LINE
  8
0
 62
     0
 10
162.731
 20
34.4358
 30
0.0
 11
162.731
 21
35.4362
 31
0.0
  0
LINE
  8
0
 62
     0
 10
162.731
 20
35.4362
 30
0.0
 11
163.532
 21
35.4362
 31
0.0
  0
LINE
  8
0
 62
     0
 10
163.532
 20
35.4362
 30
0.0
 11
163.532
 21
38.5353
 31
0.0
  0
LINE
  8
0
 62
     0
 10
163.532
 20
38.5353
 30
0.0
 11
162.731
 21
38.5353
 31
0.0
  0
LINE
  8
0
 62
     0
 10
162.731
 20
38.5353
 30
0.0
 11
162.731
 21
44.3357
 31
0.0
  0
LINE
  8
0
 62
     0
 10
162.731
 20
44.3357
 30
0.0
 11
163.532
 21
44.3357
 31
0.0
  0
LINE
  8
0
 62
     0
 10
163.532
 20
44.3357
 30
0.0
 11
163.532
 21
47.4363
 31
0.0
  0
LINE
  8
0
 62
     0
 10
163.532
 20
47.4363
 30
0.0
 11
162.731
 21
47.4363
 31
0.0
  0
LINE
  8
0
 62
     0
 10
162.731
 20
47.4363
 30
0.0
 11
162.731
 21
48.4367
 31
0.0
  0
LINE
  8
0
 62
     0
 10
162.731
 20
48.4367
 30
0.0
 11
148.732
 21
48.4367
 31
0.0
  0
LINE
  8
0
 62
     0
 10
167.782
 20
48.4367
 30
0.0
 11
167.782
 21
47.4363
 31
0.0
  0
LINE
  8
0
 62
     0
 10
167.782
 20
47.4363
 30
0.0
 11
166.982
 21
47.4363
 31
0.0
  0
LINE
  8
0
 62
     0
 10
166.982
 20
47.4363
 30
0.0
 11
166.982
 21
44.3357
 31
0.0
  0
LINE
  8
0
 62
     0
 10
166.982
 20
44.3357
 30
0.0
 11
167.782
 21
44.3357
 31
0.0
  0
LINE
  8
0
 62
     0
 10
167.782
 20
44.3357
 30
0.0
 11
167.782
 21
38.5353
 31
0.0
  0
LINE
  8
0
 62
     0
 10
167.782
 20
38.5353
 30
0.0
 11
166.982
 21
38.5353
 31
0.0
  0
LINE
  8
0
 62
     0
 10
166.982
 20
38.5353
 30
0.0
 11
166.982
 21
35.4362
 31
0.0
  0
LINE
  8
0
 62
     0
 10
166.982
 20
35.4362
 30
0.0
 11
167.782
 21
35.4362
 31
0.0
  0
LINE
  8
0
 62
     0
 10
167.782
 20
35.4362
 30
0.0
 11
167.782
 21
34.4358
 31
0.0
  0
LINE
  8
0
 62
     0
 10
167.782
 20
34.4358
 30
0.0
 11
181.781
 21
34.4358
 31
0.0
  0
LINE
  8
0
 62
     0
 10
181.781
 20
34.4358
 30
0.0
 11
181.781
 21
35.4362
 31
0.0
  0
LINE
  8
0
 62
     0
 10
181.781
 20
35.4362
 30
0.0
 11
182.582
 21
35.4362
 31
0.0
  0
LINE
  8
0
 62
     0
 10
182.582
 20
35.4362
 30
0.0
 11
182.582
 21
38.5353
 31
0.0
  0
LINE
  8
0
 62
     0
 10
182.582
 20
38.5353
 30
0.0
 11
181.781
 21
38.5353
 31
0.0
  0
LINE
  8
0
 62
     0
 10
181.781
 20
38.5353
 30
0.0
 11
181.781
 21
44.3357
 31
0.0
  0
LINE
  8
0
 62
     0
 10
181.781
 20
44.3357
 30
0.0
 11
182.582
 21
44.3357
 31
0.0
  0
LINE
  8
0
 62
     0
 10
182.582
 20
44.3357
 30
0.0
 11
182.582
 21
47.4363
 31
0.0
  0
LINE
  8
0
 62
     0
 10
182.582
 20
47.4363
 30
0.0
 11
181.781
 21
47.4363
 31
0.0
  0
LINE
  8
0
 62
     0
 10
181.781
 20
47.4363
 30
0.0
 11
181.781
 21
48.4367
 31
0.0
  0
LINE
  8
0
 62
     0
 10
181.781
 20
48.4367
 30
0.0
 11
167.782
 21
48.4367
 31
0.0
  0
LINE
  8
0
 62
     0
 10
186.832
 20
48.4367
 30
0.0
 11
186.832
 21
47.4363
 31
0.0
  0
LINE
  8
0
 62
     0
 10
186.832
 20
47.4363
 30
0.0
 11
186.032
 21
47.4363
 31
0.0
  0
LINE
  8
0
 62
     0
 10
186.032
 20
47.4363
 30
0.0
 11
186.032
 21
44.3357
 31
0.0
  0
LINE
  8
0
 62
     0
 10
186.032
 20
44.3357
 30
0.0
 11
186.832
 21
44.3357
 31
0.0
  0
LINE
  8
0
 62
     0
 10
186.832
 20
44.3357
 30
0.0
 11
186.832
 21
38.5353
 31
0.0
  0
LINE
  8
0
 62
     0
 10
186.832
 20
38.5353
 30
0.0
 11
186.032
 21
38.5353
 31
0.0
  0
LINE
  8
0
 62
     0
 10
186.032
 20
38.5353
 30
0.0
 11
186.032
 21
35.4362
 31
0.0
  0
LINE
  8
0
 62
     0
 10
186.032
 20
35.4362
 30
0.0
 11
186.832
 21
35.4362
 31
0.0
  0
LINE
  8
0
 62
     0
 10
186.832
 20
35.4362
 30
0.0
 11
186.832
 21
34.4358
 31
0.0
  0
LINE
  8
0
 62
     0
 10
186.832
 20
34.4358
 30
0.0
 11
200.831
 21
34.4358
 31
0.0
  0
LINE
  8
0
 62
     0
 10
200.831
 20
34.4358
 30
0.0
 11
200.831
 21
35.4362
 31
0.0
  0
LINE
  8
0
 62
     0
 10
200.831
 20
35.4362
 30
0.0
 11
201.632
 21
35.4362
 31
0.0
  0
LINE
  8
0
 62
     0
 10
201.632
 20
35.4362
 30
0.0
 11
201.632
 21
38.5353
 31
0.0
  0
LINE
  8
0
 62
     0
 10
201.632
 20
38.5353
 30
0.0
 11
200.831
 21
38.5353
 31
0.0
  0
LINE
  8
0
 62
     0
 10
200.831
 20
38.5353
 30
0.0
 11
200.831
 21
44.3357
 31
0.0
  0
LINE
  8
0
 62
     0
 10
200.831
 20
44.3357
 30
0.0
 11
201.632
 21
44.3357
 31
0.0
  0
LINE
  8
0
 62
     0
 10
201.632
 20
44.3357
 30
0.0
 11
201.632
 21
47.4363
 31
0.0
  0
LINE
  8
0
 62
     0
 10
201.632
 20
47.4363
 30
0.0
 11
200.831
 21
47.4363
 31
0.0
  0
LINE
  8
0
 62
     0
 10
200.831
 20
47.4363
 30
0.0
 11
200.831
 21
48.4367
 31
0.0
  0
LINE
  8
0
 62
     0
 10
200.831
 20
48.4367
 30
0.0
 11
186.832
 21
48.4367
 31
0.0
  0
LINE
  8
0
 62
     0
 10
205.882
 20
48.4367
 30
0.0
 11
205.882
 21
47.4363
 31
0.0
  0
LINE
  8
0
 62
     0
 10
205.882
 20
47.4363
 30
0.0
 11
205.082
 21
47.4363
 31
0.0
  0
LINE
  8
0
 62
     0
 10
205.082
 20
47.4363
 30
0.0
 11
205.082
 21
44.3357
 31
0.0
  0
LINE
  8
0
 62
     0
 10
205.082
 20
44.3357
 30
0.0
 11
205.882
 21
44.3357
 31
0.0
  0
LINE
  8
0
 62
     0
 10
205.882
 20
44.3357
 30
0.0
 11
205.882
 21
38.5353
 31
0.0
  0
LINE
  8
0
 62
     0
 10
205.882
 20
38.5353
 30
0.0
 11
205.082
 21
38.5353
 31
0.0
  0
LINE
  8
0
 62
     0
 10
205.082
 20
38.5353
 30
0.0
 11
205.082
 21
35.4362
 31
0.0
  0
LINE
  8
0
 62
     0
 10
205.082
 20
35.4362
 30
0.0
 11
205.882
 21
35.4362
 31
0.0
  0
LINE
  8
0
 62
     0
 10
205.882
 20
35.4362
 30
0.0
 11
205.882
 21
34.4358
 31
0.0
  0
LINE
  8
0
 62
     0
 10
205.882
 20
34.4358
 30
0.0
 11
219.881
 21
34.4358
 31
0.0
  0
LINE
  8
0
 62
     0
 10
219.881
 20
34.4358
 30
0.0
 11
219.881
 21
35.4362
 31
0.0
  0
LINE
  8
0
 62
     0
 10
219.881
 20
35.4362
 30
0.0
 11
220.682
 21
35.4362
 31
0.0
  0
LINE
  8
0
 62
     0
 10
220.682
 20
35.4362
 30
0.0
 11
220.682
 21
38.5353
 31
0.0
  0
LINE
  8
0
 62
     0
 10
220.682
 20
38.5353
 30
0.0
 11
219.881
 21
38.5353
 31
0.0
  0
LINE
  8
0
 62
     0
 10
219.881
 20
38.5353
 30
0.0
 11
219.881
 21
44.3357
 31
0.0
  0
LINE
  8
0
 62
     0
 10
219.881
 20
44.3357
 30
0.0
 11
220.682
 21
44.3357
 31
0.0
  0
LINE
  8
0
 62
     0
 10
220.682
 20
44.3357
 30
0.0
 11
220.682
 21
47.4363
 31
0.0
  0
LINE
  8
0
 62
     0
 10
220.682
 20
47.4363
 30
0.0
 11
219.881
 21
47.4363
 31
0.0
  0
LINE
  8
0
 62
     0
 10
219.881
 20
47.4363
 30
0.0
 11
219.881
 21
48.4367
 31
0.0
  0
LINE
  8
0
 62
     0
 10
219.881
 20
48.4367
 30
0.0
 11
205.882
 21
48.4367
 31
0.0
  0
LINE
  8
0
 62
     0
 10
224.932
 20
48.4367
 30
0.0
 11
224.932
 21
47.4363
 31
0.0
  0
LINE
  8
0
 62
     0
 10
224.932
 20
47.4363
 30
0.0
 11
224.132
 21
47.4363
 31
0.0
  0
LINE
  8
0
 62
     0
 10
224.132
 20
47.4363
 30
0.0
 11
224.132
 21
44.3357
 31
0.0
  0
LINE
  8
0
 62
     0
 10
224.132
 20
44.3357
 30
0.0
 11
224.932
 21
44.3357
 31
0.0
  0
LINE
  8
0
 62
     0
 10
224.932
 20
44.3357
 30
0.0
 11
224.932
 21
38.5353
 31
0.0
  0
LINE
  8
0
 62
     0
 10
224.932
 20
38.5353
 30
0.0
 11
224.132
 21
38.5353
 31
0.0
  0
LINE
  8
0
 62
     0
 10
224.132
 20
38.5353
 30
0.0
 11
224.132
 21
35.4362
 31
0.0
  0
LINE
  8
0
 62
     0
 10
224.132
 20
35.4362
 30
0.0
 11
224.932
 21
35.4362
 31
0.0
  0
LINE
  8
0
 62
     0
 10
224.932
 20
35.4362
 30
0.0
 11
224.932
 21
34.4358
 31
0.0
  0
LINE
  8
0
 62
     0
 10
224.932
 20
34.4358
 30
0.0
 11
238.931
 21
34.4358
 31
0.0
  0
LINE
  8
0
 62
     0
 10
238.931
 20
34.4358
 30
0.0
 11
238.931
 21
35.4362
 31
0.0
  0
LINE
  8
0
 62
     0
 10
238.931
 20
35.4362
 30
0.0
 11
239.732
 21
35.4362
 31
0.0
  0
LINE
  8
0
 62
     0
 10
239.732
 20
35.4362
 30
0.0
 11
239.732
 21
38.5353
 31
0.0
  0
LINE
  8
0
 62
     0
 10
239.732
 20
38.5353
 30
0.0
 11
238.931
 21
38.5353
 31
0.0
  0
LINE
  8
0
 62
     0
 10
238.931
 20
38.5353
 30
0.0
 11
238.931
 21
44.3357
 31
0.0
  0
LINE
  8
0
 62
     0
 10
238.931
 20
44.3357
 30
0.0
 11
239.732
 21
44.3357
 31
0.0
  0
LINE
  8
0
 62
     0
 10
239.732
 20
44.3357
 30
0.0
 11
239.732
 21
47.4363
 31
0.0
  0
LINE
  8
0
 62
     0
 10
239.732
 20
47.4363
 30
0.0
 11
238.931
 21
47.4363
 31
0.0
  0
LINE
  8
0
 62
     0
 10
238.931
 20
47.4363
 30
0.0
 11
238.931
 21
48.4367
 31
0.0
  0
LINE
  8
0
 62
     0
 10
238.931
 20
48.4367
 30
0.0
 11
224.932
 21
48.4367
 31
0.0
  0
LINE
  8
0
 62
     0
 10
243.982
 20
48.4367
 30
0.0
 11
243.982
 21
47.4363
 31
0.0
  0
LINE
  8
0
 62
     0
 10
243.982
 20
47.4363
 30
0.0
 11
243.182
 21
47.4363
 31
0.0
  0
LINE
  8
0
 62
     0
 10
243.182
 20
47.4363
 30
0.0
 11
243.182
 21
44.3357
 31
0.0
  0
LINE
  8
0
 62
     0
 10
243.182
 20
44.3357
 30
0.0
 11
243.982
 21
44.3357
 31
0.0
  0
LINE
  8
0
 62
     0
 10
243.982
 20
44.3357
 30
0.0
 11
243.982
 21
38.5353
 31
0.0
  0
LINE
  8
0
 62
     0
 10
243.982
 20
38.5353
 30
0.0
 11
243.182
 21
38.5353
 31
0.0
  0
LINE
  8
0
 62
     0
 10
243.182
 20
38.5353
 30
0.0
 11
243.182
 21
35.4362
 31
0.0
  0
LINE
  8
0
 62
     0
 10
243.182
 20
35.4362
 30
0.0
 11
243.982
 21
35.4362
 31
0.0
  0
LINE
  8
0
 62
     0
 10
243.982
 20
35.4362
 30
0.0
 11
243.982
 21
34.4358
 31
0.0
  0
LINE
  8
0
 62
     0
 10
243.982
 20
34.4358
 30
0.0
 11
257.981
 21
34.4358
 31
0.0
  0
LINE
  8
0
 62
     0
 10
257.981
 20
34.4358
 30
0.0
 11
257.981
 21
35.4362
 31
0.0
  0
LINE
  8
0
 62
     0
 10
257.981
 20
35.4362
 30
0.0
 11
258.782
 21
35.4362
 31
0.0
  0
LINE
  8
0
 62
     0
 10
258.782
 20
35.4362
 30
0.0
 11
258.782
 21
38.5353
 31
0.0
  0
LINE
  8
0
 62
     0
 10
258.782
 20
38.5353
 30
0.0
 11
257.981
 21
38.5353
 31
0.0
  0
LINE
  8
0
 62
     0
 10
257.981
 20
38.5353
 30
0.0
 11
257.981
 21
44.3357
 31
0.0
  0
LINE
  8
0
 62
     0
 10
257.981
 20
44.3357
 30
0.0
 11
258.782
 21
44.3357
 31
0.0
  0
LINE
  8
0
 62
     0
 10
258.782
 20
44.3357
 30
0.0
 11
258.782
 21
47.4363
 31
0.0
  0
LINE
  8
0
 62
     0
 10
258.782
 20
47.4363
 30
0.0
 11
257.981
 21
47.4363
 31
0.0
  0
LINE
  8
0
 62
     0
 10
257.981
 20
47.4363
 30
0.0
 11
257.981
 21
48.4367
 31
0.0
  0
LINE
  8
0
 62
     0
 10
257.981
 20
48.4367
 30
0.0
 11
243.982
 21
48.4367
 31
0.0
  0
LINE
  8
0
 62
     0
 10
263.032
 20
48.4367
 30
0.0
 11
263.032
 21
47.4363
 31
0.0
  0
LINE
  8
0
 62
     0
 10
263.032
 20
47.4363
 30
0.0
 11
262.232
 21
47.4363
 31
0.0
  0
LINE
  8
0
 62
     0
 10
262.232
 20
47.4363
 30
0.0
 11
262.232
 21
44.3357
 31
0.0
  0
LINE
  8
0
 62
     0
 10
262.232
 20
44.3357
 30
0.0
 11
263.032
 21
44.3357
 31
0.0
  0
LINE
  8
0
 62
     0
 10
263.032
 20
44.3357
 30
0.0
 11
263.032
 21
38.5353
 31
0.0
  0
LINE
  8
0
 62
     0
 10
263.032
 20
38.5353
 30
0.0
 11
262.232
 21
38.5353
 31
0.0
  0
LINE
  8
0
 62
     0
 10
262.232
 20
38.5353
 30
0.0
 11
262.232
 21
35.4362
 31
0.0
  0
LINE
  8
0
 62
     0
 10
262.232
 20
35.4362
 30
0.0
 11
263.032
 21
35.4362
 31
0.0
  0
LINE
  8
0
 62
     0
 10
263.032
 20
35.4362
 30
0.0
 11
263.032
 21
34.4358
 31
0.0
  0
LINE
  8
0
 62
     0
 10
263.032
 20
34.4358
 30
0.0
 11
277.031
 21
34.4358
 31
0.0
  0
LINE
  8
0
 62
     0
 10
277.031
 20
34.4358
 30
0.0
 11
277.031
 21
35.4362
 31
0.0
  0
LINE
  8
0
 62
     0
 10
277.031
 20
35.4362
 30
0.0
 11
277.832
 21
35.4362
 31
0.0
  0
LINE
  8
0
 62
     0
 10
277.832
 20
35.4362
 30
0.0
 11
277.832
 21
38.5353
 31
0.0
  0
LINE
  8
0
 62
     0
 10
277.832
 20
38.5353
 30
0.0
 11
277.031
 21
38.5353
 31
0.0
  0
LINE
  8
0
 62
     0
 10
277.031
 20
38.5353
 30
0.0
 11
277.031
 21
44.3357
 31
0.0
  0
LINE
  8
0
 62
     0
 10
277.031
 20
44.3357
 30
0.0
 11
277.832
 21
44.3357
 31
0.0
  0
LINE
  8
0
 62
     0
 10
277.832
 20
44.3357
 30
0.0
 11
277.832
 21
47.4363
 31
0.0
  0
LINE
  8
0
 62
     0
 10
277.832
 20
47.4363
 30
0.0
 11
277.031
 21
47.4363
 31
0.0
  0
LINE
  8
0
 62
     0
 10
277.031
 20
47.4363
 30
0.0
 11
277.031
 21
48.4367
 31
0.0
  0
LINE
  8
0
 62
     0
 10
277.031
 20
48.4367
 30
0.0
 11
263.032
 21
48.4367
 31
0.0
  0
LINE
  8
0
 62
     0
 10
282.082
 20
48.4367
 30
0.0
 11
282.082
 21
47.4363
 31
0.0
  0
LINE
  8
0
 62
     0
 10
282.082
 20
47.4363
 30
0.0
 11
281.282
 21
47.4363
 31
0.0
  0
LINE
  8
0
 62
     0
 10
281.282
 20
47.4363
 30
0.0
 11
281.282
 21
44.3357
 31
0.0
  0
LINE
  8
0
 62
     0
 10
281.282
 20
44.3357
 30
0.0
 11
282.082
 21
44.3357
 31
0.0
  0
LINE
  8
0
 62
     0
 10
282.082
 20
44.3357
 30
0.0
 11
282.082
 21
38.5353
 31
0.0
  0
LINE
  8
0
 62
     0
 10
282.082
 20
38.5353
 30
0.0
 11
281.282
 21
38.5353
 31
0.0
  0
LINE
  8
0
 62
     0
 10
281.282
 20
38.5353
 30
0.0
 11
281.282
 21
35.4362
 31
0.0
  0
LINE
  8
0
 62
     0
 10
281.282
 20
35.4362
 30
0.0
 11
282.082
 21
35.4362
 31
0.0
  0
LINE
  8
0
 62
     0
 10
282.082
 20
35.4362
 30
0.0
 11
282.082
 21
34.4358
 31
0.0
  0
LINE
  8
0
 62
     0
 10
282.082
 20
34.4358
 30
0.0
 11
296.081
 21
34.4358
 31
0.0
  0
LINE
  8
0
 62
     0
 10
296.081
 20
34.4358
 30
0.0
 11
296.081
 21
35.4362
 31
0.0
  0
LINE
  8
0
 62
     0
 10
296.081
 20
35.4362
 30
0.0
 11
296.882
 21
35.4362
 31
0.0
  0
LINE
  8
0
 62
     0
 10
296.882
 20
35.4362
 30
0.0
 11
296.882
 21
38.5353
 31
0.0
  0
LINE
  8
0
 62
     0
 10
296.882
 20
38.5353
 30
0.0
 11
296.081
 21
38.5353
 31
0.0
  0
LINE
  8
0
 62
     0
 10
296.081
 20
38.5353
 30
0.0
 11
296.081
 21
44.3357
 31
0.0
  0
LINE
  8
0
 62
     0
 10
296.081
 20
44.3357
 30
0.0
 11
296.882
 21
44.3357
 31
0.0
  0
LINE
  8
0
 62
     0
 10
296.882
 20
44.3357
 30
0.0
 11
296.882
 21
47.4363
 31
0.0
  0
LINE
  8
0
 62
     0
 10
296.882
 20
47.4363
 30
0.0
 11
296.081
 21
47.4363
 31
0.0
  0
LINE
  8
0
 62
     0
 10
296.081
 20
47.4363
 30
0.0
 11
296.081
 21
48.4367
 31
0.0
  0
LINE
  8
0
 62
     0
 10
296.081
 20
48.4367
 30
0.0
 11
282.082
 21
48.4367
 31
0.0
  0
LINE
  8
0
 62
     0
 10
10.6192
 20
67.4867
 30
0.0
 11
10.6192
 21
66.4863
 31
0.0
  0
LINE
  8
0
 62
     0
 10
10.6192
 20
66.4863
 30
0.0
 11
9.81851
 21
66.4863
 31
0.0
  0
LINE
  8
0
 62
     0
 10
9.81851
 20
66.4863
 30
0.0
 11
9.81851
 21
63.3857
 31
0.0
  0
LINE
  8
0
 62
     0
 10
9.81851
 20
63.3857
 30
0.0
 11
10.6192
 21
63.3857
 31
0.0
  0
LINE
  8
0
 62
     0
 10
10.6192
 20
63.3857
 30
0.0
 11
10.6192
 21
57.5853
 31
0.0
  0
LINE
  8
0
 62
     0
 10
10.6192
 20
57.5853
 30
0.0
 11
9.81851
 21
57.5853
 31
0.0
  0
LINE
  8
0
 62
     0
 10
9.81851
 20
57.5853
 30
0.0
 11
9.81851
 21
54.4862
 31
0.0
  0
LINE
  8
0
 62
     0
 10
9.81851
 20
54.4862
 30
0.0
 11
10.6192
 21
54.4862
 31
0.0
  0
LINE
  8
0
 62
     0
 10
10.6192
 20
54.4862
 30
0.0
 11
10.6192
 21
53.4857
 31
0.0
  0
LINE
  8
0
 62
     0
 10
10.6192
 20
53.4857
 30
0.0
 11
24.62
 21
53.4857
 31
0.0
  0
LINE
  8
0
 62
     0
 10
24.62
 20
53.4857
 30
0.0
 11
24.62
 21
54.4862
 31
0.0
  0
LINE
  8
0
 62
     0
 10
24.62
 20
54.4862
 30
0.0
 11
25.4193
 21
54.4862
 31
0.0
  0
LINE
  8
0
 62
     0
 10
25.4193
 20
54.4862
 30
0.0
 11
25.4193
 21
57.5853
 31
0.0
  0
LINE
  8
0
 62
     0
 10
25.4193
 20
57.5853
 30
0.0
 11
24.62
 21
57.5853
 31
0.0
  0
LINE
  8
0
 62
     0
 10
24.62
 20
57.5853
 30
0.0
 11
24.62
 21
63.3857
 31
0.0
  0
LINE
  8
0
 62
     0
 10
24.62
 20
63.3857
 30
0.0
 11
25.4193
 21
63.3857
 31
0.0
  0
LINE
  8
0
 62
     0
 10
25.4193
 20
63.3857
 30
0.0
 11
25.4193
 21
66.4863
 31
0.0
  0
LINE
  8
0
 62
     0
 10
25.4193
 20
66.4863
 30
0.0
 11
24.62
 21
66.4863
 31
0.0
  0
LINE
  8
0
 62
     0
 10
24.62
 20
66.4863
 30
0.0
 11
24.62
 21
67.4867
 31
0.0
  0
LINE
  8
0
 62
     0
 10
24.62
 20
67.4867
 30
0.0
 11
10.6192
 21
67.4867
 31
0.0
  0
LINE
  8
0
 62
     0
 10
29.6692
 20
67.4867
 30
0.0
 11
29.6692
 21
66.4863
 31
0.0
  0
LINE
  8
0
 62
     0
 10
29.6692
 20
66.4863
 30
0.0
 11
28.8699
 21
66.4863
 31
0.0
  0
LINE
  8
0
 62
     0
 10
28.8699
 20
66.4863
 30
0.0
 11
28.8699
 21
63.3857
 31
0.0
  0
LINE
  8
0
 62
     0
 10
28.8699
 20
63.3857
 30
0.0
 11
29.6692
 21
63.3857
 31
0.0
  0
LINE
  8
0
 62
     0
 10
29.6692
 20
63.3857
 30
0.0
 11
29.6692
 21
57.5853
 31
0.0
  0
LINE
  8
0
 62
     0
 10
29.6692
 20
57.5853
 30
0.0
 11
28.8699
 21
57.5853
 31
0.0
  0
LINE
  8
0
 62
     0
 10
28.8699
 20
57.5853
 30
0.0
 11
28.8699
 21
54.4862
 31
0.0
  0
LINE
  8
0
 62
     0
 10
28.8699
 20
54.4862
 30
0.0
 11
29.6692
 21
54.4862
 31
0.0
  0
LINE
  8
0
 62
     0
 10
29.6692
 20
54.4862
 30
0.0
 11
29.6692
 21
53.4857
 31
0.0
  0
LINE
  8
0
 62
     0
 10
29.6692
 20
53.4857
 30
0.0
 11
43.67
 21
53.4857
 31
0.0
  0
LINE
  8
0
 62
     0
 10
43.67
 20
53.4857
 30
0.0
 11
43.67
 21
54.4862
 31
0.0
  0
LINE
  8
0
 62
     0
 10
43.67
 20
54.4862
 30
0.0
 11
44.4694
 21
54.4862
 31
0.0
  0
LINE
  8
0
 62
     0
 10
44.4694
 20
54.4862
 30
0.0
 11
44.4694
 21
57.5853
 31
0.0
  0
LINE
  8
0
 62
     0
 10
44.4694
 20
57.5853
 30
0.0
 11
43.67
 21
57.5853
 31
0.0
  0
LINE
  8
0
 62
     0
 10
43.67
 20
57.5853
 30
0.0
 11
43.67
 21
63.3857
 31
0.0
  0
LINE
  8
0
 62
     0
 10
43.67
 20
63.3857
 30
0.0
 11
44.4694
 21
63.3857
 31
0.0
  0
LINE
  8
0
 62
     0
 10
44.4694
 20
63.3857
 30
0.0
 11
44.4694
 21
66.4863
 31
0.0
  0
LINE
  8
0
 62
     0
 10
44.4694
 20
66.4863
 30
0.0
 11
43.67
 21
66.4863
 31
0.0
  0
LINE
  8
0
 62
     0
 10
43.67
 20
66.4863
 30
0.0
 11
43.67
 21
67.4867
 31
0.0
  0
LINE
  8
0
 62
     0
 10
43.67
 20
67.4867
 30
0.0
 11
29.6692
 21
67.4867
 31
0.0
  0
LINE
  8
0
 62
     0
 10
48.7193
 20
67.4867
 30
0.0
 11
48.7193
 21
66.4863
 31
0.0
  0
LINE
  8
0
 62
     0
 10
48.7193
 20
66.4863
 30
0.0
 11
47.9199
 21
66.4863
 31
0.0
  0
LINE
  8
0
 62
     0
 10
47.9199
 20
66.4863
 30
0.0
 11
47.9199
 21
63.3857
 31
0.0
  0
LINE
  8
0
 62
     0
 10
47.9199
 20
63.3857
 30
0.0
 11
48.7193
 21
63.3857
 31
0.0
  0
LINE
  8
0
 62
     0
 10
48.7193
 20
63.3857
 30
0.0
 11
48.7193
 21
57.5853
 31
0.0
  0
LINE
  8
0
 62
     0
 10
48.7193
 20
57.5853
 30
0.0
 11
47.9199
 21
57.5853
 31
0.0
  0
LINE
  8
0
 62
     0
 10
47.9199
 20
57.5853
 30
0.0
 11
47.9199
 21
54.4862
 31
0.0
  0
LINE
  8
0
 62
     0
 10
47.9199
 20
54.4862
 30
0.0
 11
48.7193
 21
54.4862
 31
0.0
  0
LINE
  8
0
 62
     0
 10
48.7193
 20
54.4862
 30
0.0
 11
48.7193
 21
53.4857
 31
0.0
  0
LINE
  8
0
 62
     0
 10
48.7193
 20
53.4857
 30
0.0
 11
62.72
 21
53.4857
 31
0.0
  0
LINE
  8
0
 62
     0
 10
62.72
 20
53.4857
 30
0.0
 11
62.72
 21
54.4862
 31
0.0
  0
LINE
  8
0
 62
     0
 10
62.72
 20
54.4862
 30
0.0
 11
63.5194
 21
54.4862
 31
0.0
  0
LINE
  8
0
 62
     0
 10
63.5194
 20
54.4862
 30
0.0
 11
63.5194
 21
57.5853
 31
0.0
  0
LINE
  8
0
 62
     0
 10
63.5194
 20
57.5853
 30
0.0
 11
62.72
 21
57.5853
 31
0.0
  0
LINE
  8
0
 62
     0
 10
62.72
 20
57.5853
 30
0.0
 11
62.72
 21
63.3857
 31
0.0
  0
LINE
  8
0
 62
     0
 10
62.72
 20
63.3857
 30
0.0
 11
63.5194
 21
63.3857
 31
0.0
  0
LINE
  8
0
 62
     0
 10
63.5194
 20
63.3857
 30
0.0
 11
63.5194
 21
66.4863
 31
0.0
  0
LINE
  8
0
 62
     0
 10
63.5194
 20
66.4863
 30
0.0
 11
62.72
 21
66.4863
 31
0.0
  0
LINE
  8
0
 62
     0
 10
62.72
 20
66.4863
 30
0.0
 11
62.72
 21
67.4867
 31
0.0
  0
LINE
  8
0
 62
     0
 10
62.72
 20
67.4867
 30
0.0
 11
48.7193
 21
67.4867
 31
0.0
  0
LINE
  8
0
 62
     0
 10
72.5318
 20
67.4867
 30
0.0
 11
72.5318
 21
66.4863
 31
0.0
  0
LINE
  8
0
 62
     0
 10
72.5318
 20
66.4863
 30
0.0
 11
71.7324
 21
66.4863
 31
0.0
  0
LINE
  8
0
 62
     0
 10
71.7324
 20
66.4863
 30
0.0
 11
71.7324
 21
63.3857
 31
0.0
  0
LINE
  8
0
 62
     0
 10
71.7324
 20
63.3857
 30
0.0
 11
72.5318
 21
63.3857
 31
0.0
  0
LINE
  8
0
 62
     0
 10
72.5318
 20
63.3857
 30
0.0
 11
72.5318
 21
57.5853
 31
0.0
  0
LINE
  8
0
 62
     0
 10
72.5318
 20
57.5853
 30
0.0
 11
71.7324
 21
57.5853
 31
0.0
  0
LINE
  8
0
 62
     0
 10
71.7324
 20
57.5853
 30
0.0
 11
71.7324
 21
54.4862
 31
0.0
  0
LINE
  8
0
 62
     0
 10
71.7324
 20
54.4862
 30
0.0
 11
72.5318
 21
54.4862
 31
0.0
  0
LINE
  8
0
 62
     0
 10
72.5318
 20
54.4862
 30
0.0
 11
72.5318
 21
53.4857
 31
0.0
  0
LINE
  8
0
 62
     0
 10
72.5318
 20
53.4857
 30
0.0
 11
86.5311
 21
53.4857
 31
0.0
  0
LINE
  8
0
 62
     0
 10
86.5311
 20
53.4857
 30
0.0
 11
86.5311
 21
54.4862
 31
0.0
  0
LINE
  8
0
 62
     0
 10
86.5311
 20
54.4862
 30
0.0
 11
87.3319
 21
54.4862
 31
0.0
  0
LINE
  8
0
 62
     0
 10
87.3319
 20
54.4862
 30
0.0
 11
87.3319
 21
57.5853
 31
0.0
  0
LINE
  8
0
 62
     0
 10
87.3319
 20
57.5853
 30
0.0
 11
86.5311
 21
57.5853
 31
0.0
  0
LINE
  8
0
 62
     0
 10
86.5311
 20
57.5853
 30
0.0
 11
86.5311
 21
63.3857
 31
0.0
  0
LINE
  8
0
 62
     0
 10
86.5311
 20
63.3857
 30
0.0
 11
87.3319
 21
63.3857
 31
0.0
  0
LINE
  8
0
 62
     0
 10
87.3319
 20
63.3857
 30
0.0
 11
87.3319
 21
66.4863
 31
0.0
  0
LINE
  8
0
 62
     0
 10
87.3319
 20
66.4863
 30
0.0
 11
86.5311
 21
66.4863
 31
0.0
  0
LINE
  8
0
 62
     0
 10
86.5311
 20
66.4863
 30
0.0
 11
86.5311
 21
67.4867
 31
0.0
  0
LINE
  8
0
 62
     0
 10
86.5311
 20
67.4867
 30
0.0
 11
72.5318
 21
67.4867
 31
0.0
  0
LINE
  8
0
 62
     0
 10
91.5818
 20
67.4867
 30
0.0
 11
91.5818
 21
66.4863
 31
0.0
  0
LINE
  8
0
 62
     0
 10
91.5818
 20
66.4863
 30
0.0
 11
90.7824
 21
66.4863
 31
0.0
  0
LINE
  8
0
 62
     0
 10
90.7824
 20
66.4863
 30
0.0
 11
90.7824
 21
63.3857
 31
0.0
  0
LINE
  8
0
 62
     0
 10
90.7824
 20
63.3857
 30
0.0
 11
91.5818
 21
63.3857
 31
0.0
  0
LINE
  8
0
 62
     0
 10
91.5818
 20
63.3857
 30
0.0
 11
91.5818
 21
57.5853
 31
0.0
  0
LINE
  8
0
 62
     0
 10
91.5818
 20
57.5853
 30
0.0
 11
90.7824
 21
57.5853
 31
0.0
  0
LINE
  8
0
 62
     0
 10
90.7824
 20
57.5853
 30
0.0
 11
90.7824
 21
54.4862
 31
0.0
  0
LINE
  8
0
 62
     0
 10
90.7824
 20
54.4862
 30
0.0
 11
91.5818
 21
54.4862
 31
0.0
  0
LINE
  8
0
 62
     0
 10
91.5818
 20
54.4862
 30
0.0
 11
91.5818
 21
53.4857
 31
0.0
  0
LINE
  8
0
 62
     0
 10
91.5818
 20
53.4857
 30
0.0
 11
105.581
 21
53.4857
 31
0.0
  0
LINE
  8
0
 62
     0
 10
105.581
 20
53.4857
 30
0.0
 11
105.581
 21
54.4862
 31
0.0
  0
LINE
  8
0
 62
     0
 10
105.581
 20
54.4862
 30
0.0
 11
106.382
 21
54.4862
 31
0.0
  0
LINE
  8
0
 62
     0
 10
106.382
 20
54.4862
 30
0.0
 11
106.382
 21
57.5853
 31
0.0
  0
LINE
  8
0
 62
     0
 10
106.382
 20
57.5853
 30
0.0
 11
105.581
 21
57.5853
 31
0.0
  0
LINE
  8
0
 62
     0
 10
105.581
 20
57.5853
 30
0.0
 11
105.581
 21
63.3857
 31
0.0
  0
LINE
  8
0
 62
     0
 10
105.581
 20
63.3857
 30
0.0
 11
106.382
 21
63.3857
 31
0.0
  0
LINE
  8
0
 62
     0
 10
106.382
 20
63.3857
 30
0.0
 11
106.382
 21
66.4863
 31
0.0
  0
LINE
  8
0
 62
     0
 10
106.382
 20
66.4863
 30
0.0
 11
105.581
 21
66.4863
 31
0.0
  0
LINE
  8
0
 62
     0
 10
105.581
 20
66.4863
 30
0.0
 11
105.581
 21
67.4867
 31
0.0
  0
LINE
  8
0
 62
     0
 10
105.581
 20
67.4867
 30
0.0
 11
91.5818
 21
67.4867
 31
0.0
  0
LINE
  8
0
 62
     0
 10
110.632
 20
67.4867
 30
0.0
 11
110.632
 21
66.4863
 31
0.0
  0
LINE
  8
0
 62
     0
 10
110.632
 20
66.4863
 30
0.0
 11
109.832
 21
66.4863
 31
0.0
  0
LINE
  8
0
 62
     0
 10
109.832
 20
66.4863
 30
0.0
 11
109.832
 21
63.3857
 31
0.0
  0
LINE
  8
0
 62
     0
 10
109.832
 20
63.3857
 30
0.0
 11
110.632
 21
63.3857
 31
0.0
  0
LINE
  8
0
 62
     0
 10
110.632
 20
63.3857
 30
0.0
 11
110.632
 21
57.5853
 31
0.0
  0
LINE
  8
0
 62
     0
 10
110.632
 20
57.5853
 30
0.0
 11
109.832
 21
57.5853
 31
0.0
  0
LINE
  8
0
 62
     0
 10
109.832
 20
57.5853
 30
0.0
 11
109.832
 21
54.4862
 31
0.0
  0
LINE
  8
0
 62
     0
 10
109.832
 20
54.4862
 30
0.0
 11
110.632
 21
54.4862
 31
0.0
  0
LINE
  8
0
 62
     0
 10
110.632
 20
54.4862
 30
0.0
 11
110.632
 21
53.4857
 31
0.0
  0
LINE
  8
0
 62
     0
 10
110.632
 20
53.4857
 30
0.0
 11
124.631
 21
53.4857
 31
0.0
  0
LINE
  8
0
 62
     0
 10
124.631
 20
53.4857
 30
0.0
 11
124.631
 21
54.4862
 31
0.0
  0
LINE
  8
0
 62
     0
 10
124.631
 20
54.4862
 30
0.0
 11
125.43
 21
54.4862
 31
0.0
  0
LINE
  8
0
 62
     0
 10
125.43
 20
54.4862
 30
0.0
 11
125.43
 21
57.5853
 31
0.0
  0
LINE
  8
0
 62
     0
 10
125.43
 20
57.5853
 30
0.0
 11
124.631
 21
57.5853
 31
0.0
  0
LINE
  8
0
 62
     0
 10
124.631
 20
57.5853
 30
0.0
 11
124.631
 21
63.3857
 31
0.0
  0
LINE
  8
0
 62
     0
 10
124.631
 20
63.3857
 30
0.0
 11
125.43
 21
63.3857
 31
0.0
  0
LINE
  8
0
 62
     0
 10
125.43
 20
63.3857
 30
0.0
 11
125.43
 21
66.4863
 31
0.0
  0
LINE
  8
0
 62
     0
 10
125.43
 20
66.4863
 30
0.0
 11
124.631
 21
66.4863
 31
0.0
  0
LINE
  8
0
 62
     0
 10
124.631
 20
66.4863
 30
0.0
 11
124.631
 21
67.4867
 31
0.0
  0
LINE
  8
0
 62
     0
 10
124.631
 20
67.4867
 30
0.0
 11
110.632
 21
67.4867
 31
0.0
  0
LINE
  8
0
 62
     0
 10
129.682
 20
67.4867
 30
0.0
 11
129.682
 21
66.4863
 31
0.0
  0
LINE
  8
0
 62
     0
 10
129.682
 20
66.4863
 30
0.0
 11
128.882
 21
66.4863
 31
0.0
  0
LINE
  8
0
 62
     0
 10
128.882
 20
66.4863
 30
0.0
 11
128.882
 21
63.3857
 31
0.0
  0
LINE
  8
0
 62
     0
 10
128.882
 20
63.3857
 30
0.0
 11
129.682
 21
63.3857
 31
0.0
  0
LINE
  8
0
 62
     0
 10
129.682
 20
63.3857
 30
0.0
 11
129.682
 21
57.5853
 31
0.0
  0
LINE
  8
0
 62
     0
 10
129.682
 20
57.5853
 30
0.0
 11
128.882
 21
57.5853
 31
0.0
  0
LINE
  8
0
 62
     0
 10
128.882
 20
57.5853
 30
0.0
 11
128.882
 21
54.4862
 31
0.0
  0
LINE
  8
0
 62
     0
 10
128.882
 20
54.4862
 30
0.0
 11
129.682
 21
54.4862
 31
0.0
  0
LINE
  8
0
 62
     0
 10
129.682
 20
54.4862
 30
0.0
 11
129.682
 21
53.4857
 31
0.0
  0
LINE
  8
0
 62
     0
 10
129.682
 20
53.4857
 30
0.0
 11
143.681
 21
53.4857
 31
0.0
  0
LINE
  8
0
 62
     0
 10
143.681
 20
53.4857
 30
0.0
 11
143.681
 21
54.4862
 31
0.0
  0
LINE
  8
0
 62
     0
 10
143.681
 20
54.4862
 30
0.0
 11
144.482
 21
54.4862
 31
0.0
  0
LINE
  8
0
 62
     0
 10
144.482
 20
54.4862
 30
0.0
 11
144.482
 21
57.5853
 31
0.0
  0
LINE
  8
0
 62
     0
 10
144.482
 20
57.5853
 30
0.0
 11
143.681
 21
57.5853
 31
0.0
  0
LINE
  8
0
 62
     0
 10
143.681
 20
57.5853
 30
0.0
 11
143.681
 21
63.3857
 31
0.0
  0
LINE
  8
0
 62
     0
 10
143.681
 20
63.3857
 30
0.0
 11
144.482
 21
63.3857
 31
0.0
  0
LINE
  8
0
 62
     0
 10
144.482
 20
63.3857
 30
0.0
 11
144.482
 21
66.4863
 31
0.0
  0
LINE
  8
0
 62
     0
 10
144.482
 20
66.4863
 30
0.0
 11
143.681
 21
66.4863
 31
0.0
  0
LINE
  8
0
 62
     0
 10
143.681
 20
66.4863
 30
0.0
 11
143.681
 21
67.4867
 31
0.0
  0
LINE
  8
0
 62
     0
 10
143.681
 20
67.4867
 30
0.0
 11
129.682
 21
67.4867
 31
0.0
  0
LINE
  8
0
 62
     0
 10
148.732
 20
67.4867
 30
0.0
 11
148.732
 21
66.4863
 31
0.0
  0
LINE
  8
0
 62
     0
 10
148.732
 20
66.4863
 30
0.0
 11
147.932
 21
66.4863
 31
0.0
  0
LINE
  8
0
 62
     0
 10
147.932
 20
66.4863
 30
0.0
 11
147.932
 21
63.3857
 31
0.0
  0
LINE
  8
0
 62
     0
 10
147.932
 20
63.3857
 30
0.0
 11
148.732
 21
63.3857
 31
0.0
  0
LINE
  8
0
 62
     0
 10
148.732
 20
63.3857
 30
0.0
 11
148.732
 21
57.5853
 31
0.0
  0
LINE
  8
0
 62
     0
 10
148.732
 20
57.5853
 30
0.0
 11
147.932
 21
57.5853
 31
0.0
  0
LINE
  8
0
 62
     0
 10
147.932
 20
57.5853
 30
0.0
 11
147.932
 21
54.4862
 31
0.0
  0
LINE
  8
0
 62
     0
 10
147.932
 20
54.4862
 30
0.0
 11
148.732
 21
54.4862
 31
0.0
  0
LINE
  8
0
 62
     0
 10
148.732
 20
54.4862
 30
0.0
 11
148.732
 21
53.4857
 31
0.0
  0
LINE
  8
0
 62
     0
 10
148.732
 20
53.4857
 30
0.0
 11
162.731
 21
53.4857
 31
0.0
  0
LINE
  8
0
 62
     0
 10
162.731
 20
53.4857
 30
0.0
 11
162.731
 21
54.4862
 31
0.0
  0
LINE
  8
0
 62
     0
 10
162.731
 20
54.4862
 30
0.0
 11
163.532
 21
54.4862
 31
0.0
  0
LINE
  8
0
 62
     0
 10
163.532
 20
54.4862
 30
0.0
 11
163.532
 21
57.5853
 31
0.0
  0
LINE
  8
0
 62
     0
 10
163.532
 20
57.5853
 30
0.0
 11
162.731
 21
57.5853
 31
0.0
  0
LINE
  8
0
 62
     0
 10
162.731
 20
57.5853
 30
0.0
 11
162.731
 21
63.3857
 31
0.0
  0
LINE
  8
0
 62
     0
 10
162.731
 20
63.3857
 30
0.0
 11
163.532
 21
63.3857
 31
0.0
  0
LINE
  8
0
 62
     0
 10
163.532
 20
63.3857
 30
0.0
 11
163.532
 21
66.4863
 31
0.0
  0
LINE
  8
0
 62
     0
 10
163.532
 20
66.4863
 30
0.0
 11
162.731
 21
66.4863
 31
0.0
  0
LINE
  8
0
 62
     0
 10
162.731
 20
66.4863
 30
0.0
 11
162.731
 21
67.4867
 31
0.0
  0
LINE
  8
0
 62
     0
 10
162.731
 20
67.4867
 30
0.0
 11
148.732
 21
67.4867
 31
0.0
  0
LINE
  8
0
 62
     0
 10
167.782
 20
67.4867
 30
0.0
 11
167.782
 21
66.4863
 31
0.0
  0
LINE
  8
0
 62
     0
 10
167.782
 20
66.4863
 30
0.0
 11
166.982
 21
66.4863
 31
0.0
  0
LINE
  8
0
 62
     0
 10
166.982
 20
66.4863
 30
0.0
 11
166.982
 21
63.3857
 31
0.0
  0
LINE
  8
0
 62
     0
 10
166.982
 20
63.3857
 30
0.0
 11
167.782
 21
63.3857
 31
0.0
  0
LINE
  8
0
 62
     0
 10
167.782
 20
63.3857
 30
0.0
 11
167.782
 21
57.5853
 31
0.0
  0
LINE
  8
0
 62
     0
 10
167.782
 20
57.5853
 30
0.0
 11
166.982
 21
57.5853
 31
0.0
  0
LINE
  8
0
 62
     0
 10
166.982
 20
57.5853
 30
0.0
 11
166.982
 21
54.4862
 31
0.0
  0
LINE
  8
0
 62
     0
 10
166.982
 20
54.4862
 30
0.0
 11
167.782
 21
54.4862
 31
0.0
  0
LINE
  8
0
 62
     0
 10
167.782
 20
54.4862
 30
0.0
 11
167.782
 21
53.4857
 31
0.0
  0
LINE
  8
0
 62
     0
 10
167.782
 20
53.4857
 30
0.0
 11
181.781
 21
53.4857
 31
0.0
  0
LINE
  8
0
 62
     0
 10
181.781
 20
53.4857
 30
0.0
 11
181.781
 21
54.4862
 31
0.0
  0
LINE
  8
0
 62
     0
 10
181.781
 20
54.4862
 30
0.0
 11
182.582
 21
54.4862
 31
0.0
  0
LINE
  8
0
 62
     0
 10
182.582
 20
54.4862
 30
0.0
 11
182.582
 21
57.5853
 31
0.0
  0
LINE
  8
0
 62
     0
 10
182.582
 20
57.5853
 30
0.0
 11
181.781
 21
57.5853
 31
0.0
  0
LINE
  8
0
 62
     0
 10
181.781
 20
57.5853
 30
0.0
 11
181.781
 21
63.3857
 31
0.0
  0
LINE
  8
0
 62
     0
 10
181.781
 20
63.3857
 30
0.0
 11
182.582
 21
63.3857
 31
0.0
  0
LINE
  8
0
 62
     0
 10
182.582
 20
63.3857
 30
0.0
 11
182.582
 21
66.4863
 31
0.0
  0
LINE
  8
0
 62
     0
 10
182.582
 20
66.4863
 30
0.0
 11
181.781
 21
66.4863
 31
0.0
  0
LINE
  8
0
 62
     0
 10
181.781
 20
66.4863
 30
0.0
 11
181.781
 21
67.4867
 31
0.0
  0
LINE
  8
0
 62
     0
 10
181.781
 20
67.4867
 30
0.0
 11
167.782
 21
67.4867
 31
0.0
  0
LINE
  8
0
 62
     0
 10
186.832
 20
67.4867
 30
0.0
 11
186.832
 21
66.4863
 31
0.0
  0
LINE
  8
0
 62
     0
 10
186.832
 20
66.4863
 30
0.0
 11
186.032
 21
66.4863
 31
0.0
  0
LINE
  8
0
 62
     0
 10
186.032
 20
66.4863
 30
0.0
 11
186.032
 21
63.3857
 31
0.0
  0
LINE
  8
0
 62
     0
 10
186.032
 20
63.3857
 30
0.0
 11
186.832
 21
63.3857
 31
0.0
  0
LINE
  8
0
 62
     0
 10
186.832
 20
63.3857
 30
0.0
 11
186.832
 21
57.5853
 31
0.0
  0
LINE
  8
0
 62
     0
 10
186.832
 20
57.5853
 30
0.0
 11
186.032
 21
57.5853
 31
0.0
  0
LINE
  8
0
 62
     0
 10
186.032
 20
57.5853
 30
0.0
 11
186.032
 21
54.4862
 31
0.0
  0
LINE
  8
0
 62
     0
 10
186.032
 20
54.4862
 30
0.0
 11
186.832
 21
54.4862
 31
0.0
  0
LINE
  8
0
 62
     0
 10
186.832
 20
54.4862
 30
0.0
 11
186.832
 21
53.4857
 31
0.0
  0
LINE
  8
0
 62
     0
 10
186.832
 20
53.4857
 30
0.0
 11
200.831
 21
53.4857
 31
0.0
  0
LINE
  8
0
 62
     0
 10
200.831
 20
53.4857
 30
0.0
 11
200.831
 21
54.4862
 31
0.0
  0
LINE
  8
0
 62
     0
 10
200.831
 20
54.4862
 30
0.0
 11
201.632
 21
54.4862
 31
0.0
  0
LINE
  8
0
 62
     0
 10
201.632
 20
54.4862
 30
0.0
 11
201.632
 21
57.5853
 31
0.0
  0
LINE
  8
0
 62
     0
 10
201.632
 20
57.5853
 30
0.0
 11
200.831
 21
57.5853
 31
0.0
  0
LINE
  8
0
 62
     0
 10
200.831
 20
57.5853
 30
0.0
 11
200.831
 21
63.3857
 31
0.0
  0
LINE
  8
0
 62
     0
 10
200.831
 20
63.3857
 30
0.0
 11
201.632
 21
63.3857
 31
0.0
  0
LINE
  8
0
 62
     0
 10
201.632
 20
63.3857
 30
0.0
 11
201.632
 21
66.4863
 31
0.0
  0
LINE
  8
0
 62
     0
 10
201.632
 20
66.4863
 30
0.0
 11
200.831
 21
66.4863
 31
0.0
  0
LINE
  8
0
 62
     0
 10
200.831
 20
66.4863
 30
0.0
 11
200.831
 21
67.4867
 31
0.0
  0
LINE
  8
0
 62
     0
 10
200.831
 20
67.4867
 30
0.0
 11
186.832
 21
67.4867
 31
0.0
  0
LINE
  8
0
 62
     0
 10
205.882
 20
67.4867
 30
0.0
 11
205.882
 21
66.4863
 31
0.0
  0
LINE
  8
0
 62
     0
 10
205.882
 20
66.4863
 30
0.0
 11
205.082
 21
66.4863
 31
0.0
  0
LINE
  8
0
 62
     0
 10
205.082
 20
66.4863
 30
0.0
 11
205.082
 21
63.3857
 31
0.0
  0
LINE
  8
0
 62
     0
 10
205.082
 20
63.3857
 30
0.0
 11
205.882
 21
63.3857
 31
0.0
  0
LINE
  8
0
 62
     0
 10
205.882
 20
63.3857
 30
0.0
 11
205.882
 21
57.5853
 31
0.0
  0
LINE
  8
0
 62
     0
 10
205.882
 20
57.5853
 30
0.0
 11
205.082
 21
57.5853
 31
0.0
  0
LINE
  8
0
 62
     0
 10
205.082
 20
57.5853
 30
0.0
 11
205.082
 21
54.4862
 31
0.0
  0
LINE
  8
0
 62
     0
 10
205.082
 20
54.4862
 30
0.0
 11
205.882
 21
54.4862
 31
0.0
  0
LINE
  8
0
 62
     0
 10
205.882
 20
54.4862
 30
0.0
 11
205.882
 21
53.4857
 31
0.0
  0
LINE
  8
0
 62
     0
 10
205.882
 20
53.4857
 30
0.0
 11
219.881
 21
53.4857
 31
0.0
  0
LINE
  8
0
 62
     0
 10
219.881
 20
53.4857
 30
0.0
 11
219.881
 21
54.4862
 31
0.0
  0
LINE
  8
0
 62
     0
 10
219.881
 20
54.4862
 30
0.0
 11
220.682
 21
54.4862
 31
0.0
  0
LINE
  8
0
 62
     0
 10
220.682
 20
54.4862
 30
0.0
 11
220.682
 21
57.5853
 31
0.0
  0
LINE
  8
0
 62
     0
 10
220.682
 20
57.5853
 30
0.0
 11
219.881
 21
57.5853
 31
0.0
  0
LINE
  8
0
 62
     0
 10
219.881
 20
57.5853
 30
0.0
 11
219.881
 21
63.3857
 31
0.0
  0
LINE
  8
0
 62
     0
 10
219.881
 20
63.3857
 30
0.0
 11
220.682
 21
63.3857
 31
0.0
  0
LINE
  8
0
 62
     0
 10
220.682
 20
63.3857
 30
0.0
 11
220.682
 21
66.4863
 31
0.0
  0
LINE
  8
0
 62
     0
 10
220.682
 20
66.4863
 30
0.0
 11
219.881
 21
66.4863
 31
0.0
  0
LINE
  8
0
 62
     0
 10
219.881
 20
66.4863
 30
0.0
 11
219.881
 21
67.4867
 31
0.0
  0
LINE
  8
0
 62
     0
 10
219.881
 20
67.4867
 30
0.0
 11
205.882
 21
67.4867
 31
0.0
  0
LINE
  8
0
 62
     0
 10
224.932
 20
67.4867
 30
0.0
 11
224.932
 21
66.4863
 31
0.0
  0
LINE
  8
0
 62
     0
 10
224.932
 20
66.4863
 30
0.0
 11
224.132
 21
66.4863
 31
0.0
  0
LINE
  8
0
 62
     0
 10
224.132
 20
66.4863
 30
0.0
 11
224.132
 21
63.3857
 31
0.0
  0
LINE
  8
0
 62
     0
 10
224.132
 20
63.3857
 30
0.0
 11
224.932
 21
63.3857
 31
0.0
  0
LINE
  8
0
 62
     0
 10
224.932
 20
63.3857
 30
0.0
 11
224.932
 21
57.5853
 31
0.0
  0
LINE
  8
0
 62
     0
 10
224.932
 20
57.5853
 30
0.0
 11
224.132
 21
57.5853
 31
0.0
  0
LINE
  8
0
 62
     0
 10
224.132
 20
57.5853
 30
0.0
 11
224.132
 21
54.4862
 31
0.0
  0
LINE
  8
0
 62
     0
 10
224.132
 20
54.4862
 30
0.0
 11
224.932
 21
54.4862
 31
0.0
  0
LINE
  8
0
 62
     0
 10
224.932
 20
54.4862
 30
0.0
 11
224.932
 21
53.4857
 31
0.0
  0
LINE
  8
0
 62
     0
 10
224.932
 20
53.4857
 30
0.0
 11
238.931
 21
53.4857
 31
0.0
  0
LINE
  8
0
 62
     0
 10
238.931
 20
53.4857
 30
0.0
 11
238.931
 21
54.4862
 31
0.0
  0
LINE
  8
0
 62
     0
 10
238.931
 20
54.4862
 30
0.0
 11
239.732
 21
54.4862
 31
0.0
  0
LINE
  8
0
 62
     0
 10
239.732
 20
54.4862
 30
0.0
 11
239.732
 21
57.5853
 31
0.0
  0
LINE
  8
0
 62
     0
 10
239.732
 20
57.5853
 30
0.0
 11
238.931
 21
57.5853
 31
0.0
  0
LINE
  8
0
 62
     0
 10
238.931
 20
57.5853
 30
0.0
 11
238.931
 21
63.3857
 31
0.0
  0
LINE
  8
0
 62
     0
 10
238.931
 20
63.3857
 30
0.0
 11
239.732
 21
63.3857
 31
0.0
  0
LINE
  8
0
 62
     0
 10
239.732
 20
63.3857
 30
0.0
 11
239.732
 21
66.4863
 31
0.0
  0
LINE
  8
0
 62
     0
 10
239.732
 20
66.4863
 30
0.0
 11
238.931
 21
66.4863
 31
0.0
  0
LINE
  8
0
 62
     0
 10
238.931
 20
66.4863
 30
0.0
 11
238.931
 21
67.4867
 31
0.0
  0
LINE
  8
0
 62
     0
 10
238.931
 20
67.4867
 30
0.0
 11
224.932
 21
67.4867
 31
0.0
  0
LINE
  8
0
 62
     0
 10
243.982
 20
67.4867
 30
0.0
 11
243.982
 21
66.4863
 31
0.0
  0
LINE
  8
0
 62
     0
 10
243.982
 20
66.4863
 30
0.0
 11
243.182
 21
66.4863
 31
0.0
  0
LINE
  8
0
 62
     0
 10
243.182
 20
66.4863
 30
0.0
 11
243.182
 21
63.3857
 31
0.0
  0
LINE
  8
0
 62
     0
 10
243.182
 20
63.3857
 30
0.0
 11
243.982
 21
63.3857
 31
0.0
  0
LINE
  8
0
 62
     0
 10
243.982
 20
63.3857
 30
0.0
 11
243.982
 21
57.5853
 31
0.0
  0
LINE
  8
0
 62
     0
 10
243.982
 20
57.5853
 30
0.0
 11
243.182
 21
57.5853
 31
0.0
  0
LINE
  8
0
 62
     0
 10
243.182
 20
57.5853
 30
0.0
 11
243.182
 21
54.4862
 31
0.0
  0
LINE
  8
0
 62
     0
 10
243.182
 20
54.4862
 30
0.0
 11
243.982
 21
54.4862
 31
0.0
  0
LINE
  8
0
 62
     0
 10
243.982
 20
54.4862
 30
0.0
 11
243.982
 21
53.4857
 31
0.0
  0
LINE
  8
0
 62
     0
 10
243.982
 20
53.4857
 30
0.0
 11
257.981
 21
53.4857
 31
0.0
  0
LINE
  8
0
 62
     0
 10
257.981
 20
53.4857
 30
0.0
 11
257.981
 21
54.4862
 31
0.0
  0
LINE
  8
0
 62
     0
 10
257.981
 20
54.4862
 30
0.0
 11
258.782
 21
54.4862
 31
0.0
  0
LINE
  8
0
 62
     0
 10
258.782
 20
54.4862
 30
0.0
 11
258.782
 21
57.5853
 31
0.0
  0
LINE
  8
0
 62
     0
 10
258.782
 20
57.5853
 30
0.0
 11
257.981
 21
57.5853
 31
0.0
  0
LINE
  8
0
 62
     0
 10
257.981
 20
57.5853
 30
0.0
 11
257.981
 21
63.3857
 31
0.0
  0
LINE
  8
0
 62
     0
 10
257.981
 20
63.3857
 30
0.0
 11
258.782
 21
63.3857
 31
0.0
  0
LINE
  8
0
 62
     0
 10
258.782
 20
63.3857
 30
0.0
 11
258.782
 21
66.4863
 31
0.0
  0
LINE
  8
0
 62
     0
 10
258.782
 20
66.4863
 30
0.0
 11
257.981
 21
66.4863
 31
0.0
  0
LINE
  8
0
 62
     0
 10
257.981
 20
66.4863
 30
0.0
 11
257.981
 21
67.4867
 31
0.0
  0
LINE
  8
0
 62
     0
 10
257.981
 20
67.4867
 30
0.0
 11
243.982
 21
67.4867
 31
0.0
  0
LINE
  8
0
 62
     0
 10
263.032
 20
67.4867
 30
0.0
 11
263.032
 21
66.4863
 31
0.0
  0
LINE
  8
0
 62
     0
 10
263.032
 20
66.4863
 30
0.0
 11
262.232
 21
66.4863
 31
0.0
  0
LINE
  8
0
 62
     0
 10
262.232
 20
66.4863
 30
0.0
 11
262.232
 21
63.3857
 31
0.0
  0
LINE
  8
0
 62
     0
 10
262.232
 20
63.3857
 30
0.0
 11
263.032
 21
63.3857
 31
0.0
  0
LINE
  8
0
 62
     0
 10
263.032
 20
63.3857
 30
0.0
 11
263.032
 21
57.5853
 31
0.0
  0
LINE
  8
0
 62
     0
 10
263.032
 20
57.5853
 30
0.0
 11
262.232
 21
57.5853
 31
0.0
  0
LINE
  8
0
 62
     0
 10
262.232
 20
57.5853
 30
0.0
 11
262.232
 21
54.4862
 31
0.0
  0
LINE
  8
0
 62
     0
 10
262.232
 20
54.4862
 30
0.0
 11
263.032
 21
54.4862
 31
0.0
  0
LINE
  8
0
 62
     0
 10
263.032
 20
54.4862
 30
0.0
 11
263.032
 21
53.4857
 31
0.0
  0
LINE
  8
0
 62
     0
 10
263.032
 20
53.4857
 30
0.0
 11
277.031
 21
53.4857
 31
0.0
  0
LINE
  8
0
 62
     0
 10
277.031
 20
53.4857
 30
0.0
 11
277.031
 21
54.4862
 31
0.0
  0
LINE
  8
0
 62
     0
 10
277.031
 20
54.4862
 30
0.0
 11
277.832
 21
54.4862
 31
0.0
  0
LINE
  8
0
 62
     0
 10
277.832
 20
54.4862
 30
0.0
 11
277.832
 21
57.5853
 31
0.0
  0
LINE
  8
0
 62
     0
 10
277.832
 20
57.5853
 30
0.0
 11
277.031
 21
57.5853
 31
0.0
  0
LINE
  8
0
 62
     0
 10
277.031
 20
57.5853
 30
0.0
 11
277.031
 21
63.3857
 31
0.0
  0
LINE
  8
0
 62
     0
 10
277.031
 20
63.3857
 30
0.0
 11
277.832
 21
63.3857
 31
0.0
  0
LINE
  8
0
 62
     0
 10
277.832
 20
63.3857
 30
0.0
 11
277.832
 21
66.4863
 31
0.0
  0
LINE
  8
0
 62
     0
 10
277.832
 20
66.4863
 30
0.0
 11
277.031
 21
66.4863
 31
0.0
  0
LINE
  8
0
 62
     0
 10
277.031
 20
66.4863
 30
0.0
 11
277.031
 21
67.4867
 31
0.0
  0
LINE
  8
0
 62
     0
 10
277.031
 20
67.4867
 30
0.0
 11
263.032
 21
67.4867
 31
0.0
  0
LINE
  8
0
 62
     0
 10
282.082
 20
67.4867
 30
0.0
 11
282.082
 21
66.4863
 31
0.0
  0
LINE
  8
0
 62
     0
 10
282.082
 20
66.4863
 30
0.0
 11
281.282
 21
66.4863
 31
0.0
  0
LINE
  8
0
 62
     0
 10
281.282
 20
66.4863
 30
0.0
 11
281.282
 21
63.3857
 31
0.0
  0
LINE
  8
0
 62
     0
 10
281.282
 20
63.3857
 30
0.0
 11
282.082
 21
63.3857
 31
0.0
  0
LINE
  8
0
 62
     0
 10
282.082
 20
63.3857
 30
0.0
 11
282.082
 21
57.5853
 31
0.0
  0
LINE
  8
0
 62
     0
 10
282.082
 20
57.5853
 30
0.0
 11
281.282
 21
57.5853
 31
0.0
  0
LINE
  8
0
 62
     0
 10
281.282
 20
57.5853
 30
0.0
 11
281.282
 21
54.4862
 31
0.0
  0
LINE
  8
0
 62
     0
 10
281.282
 20
54.4862
 30
0.0
 11
282.082
 21
54.4862
 31
0.0
  0
LINE
  8
0
 62
     0
 10
282.082
 20
54.4862
 30
0.0
 11
282.082
 21
53.4857
 31
0.0
  0
LINE
  8
0
 62
     0
 10
282.082
 20
53.4857
 30
0.0
 11
296.081
 21
53.4857
 31
0.0
  0
LINE
  8
0
 62
     0
 10
296.081
 20
53.4857
 30
0.0
 11
296.081
 21
54.4862
 31
0.0
  0
LINE
  8
0
 62
     0
 10
296.081
 20
54.4862
 30
0.0
 11
296.882
 21
54.4862
 31
0.0
  0
LINE
  8
0
 62
     0
 10
296.882
 20
54.4862
 30
0.0
 11
296.882
 21
57.5853
 31
0.0
  0
LINE
  8
0
 62
     0
 10
296.882
 20
57.5853
 30
0.0
 11
296.081
 21
57.5853
 31
0.0
  0
LINE
  8
0
 62
     0
 10
296.081
 20
57.5853
 30
0.0
 11
296.081
 21
63.3857
 31
0.0
  0
LINE
  8
0
 62
     0
 10
296.081
 20
63.3857
 30
0.0
 11
296.882
 21
63.3857
 31
0.0
  0
LINE
  8
0
 62
     0
 10
296.882
 20
63.3857
 30
0.0
 11
296.882
 21
66.4863
 31
0.0
  0
LINE
  8
0
 62
     0
 10
296.882
 20
66.4863
 30
0.0
 11
296.081
 21
66.4863
 31
0.0
  0
LINE
  8
0
 62
     0
 10
296.081
 20
66.4863
 30
0.0
 11
296.081
 21
67.4867
 31
0.0
  0
LINE
  8
0
 62
     0
 10
296.081
 20
67.4867
 30
0.0
 11
282.082
 21
67.4867
 31
0.0
  0
LINE
  8
0
 62
     0
 10
305.894
 20
67.4867
 30
0.0
 11
305.894
 21
66.4863
 31
0.0
  0
LINE
  8
0
 62
     0
 10
305.894
 20
66.4863
 30
0.0
 11
305.095
 21
66.4863
 31
0.0
  0
LINE
  8
0
 62
     0
 10
305.095
 20
66.4863
 30
0.0
 11
305.095
 21
63.3857
 31
0.0
  0
LINE
  8
0
 62
     0
 10
305.095
 20
63.3857
 30
0.0
 11
305.894
 21
63.3857
 31
0.0
  0
LINE
  8
0
 62
     0
 10
305.894
 20
63.3857
 30
0.0
 11
305.894
 21
57.5853
 31
0.0
  0
LINE
  8
0
 62
     0
 10
305.894
 20
57.5853
 30
0.0
 11
305.095
 21
57.5853
 31
0.0
  0
LINE
  8
0
 62
     0
 10
305.095
 20
57.5853
 30
0.0
 11
305.095
 21
54.4862
 31
0.0
  0
LINE
  8
0
 62
     0
 10
305.095
 20
54.4862
 30
0.0
 11
305.894
 21
54.4862
 31
0.0
  0
LINE
  8
0
 62
     0
 10
305.894
 20
54.4862
 30
0.0
 11
305.894
 21
53.4857
 31
0.0
  0
LINE
  8
0
 62
     0
 10
305.894
 20
53.4857
 30
0.0
 11
319.895
 21
53.4857
 31
0.0
  0
LINE
  8
0
 62
     0
 10
319.895
 20
53.4857
 30
0.0
 11
319.895
 21
54.4862
 31
0.0
  0
LINE
  8
0
 62
     0
 10
319.895
 20
54.4862
 30
0.0
 11
320.694
 21
54.4862
 31
0.0
  0
LINE
  8
0
 62
     0
 10
320.694
 20
54.4862
 30
0.0
 11
320.694
 21
57.5853
 31
0.0
  0
LINE
  8
0
 62
     0
 10
320.694
 20
57.5853
 30
0.0
 11
319.895
 21
57.5853
 31
0.0
  0
LINE
  8
0
 62
     0
 10
319.895
 20
57.5853
 30
0.0
 11
319.895
 21
63.3857
 31
0.0
  0
LINE
  8
0
 62
     0
 10
319.895
 20
63.3857
 30
0.0
 11
320.694
 21
63.3857
 31
0.0
  0
LINE
  8
0
 62
     0
 10
320.694
 20
63.3857
 30
0.0
 11
320.694
 21
66.4863
 31
0.0
  0
LINE
  8
0
 62
     0
 10
320.694
 20
66.4863
 30
0.0
 11
319.895
 21
66.4863
 31
0.0
  0
LINE
  8
0
 62
     0
 10
319.895
 20
66.4863
 30
0.0
 11
319.895
 21
67.4867
 31
0.0
  0
LINE
  8
0
 62
     0
 10
319.895
 20
67.4867
 30
0.0
 11
305.894
 21
67.4867
 31
0.0
  0
LINE
  8
0
 62
     0
 10
324.944
 20
67.4867
 30
0.0
 11
324.944
 21
66.4863
 31
0.0
  0
LINE
  8
0
 62
     0
 10
324.944
 20
66.4863
 30
0.0
 11
324.145
 21
66.4863
 31
0.0
  0
LINE
  8
0
 62
     0
 10
324.145
 20
66.4863
 30
0.0
 11
324.145
 21
63.3857
 31
0.0
  0
LINE
  8
0
 62
     0
 10
324.145
 20
63.3857
 30
0.0
 11
324.944
 21
63.3857
 31
0.0
  0
LINE
  8
0
 62
     0
 10
324.944
 20
63.3857
 30
0.0
 11
324.944
 21
57.5853
 31
0.0
  0
LINE
  8
0
 62
     0
 10
324.944
 20
57.5853
 30
0.0
 11
324.145
 21
57.5853
 31
0.0
  0
LINE
  8
0
 62
     0
 10
324.145
 20
57.5853
 30
0.0
 11
324.145
 21
54.4862
 31
0.0
  0
LINE
  8
0
 62
     0
 10
324.145
 20
54.4862
 30
0.0
 11
324.944
 21
54.4862
 31
0.0
  0
LINE
  8
0
 62
     0
 10
324.944
 20
54.4862
 30
0.0
 11
324.944
 21
53.4857
 31
0.0
  0
LINE
  8
0
 62
     0
 10
324.944
 20
53.4857
 30
0.0
 11
338.945
 21
53.4857
 31
0.0
  0
LINE
  8
0
 62
     0
 10
338.945
 20
53.4857
 30
0.0
 11
338.945
 21
54.4862
 31
0.0
  0
LINE
  8
0
 62
     0
 10
338.945
 20
54.4862
 30
0.0
 11
339.744
 21
54.4862
 31
0.0
  0
LINE
  8
0
 62
     0
 10
339.744
 20
54.4862
 30
0.0
 11
339.744
 21
57.5853
 31
0.0
  0
LINE
  8
0
 62
     0
 10
339.744
 20
57.5853
 30
0.0
 11
338.945
 21
57.5853
 31
0.0
  0
LINE
  8
0
 62
     0
 10
338.945
 20
57.5853
 30
0.0
 11
338.945
 21
63.3857
 31
0.0
  0
LINE
  8
0
 62
     0
 10
338.945
 20
63.3857
 30
0.0
 11
339.744
 21
63.3857
 31
0.0
  0
LINE
  8
0
 62
     0
 10
339.744
 20
63.3857
 30
0.0
 11
339.744
 21
66.4863
 31
0.0
  0
LINE
  8
0
 62
     0
 10
339.744
 20
66.4863
 30
0.0
 11
338.945
 21
66.4863
 31
0.0
  0
LINE
  8
0
 62
     0
 10
338.945
 20
66.4863
 30
0.0
 11
338.945
 21
67.4867
 31
0.0
  0
LINE
  8
0
 62
     0
 10
338.945
 20
67.4867
 30
0.0
 11
324.944
 21
67.4867
 31
0.0
  0
LINE
  8
0
 62
     0
 10
10.6192
 20
86.5367
 30
0.0
 11
10.6192
 21
85.5363
 31
0.0
  0
LINE
  8
0
 62
     0
 10
10.6192
 20
85.5363
 30
0.0
 11
9.81851
 21
85.5363
 31
0.0
  0
LINE
  8
0
 62
     0
 10
9.81851
 20
85.5363
 30
0.0
 11
9.81851
 21
82.4357
 31
0.0
  0
LINE
  8
0
 62
     0
 10
9.81851
 20
82.4357
 30
0.0
 11
10.6192
 21
82.4357
 31
0.0
  0
LINE
  8
0
 62
     0
 10
10.6192
 20
82.4357
 30
0.0
 11
10.6192
 21
76.6367
 31
0.0
  0
LINE
  8
0
 62
     0
 10
10.6192
 20
76.6367
 30
0.0
 11
9.81851
 21
76.6367
 31
0.0
  0
LINE
  8
0
 62
     0
 10
9.81851
 20
76.6367
 30
0.0
 11
9.81851
 21
73.5362
 31
0.0
  0
LINE
  8
0
 62
     0
 10
9.81851
 20
73.5362
 30
0.0
 11
10.6192
 21
73.5362
 31
0.0
  0
LINE
  8
0
 62
     0
 10
10.6192
 20
73.5362
 30
0.0
 11
10.6192
 21
72.5357
 31
0.0
  0
LINE
  8
0
 62
     0
 10
10.6192
 20
72.5357
 30
0.0
 11
24.62
 21
72.5357
 31
0.0
  0
LINE
  8
0
 62
     0
 10
24.62
 20
72.5357
 30
0.0
 11
24.62
 21
73.5362
 31
0.0
  0
LINE
  8
0
 62
     0
 10
24.62
 20
73.5362
 30
0.0
 11
25.4193
 21
73.5362
 31
0.0
  0
LINE
  8
0
 62
     0
 10
25.4193
 20
73.5362
 30
0.0
 11
25.4193
 21
76.6367
 31
0.0
  0
LINE
  8
0
 62
     0
 10
25.4193
 20
76.6367
 30
0.0
 11
24.62
 21
76.6367
 31
0.0
  0
LINE
  8
0
 62
     0
 10
24.62
 20
76.6367
 30
0.0
 11
24.62
 21
82.4357
 31
0.0
  0
LINE
  8
0
 62
     0
 10
24.62
 20
82.4357
 30
0.0
 11
25.4193
 21
82.4357
 31
0.0
  0
LINE
  8
0
 62
     0
 10
25.4193
 20
82.4357
 30
0.0
 11
25.4193
 21
85.5363
 31
0.0
  0
LINE
  8
0
 62
     0
 10
25.4193
 20
85.5363
 30
0.0
 11
24.62
 21
85.5363
 31
0.0
  0
LINE
  8
0
 62
     0
 10
24.62
 20
85.5363
 30
0.0
 11
24.62
 21
86.5367
 31
0.0
  0
LINE
  8
0
 62
     0
 10
24.62
 20
86.5367
 30
0.0
 11
10.6192
 21
86.5367
 31
0.0
  0
LINE
  8
0
 62
     0
 10
29.6692
 20
86.5367
 30
0.0
 11
29.6692
 21
85.5363
 31
0.0
  0
LINE
  8
0
 62
     0
 10
29.6692
 20
85.5363
 30
0.0
 11
28.8699
 21
85.5363
 31
0.0
  0
LINE
  8
0
 62
     0
 10
28.8699
 20
85.5363
 30
0.0
 11
28.8699
 21
82.4357
 31
0.0
  0
LINE
  8
0
 62
     0
 10
28.8699
 20
82.4357
 30
0.0
 11
29.6692
 21
82.4357
 31
0.0
  0
LINE
  8
0
 62
     0
 10
29.6692
 20
82.4357
 30
0.0
 11
29.6692
 21
76.6367
 31
0.0
  0
LINE
  8
0
 62
     0
 10
29.6692
 20
76.6367
 30
0.0
 11
28.8699
 21
76.6367
 31
0.0
  0
LINE
  8
0
 62
     0
 10
28.8699
 20
76.6367
 30
0.0
 11
28.8699
 21
73.5362
 31
0.0
  0
LINE
  8
0
 62
     0
 10
28.8699
 20
73.5362
 30
0.0
 11
29.6692
 21
73.5362
 31
0.0
  0
LINE
  8
0
 62
     0
 10
29.6692
 20
73.5362
 30
0.0
 11
29.6692
 21
72.5357
 31
0.0
  0
LINE
  8
0
 62
     0
 10
29.6692
 20
72.5357
 30
0.0
 11
43.67
 21
72.5357
 31
0.0
  0
LINE
  8
0
 62
     0
 10
43.67
 20
72.5357
 30
0.0
 11
43.67
 21
73.5362
 31
0.0
  0
LINE
  8
0
 62
     0
 10
43.67
 20
73.5362
 30
0.0
 11
44.4694
 21
73.5362
 31
0.0
  0
LINE
  8
0
 62
     0
 10
44.4694
 20
73.5362
 30
0.0
 11
44.4694
 21
76.6367
 31
0.0
  0
LINE
  8
0
 62
     0
 10
44.4694
 20
76.6367
 30
0.0
 11
43.67
 21
76.6367
 31
0.0
  0
LINE
  8
0
 62
     0
 10
43.67
 20
76.6367
 30
0.0
 11
43.67
 21
82.4357
 31
0.0
  0
LINE
  8
0
 62
     0
 10
43.67
 20
82.4357
 30
0.0
 11
44.4694
 21
82.4357
 31
0.0
  0
LINE
  8
0
 62
     0
 10
44.4694
 20
82.4357
 30
0.0
 11
44.4694
 21
85.5363
 31
0.0
  0
LINE
  8
0
 62
     0
 10
44.4694
 20
85.5363
 30
0.0
 11
43.67
 21
85.5363
 31
0.0
  0
LINE
  8
0
 62
     0
 10
43.67
 20
85.5363
 30
0.0
 11
43.67
 21
86.5367
 31
0.0
  0
LINE
  8
0
 62
     0
 10
43.67
 20
86.5367
 30
0.0
 11
29.6692
 21
86.5367
 31
0.0
  0
LINE
  8
0
 62
     0
 10
48.7193
 20
86.5367
 30
0.0
 11
48.7193
 21
85.5363
 31
0.0
  0
LINE
  8
0
 62
     0
 10
48.7193
 20
85.5363
 30
0.0
 11
47.9199
 21
85.5363
 31
0.0
  0
LINE
  8
0
 62
     0
 10
47.9199
 20
85.5363
 30
0.0
 11
47.9199
 21
82.4357
 31
0.0
  0
LINE
  8
0
 62
     0
 10
47.9199
 20
82.4357
 30
0.0
 11
48.7193
 21
82.4357
 31
0.0
  0
LINE
  8
0
 62
     0
 10
48.7193
 20
82.4357
 30
0.0
 11
48.7193
 21
76.6367
 31
0.0
  0
LINE
  8
0
 62
     0
 10
48.7193
 20
76.6367
 30
0.0
 11
47.9199
 21
76.6367
 31
0.0
  0
LINE
  8
0
 62
     0
 10
47.9199
 20
76.6367
 30
0.0
 11
47.9199
 21
73.5362
 31
0.0
  0
LINE
  8
0
 62
     0
 10
47.9199
 20
73.5362
 30
0.0
 11
48.7193
 21
73.5362
 31
0.0
  0
LINE
  8
0
 62
     0
 10
48.7193
 20
73.5362
 30
0.0
 11
48.7193
 21
72.5357
 31
0.0
  0
LINE
  8
0
 62
     0
 10
48.7193
 20
72.5357
 30
0.0
 11
62.72
 21
72.5357
 31
0.0
  0
LINE
  8
0
 62
     0
 10
62.72
 20
72.5357
 30
0.0
 11
62.72
 21
73.5362
 31
0.0
  0
LINE
  8
0
 62
     0
 10
62.72
 20
73.5362
 30
0.0
 11
63.5194
 21
73.5362
 31
0.0
  0
LINE
  8
0
 62
     0
 10
63.5194
 20
73.5362
 30
0.0
 11
63.5194
 21
76.6367
 31
0.0
  0
LINE
  8
0
 62
     0
 10
63.5194
 20
76.6367
 30
0.0
 11
62.72
 21
76.6367
 31
0.0
  0
LINE
  8
0
 62
     0
 10
62.72
 20
76.6367
 30
0.0
 11
62.72
 21
82.4357
 31
0.0
  0
LINE
  8
0
 62
     0
 10
62.72
 20
82.4357
 30
0.0
 11
63.5194
 21
82.4357
 31
0.0
  0
LINE
  8
0
 62
     0
 10
63.5194
 20
82.4357
 30
0.0
 11
63.5194
 21
85.5363
 31
0.0
  0
LINE
  8
0
 62
     0
 10
63.5194
 20
85.5363
 30
0.0
 11
62.72
 21
85.5363
 31
0.0
  0
LINE
  8
0
 62
     0
 10
62.72
 20
85.5363
 30
0.0
 11
62.72
 21
86.5367
 31
0.0
  0
LINE
  8
0
 62
     0
 10
62.72
 20
86.5367
 30
0.0
 11
48.7193
 21
86.5367
 31
0.0
  0
LINE
  8
0
 62
     0
 10
72.5318
 20
86.5367
 30
0.0
 11
72.5318
 21
85.5363
 31
0.0
  0
LINE
  8
0
 62
     0
 10
72.5318
 20
85.5363
 30
0.0
 11
71.7324
 21
85.5363
 31
0.0
  0
LINE
  8
0
 62
     0
 10
71.7324
 20
85.5363
 30
0.0
 11
71.7324
 21
82.4357
 31
0.0
  0
LINE
  8
0
 62
     0
 10
71.7324
 20
82.4357
 30
0.0
 11
72.5318
 21
82.4357
 31
0.0
  0
LINE
  8
0
 62
     0
 10
72.5318
 20
82.4357
 30
0.0
 11
72.5318
 21
76.6367
 31
0.0
  0
LINE
  8
0
 62
     0
 10
72.5318
 20
76.6367
 30
0.0
 11
71.7324
 21
76.6367
 31
0.0
  0
LINE
  8
0
 62
     0
 10
71.7324
 20
76.6367
 30
0.0
 11
71.7324
 21
73.5362
 31
0.0
  0
LINE
  8
0
 62
     0
 10
71.7324
 20
73.5362
 30
0.0
 11
72.5318
 21
73.5362
 31
0.0
  0
LINE
  8
0
 62
     0
 10
72.5318
 20
73.5362
 30
0.0
 11
72.5318
 21
72.5357
 31
0.0
  0
LINE
  8
0
 62
     0
 10
72.5318
 20
72.5357
 30
0.0
 11
86.5311
 21
72.5357
 31
0.0
  0
LINE
  8
0
 62
     0
 10
86.5311
 20
72.5357
 30
0.0
 11
86.5311
 21
73.5362
 31
0.0
  0
LINE
  8
0
 62
     0
 10
86.5311
 20
73.5362
 30
0.0
 11
87.3319
 21
73.5362
 31
0.0
  0
LINE
  8
0
 62
     0
 10
87.3319
 20
73.5362
 30
0.0
 11
87.3319
 21
76.6367
 31
0.0
  0
LINE
  8
0
 62
     0
 10
87.3319
 20
76.6367
 30
0.0
 11
86.5311
 21
76.6367
 31
0.0
  0
LINE
  8
0
 62
     0
 10
86.5311
 20
76.6367
 30
0.0
 11
86.5311
 21
82.4357
 31
0.0
  0
LINE
  8
0
 62
     0
 10
86.5311
 20
82.4357
 30
0.0
 11
87.3319
 21
82.4357
 31
0.0
  0
LINE
  8
0
 62
     0
 10
87.3319
 20
82.4357
 30
0.0
 11
87.3319
 21
85.5363
 31
0.0
  0
LINE
  8
0
 62
     0
 10
87.3319
 20
85.5363
 30
0.0
 11
86.5311
 21
85.5363
 31
0.0
  0
LINE
  8
0
 62
     0
 10
86.5311
 20
85.5363
 30
0.0
 11
86.5311
 21
86.5367
 31
0.0
  0
LINE
  8
0
 62
     0
 10
86.5311
 20
86.5367
 30
0.0
 11
72.5318
 21
86.5367
 31
0.0
  0
LINE
  8
0
 62
     0
 10
91.5818
 20
86.5367
 30
0.0
 11
91.5818
 21
85.5363
 31
0.0
  0
LINE
  8
0
 62
     0
 10
91.5818
 20
85.5363
 30
0.0
 11
90.7824
 21
85.5363
 31
0.0
  0
LINE
  8
0
 62
     0
 10
90.7824
 20
85.5363
 30
0.0
 11
90.7824
 21
82.4357
 31
0.0
  0
LINE
  8
0
 62
     0
 10
90.7824
 20
82.4357
 30
0.0
 11
91.5818
 21
82.4357
 31
0.0
  0
LINE
  8
0
 62
     0
 10
91.5818
 20
82.4357
 30
0.0
 11
91.5818
 21
76.6367
 31
0.0
  0
LINE
  8
0
 62
     0
 10
91.5818
 20
76.6367
 30
0.0
 11
90.7824
 21
76.6367
 31
0.0
  0
LINE
  8
0
 62
     0
 10
90.7824
 20
76.6367
 30
0.0
 11
90.7824
 21
73.5362
 31
0.0
  0
LINE
  8
0
 62
     0
 10
90.7824
 20
73.5362
 30
0.0
 11
91.5818
 21
73.5362
 31
0.0
  0
LINE
  8
0
 62
     0
 10
91.5818
 20
73.5362
 30
0.0
 11
91.5818
 21
72.5357
 31
0.0
  0
LINE
  8
0
 62
     0
 10
91.5818
 20
72.5357
 30
0.0
 11
105.581
 21
72.5357
 31
0.0
  0
LINE
  8
0
 62
     0
 10
105.581
 20
72.5357
 30
0.0
 11
105.581
 21
73.5362
 31
0.0
  0
LINE
  8
0
 62
     0
 10
105.581
 20
73.5362
 30
0.0
 11
106.382
 21
73.5362
 31
0.0
  0
LINE
  8
0
 62
     0
 10
106.382
 20
73.5362
 30
0.0
 11
106.382
 21
76.6367
 31
0.0
  0
LINE
  8
0
 62
     0
 10
106.382
 20
76.6367
 30
0.0
 11
105.581
 21
76.6367
 31
0.0
  0
LINE
  8
0
 62
     0
 10
105.581
 20
76.6367
 30
0.0
 11
105.581
 21
82.4357
 31
0.0
  0
LINE
  8
0
 62
     0
 10
105.581
 20
82.4357
 30
0.0
 11
106.382
 21
82.4357
 31
0.0
  0
LINE
  8
0
 62
     0
 10
106.382
 20
82.4357
 30
0.0
 11
106.382
 21
85.5363
 31
0.0
  0
LINE
  8
0
 62
     0
 10
106.382
 20
85.5363
 30
0.0
 11
105.581
 21
85.5363
 31
0.0
  0
LINE
  8
0
 62
     0
 10
105.581
 20
85.5363
 30
0.0
 11
105.581
 21
86.5367
 31
0.0
  0
LINE
  8
0
 62
     0
 10
105.581
 20
86.5367
 30
0.0
 11
91.5818
 21
86.5367
 31
0.0
  0
LINE
  8
0
 62
     0
 10
110.632
 20
86.5367
 30
0.0
 11
110.632
 21
85.5363
 31
0.0
  0
LINE
  8
0
 62
     0
 10
110.632
 20
85.5363
 30
0.0
 11
109.832
 21
85.5363
 31
0.0
  0
LINE
  8
0
 62
     0
 10
109.832
 20
85.5363
 30
0.0
 11
109.832
 21
82.4357
 31
0.0
  0
LINE
  8
0
 62
     0
 10
109.832
 20
82.4357
 30
0.0
 11
110.632
 21
82.4357
 31
0.0
  0
LINE
  8
0
 62
     0
 10
110.632
 20
82.4357
 30
0.0
 11
110.632
 21
76.6367
 31
0.0
  0
LINE
  8
0
 62
     0
 10
110.632
 20
76.6367
 30
0.0
 11
109.832
 21
76.6367
 31
0.0
  0
LINE
  8
0
 62
     0
 10
109.832
 20
76.6367
 30
0.0
 11
109.832
 21
73.5362
 31
0.0
  0
LINE
  8
0
 62
     0
 10
109.832
 20
73.5362
 30
0.0
 11
110.632
 21
73.5362
 31
0.0
  0
LINE
  8
0
 62
     0
 10
110.632
 20
73.5362
 30
0.0
 11
110.632
 21
72.5357
 31
0.0
  0
LINE
  8
0
 62
     0
 10
110.632
 20
72.5357
 30
0.0
 11
124.631
 21
72.5357
 31
0.0
  0
LINE
  8
0
 62
     0
 10
124.631
 20
72.5357
 30
0.0
 11
124.631
 21
73.5362
 31
0.0
  0
LINE
  8
0
 62
     0
 10
124.631
 20
73.5362
 30
0.0
 11
125.43
 21
73.5362
 31
0.0
  0
LINE
  8
0
 62
     0
 10
125.43
 20
73.5362
 30
0.0
 11
125.43
 21
76.6367
 31
0.0
  0
LINE
  8
0
 62
     0
 10
125.43
 20
76.6367
 30
0.0
 11
124.631
 21
76.6367
 31
0.0
  0
LINE
  8
0
 62
     0
 10
124.631
 20
76.6367
 30
0.0
 11
124.631
 21
82.4357
 31
0.0
  0
LINE
  8
0
 62
     0
 10
124.631
 20
82.4357
 30
0.0
 11
125.43
 21
82.4357
 31
0.0
  0
LINE
  8
0
 62
     0
 10
125.43
 20
82.4357
 30
0.0
 11
125.43
 21
85.5363
 31
0.0
  0
LINE
  8
0
 62
     0
 10
125.43
 20
85.5363
 30
0.0
 11
124.631
 21
85.5363
 31
0.0
  0
LINE
  8
0
 62
     0
 10
124.631
 20
85.5363
 30
0.0
 11
124.631
 21
86.5367
 31
0.0
  0
LINE
  8
0
 62
     0
 10
124.631
 20
86.5367
 30
0.0
 11
110.632
 21
86.5367
 31
0.0
  0
LINE
  8
0
 62
     0
 10
129.682
 20
86.5367
 30
0.0
 11
129.682
 21
85.5363
 31
0.0
  0
LINE
  8
0
 62
     0
 10
129.682
 20
85.5363
 30
0.0
 11
128.882
 21
85.5363
 31
0.0
  0
LINE
  8
0
 62
     0
 10
128.882
 20
85.5363
 30
0.0
 11
128.882
 21
82.4357
 31
0.0
  0
LINE
  8
0
 62
     0
 10
128.882
 20
82.4357
 30
0.0
 11
129.682
 21
82.4357
 31
0.0
  0
LINE
  8
0
 62
     0
 10
129.682
 20
82.4357
 30
0.0
 11
129.682
 21
76.6367
 31
0.0
  0
LINE
  8
0
 62
     0
 10
129.682
 20
76.6367
 30
0.0
 11
128.882
 21
76.6367
 31
0.0
  0
LINE
  8
0
 62
     0
 10
128.882
 20
76.6367
 30
0.0
 11
128.882
 21
73.5362
 31
0.0
  0
LINE
  8
0
 62
     0
 10
128.882
 20
73.5362
 30
0.0
 11
129.682
 21
73.5362
 31
0.0
  0
LINE
  8
0
 62
     0
 10
129.682
 20
73.5362
 30
0.0
 11
129.682
 21
72.5357
 31
0.0
  0
LINE
  8
0
 62
     0
 10
129.682
 20
72.5357
 30
0.0
 11
143.681
 21
72.5357
 31
0.0
  0
LINE
  8
0
 62
     0
 10
143.681
 20
72.5357
 30
0.0
 11
143.681
 21
73.5362
 31
0.0
  0
LINE
  8
0
 62
     0
 10
143.681
 20
73.5362
 30
0.0
 11
144.482
 21
73.5362
 31
0.0
  0
LINE
  8
0
 62
     0
 10
144.482
 20
73.5362
 30
0.0
 11
144.482
 21
76.6367
 31
0.0
  0
LINE
  8
0
 62
     0
 10
144.482
 20
76.6367
 30
0.0
 11
143.681
 21
76.6367
 31
0.0
  0
LINE
  8
0
 62
     0
 10
143.681
 20
76.6367
 30
0.0
 11
143.681
 21
82.4357
 31
0.0
  0
LINE
  8
0
 62
     0
 10
143.681
 20
82.4357
 30
0.0
 11
144.482
 21
82.4357
 31
0.0
  0
LINE
  8
0
 62
     0
 10
144.482
 20
82.4357
 30
0.0
 11
144.482
 21
85.5363
 31
0.0
  0
LINE
  8
0
 62
     0
 10
144.482
 20
85.5363
 30
0.0
 11
143.681
 21
85.5363
 31
0.0
  0
LINE
  8
0
 62
     0
 10
143.681
 20
85.5363
 30
0.0
 11
143.681
 21
86.5367
 31
0.0
  0
LINE
  8
0
 62
     0
 10
143.681
 20
86.5367
 30
0.0
 11
129.682
 21
86.5367
 31
0.0
  0
LINE
  8
0
 62
     0
 10
148.732
 20
86.5367
 30
0.0
 11
148.732
 21
85.5363
 31
0.0
  0
LINE
  8
0
 62
     0
 10
148.732
 20
85.5363
 30
0.0
 11
147.932
 21
85.5363
 31
0.0
  0
LINE
  8
0
 62
     0
 10
147.932
 20
85.5363
 30
0.0
 11
147.932
 21
82.4357
 31
0.0
  0
LINE
  8
0
 62
     0
 10
147.932
 20
82.4357
 30
0.0
 11
148.732
 21
82.4357
 31
0.0
  0
LINE
  8
0
 62
     0
 10
148.732
 20
82.4357
 30
0.0
 11
148.732
 21
76.6367
 31
0.0
  0
LINE
  8
0
 62
     0
 10
148.732
 20
76.6367
 30
0.0
 11
147.932
 21
76.6367
 31
0.0
  0
LINE
  8
0
 62
     0
 10
147.932
 20
76.6367
 30
0.0
 11
147.932
 21
73.5362
 31
0.0
  0
LINE
  8
0
 62
     0
 10
147.932
 20
73.5362
 30
0.0
 11
148.732
 21
73.5362
 31
0.0
  0
LINE
  8
0
 62
     0
 10
148.732
 20
73.5362
 30
0.0
 11
148.732
 21
72.5357
 31
0.0
  0
LINE
  8
0
 62
     0
 10
148.732
 20
72.5357
 30
0.0
 11
162.731
 21
72.5357
 31
0.0
  0
LINE
  8
0
 62
     0
 10
162.731
 20
72.5357
 30
0.0
 11
162.731
 21
73.5362
 31
0.0
  0
LINE
  8
0
 62
     0
 10
162.731
 20
73.5362
 30
0.0
 11
163.532
 21
73.5362
 31
0.0
  0
LINE
  8
0
 62
     0
 10
163.532
 20
73.5362
 30
0.0
 11
163.532
 21
76.6367
 31
0.0
  0
LINE
  8
0
 62
     0
 10
163.532
 20
76.6367
 30
0.0
 11
162.731
 21
76.6367
 31
0.0
  0
LINE
  8
0
 62
     0
 10
162.731
 20
76.6367
 30
0.0
 11
162.731
 21
82.4357
 31
0.0
  0
LINE
  8
0
 62
     0
 10
162.731
 20
82.4357
 30
0.0
 11
163.532
 21
82.4357
 31
0.0
  0
LINE
  8
0
 62
     0
 10
163.532
 20
82.4357
 30
0.0
 11
163.532
 21
85.5363
 31
0.0
  0
LINE
  8
0
 62
     0
 10
163.532
 20
85.5363
 30
0.0
 11
162.731
 21
85.5363
 31
0.0
  0
LINE
  8
0
 62
     0
 10
162.731
 20
85.5363
 30
0.0
 11
162.731
 21
86.5367
 31
0.0
  0
LINE
  8
0
 62
     0
 10
162.731
 20
86.5367
 30
0.0
 11
148.732
 21
86.5367
 31
0.0
  0
LINE
  8
0
 62
     0
 10
167.782
 20
86.5367
 30
0.0
 11
167.782
 21
85.5363
 31
0.0
  0
LINE
  8
0
 62
     0
 10
167.782
 20
85.5363
 30
0.0
 11
166.982
 21
85.5363
 31
0.0
  0
LINE
  8
0
 62
     0
 10
166.982
 20
85.5363
 30
0.0
 11
166.982
 21
82.4357
 31
0.0
  0
LINE
  8
0
 62
     0
 10
166.982
 20
82.4357
 30
0.0
 11
167.782
 21
82.4357
 31
0.0
  0
LINE
  8
0
 62
     0
 10
167.782
 20
82.4357
 30
0.0
 11
167.782
 21
76.6367
 31
0.0
  0
LINE
  8
0
 62
     0
 10
167.782
 20
76.6367
 30
0.0
 11
166.982
 21
76.6367
 31
0.0
  0
LINE
  8
0
 62
     0
 10
166.982
 20
76.6367
 30
0.0
 11
166.982
 21
73.5362
 31
0.0
  0
LINE
  8
0
 62
     0
 10
166.982
 20
73.5362
 30
0.0
 11
167.782
 21
73.5362
 31
0.0
  0
LINE
  8
0
 62
     0
 10
167.782
 20
73.5362
 30
0.0
 11
167.782
 21
72.5357
 31
0.0
  0
LINE
  8
0
 62
     0
 10
167.782
 20
72.5357
 30
0.0
 11
181.781
 21
72.5357
 31
0.0
  0
LINE
  8
0
 62
     0
 10
181.781
 20
72.5357
 30
0.0
 11
181.781
 21
73.5362
 31
0.0
  0
LINE
  8
0
 62
     0
 10
181.781
 20
73.5362
 30
0.0
 11
182.582
 21
73.5362
 31
0.0
  0
LINE
  8
0
 62
     0
 10
182.582
 20
73.5362
 30
0.0
 11
182.582
 21
76.6367
 31
0.0
  0
LINE
  8
0
 62
     0
 10
182.582
 20
76.6367
 30
0.0
 11
181.781
 21
76.6367
 31
0.0
  0
LINE
  8
0
 62
     0
 10
181.781
 20
76.6367
 30
0.0
 11
181.781
 21
82.4357
 31
0.0
  0
LINE
  8
0
 62
     0
 10
181.781
 20
82.4357
 30
0.0
 11
182.582
 21
82.4357
 31
0.0
  0
LINE
  8
0
 62
     0
 10
182.582
 20
82.4357
 30
0.0
 11
182.582
 21
85.5363
 31
0.0
  0
LINE
  8
0
 62
     0
 10
182.582
 20
85.5363
 30
0.0
 11
181.781
 21
85.5363
 31
0.0
  0
LINE
  8
0
 62
     0
 10
181.781
 20
85.5363
 30
0.0
 11
181.781
 21
86.5367
 31
0.0
  0
LINE
  8
0
 62
     0
 10
181.781
 20
86.5367
 30
0.0
 11
167.782
 21
86.5367
 31
0.0
  0
LINE
  8
0
 62
     0
 10
186.832
 20
86.5367
 30
0.0
 11
186.832
 21
85.5363
 31
0.0
  0
LINE
  8
0
 62
     0
 10
186.832
 20
85.5363
 30
0.0
 11
186.032
 21
85.5363
 31
0.0
  0
LINE
  8
0
 62
     0
 10
186.032
 20
85.5363
 30
0.0
 11
186.032
 21
82.4357
 31
0.0
  0
LINE
  8
0
 62
     0
 10
186.032
 20
82.4357
 30
0.0
 11
186.832
 21
82.4357
 31
0.0
  0
LINE
  8
0
 62
     0
 10
186.832
 20
82.4357
 30
0.0
 11
186.832
 21
76.6367
 31
0.0
  0
LINE
  8
0
 62
     0
 10
186.832
 20
76.6367
 30
0.0
 11
186.032
 21
76.6367
 31
0.0
  0
LINE
  8
0
 62
     0
 10
186.032
 20
76.6367
 30
0.0
 11
186.032
 21
73.5362
 31
0.0
  0
LINE
  8
0
 62
     0
 10
186.032
 20
73.5362
 30
0.0
 11
186.832
 21
73.5362
 31
0.0
  0
LINE
  8
0
 62
     0
 10
186.832
 20
73.5362
 30
0.0
 11
186.832
 21
72.5357
 31
0.0
  0
LINE
  8
0
 62
     0
 10
186.832
 20
72.5357
 30
0.0
 11
200.831
 21
72.5357
 31
0.0
  0
LINE
  8
0
 62
     0
 10
200.831
 20
72.5357
 30
0.0
 11
200.831
 21
73.5362
 31
0.0
  0
LINE
  8
0
 62
     0
 10
200.831
 20
73.5362
 30
0.0
 11
201.632
 21
73.5362
 31
0.0
  0
LINE
  8
0
 62
     0
 10
201.632
 20
73.5362
 30
0.0
 11
201.632
 21
76.6367
 31
0.0
  0
LINE
  8
0
 62
     0
 10
201.632
 20
76.6367
 30
0.0
 11
200.831
 21
76.6367
 31
0.0
  0
LINE
  8
0
 62
     0
 10
200.831
 20
76.6367
 30
0.0
 11
200.831
 21
82.4357
 31
0.0
  0
LINE
  8
0
 62
     0
 10
200.831
 20
82.4357
 30
0.0
 11
201.632
 21
82.4357
 31
0.0
  0
LINE
  8
0
 62
     0
 10
201.632
 20
82.4357
 30
0.0
 11
201.632
 21
85.5363
 31
0.0
  0
LINE
  8
0
 62
     0
 10
201.632
 20
85.5363
 30
0.0
 11
200.831
 21
85.5363
 31
0.0
  0
LINE
  8
0
 62
     0
 10
200.831
 20
85.5363
 30
0.0
 11
200.831
 21
86.5367
 31
0.0
  0
LINE
  8
0
 62
     0
 10
200.831
 20
86.5367
 30
0.0
 11
186.832
 21
86.5367
 31
0.0
  0
LINE
  8
0
 62
     0
 10
205.882
 20
86.5367
 30
0.0
 11
205.882
 21
85.5363
 31
0.0
  0
LINE
  8
0
 62
     0
 10
205.882
 20
85.5363
 30
0.0
 11
205.082
 21
85.5363
 31
0.0
  0
LINE
  8
0
 62
     0
 10
205.082
 20
85.5363
 30
0.0
 11
205.082
 21
82.4357
 31
0.0
  0
LINE
  8
0
 62
     0
 10
205.082
 20
82.4357
 30
0.0
 11
205.882
 21
82.4357
 31
0.0
  0
LINE
  8
0
 62
     0
 10
205.882
 20
82.4357
 30
0.0
 11
205.882
 21
76.6367
 31
0.0
  0
LINE
  8
0
 62
     0
 10
205.882
 20
76.6367
 30
0.0
 11
205.082
 21
76.6367
 31
0.0
  0
LINE
  8
0
 62
     0
 10
205.082
 20
76.6367
 30
0.0
 11
205.082
 21
73.5362
 31
0.0
  0
LINE
  8
0
 62
     0
 10
205.082
 20
73.5362
 30
0.0
 11
205.882
 21
73.5362
 31
0.0
  0
LINE
  8
0
 62
     0
 10
205.882
 20
73.5362
 30
0.0
 11
205.882
 21
72.5357
 31
0.0
  0
LINE
  8
0
 62
     0
 10
205.882
 20
72.5357
 30
0.0
 11
219.881
 21
72.5357
 31
0.0
  0
LINE
  8
0
 62
     0
 10
219.881
 20
72.5357
 30
0.0
 11
219.881
 21
73.5362
 31
0.0
  0
LINE
  8
0
 62
     0
 10
219.881
 20
73.5362
 30
0.0
 11
220.682
 21
73.5362
 31
0.0
  0
LINE
  8
0
 62
     0
 10
220.682
 20
73.5362
 30
0.0
 11
220.682
 21
76.6367
 31
0.0
  0
LINE
  8
0
 62
     0
 10
220.682
 20
76.6367
 30
0.0
 11
219.881
 21
76.6367
 31
0.0
  0
LINE
  8
0
 62
     0
 10
219.881
 20
76.6367
 30
0.0
 11
219.881
 21
82.4357
 31
0.0
  0
LINE
  8
0
 62
     0
 10
219.881
 20
82.4357
 30
0.0
 11
220.682
 21
82.4357
 31
0.0
  0
LINE
  8
0
 62
     0
 10
220.682
 20
82.4357
 30
0.0
 11
220.682
 21
85.5363
 31
0.0
  0
LINE
  8
0
 62
     0
 10
220.682
 20
85.5363
 30
0.0
 11
219.881
 21
85.5363
 31
0.0
  0
LINE
  8
0
 62
     0
 10
219.881
 20
85.5363
 30
0.0
 11
219.881
 21
86.5367
 31
0.0
  0
LINE
  8
0
 62
     0
 10
219.881
 20
86.5367
 30
0.0
 11
205.882
 21
86.5367
 31
0.0
  0
LINE
  8
0
 62
     0
 10
224.932
 20
86.5367
 30
0.0
 11
224.932
 21
85.5363
 31
0.0
  0
LINE
  8
0
 62
     0
 10
224.932
 20
85.5363
 30
0.0
 11
224.132
 21
85.5363
 31
0.0
  0
LINE
  8
0
 62
     0
 10
224.132
 20
85.5363
 30
0.0
 11
224.132
 21
82.4357
 31
0.0
  0
LINE
  8
0
 62
     0
 10
224.132
 20
82.4357
 30
0.0
 11
224.932
 21
82.4357
 31
0.0
  0
LINE
  8
0
 62
     0
 10
224.932
 20
82.4357
 30
0.0
 11
224.932
 21
76.6367
 31
0.0
  0
LINE
  8
0
 62
     0
 10
224.932
 20
76.6367
 30
0.0
 11
224.132
 21
76.6367
 31
0.0
  0
LINE
  8
0
 62
     0
 10
224.132
 20
76.6367
 30
0.0
 11
224.132
 21
73.5362
 31
0.0
  0
LINE
  8
0
 62
     0
 10
224.132
 20
73.5362
 30
0.0
 11
224.932
 21
73.5362
 31
0.0
  0
LINE
  8
0
 62
     0
 10
224.932
 20
73.5362
 30
0.0
 11
224.932
 21
72.5357
 31
0.0
  0
LINE
  8
0
 62
     0
 10
224.932
 20
72.5357
 30
0.0
 11
238.931
 21
72.5357
 31
0.0
  0
LINE
  8
0
 62
     0
 10
238.931
 20
72.5357
 30
0.0
 11
238.931
 21
73.5362
 31
0.0
  0
LINE
  8
0
 62
     0
 10
238.931
 20
73.5362
 30
0.0
 11
239.732
 21
73.5362
 31
0.0
  0
LINE
  8
0
 62
     0
 10
239.732
 20
73.5362
 30
0.0
 11
239.732
 21
76.6367
 31
0.0
  0
LINE
  8
0
 62
     0
 10
239.732
 20
76.6367
 30
0.0
 11
238.931
 21
76.6367
 31
0.0
  0
LINE
  8
0
 62
     0
 10
238.931
 20
76.6367
 30
0.0
 11
238.931
 21
82.4357
 31
0.0
  0
LINE
  8
0
 62
     0
 10
238.931
 20
82.4357
 30
0.0
 11
239.732
 21
82.4357
 31
0.0
  0
LINE
  8
0
 62
     0
 10
239.732
 20
82.4357
 30
0.0
 11
239.732
 21
85.5363
 31
0.0
  0
LINE
  8
0
 62
     0
 10
239.732
 20
85.5363
 30
0.0
 11
238.931
 21
85.5363
 31
0.0
  0
LINE
  8
0
 62
     0
 10
238.931
 20
85.5363
 30
0.0
 11
238.931
 21
86.5367
 31
0.0
  0
LINE
  8
0
 62
     0
 10
238.931
 20
86.5367
 30
0.0
 11
224.932
 21
86.5367
 31
0.0
  0
LINE
  8
0
 62
     0
 10
243.982
 20
86.5367
 30
0.0
 11
243.982
 21
85.5363
 31
0.0
  0
LINE
  8
0
 62
     0
 10
243.982
 20
85.5363
 30
0.0
 11
243.182
 21
85.5363
 31
0.0
  0
LINE
  8
0
 62
     0
 10
243.182
 20
85.5363
 30
0.0
 11
243.182
 21
82.4357
 31
0.0
  0
LINE
  8
0
 62
     0
 10
243.182
 20
82.4357
 30
0.0
 11
243.982
 21
82.4357
 31
0.0
  0
LINE
  8
0
 62
     0
 10
243.982
 20
82.4357
 30
0.0
 11
243.982
 21
76.6367
 31
0.0
  0
LINE
  8
0
 62
     0
 10
243.982
 20
76.6367
 30
0.0
 11
243.182
 21
76.6367
 31
0.0
  0
LINE
  8
0
 62
     0
 10
243.182
 20
76.6367
 30
0.0
 11
243.182
 21
73.5362
 31
0.0
  0
LINE
  8
0
 62
     0
 10
243.182
 20
73.5362
 30
0.0
 11
243.982
 21
73.5362
 31
0.0
  0
LINE
  8
0
 62
     0
 10
243.982
 20
73.5362
 30
0.0
 11
243.982
 21
72.5357
 31
0.0
  0
LINE
  8
0
 62
     0
 10
243.982
 20
72.5357
 30
0.0
 11
257.981
 21
72.5357
 31
0.0
  0
LINE
  8
0
 62
     0
 10
257.981
 20
72.5357
 30
0.0
 11
257.981
 21
73.5362
 31
0.0
  0
LINE
  8
0
 62
     0
 10
257.981
 20
73.5362
 30
0.0
 11
258.782
 21
73.5362
 31
0.0
  0
LINE
  8
0
 62
     0
 10
258.782
 20
73.5362
 30
0.0
 11
258.782
 21
76.6367
 31
0.0
  0
LINE
  8
0
 62
     0
 10
258.782
 20
76.6367
 30
0.0
 11
257.981
 21
76.6367
 31
0.0
  0
LINE
  8
0
 62
     0
 10
257.981
 20
76.6367
 30
0.0
 11
257.981
 21
82.4357
 31
0.0
  0
LINE
  8
0
 62
     0
 10
257.981
 20
82.4357
 30
0.0
 11
258.782
 21
82.4357
 31
0.0
  0
LINE
  8
0
 62
     0
 10
258.782
 20
82.4357
 30
0.0
 11
258.782
 21
85.5363
 31
0.0
  0
LINE
  8
0
 62
     0
 10
258.782
 20
85.5363
 30
0.0
 11
257.981
 21
85.5363
 31
0.0
  0
LINE
  8
0
 62
     0
 10
257.981
 20
85.5363
 30
0.0
 11
257.981
 21
86.5367
 31
0.0
  0
LINE
  8
0
 62
     0
 10
257.981
 20
86.5367
 30
0.0
 11
243.982
 21
86.5367
 31
0.0
  0
LINE
  8
0
 62
     0
 10
263.032
 20
86.5367
 30
0.0
 11
263.032
 21
85.5363
 31
0.0
  0
LINE
  8
0
 62
     0
 10
263.032
 20
85.5363
 30
0.0
 11
262.232
 21
85.5363
 31
0.0
  0
LINE
  8
0
 62
     0
 10
262.232
 20
85.5363
 30
0.0
 11
262.232
 21
82.4357
 31
0.0
  0
LINE
  8
0
 62
     0
 10
262.232
 20
82.4357
 30
0.0
 11
263.032
 21
82.4357
 31
0.0
  0
LINE
  8
0
 62
     0
 10
263.032
 20
82.4357
 30
0.0
 11
263.032
 21
76.6367
 31
0.0
  0
LINE
  8
0
 62
     0
 10
263.032
 20
76.6367
 30
0.0
 11
262.232
 21
76.6367
 31
0.0
  0
LINE
  8
0
 62
     0
 10
262.232
 20
76.6367
 30
0.0
 11
262.232
 21
73.5362
 31
0.0
  0
LINE
  8
0
 62
     0
 10
262.232
 20
73.5362
 30
0.0
 11
263.032
 21
73.5362
 31
0.0
  0
LINE
  8
0
 62
     0
 10
263.032
 20
73.5362
 30
0.0
 11
263.032
 21
72.5357
 31
0.0
  0
LINE
  8
0
 62
     0
 10
263.032
 20
72.5357
 30
0.0
 11
277.031
 21
72.5357
 31
0.0
  0
LINE
  8
0
 62
     0
 10
277.031
 20
72.5357
 30
0.0
 11
277.031
 21
73.5362
 31
0.0
  0
LINE
  8
0
 62
     0
 10
277.031
 20
73.5362
 30
0.0
 11
277.832
 21
73.5362
 31
0.0
  0
LINE
  8
0
 62
     0
 10
277.832
 20
73.5362
 30
0.0
 11
277.832
 21
76.6367
 31
0.0
  0
LINE
  8
0
 62
     0
 10
277.832
 20
76.6367
 30
0.0
 11
277.031
 21
76.6367
 31
0.0
  0
LINE
  8
0
 62
     0
 10
277.031
 20
76.6367
 30
0.0
 11
277.031
 21
82.4357
 31
0.0
  0
LINE
  8
0
 62
     0
 10
277.031
 20
82.4357
 30
0.0
 11
277.832
 21
82.4357
 31
0.0
  0
LINE
  8
0
 62
     0
 10
277.832
 20
82.4357
 30
0.0
 11
277.832
 21
85.5363
 31
0.0
  0
LINE
  8
0
 62
     0
 10
277.832
 20
85.5363
 30
0.0
 11
277.031
 21
85.5363
 31
0.0
  0
LINE
  8
0
 62
     0
 10
277.031
 20
85.5363
 30
0.0
 11
277.031
 21
86.5367
 31
0.0
  0
LINE
  8
0
 62
     0
 10
277.031
 20
86.5367
 30
0.0
 11
263.032
 21
86.5367
 31
0.0
  0
LINE
  8
0
 62
     0
 10
282.082
 20
86.5367
 30
0.0
 11
282.082
 21
85.5363
 31
0.0
  0
LINE
  8
0
 62
     0
 10
282.082
 20
85.5363
 30
0.0
 11
281.282
 21
85.5363
 31
0.0
  0
LINE
  8
0
 62
     0
 10
281.282
 20
85.5363
 30
0.0
 11
281.282
 21
82.4357
 31
0.0
  0
LINE
  8
0
 62
     0
 10
281.282
 20
82.4357
 30
0.0
 11
282.082
 21
82.4357
 31
0.0
  0
LINE
  8
0
 62
     0
 10
282.082
 20
82.4357
 30
0.0
 11
282.082
 21
76.6367
 31
0.0
  0
LINE
  8
0
 62
     0
 10
282.082
 20
76.6367
 30
0.0
 11
281.282
 21
76.6367
 31
0.0
  0
LINE
  8
0
 62
     0
 10
281.282
 20
76.6367
 30
0.0
 11
281.282
 21
73.5362
 31
0.0
  0
LINE
  8
0
 62
     0
 10
281.282
 20
73.5362
 30
0.0
 11
282.082
 21
73.5362
 31
0.0
  0
LINE
  8
0
 62
     0
 10
282.082
 20
73.5362
 30
0.0
 11
282.082
 21
72.5357
 31
0.0
  0
LINE
  8
0
 62
     0
 10
282.082
 20
72.5357
 30
0.0
 11
296.081
 21
72.5357
 31
0.0
  0
LINE
  8
0
 62
     0
 10
296.081
 20
72.5357
 30
0.0
 11
296.081
 21
73.5362
 31
0.0
  0
LINE
  8
0
 62
     0
 10
296.081
 20
73.5362
 30
0.0
 11
296.882
 21
73.5362
 31
0.0
  0
LINE
  8
0
 62
     0
 10
296.882
 20
73.5362
 30
0.0
 11
296.882
 21
76.6367
 31
0.0
  0
LINE
  8
0
 62
     0
 10
296.882
 20
76.6367
 30
0.0
 11
296.081
 21
76.6367
 31
0.0
  0
LINE
  8
0
 62
     0
 10
296.081
 20
76.6367
 30
0.0
 11
296.081
 21
82.4357
 31
0.0
  0
LINE
  8
0
 62
     0
 10
296.081
 20
82.4357
 30
0.0
 11
296.882
 21
82.4357
 31
0.0
  0
LINE
  8
0
 62
     0
 10
296.882
 20
82.4357
 30
0.0
 11
296.882
 21
85.5363
 31
0.0
  0
LINE
  8
0
 62
     0
 10
296.882
 20
85.5363
 30
0.0
 11
296.081
 21
85.5363
 31
0.0
  0
LINE
  8
0
 62
     0
 10
296.081
 20
85.5363
 30
0.0
 11
296.081
 21
86.5367
 31
0.0
  0
LINE
  8
0
 62
     0
 10
296.081
 20
86.5367
 30
0.0
 11
282.082
 21
86.5367
 31
0.0
  0
LINE
  8
0
 62
     0
 10
305.894
 20
86.5367
 30
0.0
 11
305.894
 21
85.5363
 31
0.0
  0
LINE
  8
0
 62
     0
 10
305.894
 20
85.5363
 30
0.0
 11
305.095
 21
85.5363
 31
0.0
  0
LINE
  8
0
 62
     0
 10
305.095
 20
85.5363
 30
0.0
 11
305.095
 21
82.4357
 31
0.0
  0
LINE
  8
0
 62
     0
 10
305.095
 20
82.4357
 30
0.0
 11
305.894
 21
82.4357
 31
0.0
  0
LINE
  8
0
 62
     0
 10
305.894
 20
82.4357
 30
0.0
 11
305.894
 21
76.6367
 31
0.0
  0
LINE
  8
0
 62
     0
 10
305.894
 20
76.6367
 30
0.0
 11
305.095
 21
76.6367
 31
0.0
  0
LINE
  8
0
 62
     0
 10
305.095
 20
76.6367
 30
0.0
 11
305.095
 21
73.5362
 31
0.0
  0
LINE
  8
0
 62
     0
 10
305.095
 20
73.5362
 30
0.0
 11
305.894
 21
73.5362
 31
0.0
  0
LINE
  8
0
 62
     0
 10
305.894
 20
73.5362
 30
0.0
 11
305.894
 21
72.5357
 31
0.0
  0
LINE
  8
0
 62
     0
 10
305.894
 20
72.5357
 30
0.0
 11
319.895
 21
72.5357
 31
0.0
  0
LINE
  8
0
 62
     0
 10
319.895
 20
72.5357
 30
0.0
 11
319.895
 21
73.5362
 31
0.0
  0
LINE
  8
0
 62
     0
 10
319.895
 20
73.5362
 30
0.0
 11
320.694
 21
73.5362
 31
0.0
  0
LINE
  8
0
 62
     0
 10
320.694
 20
73.5362
 30
0.0
 11
320.694
 21
76.6367
 31
0.0
  0
LINE
  8
0
 62
     0
 10
320.694
 20
76.6367
 30
0.0
 11
319.895
 21
76.6367
 31
0.0
  0
LINE
  8
0
 62
     0
 10
319.895
 20
76.6367
 30
0.0
 11
319.895
 21
82.4357
 31
0.0
  0
LINE
  8
0
 62
     0
 10
319.895
 20
82.4357
 30
0.0
 11
320.694
 21
82.4357
 31
0.0
  0
LINE
  8
0
 62
     0
 10
320.694
 20
82.4357
 30
0.0
 11
320.694
 21
85.5363
 31
0.0
  0
LINE
  8
0
 62
     0
 10
320.694
 20
85.5363
 30
0.0
 11
319.895
 21
85.5363
 31
0.0
  0
LINE
  8
0
 62
     0
 10
319.895
 20
85.5363
 30
0.0
 11
319.895
 21
86.5367
 31
0.0
  0
LINE
  8
0
 62
     0
 10
319.895
 20
86.5367
 30
0.0
 11
305.894
 21
86.5367
 31
0.0
  0
LINE
  8
0
 62
     0
 10
324.944
 20
86.5367
 30
0.0
 11
324.944
 21
85.5363
 31
0.0
  0
LINE
  8
0
 62
     0
 10
324.944
 20
85.5363
 30
0.0
 11
324.145
 21
85.5363
 31
0.0
  0
LINE
  8
0
 62
     0
 10
324.145
 20
85.5363
 30
0.0
 11
324.145
 21
82.4357
 31
0.0
  0
LINE
  8
0
 62
     0
 10
324.145
 20
82.4357
 30
0.0
 11
324.944
 21
82.4357
 31
0.0
  0
LINE
  8
0
 62
     0
 10
324.944
 20
82.4357
 30
0.0
 11
324.944
 21
76.6367
 31
0.0
  0
LINE
  8
0
 62
     0
 10
324.944
 20
76.6367
 30
0.0
 11
324.145
 21
76.6367
 31
0.0
  0
LINE
  8
0
 62
     0
 10
324.145
 20
76.6367
 30
0.0
 11
324.145
 21
73.5362
 31
0.0
  0
LINE
  8
0
 62
     0
 10
324.145
 20
73.5362
 30
0.0
 11
324.944
 21
73.5362
 31
0.0
  0
LINE
  8
0
 62
     0
 10
324.944
 20
73.5362
 30
0.0
 11
324.944
 21
72.5357
 31
0.0
  0
LINE
  8
0
 62
     0
 10
324.944
 20
72.5357
 30
0.0
 11
338.945
 21
72.5357
 31
0.0
  0
LINE
  8
0
 62
     0
 10
338.945
 20
72.5357
 30
0.0
 11
338.945
 21
73.5362
 31
0.0
  0
LINE
  8
0
 62
     0
 10
338.945
 20
73.5362
 30
0.0
 11
339.744
 21
73.5362
 31
0.0
  0
LINE
  8
0
 62
     0
 10
339.744
 20
73.5362
 30
0.0
 11
339.744
 21
76.6367
 31
0.0
  0
LINE
  8
0
 62
     0
 10
339.744
 20
76.6367
 30
0.0
 11
338.945
 21
76.6367
 31
0.0
  0
LINE
  8
0
 62
     0
 10
338.945
 20
76.6367
 30
0.0
 11
338.945
 21
82.4357
 31
0.0
  0
LINE
  8
0
 62
     0
 10
338.945
 20
82.4357
 30
0.0
 11
339.744
 21
82.4357
 31
0.0
  0
LINE
  8
0
 62
     0
 10
339.744
 20
82.4357
 30
0.0
 11
339.744
 21
85.5363
 31
0.0
  0
LINE
  8
0
 62
     0
 10
339.744
 20
85.5363
 30
0.0
 11
338.945
 21
85.5363
 31
0.0
  0
LINE
  8
0
 62
     0
 10
338.945
 20
85.5363
 30
0.0
 11
338.945
 21
86.5367
 31
0.0
  0
LINE
  8
0
 62
     0
 10
338.945
 20
86.5367
 30
0.0
 11
324.944
 21
86.5367
 31
0.0
  0
LINE
  8
0
 62
     0
 10
117.577
 20
94.0125
 30
0.0
 11
117.299
 21
93.872
 31
0.0
  0
LINE
  8
0
 62
     0
 10
117.299
 20
93.872
 30
0.0
 11
117.077
 21
93.6487
 31
0.0
  0
LINE
  8
0
 62
     0
 10
117.077
 20
93.6487
 30
0.0
 11
116.935
 21
93.3718
 31
0.0
  0
LINE
  8
0
 62
     0
 10
116.935
 20
93.3718
 30
0.0
 11
116.887
 21
93.0617
 31
0.0
  0
LINE
  8
0
 62
     0
 10
116.887
 20
93.0617
 30
0.0
 11
116.935
 21
92.7516
 31
0.0
  0
LINE
  8
0
 62
     0
 10
116.935
 20
92.7516
 30
0.0
 11
117.077
 21
92.4747
 31
0.0
  0
LINE
  8
0
 62
     0
 10
117.077
 20
92.4747
 30
0.0
 11
117.299
 21
92.2514
 31
0.0
  0
LINE
  8
0
 62
     0
 10
117.299
 20
92.2514
 30
0.0
 11
117.577
 21
92.1096
 31
0.0
  0
LINE
  8
0
 62
     0
 10
117.577
 20
92.1096
 30
0.0
 11
117.887
 21
92.0612
 31
0.0
  0
LINE
  8
0
 62
     0
 10
117.887
 20
92.0612
 30
0.0
 11
118.196
 21
92.1096
 31
0.0
  0
LINE
  8
0
 62
     0
 10
118.196
 20
92.1096
 30
0.0
 11
118.474
 21
92.2514
 31
0.0
  0
LINE
  8
0
 62
     0
 10
118.474
 20
92.2514
 30
0.0
 11
118.696
 21
92.4747
 31
0.0
  0
LINE
  8
0
 62
     0
 10
118.696
 20
92.4747
 30
0.0
 11
118.838
 21
92.7516
 31
0.0
  0
LINE
  8
0
 62
     0
 10
118.838
 20
92.7516
 30
0.0
 11
118.886
 21
93.0617
 31
0.0
  0
LINE
  8
0
 62
     0
 10
118.886
 20
93.0617
 30
0.0
 11
118.838
 21
93.3718
 31
0.0
  0
LINE
  8
0
 62
     0
 10
118.838
 20
93.3718
 30
0.0
 11
118.696
 21
93.6487
 31
0.0
  0
LINE
  8
0
 62
     0
 10
118.696
 20
93.6487
 30
0.0
 11
118.474
 21
93.872
 31
0.0
  0
LINE
  8
0
 62
     0
 10
118.474
 20
93.872
 30
0.0
 11
118.196
 21
94.0125
 31
0.0
  0
LINE
  8
0
 62
     0
 10
118.196
 20
94.0125
 30
0.0
 11
117.887
 21
94.0608
 31
0.0
  0
LINE
  8
0
 62
     0
 10
117.887
 20
94.0608
 30
0.0
 11
117.577
 21
94.0125
 31
0.0
  0
LINE
  8
0
 62
     0
 10
231.369
 20
94.0125
 30
0.0
 11
231.09
 21
93.872
 31
0.0
  0
LINE
  8
0
 62
     0
 10
231.09
 20
93.872
 30
0.0
 11
230.868
 21
93.6487
 31
0.0
  0
LINE
  8
0
 62
     0
 10
230.868
 20
93.6487
 30
0.0
 11
230.726
 21
93.3718
 31
0.0
  0
LINE
  8
0
 62
     0
 10
230.726
 20
93.3718
 30
0.0
 11
230.678
 21
93.0617
 31
0.0
  0
LINE
  8
0
 62
     0
 10
230.678
 20
93.0617
 30
0.0
 11
230.726
 21
92.7516
 31
0.0
  0
LINE
  8
0
 62
     0
 10
230.726
 20
92.7516
 30
0.0
 11
230.868
 21
92.4747
 31
0.0
  0
LINE
  8
0
 62
     0
 10
230.868
 20
92.4747
 30
0.0
 11
231.09
 21
92.2514
 31
0.0
  0
LINE
  8
0
 62
     0
 10
231.09
 20
92.2514
 30
0.0
 11
231.369
 21
92.1096
 31
0.0
  0
LINE
  8
0
 62
     0
 10
231.369
 20
92.1096
 30
0.0
 11
231.679
 21
92.0612
 31
0.0
  0
LINE
  8
0
 62
     0
 10
231.679
 20
92.0612
 30
0.0
 11
231.987
 21
92.1096
 31
0.0
  0
LINE
  8
0
 62
     0
 10
231.987
 20
92.1096
 30
0.0
 11
232.266
 21
92.2514
 31
0.0
  0
LINE
  8
0
 62
     0
 10
232.266
 20
92.2514
 30
0.0
 11
232.488
 21
92.4747
 31
0.0
  0
LINE
  8
0
 62
     0
 10
232.488
 20
92.4747
 30
0.0
 11
232.629
 21
92.7516
 31
0.0
  0
LINE
  8
0
 62
     0
 10
232.629
 20
92.7516
 30
0.0
 11
232.679
 21
93.0617
 31
0.0
  0
LINE
  8
0
 62
     0
 10
232.679
 20
93.0617
 30
0.0
 11
232.629
 21
93.3718
 31
0.0
  0
LINE
  8
0
 62
     0
 10
232.629
 20
93.3718
 30
0.0
 11
232.488
 21
93.6487
 31
0.0
  0
LINE
  8
0
 62
     0
 10
232.488
 20
93.6487
 30
0.0
 11
232.266
 21
93.872
 31
0.0
  0
LINE
  8
0
 62
     0
 10
232.266
 20
93.872
 30
0.0
 11
231.987
 21
94.0125
 31
0.0
  0
LINE
  8
0
 62
     0
 10
231.987
 20
94.0125
 30
0.0
 11
231.679
 21
94.0608
 31
0.0
  0
LINE
  8
0
 62
     0
 10
231.679
 20
94.0608
 30
0.0
 11
231.369
 21
94.0125
 31
0.0
  0
LINE
  8
0
 62
     0
 10
345.161
 20
94.0125
 30
0.0
 11
344.883
 21
93.872
 31
0.0
  0
LINE
  8
0
 62
     0
 10
344.883
 20
93.872
 30
0.0
 11
344.661
 21
93.6487
 31
0.0
  0
LINE
  8
0
 62
     0
 10
344.661
 20
93.6487
 30
0.0
 11
344.519
 21
93.3718
 31
0.0
  0
LINE
  8
0
 62
     0
 10
344.519
 20
93.3718
 30
0.0
 11
344.471
 21
93.0617
 31
0.0
  0
LINE
  8
0
 62
     0
 10
344.471
 20
93.0617
 30
0.0
 11
344.519
 21
92.7516
 31
0.0
  0
LINE
  8
0
 62
     0
 10
344.519
 20
92.7516
 30
0.0
 11
344.661
 21
92.4747
 31
0.0
  0
LINE
  8
0
 62
     0
 10
344.661
 20
92.4747
 30
0.0
 11
344.883
 21
92.2514
 31
0.0
  0
LINE
  8
0
 62
     0
 10
344.883
 20
92.2514
 30
0.0
 11
345.161
 21
92.1096
 31
0.0
  0
LINE
  8
0
 62
     0
 10
345.161
 20
92.1096
 30
0.0
 11
345.471
 21
92.0612
 31
0.0
  0
LINE
  8
0
 62
     0
 10
345.471
 20
92.0612
 30
0.0
 11
345.78
 21
92.1096
 31
0.0
  0
LINE
  8
0
 62
     0
 10
345.78
 20
92.1096
 30
0.0
 11
346.057
 21
92.2514
 31
0.0
  0
LINE
  8
0
 62
     0
 10
346.057
 20
92.2514
 30
0.0
 11
346.28
 21
92.4747
 31
0.0
  0
LINE
  8
0
 62
     0
 10
346.28
 20
92.4747
 30
0.0
 11
346.422
 21
92.7516
 31
0.0
  0
LINE
  8
0
 62
     0
 10
346.422
 20
92.7516
 30
0.0
 11
346.47
 21
93.0617
 31
0.0
  0
LINE
  8
0
 62
     0
 10
346.47
 20
93.0617
 30
0.0
 11
346.422
 21
93.3718
 31
0.0
  0
LINE
  8
0
 62
     0
 10
346.422
 20
93.3718
 30
0.0
 11
346.28
 21
93.6487
 31
0.0
  0
LINE
  8
0
 62
     0
 10
346.28
 20
93.6487
 30
0.0
 11
346.057
 21
93.872
 31
0.0
  0
LINE
  8
0
 62
     0
 10
346.057
 20
93.872
 30
0.0
 11
345.78
 21
94.0125
 31
0.0
  0
LINE
  8
0
 62
     0
 10
345.78
 20
94.0125
 30
0.0
 11
345.471
 21
94.0608
 31
0.0
  0
LINE
  8
0
 62
     0
 10
345.471
 20
94.0608
 30
0.0
 11
345.161
 21
94.0125
 31
0.0
  0
LINE
  8
0
 62
     0
 10
3.78411
 20
94.0125
 30
0.0
 11
3.50711
 21
93.872
 31
0.0
  0
LINE
  8
0
 62
     0
 10
3.50711
 20
93.872
 30
0.0
 11
3.28386
 21
93.6487
 31
0.0
  0
LINE
  8
0
 62
     0
 10
3.28386
 20
93.6487
 30
0.0
 11
3.14331
 21
93.3718
 31
0.0
  0
LINE
  8
0
 62
     0
 10
3.14331
 20
93.3718
 30
0.0
 11
3.0937
 21
93.0617
 31
0.0
  0
LINE
  8
0
 62
     0
 10
3.0937
 20
93.0617
 30
0.0
 11
3.14331
 21
92.7516
 31
0.0
  0
LINE
  8
0
 62
     0
 10
3.14331
 20
92.7516
 30
0.0
 11
3.28386
 21
92.4747
 31
0.0
  0
LINE
  8
0
 62
     0
 10
3.28386
 20
92.4747
 30
0.0
 11
3.50711
 21
92.2514
 31
0.0
  0
LINE
  8
0
 62
     0
 10
3.50711
 20
92.2514
 30
0.0
 11
3.78411
 21
92.1096
 31
0.0
  0
LINE
  8
0
 62
     0
 10
3.78411
 20
92.1096
 30
0.0
 11
4.09416
 21
92.0612
 31
0.0
  0
LINE
  8
0
 62
     0
 10
4.09416
 20
92.0612
 30
0.0
 11
4.40422
 21
92.1096
 31
0.0
  0
LINE
  8
0
 62
     0
 10
4.40422
 20
92.1096
 30
0.0
 11
4.68118
 21
92.2514
 31
0.0
  0
LINE
  8
0
 62
     0
 10
4.68118
 20
92.2514
 30
0.0
 11
4.90442
 21
92.4747
 31
0.0
  0
LINE
  8
0
 62
     0
 10
4.90442
 20
92.4747
 30
0.0
 11
5.04638
 21
92.7516
 31
0.0
  0
LINE
  8
0
 62
     0
 10
5.04638
 20
92.7516
 30
0.0
 11
5.0946
 21
93.0617
 31
0.0
  0
LINE
  8
0
 62
     0
 10
5.0946
 20
93.0617
 30
0.0
 11
5.04638
 21
93.3718
 31
0.0
  0
LINE
  8
0
 62
     0
 10
5.04638
 20
93.3718
 30
0.0
 11
4.90442
 21
93.6487
 31
0.0
  0
LINE
  8
0
 62
     0
 10
4.90442
 20
93.6487
 30
0.0
 11
4.68118
 21
93.872
 31
0.0
  0
LINE
  8
0
 62
     0
 10
4.68118
 20
93.872
 30
0.0
 11
4.40422
 21
94.0125
 31
0.0
  0
LINE
  8
0
 62
     0
 10
4.40422
 20
94.0125
 30
0.0
 11
4.09416
 21
94.0608
 31
0.0
  0
LINE
  8
0
 62
     0
 10
4.09416
 20
94.0608
 30
0.0
 11
3.78411
 21
94.0125
 31
0.0
  0
ENDSEC
  0
EOF
