  0
SECTION
  2
HEADER
  9
$ACADVER
  1
AC1009
  9
$EXTMIN
 10
0.0
 20
0.0
 30
0.0
  9
$EXTMAX
 10
1000.0
 20
1000.0
 30
0.0
  9
$FILLMODE
 70
 0
  9
$SPLFRAME
 70
 1
  0
ENDSEC
  0
SECTION
  2
TABLES
  0
TABLE
  2
LAYER
 70
1
  0
LAYER
  2
0
 70
     0
 62
     7
  6
CONTINUOUS
  0
ENDTAB
  0
ENDSEC
  0
SECTION
  2
ENTITIES
  0
LINE
  8
0
 62
     0
 10
345.471
 20
97.0608
 30
0.0
 11
345.784
 21
97.0499
 31
0.0
  0
LINE
  8
0
 62
     0
 10
345.784
 20
97.0499
 30
0.0
 11
346.096
 21
97.0125
 31
0.0
  0
LINE
  8
0
 62
     0
 10
346.096
 20
97.0125
 30
0.0
 11
346.405
 21
96.9504
 31
0.0
  0
LINE
  8
0
 62
     0
 10
346.405
 20
96.9504
 30
0.0
 11
346.706
 21
96.8664
 31
0.0
  0
LINE
  8
0
 62
     0
 10
346.706
 20
96.8664
 30
0.0
 11
347.001
 21
96.7574
 31
0.0
  0
LINE
  8
0
 62
     0
 10
347.001
 20
96.7574
 30
0.0
 11
347.286
 21
96.6265
 31
0.0
  0
LINE
  8
0
 62
     0
 10
347.286
 20
96.6265
 30
0.0
 11
347.559
 21
96.4724
 31
0.0
  0
LINE
  8
0
 62
     0
 10
347.559
 20
96.4724
 30
0.0
 11
347.822
 21
96.2988
 31
0.0
  0
LINE
  8
0
 62
     0
 10
347.822
 20
96.2988
 30
0.0
 11
348.067
 21
96.103
 31
0.0
  0
LINE
  8
0
 62
     0
 10
348.067
 20
96.103
 30
0.0
 11
348.299
 21
95.8896
 31
0.0
  0
LINE
  8
0
 62
     0
 10
348.299
 20
95.8896
 30
0.0
 11
348.511
 21
95.6592
 31
0.0
  0
LINE
  8
0
 62
     0
 10
348.511
 20
95.6592
 30
0.0
 11
348.707
 21
95.4126
 31
0.0
  0
LINE
  8
0
 62
     0
 10
348.707
 20
95.4126
 30
0.0
 11
348.881
 21
95.1509
 31
0.0
  0
LINE
  8
0
 62
     0
 10
348.881
 20
95.1509
 30
0.0
 11
349.035
 21
94.8764
 31
0.0
  0
LINE
  8
0
 62
     0
 10
349.035
 20
94.8764
 30
0.0
 11
349.166
 21
94.5928
 31
0.0
  0
LINE
  8
0
 62
     0
 10
349.166
 20
94.5928
 30
0.0
 11
349.275
 21
94.2979
 31
0.0
  0
LINE
  8
0
 62
     0
 10
349.275
 20
94.2979
 30
0.0
 11
349.36
 21
93.9945
 31
0.0
  0
LINE
  8
0
 62
     0
 10
349.36
 20
93.9945
 30
0.0
 11
349.421
 21
93.6872
 31
0.0
  0
LINE
  8
0
 62
     0
 10
349.421
 20
93.6872
 30
0.0
 11
349.458
 21
93.3746
 31
0.0
  0
LINE
  8
0
 62
     0
 10
349.458
 20
93.3746
 30
0.0
 11
349.47
 21
93.0617
 31
0.0
  0
LINE
  8
0
 62
     0
 10
349.47
 20
93.0617
 30
0.0
 11
349.47
 21
4.09829
 31
0.0
  0
LINE
  8
0
 62
     0
 10
349.47
 20
4.09829
 30
0.0
 11
349.458
 21
3.78411
 31
0.0
  0
LINE
  8
0
 62
     0
 10
349.458
 20
3.78411
 30
0.0
 11
349.421
 21
3.47266
 31
0.0
  0
LINE
  8
0
 62
     0
 10
349.421
 20
3.47266
 30
0.0
 11
349.36
 21
3.16398
 31
0.0
  0
LINE
  8
0
 62
     0
 10
349.36
 20
3.16398
 30
0.0
 11
349.275
 21
2.86219
 31
0.0
  0
LINE
  8
0
 62
     0
 10
349.275
 20
2.86219
 30
0.0
 11
349.166
 21
2.56728
 31
0.0
  0
LINE
  8
0
 62
     0
 10
349.166
 20
2.56728
 30
0.0
 11
349.035
 21
2.28203
 31
0.0
  0
LINE
  8
0
 62
     0
 10
349.035
 20
2.28203
 30
0.0
 11
348.881
 21
2.0078
 31
0.0
  0
LINE
  8
0
 62
     0
 10
348.881
 20
2.0078
 30
0.0
 11
348.707
 21
1.74735
 31
0.0
  0
LINE
  8
0
 62
     0
 10
348.707
 20
1.74735
 30
0.0
 11
348.511
 21
1.50068
 31
0.0
  0
LINE
  8
0
 62
     0
 10
348.511
 20
1.50068
 30
0.0
 11
348.299
 21
1.27055
 31
0.0
  0
LINE
  8
0
 62
     0
 10
348.299
 20
1.27055
 30
0.0
 11
348.067
 21
1.05558
 31
0.0
  0
LINE
  8
0
 62
     0
 10
348.067
 20
1.05558
 30
0.0
 11
347.822
 21
0.862651
 31
0.0
  0
LINE
  8
0
 62
     0
 10
347.822
 20
0.862651
 30
0.0
 11
347.559
 21
0.687641
 31
0.0
  0
LINE
  8
0
 62
     0
 10
347.559
 20
0.687641
 30
0.0
 11
347.286
 21
0.534681
 31
0.0
  0
LINE
  8
0
 62
     0
 10
347.286
 20
0.534681
 30
0.0
 11
347.001
 21
0.402389
 31
0.0
  0
LINE
  8
0
 62
     0
 10
347.001
 20
0.402389
 30
0.0
 11
346.706
 21
0.293522
 31
0.0
  0
LINE
  8
0
 62
     0
 10
346.706
 20
0.293522
 30
0.0
 11
346.405
 21
0.209462
 31
0.0
  0
LINE
  8
0
 62
     0
 10
346.405
 20
0.209462
 30
0.0
 11
346.096
 21
0.14745
 31
0.0
  0
LINE
  8
0
 62
     0
 10
346.096
 20
0.14745
 30
0.0
 11
345.784
 21
0.110243
 31
0.0
  0
LINE
  8
0
 62
     0
 10
345.784
 20
0.110243
 30
0.0
 11
345.471
 21
0.0978408
 31
0.0
  0
LINE
  8
0
 62
     0
 10
345.471
 20
0.0978408
 30
0.0
 11
4.09416
 21
0.0978408
 31
0.0
  0
LINE
  8
0
 62
     0
 10
4.09416
 20
0.0978408
 30
0.0
 11
3.78135
 21
0.110243
 31
0.0
  0
LINE
  8
0
 62
     0
 10
3.78135
 20
0.110243
 30
0.0
 11
3.46852
 21
0.14745
 31
0.0
  0
LINE
  8
0
 62
     0
 10
3.46852
 20
0.14745
 30
0.0
 11
3.16122
 21
0.209462
 31
0.0
  0
LINE
  8
0
 62
     0
 10
3.16122
 20
0.209462
 30
0.0
 11
2.85805
 21
0.293522
 31
0.0
  0
LINE
  8
0
 62
     0
 10
2.85805
 20
0.293522
 30
0.0
 11
2.56315
 21
0.402389
 31
0.0
  0
LINE
  8
0
 62
     0
 10
2.56315
 20
0.402389
 30
0.0
 11
2.27928
 21
0.534681
 31
0.0
  0
LINE
  8
0
 62
     0
 10
2.27928
 20
0.534681
 30
0.0
 11
2.00504
 21
0.687641
 31
0.0
  0
LINE
  8
0
 62
     0
 10
2.00504
 20
0.687641
 30
0.0
 11
1.74322
 21
0.862651
 31
0.0
  0
LINE
  8
0
 62
     0
 10
1.74322
 20
0.862651
 30
0.0
 11
1.49655
 21
1.05558
 31
0.0
  0
LINE
  8
0
 62
     0
 10
1.49655
 20
1.05558
 30
0.0
 11
1.26642
 21
1.27055
 31
0.0
  0
LINE
  8
0
 62
     0
 10
1.26642
 20
1.27055
 30
0.0
 11
1.05282
 21
1.50068
 31
0.0
  0
LINE
  8
0
 62
     0
 10
1.05282
 20
1.50068
 30
0.0
 11
0.857141
 21
1.74735
 31
0.0
  0
LINE
  8
0
 62
     0
 10
0.857141
 20
1.74735
 30
0.0
 11
0.683507
 21
2.0078
 31
0.0
  0
LINE
  8
0
 62
     0
 10
0.683507
 20
2.0078
 30
0.0
 11
0.529167
 21
2.28203
 31
0.0
  0
LINE
  8
0
 62
     0
 10
0.529167
 20
2.28203
 30
0.0
 11
0.398254
 21
2.56728
 31
0.0
  0
LINE
  8
0
 62
     0
 10
0.398254
 20
2.56728
 30
0.0
 11
0.289388
 21
2.86219
 31
0.0
  0
LINE
  8
0
 62
     0
 10
0.289388
 20
2.86219
 30
0.0
 11
0.205328
 21
3.16398
 31
0.0
  0
LINE
  8
0
 62
     0
 10
0.205328
 20
3.16398
 30
0.0
 11
0.143316
 21
3.47266
 31
0.0
  0
LINE
  8
0
 62
     0
 10
0.143316
 20
3.47266
 30
0.0
 11
0.106109
 21
3.78411
 31
0.0
  0
LINE
  8
0
 62
     0
 10
0.106109
 20
3.78411
 30
0.0
 11
0.0937066
 21
4.09829
 31
0.0
  0
LINE
  8
0
 62
     0
 10
0.0937066
 20
4.09829
 30
0.0
 11
0.0950846
 21
93.0617
 31
0.0
  0
LINE
  8
0
 62
     0
 10
0.0950846
 20
93.0617
 30
0.0
 11
0.106109
 21
93.3746
 31
0.0
  0
LINE
  8
0
 62
     0
 10
0.106109
 20
93.3746
 30
0.0
 11
0.143316
 21
93.6872
 31
0.0
  0
LINE
  8
0
 62
     0
 10
0.143316
 20
93.6872
 30
0.0
 11
0.205328
 21
93.9945
 31
0.0
  0
LINE
  8
0
 62
     0
 10
0.205328
 20
93.9945
 30
0.0
 11
0.289388
 21
94.2979
 31
0.0
  0
LINE
  8
0
 62
     0
 10
0.289388
 20
94.2979
 30
0.0
 11
0.398254
 21
94.5928
 31
0.0
  0
LINE
  8
0
 62
     0
 10
0.398254
 20
94.5928
 30
0.0
 11
0.529167
 21
94.8764
 31
0.0
  0
LINE
  8
0
 62
     0
 10
0.529167
 20
94.8764
 30
0.0
 11
0.683507
 21
95.1509
 31
0.0
  0
LINE
  8
0
 62
     0
 10
0.683507
 20
95.1509
 30
0.0
 11
0.857141
 21
95.4126
 31
0.0
  0
LINE
  8
0
 62
     0
 10
0.857141
 20
95.4126
 30
0.0
 11
1.05282
 21
95.6592
 31
0.0
  0
LINE
  8
0
 62
     0
 10
1.05282
 20
95.6592
 30
0.0
 11
1.26642
 21
95.8896
 31
0.0
  0
LINE
  8
0
 62
     0
 10
1.26642
 20
95.8896
 30
0.0
 11
1.49655
 21
96.103
 31
0.0
  0
LINE
  8
0
 62
     0
 10
1.49655
 20
96.103
 30
0.0
 11
1.74322
 21
96.2988
 31
0.0
  0
LINE
  8
0
 62
     0
 10
1.74322
 20
96.2988
 30
0.0
 11
2.00504
 21
96.4724
 31
0.0
  0
LINE
  8
0
 62
     0
 10
2.00504
 20
96.4724
 30
0.0
 11
2.27928
 21
96.6265
 31
0.0
  0
LINE
  8
0
 62
     0
 10
2.27928
 20
96.6265
 30
0.0
 11
2.56315
 21
96.7574
 31
0.0
  0
LINE
  8
0
 62
     0
 10
2.56315
 20
96.7574
 30
0.0
 11
2.85805
 21
96.8664
 31
0.0
  0
LINE
  8
0
 62
     0
 10
2.85805
 20
96.8664
 30
0.0
 11
3.16122
 21
96.9504
 31
0.0
  0
LINE
  8
0
 62
     0
 10
3.16122
 20
96.9504
 30
0.0
 11
3.46852
 21
97.0125
 31
0.0
  0
LINE
  8
0
 62
     0
 10
3.46852
 20
97.0125
 30
0.0
 11
3.78135
 21
97.0499
 31
0.0
  0
LINE
  8
0
 62
     0
 10
3.78135
 20
97.0499
 30
0.0
 11
4.09416
 21
97.0622
 31
0.0
  0
LINE
  8
0
 62
     0
 10
4.09416
 20
97.0622
 30
0.0
 11
345.471
 21
97.0608
 31
0.0
  0
LINE
  8
0
 62
     0
 10
345.161
 20
5.04913
 30
0.0
 11
344.883
 21
4.90721
 31
0.0
  0
LINE
  8
0
 62
     0
 10
344.883
 20
4.90721
 30
0.0
 11
344.661
 21
4.68672
 31
0.0
  0
LINE
  8
0
 62
     0
 10
344.661
 20
4.68672
 30
0.0
 11
344.519
 21
4.40697
 31
0.0
  0
LINE
  8
0
 62
     0
 10
344.519
 20
4.40697
 30
0.0
 11
344.471
 21
4.09829
 31
0.0
  0
LINE
  8
0
 62
     0
 10
344.471
 20
4.09829
 30
0.0
 11
344.519
 21
3.78961
 31
0.0
  0
LINE
  8
0
 62
     0
 10
344.519
 20
3.78961
 30
0.0
 11
344.661
 21
3.50986
 31
0.0
  0
LINE
  8
0
 62
     0
 10
344.661
 20
3.50986
 30
0.0
 11
344.883
 21
3.28938
 31
0.0
  0
LINE
  8
0
 62
     0
 10
344.883
 20
3.28938
 30
0.0
 11
345.161
 21
3.14744
 31
0.0
  0
LINE
  8
0
 62
     0
 10
345.161
 20
3.14744
 30
0.0
 11
345.471
 21
3.09783
 31
0.0
  0
LINE
  8
0
 62
     0
 10
345.471
 20
3.09783
 30
0.0
 11
345.78
 21
3.14744
 31
0.0
  0
LINE
  8
0
 62
     0
 10
345.78
 20
3.14744
 30
0.0
 11
346.057
 21
3.28938
 31
0.0
  0
LINE
  8
0
 62
     0
 10
346.057
 20
3.28938
 30
0.0
 11
346.28
 21
3.50986
 31
0.0
  0
LINE
  8
0
 62
     0
 10
346.28
 20
3.50986
 30
0.0
 11
346.422
 21
3.78961
 31
0.0
  0
LINE
  8
0
 62
     0
 10
346.422
 20
3.78961
 30
0.0
 11
346.47
 21
4.09829
 31
0.0
  0
LINE
  8
0
 62
     0
 10
346.47
 20
4.09829
 30
0.0
 11
346.422
 21
4.40697
 31
0.0
  0
LINE
  8
0
 62
     0
 10
346.422
 20
4.40697
 30
0.0
 11
346.28
 21
4.68672
 31
0.0
  0
LINE
  8
0
 62
     0
 10
346.28
 20
4.68672
 30
0.0
 11
346.057
 21
4.90721
 31
0.0
  0
LINE
  8
0
 62
     0
 10
346.057
 20
4.90721
 30
0.0
 11
345.78
 21
5.04913
 31
0.0
  0
LINE
  8
0
 62
     0
 10
345.78
 20
5.04913
 30
0.0
 11
345.471
 21
5.09873
 31
0.0
  0
LINE
  8
0
 62
     0
 10
345.471
 20
5.09873
 30
0.0
 11
345.161
 21
5.04913
 31
0.0
  0
LINE
  8
0
 62
     0
 10
231.369
 20
5.04913
 30
0.0
 11
231.09
 21
4.90721
 31
0.0
  0
LINE
  8
0
 62
     0
 10
231.09
 20
4.90721
 30
0.0
 11
230.868
 21
4.68672
 31
0.0
  0
LINE
  8
0
 62
     0
 10
230.868
 20
4.68672
 30
0.0
 11
230.726
 21
4.40697
 31
0.0
  0
LINE
  8
0
 62
     0
 10
230.726
 20
4.40697
 30
0.0
 11
230.678
 21
4.09829
 31
0.0
  0
LINE
  8
0
 62
     0
 10
230.678
 20
4.09829
 30
0.0
 11
230.726
 21
3.78961
 31
0.0
  0
LINE
  8
0
 62
     0
 10
230.726
 20
3.78961
 30
0.0
 11
230.868
 21
3.50986
 31
0.0
  0
LINE
  8
0
 62
     0
 10
230.868
 20
3.50986
 30
0.0
 11
231.09
 21
3.28938
 31
0.0
  0
LINE
  8
0
 62
     0
 10
231.09
 20
3.28938
 30
0.0
 11
231.369
 21
3.14744
 31
0.0
  0
LINE
  8
0
 62
     0
 10
231.369
 20
3.14744
 30
0.0
 11
231.679
 21
3.09783
 31
0.0
  0
LINE
  8
0
 62
     0
 10
231.679
 20
3.09783
 30
0.0
 11
231.987
 21
3.14744
 31
0.0
  0
LINE
  8
0
 62
     0
 10
231.987
 20
3.14744
 30
0.0
 11
232.266
 21
3.28938
 31
0.0
  0
LINE
  8
0
 62
     0
 10
232.266
 20
3.28938
 30
0.0
 11
232.488
 21
3.50986
 31
0.0
  0
LINE
  8
0
 62
     0
 10
232.488
 20
3.50986
 30
0.0
 11
232.629
 21
3.78961
 31
0.0
  0
LINE
  8
0
 62
     0
 10
232.629
 20
3.78961
 30
0.0
 11
232.679
 21
4.09829
 31
0.0
  0
LINE
  8
0
 62
     0
 10
232.679
 20
4.09829
 30
0.0
 11
232.629
 21
4.40697
 31
0.0
  0
LINE
  8
0
 62
     0
 10
232.629
 20
4.40697
 30
0.0
 11
232.488
 21
4.68672
 31
0.0
  0
LINE
  8
0
 62
     0
 10
232.488
 20
4.68672
 30
0.0
 11
232.266
 21
4.90721
 31
0.0
  0
LINE
  8
0
 62
     0
 10
232.266
 20
4.90721
 30
0.0
 11
231.987
 21
5.04913
 31
0.0
  0
LINE
  8
0
 62
     0
 10
231.987
 20
5.04913
 30
0.0
 11
231.679
 21
5.09873
 31
0.0
  0
LINE
  8
0
 62
     0
 10
231.679
 20
5.09873
 30
0.0
 11
231.369
 21
5.04913
 31
0.0
  0
LINE
  8
0
 62
     0
 10
117.577
 20
5.04913
 30
0.0
 11
117.299
 21
4.90721
 31
0.0
  0
LINE
  8
0
 62
     0
 10
117.299
 20
4.90721
 30
0.0
 11
117.077
 21
4.68672
 31
0.0
  0
LINE
  8
0
 62
     0
 10
117.077
 20
4.68672
 30
0.0
 11
116.935
 21
4.40697
 31
0.0
  0
LINE
  8
0
 62
     0
 10
116.935
 20
4.40697
 30
0.0
 11
116.887
 21
4.09829
 31
0.0
  0
LINE
  8
0
 62
     0
 10
116.887
 20
4.09829
 30
0.0
 11
116.935
 21
3.78961
 31
0.0
  0
LINE
  8
0
 62
     0
 10
116.935
 20
3.78961
 30
0.0
 11
117.077
 21
3.50986
 31
0.0
  0
LINE
  8
0
 62
     0
 10
117.077
 20
3.50986
 30
0.0
 11
117.299
 21
3.28938
 31
0.0
  0
LINE
  8
0
 62
     0
 10
117.299
 20
3.28938
 30
0.0
 11
117.577
 21
3.14744
 31
0.0
  0
LINE
  8
0
 62
     0
 10
117.577
 20
3.14744
 30
0.0
 11
117.887
 21
3.09783
 31
0.0
  0
LINE
  8
0
 62
     0
 10
117.887
 20
3.09783
 30
0.0
 11
118.196
 21
3.14744
 31
0.0
  0
LINE
  8
0
 62
     0
 10
118.196
 20
3.14744
 30
0.0
 11
118.474
 21
3.28938
 31
0.0
  0
LINE
  8
0
 62
     0
 10
118.474
 20
3.28938
 30
0.0
 11
118.696
 21
3.50986
 31
0.0
  0
LINE
  8
0
 62
     0
 10
118.696
 20
3.50986
 30
0.0
 11
118.838
 21
3.78961
 31
0.0
  0
LINE
  8
0
 62
     0
 10
118.838
 20
3.78961
 30
0.0
 11
118.886
 21
4.09829
 31
0.0
  0
LINE
  8
0
 62
     0
 10
118.886
 20
4.09829
 30
0.0
 11
118.838
 21
4.40697
 31
0.0
  0
LINE
  8
0
 62
     0
 10
118.838
 20
4.40697
 30
0.0
 11
118.696
 21
4.68672
 31
0.0
  0
LINE
  8
0
 62
     0
 10
118.696
 20
4.68672
 30
0.0
 11
118.474
 21
4.90721
 31
0.0
  0
LINE
  8
0
 62
     0
 10
118.474
 20
4.90721
 30
0.0
 11
118.196
 21
5.04913
 31
0.0
  0
LINE
  8
0
 62
     0
 10
118.196
 20
5.04913
 30
0.0
 11
117.887
 21
5.09873
 31
0.0
  0
LINE
  8
0
 62
     0
 10
117.887
 20
5.09873
 30
0.0
 11
117.577
 21
5.04913
 31
0.0
  0
LINE
  8
0
 62
     0
 10
3.78411
 20
5.04913
 30
0.0
 11
3.50711
 21
4.90721
 31
0.0
  0
LINE
  8
0
 62
     0
 10
3.50711
 20
4.90721
 30
0.0
 11
3.28386
 21
4.68672
 31
0.0
  0
LINE
  8
0
 62
     0
 10
3.28386
 20
4.68672
 30
0.0
 11
3.14331
 21
4.40697
 31
0.0
  0
LINE
  8
0
 62
     0
 10
3.14331
 20
4.40697
 30
0.0
 11
3.0937
 21
4.09829
 31
0.0
  0
LINE
  8
0
 62
     0
 10
3.0937
 20
4.09829
 30
0.0
 11
3.14331
 21
3.78961
 31
0.0
  0
LINE
  8
0
 62
     0
 10
3.14331
 20
3.78961
 30
0.0
 11
3.28386
 21
3.50986
 31
0.0
  0
LINE
  8
0
 62
     0
 10
3.28386
 20
3.50986
 30
0.0
 11
3.50711
 21
3.28938
 31
0.0
  0
LINE
  8
0
 62
     0
 10
3.50711
 20
3.28938
 30
0.0
 11
3.78411
 21
3.14744
 31
0.0
  0
LINE
  8
0
 62
     0
 10
3.78411
 20
3.14744
 30
0.0
 11
4.09416
 21
3.09783
 31
0.0
  0
LINE
  8
0
 62
     0
 10
4.09416
 20
3.09783
 30
0.0
 11
4.40422
 21
3.14744
 31
0.0
  0
LINE
  8
0
 62
     0
 10
4.40422
 20
3.14744
 30
0.0
 11
4.68118
 21
3.28938
 31
0.0
  0
LINE
  8
0
 62
     0
 10
4.68118
 20
3.28938
 30
0.0
 11
4.90442
 21
3.50986
 31
0.0
  0
LINE
  8
0
 62
     0
 10
4.90442
 20
3.50986
 30
0.0
 11
5.04638
 21
3.78961
 31
0.0
  0
LINE
  8
0
 62
     0
 10
5.04638
 20
3.78961
 30
0.0
 11
5.0946
 21
4.09829
 31
0.0
  0
LINE
  8
0
 62
     0
 10
5.0946
 20
4.09829
 30
0.0
 11
5.04638
 21
4.40697
 31
0.0
  0
LINE
  8
0
 62
     0
 10
5.04638
 20
4.40697
 30
0.0
 11
4.90442
 21
4.68672
 31
0.0
  0
LINE
  8
0
 62
     0
 10
4.90442
 20
4.68672
 30
0.0
 11
4.68118
 21
4.90721
 31
0.0
  0
LINE
  8
0
 62
     0
 10
4.68118
 20
4.90721
 30
0.0
 11
4.40422
 21
5.04913
 31
0.0
  0
LINE
  8
0
 62
     0
 10
4.40422
 20
5.04913
 30
0.0
 11
4.09416
 21
5.09873
 31
0.0
  0
LINE
  8
0
 62
     0
 10
4.09416
 20
5.09873
 30
0.0
 11
3.78411
 21
5.04913
 31
0.0
  0
LINE
  8
0
 62
     0
 10
303.368
 20
46.2001
 30
0.0
 11
303.368
 21
27.1501
 31
0.0
  0
LINE
  8
0
 62
     0
 10
303.368
 20
27.1501
 30
0.0
 11
284.318
 21
27.1501
 31
0.0
  0
LINE
  8
0
 62
     0
 10
284.318
 20
27.1501
 30
0.0
 11
284.318
 21
8.09872
 31
0.0
  0
LINE
  8
0
 62
     0
 10
284.318
 20
8.09872
 30
0.0
 11
341.471
 21
8.09872
 31
0.0
  0
LINE
  8
0
 62
     0
 10
341.471
 20
8.09872
 30
0.0
 11
341.471
 21
27.1501
 31
0.0
  0
LINE
  8
0
 62
     0
 10
341.471
 20
27.1501
 30
0.0
 11
322.421
 21
27.1501
 31
0.0
  0
LINE
  8
0
 62
     0
 10
322.421
 20
27.1501
 30
0.0
 11
322.421
 21
46.2001
 31
0.0
  0
LINE
  8
0
 62
     0
 10
322.421
 20
46.2001
 30
0.0
 11
303.368
 21
46.2001
 31
0.0
  0
LINE
  8
0
 62
     0
 10
8.09322
 20
89.0626
 30
0.0
 11
65.2459
 21
89.0626
 31
0.0
  0
LINE
  8
0
 62
     0
 10
65.2459
 20
89.0626
 30
0.0
 11
65.2459
 21
12.8598
 31
0.0
  0
LINE
  8
0
 62
     0
 10
65.2459
 20
12.8598
 30
0.0
 11
8.09322
 21
12.8598
 31
0.0
  0
LINE
  8
0
 62
     0
 10
8.09322
 20
12.8598
 30
0.0
 11
8.09322
 21
89.0626
 31
0.0
  0
LINE
  8
0
 62
     0
 10
70.0056
 20
89.0626
 30
0.0
 11
70.0056
 21
12.8598
 31
0.0
  0
LINE
  8
0
 62
     0
 10
70.0056
 20
12.8598
 30
0.0
 11
279.557
 21
12.8598
 31
0.0
  0
LINE
  8
0
 62
     0
 10
279.557
 20
12.8598
 30
0.0
 11
279.557
 21
31.9098
 31
0.0
  0
LINE
  8
0
 62
     0
 10
279.557
 20
31.9098
 30
0.0
 11
298.607
 21
31.9098
 31
0.0
  0
LINE
  8
0
 62
     0
 10
298.607
 20
31.9098
 30
0.0
 11
298.607
 21
89.0626
 31
0.0
  0
LINE
  8
0
 62
     0
 10
298.607
 20
89.0626
 30
0.0
 11
70.0056
 21
89.0626
 31
0.0
  0
LINE
  8
0
 62
     0
 10
303.368
 20
89.0626
 30
0.0
 11
341.471
 21
89.0626
 31
0.0
  0
LINE
  8
0
 62
     0
 10
341.471
 20
89.0626
 30
0.0
 11
341.471
 21
50.9598
 31
0.0
  0
LINE
  8
0
 62
     0
 10
341.471
 20
50.9598
 30
0.0
 11
303.368
 21
50.9598
 31
0.0
  0
LINE
  8
0
 62
     0
 10
303.368
 20
50.9598
 30
0.0
 11
303.368
 21
89.0626
 31
0.0
  0
LINE
  8
0
 62
     0
 10
117.577
 20
94.0125
 30
0.0
 11
117.299
 21
93.872
 31
0.0
  0
LINE
  8
0
 62
     0
 10
117.299
 20
93.872
 30
0.0
 11
117.077
 21
93.6487
 31
0.0
  0
LINE
  8
0
 62
     0
 10
117.077
 20
93.6487
 30
0.0
 11
116.935
 21
93.3718
 31
0.0
  0
LINE
  8
0
 62
     0
 10
116.935
 20
93.3718
 30
0.0
 11
116.887
 21
93.0617
 31
0.0
  0
LINE
  8
0
 62
     0
 10
116.887
 20
93.0617
 30
0.0
 11
116.935
 21
92.7516
 31
0.0
  0
LINE
  8
0
 62
     0
 10
116.935
 20
92.7516
 30
0.0
 11
117.077
 21
92.4747
 31
0.0
  0
LINE
  8
0
 62
     0
 10
117.077
 20
92.4747
 30
0.0
 11
117.299
 21
92.2514
 31
0.0
  0
LINE
  8
0
 62
     0
 10
117.299
 20
92.2514
 30
0.0
 11
117.577
 21
92.1096
 31
0.0
  0
LINE
  8
0
 62
     0
 10
117.577
 20
92.1096
 30
0.0
 11
117.887
 21
92.0612
 31
0.0
  0
LINE
  8
0
 62
     0
 10
117.887
 20
92.0612
 30
0.0
 11
118.196
 21
92.1096
 31
0.0
  0
LINE
  8
0
 62
     0
 10
118.196
 20
92.1096
 30
0.0
 11
118.474
 21
92.2514
 31
0.0
  0
LINE
  8
0
 62
     0
 10
118.474
 20
92.2514
 30
0.0
 11
118.696
 21
92.4747
 31
0.0
  0
LINE
  8
0
 62
     0
 10
118.696
 20
92.4747
 30
0.0
 11
118.838
 21
92.7516
 31
0.0
  0
LINE
  8
0
 62
     0
 10
118.838
 20
92.7516
 30
0.0
 11
118.886
 21
93.0617
 31
0.0
  0
LINE
  8
0
 62
     0
 10
118.886
 20
93.0617
 30
0.0
 11
118.838
 21
93.3718
 31
0.0
  0
LINE
  8
0
 62
     0
 10
118.838
 20
93.3718
 30
0.0
 11
118.696
 21
93.6487
 31
0.0
  0
LINE
  8
0
 62
     0
 10
118.696
 20
93.6487
 30
0.0
 11
118.474
 21
93.872
 31
0.0
  0
LINE
  8
0
 62
     0
 10
118.474
 20
93.872
 30
0.0
 11
118.196
 21
94.0125
 31
0.0
  0
LINE
  8
0
 62
     0
 10
118.196
 20
94.0125
 30
0.0
 11
117.887
 21
94.0608
 31
0.0
  0
LINE
  8
0
 62
     0
 10
117.887
 20
94.0608
 30
0.0
 11
117.577
 21
94.0125
 31
0.0
  0
LINE
  8
0
 62
     0
 10
231.369
 20
94.0125
 30
0.0
 11
231.09
 21
93.872
 31
0.0
  0
LINE
  8
0
 62
     0
 10
231.09
 20
93.872
 30
0.0
 11
230.868
 21
93.6487
 31
0.0
  0
LINE
  8
0
 62
     0
 10
230.868
 20
93.6487
 30
0.0
 11
230.726
 21
93.3718
 31
0.0
  0
LINE
  8
0
 62
     0
 10
230.726
 20
93.3718
 30
0.0
 11
230.678
 21
93.0617
 31
0.0
  0
LINE
  8
0
 62
     0
 10
230.678
 20
93.0617
 30
0.0
 11
230.726
 21
92.7516
 31
0.0
  0
LINE
  8
0
 62
     0
 10
230.726
 20
92.7516
 30
0.0
 11
230.868
 21
92.4747
 31
0.0
  0
LINE
  8
0
 62
     0
 10
230.868
 20
92.4747
 30
0.0
 11
231.09
 21
92.2514
 31
0.0
  0
LINE
  8
0
 62
     0
 10
231.09
 20
92.2514
 30
0.0
 11
231.369
 21
92.1096
 31
0.0
  0
LINE
  8
0
 62
     0
 10
231.369
 20
92.1096
 30
0.0
 11
231.679
 21
92.0612
 31
0.0
  0
LINE
  8
0
 62
     0
 10
231.679
 20
92.0612
 30
0.0
 11
231.987
 21
92.1096
 31
0.0
  0
LINE
  8
0
 62
     0
 10
231.987
 20
92.1096
 30
0.0
 11
232.266
 21
92.2514
 31
0.0
  0
LINE
  8
0
 62
     0
 10
232.266
 20
92.2514
 30
0.0
 11
232.488
 21
92.4747
 31
0.0
  0
LINE
  8
0
 62
     0
 10
232.488
 20
92.4747
 30
0.0
 11
232.629
 21
92.7516
 31
0.0
  0
LINE
  8
0
 62
     0
 10
232.629
 20
92.7516
 30
0.0
 11
232.679
 21
93.0617
 31
0.0
  0
LINE
  8
0
 62
     0
 10
232.679
 20
93.0617
 30
0.0
 11
232.629
 21
93.3718
 31
0.0
  0
LINE
  8
0
 62
     0
 10
232.629
 20
93.3718
 30
0.0
 11
232.488
 21
93.6487
 31
0.0
  0
LINE
  8
0
 62
     0
 10
232.488
 20
93.6487
 30
0.0
 11
232.266
 21
93.872
 31
0.0
  0
LINE
  8
0
 62
     0
 10
232.266
 20
93.872
 30
0.0
 11
231.987
 21
94.0125
 31
0.0
  0
LINE
  8
0
 62
     0
 10
231.987
 20
94.0125
 30
0.0
 11
231.679
 21
94.0608
 31
0.0
  0
LINE
  8
0
 62
     0
 10
231.679
 20
94.0608
 30
0.0
 11
231.369
 21
94.0125
 31
0.0
  0
LINE
  8
0
 62
     0
 10
345.161
 20
94.0125
 30
0.0
 11
344.883
 21
93.872
 31
0.0
  0
LINE
  8
0
 62
     0
 10
344.883
 20
93.872
 30
0.0
 11
344.661
 21
93.6487
 31
0.0
  0
LINE
  8
0
 62
     0
 10
344.661
 20
93.6487
 30
0.0
 11
344.519
 21
93.3718
 31
0.0
  0
LINE
  8
0
 62
     0
 10
344.519
 20
93.3718
 30
0.0
 11
344.471
 21
93.0617
 31
0.0
  0
LINE
  8
0
 62
     0
 10
344.471
 20
93.0617
 30
0.0
 11
344.519
 21
92.7516
 31
0.0
  0
LINE
  8
0
 62
     0
 10
344.519
 20
92.7516
 30
0.0
 11
344.661
 21
92.4747
 31
0.0
  0
LINE
  8
0
 62
     0
 10
344.661
 20
92.4747
 30
0.0
 11
344.883
 21
92.2514
 31
0.0
  0
LINE
  8
0
 62
     0
 10
344.883
 20
92.2514
 30
0.0
 11
345.161
 21
92.1096
 31
0.0
  0
LINE
  8
0
 62
     0
 10
345.161
 20
92.1096
 30
0.0
 11
345.471
 21
92.0612
 31
0.0
  0
LINE
  8
0
 62
     0
 10
345.471
 20
92.0612
 30
0.0
 11
345.78
 21
92.1096
 31
0.0
  0
LINE
  8
0
 62
     0
 10
345.78
 20
92.1096
 30
0.0
 11
346.057
 21
92.2514
 31
0.0
  0
LINE
  8
0
 62
     0
 10
346.057
 20
92.2514
 30
0.0
 11
346.28
 21
92.4747
 31
0.0
  0
LINE
  8
0
 62
     0
 10
346.28
 20
92.4747
 30
0.0
 11
346.422
 21
92.7516
 31
0.0
  0
LINE
  8
0
 62
     0
 10
346.422
 20
92.7516
 30
0.0
 11
346.47
 21
93.0617
 31
0.0
  0
LINE
  8
0
 62
     0
 10
346.47
 20
93.0617
 30
0.0
 11
346.422
 21
93.3718
 31
0.0
  0
LINE
  8
0
 62
     0
 10
346.422
 20
93.3718
 30
0.0
 11
346.28
 21
93.6487
 31
0.0
  0
LINE
  8
0
 62
     0
 10
346.28
 20
93.6487
 30
0.0
 11
346.057
 21
93.872
 31
0.0
  0
LINE
  8
0
 62
     0
 10
346.057
 20
93.872
 30
0.0
 11
345.78
 21
94.0125
 31
0.0
  0
LINE
  8
0
 62
     0
 10
345.78
 20
94.0125
 30
0.0
 11
345.471
 21
94.0608
 31
0.0
  0
LINE
  8
0
 62
     0
 10
345.471
 20
94.0608
 30
0.0
 11
345.161
 21
94.0125
 31
0.0
  0
LINE
  8
0
 62
     0
 10
3.78411
 20
94.0125
 30
0.0
 11
3.50711
 21
93.872
 31
0.0
  0
LINE
  8
0
 62
     0
 10
3.50711
 20
93.872
 30
0.0
 11
3.28386
 21
93.6487
 31
0.0
  0
LINE
  8
0
 62
     0
 10
3.28386
 20
93.6487
 30
0.0
 11
3.14331
 21
93.3718
 31
0.0
  0
LINE
  8
0
 62
     0
 10
3.14331
 20
93.3718
 30
0.0
 11
3.0937
 21
93.0617
 31
0.0
  0
LINE
  8
0
 62
     0
 10
3.0937
 20
93.0617
 30
0.0
 11
3.14331
 21
92.7516
 31
0.0
  0
LINE
  8
0
 62
     0
 10
3.14331
 20
92.7516
 30
0.0
 11
3.28386
 21
92.4747
 31
0.0
  0
LINE
  8
0
 62
     0
 10
3.28386
 20
92.4747
 30
0.0
 11
3.50711
 21
92.2514
 31
0.0
  0
LINE
  8
0
 62
     0
 10
3.50711
 20
92.2514
 30
0.0
 11
3.78411
 21
92.1096
 31
0.0
  0
LINE
  8
0
 62
     0
 10
3.78411
 20
92.1096
 30
0.0
 11
4.09416
 21
92.0612
 31
0.0
  0
LINE
  8
0
 62
     0
 10
4.09416
 20
92.0612
 30
0.0
 11
4.40422
 21
92.1096
 31
0.0
  0
LINE
  8
0
 62
     0
 10
4.40422
 20
92.1096
 30
0.0
 11
4.68118
 21
92.2514
 31
0.0
  0
LINE
  8
0
 62
     0
 10
4.68118
 20
92.2514
 30
0.0
 11
4.90442
 21
92.4747
 31
0.0
  0
LINE
  8
0
 62
     0
 10
4.90442
 20
92.4747
 30
0.0
 11
5.04638
 21
92.7516
 31
0.0
  0
LINE
  8
0
 62
     0
 10
5.04638
 20
92.7516
 30
0.0
 11
5.0946
 21
93.0617
 31
0.0
  0
LINE
  8
0
 62
     0
 10
5.0946
 20
93.0617
 30
0.0
 11
5.04638
 21
93.3718
 31
0.0
  0
LINE
  8
0
 62
     0
 10
5.04638
 20
93.3718
 30
0.0
 11
4.90442
 21
93.6487
 31
0.0
  0
LINE
  8
0
 62
     0
 10
4.90442
 20
93.6487
 30
0.0
 11
4.68118
 21
93.872
 31
0.0
  0
LINE
  8
0
 62
     0
 10
4.68118
 20
93.872
 30
0.0
 11
4.40422
 21
94.0125
 31
0.0
  0
LINE
  8
0
 62
     0
 10
4.40422
 20
94.0125
 30
0.0
 11
4.09416
 21
94.0608
 31
0.0
  0
LINE
  8
0
 62
     0
 10
4.09416
 20
94.0608
 30
0.0
 11
3.78411
 21
94.0125
 31
0.0
  0
ENDSEC
  0
EOF
